G04 (created by PCBNEW (2013-dec-23)-stable) date Wed 18 Mar 2015 07:36:31 PM CET*
%MOIN*%
G04 Gerber Fmt 3.4, Leading zero omitted, Abs format*
%FSLAX34Y34*%
G01*
G70*
G90*
G04 APERTURE LIST*
%ADD10C,0.00590551*%
%ADD11C,0.00787402*%
%ADD12C,0.005*%
%ADD13C,0.008*%
%ADD14C,0.00511811*%
G04 APERTURE END LIST*
G54D10*
G54D11*
X94800Y-75340D02*
X94600Y-75140D01*
X94380Y-75340D02*
X94800Y-75340D01*
X94580Y-75140D02*
X94380Y-75340D01*
G54D12*
X93356Y-76447D02*
X93435Y-76447D01*
X93396Y-76053D02*
X93396Y-76447D01*
X93356Y-76447D02*
X93356Y-76053D01*
X93356Y-76053D02*
X93435Y-76053D01*
X93868Y-75974D02*
X93632Y-75974D01*
X93632Y-75974D02*
X93632Y-76132D01*
X93632Y-76132D02*
X93474Y-76132D01*
X93474Y-76132D02*
X93474Y-76368D01*
X93474Y-76368D02*
X93632Y-76368D01*
X93632Y-76368D02*
X93632Y-76526D01*
X93632Y-76526D02*
X93868Y-76526D01*
X93868Y-76526D02*
X93868Y-76368D01*
X93868Y-76368D02*
X94026Y-76368D01*
X94026Y-76368D02*
X94026Y-76171D01*
X94026Y-76171D02*
X94026Y-76132D01*
X94026Y-76132D02*
X93868Y-76132D01*
X93868Y-76132D02*
X93868Y-75974D01*
X94121Y-76250D02*
G75*
G03X94121Y-76250I-371J0D01*
G74*
G01*
X94183Y-75817D02*
X94183Y-76683D01*
X94183Y-76683D02*
X93317Y-76683D01*
X93317Y-76683D02*
X93317Y-75817D01*
X93317Y-75817D02*
X94183Y-75817D01*
X93300Y-75250D02*
X94200Y-75250D01*
X94200Y-75250D02*
X94200Y-75750D01*
X94200Y-75750D02*
X93300Y-75750D01*
X93300Y-75750D02*
X93300Y-75250D01*
X94200Y-77250D02*
X93300Y-77250D01*
X93300Y-77250D02*
X93300Y-76750D01*
X93300Y-76750D02*
X94200Y-76750D01*
X94200Y-76750D02*
X94200Y-77250D01*
G54D13*
X95000Y-75000D02*
X95000Y-62000D01*
X93000Y-62000D02*
X93000Y-75000D01*
X93000Y-75000D02*
X95000Y-75000D01*
X95000Y-62000D02*
X93000Y-62000D01*
G54D14*
X94715Y-76380D02*
X94603Y-76459D01*
X94715Y-76515D02*
X94479Y-76515D01*
X94479Y-76425D01*
X94490Y-76403D01*
X94501Y-76391D01*
X94524Y-76380D01*
X94558Y-76380D01*
X94580Y-76391D01*
X94591Y-76403D01*
X94603Y-76425D01*
X94603Y-76515D01*
X94479Y-76313D02*
X94715Y-76234D01*
X94479Y-76155D01*
X94715Y-75953D02*
X94715Y-76088D01*
X94715Y-76020D02*
X94479Y-76020D01*
X94513Y-76043D01*
X94535Y-76065D01*
X94546Y-76088D01*
X93195Y-75551D02*
X93083Y-75630D01*
X93195Y-75686D02*
X92959Y-75686D01*
X92959Y-75596D01*
X92970Y-75574D01*
X92981Y-75563D01*
X93004Y-75551D01*
X93038Y-75551D01*
X93060Y-75563D01*
X93071Y-75574D01*
X93083Y-75596D01*
X93083Y-75686D01*
X93195Y-75326D02*
X93195Y-75461D01*
X93195Y-75394D02*
X92959Y-75394D01*
X92993Y-75416D01*
X93015Y-75439D01*
X93026Y-75461D01*
X93195Y-75214D02*
X93195Y-75169D01*
X93184Y-75146D01*
X93173Y-75135D01*
X93139Y-75113D01*
X93094Y-75101D01*
X93004Y-75101D01*
X92981Y-75113D01*
X92970Y-75124D01*
X92959Y-75146D01*
X92959Y-75191D01*
X92970Y-75214D01*
X92981Y-75225D01*
X93004Y-75236D01*
X93060Y-75236D01*
X93083Y-75225D01*
X93094Y-75214D01*
X93105Y-75191D01*
X93105Y-75146D01*
X93094Y-75124D01*
X93083Y-75113D01*
X93060Y-75101D01*
X93195Y-77201D02*
X93083Y-77280D01*
X93195Y-77336D02*
X92959Y-77336D01*
X92959Y-77246D01*
X92970Y-77224D01*
X92981Y-77213D01*
X93004Y-77201D01*
X93038Y-77201D01*
X93060Y-77213D01*
X93071Y-77224D01*
X93083Y-77246D01*
X93083Y-77336D01*
X92981Y-77111D02*
X92970Y-77100D01*
X92959Y-77078D01*
X92959Y-77021D01*
X92970Y-76999D01*
X92981Y-76988D01*
X93004Y-76976D01*
X93026Y-76976D01*
X93060Y-76988D01*
X93195Y-77123D01*
X93195Y-76976D01*
X93195Y-76751D02*
X93195Y-76886D01*
X93195Y-76819D02*
X92959Y-76819D01*
X92993Y-76841D01*
X93015Y-76864D01*
X93026Y-76886D01*
M02*
