G04 (created by PCBNEW (2013-dec-23)-stable) date Wed 18 Mar 2015 07:36:31 PM CET*
%MOIN*%
G04 Gerber Fmt 3.4, Leading zero omitted, Abs format*
%FSLAX34Y34*%
G01*
G70*
G90*
G04 APERTURE LIST*
%ADD10C,0.00590551*%
%ADD11O,0.1X0.0590551*%
%ADD12R,0.0276X0.0236*%
%ADD13R,0.0276X0.0354*%
%ADD14R,0.025X0.045*%
%ADD15R,0.06X0.06*%
%ADD16C,0.06*%
G04 APERTURE END LIST*
G54D10*
G54D11*
X92250Y-69000D03*
X92250Y-68000D03*
X92250Y-67000D03*
X92250Y-66000D03*
X92250Y-65000D03*
X92250Y-64000D03*
X92250Y-63000D03*
X92250Y-62000D03*
X92250Y-77000D03*
X92250Y-76000D03*
X92250Y-75000D03*
X92250Y-74000D03*
X92250Y-73000D03*
X92250Y-72000D03*
X92250Y-71000D03*
X92250Y-70000D03*
G54D12*
X93278Y-75994D03*
G54D13*
X94222Y-76250D03*
G54D12*
X93278Y-76506D03*
G54D14*
X93450Y-75500D03*
X94050Y-75500D03*
X94050Y-77000D03*
X93450Y-77000D03*
G54D15*
X94500Y-74500D03*
G54D16*
X93500Y-74500D03*
X94500Y-73500D03*
X93500Y-73500D03*
X94500Y-72500D03*
X93500Y-72500D03*
X94500Y-71500D03*
X93500Y-71500D03*
X94500Y-70500D03*
X93500Y-70500D03*
X94500Y-69500D03*
X93500Y-69500D03*
X94500Y-68500D03*
X93500Y-68500D03*
X94500Y-67500D03*
X93500Y-67500D03*
X94500Y-66500D03*
X93500Y-66500D03*
X94500Y-65500D03*
X93500Y-65500D03*
X94500Y-64500D03*
X93500Y-64500D03*
X94500Y-63500D03*
X93500Y-63500D03*
X94500Y-62500D03*
X93500Y-62500D03*
M02*
