M48
;DRILL file {Pcbnew (2013-dec-23)-stable} date Wed 18 Mar 2015 07:36:40 PM CET
;FORMAT={-:-/ absolute / inch / decimal}
FMAT,2
INCH,TZ
T1C0.039
T2C0.040
%
G90
G05
M72
T1
X9.225Y-6.2
X9.225Y-6.3
X9.225Y-6.4
X9.225Y-6.5
X9.225Y-6.6
X9.225Y-6.7
X9.225Y-6.8
X9.225Y-6.9
X9.225Y-7.
X9.225Y-7.1
X9.225Y-7.2
X9.225Y-7.3
X9.225Y-7.4
X9.225Y-7.5
X9.225Y-7.6
X9.225Y-7.7
T2
X9.35Y-6.25
X9.35Y-6.35
X9.35Y-6.45
X9.35Y-6.55
X9.35Y-6.65
X9.35Y-6.75
X9.35Y-6.85
X9.35Y-6.95
X9.35Y-7.05
X9.35Y-7.15
X9.35Y-7.25
X9.35Y-7.35
X9.35Y-7.45
X9.45Y-6.25
X9.45Y-6.35
X9.45Y-6.45
X9.45Y-6.55
X9.45Y-6.65
X9.45Y-6.75
X9.45Y-6.85
X9.45Y-6.95
X9.45Y-7.05
X9.45Y-7.15
X9.45Y-7.25
X9.45Y-7.35
X9.45Y-7.45
T0
M30
