G04 (created by PCBNEW (2013-dec-23)-stable) date Wed 18 Mar 2015 07:36:31 PM CET*
%MOIN*%
G04 Gerber Fmt 3.4, Leading zero omitted, Abs format*
%FSLAX34Y34*%
G01*
G70*
G90*
G04 APERTURE LIST*
%ADD10C,0.00590551*%
%ADD11O,0.1X0.0590551*%
%ADD12R,0.06X0.06*%
%ADD13C,0.06*%
%ADD14C,0.00787402*%
G04 APERTURE END LIST*
G54D10*
G54D11*
X92250Y-69000D03*
X92250Y-68000D03*
X92250Y-67000D03*
X92250Y-66000D03*
X92250Y-65000D03*
X92250Y-64000D03*
X92250Y-63000D03*
X92250Y-62000D03*
X92250Y-77000D03*
X92250Y-76000D03*
X92250Y-75000D03*
X92250Y-74000D03*
X92250Y-73000D03*
X92250Y-72000D03*
X92250Y-71000D03*
X92250Y-70000D03*
G54D12*
X94500Y-74500D03*
G54D13*
X93500Y-74500D03*
X94500Y-73500D03*
X93500Y-73500D03*
X94500Y-72500D03*
X93500Y-72500D03*
X94500Y-71500D03*
X93500Y-71500D03*
X94500Y-70500D03*
X93500Y-70500D03*
X94500Y-69500D03*
X93500Y-69500D03*
X94500Y-68500D03*
X93500Y-68500D03*
X94500Y-67500D03*
X93500Y-67500D03*
X94500Y-66500D03*
X93500Y-66500D03*
X94500Y-65500D03*
X93500Y-65500D03*
X94500Y-64500D03*
X93500Y-64500D03*
X94500Y-63500D03*
X93500Y-63500D03*
X94500Y-62500D03*
X93500Y-62500D03*
G54D14*
X94000Y-68000D02*
X94500Y-68500D01*
X93400Y-68000D02*
X94000Y-68000D01*
X92900Y-67500D02*
X93400Y-68000D01*
X92900Y-65500D02*
X92900Y-67500D01*
X92400Y-65000D02*
X92900Y-65500D01*
X92250Y-65000D02*
X92400Y-65000D01*
X92000Y-63000D02*
X92250Y-63000D01*
X91600Y-63400D02*
X92000Y-63000D01*
X91600Y-73200D02*
X91600Y-63400D01*
X91900Y-73500D02*
X91600Y-73200D01*
X93500Y-73500D02*
X91900Y-73500D01*
X92300Y-73000D02*
X92250Y-73000D01*
X93000Y-72300D02*
X92300Y-73000D01*
X93000Y-69000D02*
X93000Y-72300D01*
X93500Y-68500D02*
X93000Y-69000D01*
X94000Y-75250D02*
X92250Y-77000D01*
X94000Y-72900D02*
X94000Y-75250D01*
X93600Y-72500D02*
X94000Y-72900D01*
X93500Y-72500D02*
X93600Y-72500D01*
X94000Y-65000D02*
X93500Y-65500D01*
X94000Y-62300D02*
X94000Y-65000D01*
X93700Y-62000D02*
X94000Y-62300D01*
X92250Y-62000D02*
X93700Y-62000D01*
X94000Y-67000D02*
X94500Y-67500D01*
X93400Y-67000D02*
X94000Y-67000D01*
X93100Y-66700D02*
X93400Y-67000D01*
X93100Y-64800D02*
X93100Y-66700D01*
X92300Y-64000D02*
X93100Y-64800D01*
X92250Y-64000D02*
X92300Y-64000D01*
M02*
