G04 (created by PCBNEW (2014-01-10 BZR 4027)-stable) date Thursday, 14 August 2014 18:29:29*
%MOIN*%
G04 Gerber Fmt 3.4, Leading zero omitted, Abs format*
%FSLAX34Y34*%
G01*
G70*
G90*
G04 APERTURE LIST*
%ADD10C,0.00590551*%
%ADD11C,0.0001*%
%ADD12C,0.189*%
%ADD13R,0.189X0.189*%
%ADD14O,0.14963X0.11026*%
%ADD15O,0.1X0.0590551*%
%ADD16C,0.019685*%
%ADD17R,0.06X0.06*%
%ADD18C,0.06*%
%ADD19R,0.065X0.065*%
%ADD20C,0.065*%
%ADD21O,0.138385X0.0767717*%
%ADD22O,0.06X0.1*%
%ADD23C,0.125*%
%ADD24C,0.0787*%
%ADD25C,0.0629921*%
%ADD26C,0.07*%
%ADD27R,0.07X0.07*%
%ADD28C,0.023622*%
G04 APERTURE END LIST*
G54D10*
G54D11*
G36*
X69628Y-72461D02*
X69650Y-72460D01*
X69666Y-72455D01*
X69678Y-72443D01*
X69687Y-72423D01*
X69693Y-72391D01*
X69697Y-72346D01*
X69699Y-72284D01*
X69701Y-72226D01*
X69706Y-72027D01*
X69746Y-72098D01*
X69780Y-72153D01*
X69807Y-72191D01*
X69830Y-72215D01*
X69852Y-72227D01*
X69867Y-72229D01*
X69895Y-72220D01*
X69921Y-72199D01*
X69937Y-72172D01*
X69940Y-72158D01*
X69935Y-72142D01*
X69922Y-72114D01*
X69902Y-72077D01*
X69887Y-72050D01*
X69865Y-72011D01*
X69848Y-71980D01*
X69839Y-71960D01*
X69837Y-71954D01*
X69847Y-71958D01*
X69872Y-71971D01*
X69909Y-71990D01*
X69955Y-72016D01*
X70002Y-72043D01*
X70056Y-72073D01*
X70105Y-72099D01*
X70145Y-72119D01*
X70174Y-72132D01*
X70187Y-72135D01*
X70213Y-72127D01*
X70239Y-72108D01*
X70257Y-72083D01*
X70262Y-72065D01*
X70255Y-72041D01*
X70244Y-72023D01*
X70229Y-72011D01*
X70200Y-71991D01*
X70158Y-71965D01*
X70109Y-71936D01*
X70059Y-71907D01*
X69893Y-71814D01*
X70009Y-71814D01*
X70072Y-71812D01*
X70117Y-71807D01*
X70147Y-71797D01*
X70164Y-71781D01*
X70171Y-71758D01*
X70172Y-71742D01*
X70169Y-71716D01*
X70160Y-71697D01*
X70140Y-71683D01*
X70108Y-71675D01*
X70059Y-71670D01*
X70021Y-71668D01*
X69905Y-71663D01*
X70055Y-71576D01*
X70107Y-71545D01*
X70154Y-71517D01*
X70192Y-71492D01*
X70219Y-71475D01*
X70228Y-71468D01*
X70247Y-71439D01*
X70250Y-71407D01*
X70239Y-71377D01*
X70215Y-71355D01*
X70183Y-71346D01*
X70165Y-71352D01*
X70133Y-71366D01*
X70090Y-71388D01*
X70040Y-71415D01*
X70007Y-71435D01*
X69956Y-71465D01*
X69910Y-71491D01*
X69874Y-71512D01*
X69849Y-71525D01*
X69841Y-71529D01*
X69839Y-71524D01*
X69847Y-71504D01*
X69863Y-71472D01*
X69878Y-71444D01*
X69907Y-71390D01*
X69923Y-71348D01*
X69927Y-71317D01*
X69918Y-71292D01*
X69898Y-71271D01*
X69897Y-71271D01*
X69870Y-71257D01*
X69846Y-71257D01*
X69821Y-71272D01*
X69793Y-71305D01*
X69761Y-71355D01*
X69758Y-71359D01*
X69736Y-71398D01*
X69717Y-71429D01*
X69704Y-71450D01*
X69700Y-71455D01*
X69699Y-71446D01*
X69698Y-71418D01*
X69696Y-71372D01*
X69695Y-71311D01*
X69693Y-71237D01*
X69692Y-71150D01*
X69691Y-71052D01*
X69689Y-70946D01*
X69688Y-70833D01*
X69688Y-70804D01*
X69687Y-70670D01*
X69686Y-70556D01*
X69685Y-70459D01*
X69684Y-70378D01*
X69682Y-70311D01*
X69681Y-70256D01*
X69679Y-70212D01*
X69677Y-70177D01*
X69675Y-70150D01*
X69673Y-70128D01*
X69669Y-70110D01*
X69666Y-70095D01*
X69661Y-70080D01*
X69660Y-70077D01*
X69626Y-70004D01*
X69574Y-69937D01*
X69503Y-69876D01*
X69416Y-69824D01*
X69318Y-69782D01*
X69281Y-69768D01*
X69252Y-69757D01*
X69236Y-69751D01*
X69235Y-69750D01*
X69241Y-69743D01*
X69259Y-69723D01*
X69287Y-69695D01*
X69324Y-69659D01*
X69343Y-69640D01*
X69443Y-69540D01*
X69523Y-69446D01*
X69585Y-69359D01*
X69627Y-69279D01*
X69650Y-69204D01*
X69655Y-69135D01*
X69642Y-69071D01*
X69615Y-69019D01*
X69569Y-68968D01*
X69503Y-68925D01*
X69419Y-68891D01*
X69316Y-68865D01*
X69226Y-68851D01*
X69120Y-68838D01*
X69282Y-68651D01*
X69362Y-68558D01*
X69429Y-68478D01*
X69485Y-68412D01*
X69531Y-68356D01*
X69567Y-68309D01*
X69597Y-68269D01*
X69619Y-68236D01*
X69633Y-68215D01*
X69660Y-68160D01*
X69670Y-68114D01*
X69662Y-68077D01*
X69644Y-68054D01*
X69629Y-68042D01*
X69612Y-68035D01*
X69588Y-68033D01*
X69549Y-68034D01*
X69543Y-68035D01*
X69499Y-68040D01*
X69454Y-68050D01*
X69401Y-68067D01*
X69351Y-68086D01*
X69307Y-68103D01*
X69272Y-68116D01*
X69249Y-68122D01*
X69241Y-68122D01*
X69241Y-68122D01*
X69251Y-68110D01*
X69271Y-68086D01*
X69298Y-68054D01*
X69322Y-68028D01*
X69419Y-67914D01*
X69502Y-67808D01*
X69573Y-67709D01*
X69630Y-67619D01*
X69672Y-67538D01*
X69700Y-67468D01*
X69711Y-67409D01*
X69712Y-67398D01*
X69703Y-67338D01*
X69676Y-67289D01*
X69634Y-67253D01*
X69579Y-67230D01*
X69553Y-67222D01*
X69539Y-67215D01*
X69537Y-67212D01*
X69543Y-67201D01*
X69555Y-67176D01*
X69573Y-67141D01*
X69584Y-67117D01*
X69636Y-66992D01*
X69669Y-66863D01*
X69683Y-66727D01*
X69684Y-66698D01*
X69683Y-66628D01*
X69678Y-66575D01*
X69668Y-66536D01*
X69650Y-66508D01*
X69626Y-66488D01*
X69610Y-66479D01*
X69565Y-66469D01*
X69517Y-66479D01*
X69468Y-66509D01*
X69415Y-66560D01*
X69361Y-66632D01*
X69304Y-66724D01*
X69252Y-66823D01*
X69225Y-66880D01*
X69196Y-66944D01*
X69169Y-67004D01*
X69156Y-67038D01*
X69139Y-67080D01*
X69124Y-67113D01*
X69114Y-67134D01*
X69109Y-67139D01*
X69098Y-67130D01*
X69092Y-67105D01*
X69092Y-67067D01*
X69095Y-67021D01*
X69103Y-66971D01*
X69115Y-66920D01*
X69121Y-66897D01*
X69134Y-66846D01*
X69137Y-66809D01*
X69127Y-66782D01*
X69107Y-66762D01*
X69074Y-66748D01*
X69043Y-66753D01*
X69015Y-66778D01*
X69004Y-66797D01*
X68980Y-66861D01*
X68962Y-66937D01*
X68951Y-67017D01*
X68949Y-67067D01*
X68950Y-67114D01*
X68954Y-67148D01*
X68963Y-67176D01*
X68975Y-67201D01*
X69014Y-67252D01*
X69065Y-67286D01*
X69118Y-67301D01*
X69149Y-67305D01*
X69175Y-67301D01*
X69196Y-67290D01*
X69215Y-67267D01*
X69234Y-67230D01*
X69256Y-67176D01*
X69266Y-67150D01*
X69297Y-67073D01*
X69333Y-66993D01*
X69371Y-66912D01*
X69409Y-66836D01*
X69446Y-66769D01*
X69479Y-66714D01*
X69496Y-66691D01*
X69540Y-66631D01*
X69543Y-66687D01*
X69542Y-66731D01*
X69535Y-66789D01*
X69523Y-66853D01*
X69507Y-66918D01*
X69490Y-66977D01*
X69483Y-66997D01*
X69447Y-67073D01*
X69398Y-67145D01*
X69343Y-67206D01*
X69314Y-67231D01*
X69273Y-67266D01*
X69252Y-67296D01*
X69247Y-67325D01*
X69254Y-67347D01*
X69279Y-67372D01*
X69316Y-67383D01*
X69361Y-67378D01*
X69402Y-67372D01*
X69447Y-67368D01*
X69490Y-67368D01*
X69528Y-67371D01*
X69553Y-67377D01*
X69562Y-67383D01*
X69564Y-67415D01*
X69551Y-67460D01*
X69524Y-67517D01*
X69483Y-67585D01*
X69428Y-67664D01*
X69362Y-67752D01*
X69283Y-67850D01*
X69192Y-67955D01*
X69092Y-68068D01*
X68991Y-68178D01*
X68950Y-68222D01*
X68922Y-68254D01*
X68905Y-68277D01*
X68895Y-68296D01*
X68892Y-68312D01*
X68892Y-68317D01*
X68900Y-68353D01*
X68924Y-68377D01*
X68957Y-68386D01*
X68978Y-68382D01*
X69016Y-68371D01*
X69067Y-68354D01*
X69128Y-68331D01*
X69198Y-68304D01*
X69274Y-68274D01*
X69346Y-68244D01*
X69390Y-68227D01*
X69426Y-68213D01*
X69451Y-68205D01*
X69460Y-68204D01*
X69461Y-68207D01*
X69458Y-68214D01*
X69450Y-68225D01*
X69437Y-68242D01*
X69417Y-68267D01*
X69388Y-68301D01*
X69350Y-68346D01*
X69302Y-68403D01*
X69242Y-68473D01*
X69197Y-68526D01*
X69124Y-68612D01*
X69064Y-68684D01*
X69016Y-68743D01*
X68978Y-68792D01*
X68951Y-68832D01*
X68933Y-68864D01*
X68924Y-68890D01*
X68921Y-68912D01*
X68925Y-68930D01*
X68934Y-68948D01*
X68942Y-68958D01*
X68951Y-68967D01*
X68963Y-68974D01*
X68981Y-68980D01*
X69009Y-68983D01*
X69051Y-68987D01*
X69110Y-68990D01*
X69111Y-68990D01*
X69226Y-69000D01*
X69322Y-69016D01*
X69398Y-69037D01*
X69455Y-69065D01*
X69494Y-69098D01*
X69504Y-69114D01*
X69511Y-69148D01*
X69503Y-69194D01*
X69481Y-69248D01*
X69464Y-69280D01*
X69438Y-69318D01*
X69400Y-69366D01*
X69352Y-69420D01*
X69297Y-69479D01*
X69239Y-69538D01*
X69180Y-69594D01*
X69124Y-69644D01*
X69098Y-69666D01*
X69052Y-69705D01*
X69021Y-69736D01*
X69004Y-69762D01*
X69000Y-69785D01*
X69005Y-69810D01*
X69005Y-69812D01*
X69011Y-69824D01*
X69021Y-69834D01*
X69037Y-69843D01*
X69064Y-69854D01*
X69103Y-69866D01*
X69158Y-69883D01*
X69170Y-69886D01*
X69274Y-69920D01*
X69358Y-69956D01*
X69423Y-69994D01*
X69472Y-70038D01*
X69506Y-70086D01*
X69511Y-70095D01*
X69536Y-70152D01*
X69541Y-70809D01*
X69547Y-71466D01*
X69496Y-71381D01*
X69467Y-71333D01*
X69446Y-71300D01*
X69430Y-71280D01*
X69416Y-71269D01*
X69402Y-71264D01*
X69386Y-71263D01*
X69353Y-71267D01*
X69332Y-71281D01*
X69318Y-71302D01*
X69311Y-71328D01*
X69316Y-71357D01*
X69335Y-71395D01*
X69342Y-71409D01*
X69371Y-71456D01*
X69393Y-71495D01*
X69409Y-71524D01*
X69415Y-71539D01*
X69414Y-71541D01*
X69336Y-71496D01*
X69263Y-71455D01*
X69198Y-71420D01*
X69143Y-71391D01*
X69100Y-71371D01*
X69070Y-71359D01*
X69060Y-71357D01*
X69026Y-71366D01*
X69001Y-71393D01*
X68992Y-71411D01*
X68989Y-71429D01*
X68994Y-71447D01*
X69009Y-71466D01*
X69035Y-71487D01*
X69075Y-71514D01*
X69130Y-71548D01*
X69171Y-71571D01*
X69228Y-71603D01*
X69273Y-71631D01*
X69305Y-71652D01*
X69322Y-71666D01*
X69324Y-71671D01*
X69308Y-71674D01*
X69278Y-71677D01*
X69237Y-71678D01*
X69212Y-71678D01*
X69163Y-71679D01*
X69131Y-71682D01*
X69111Y-71687D01*
X69099Y-71695D01*
X69097Y-71697D01*
X69080Y-71725D01*
X69078Y-71758D01*
X69082Y-71773D01*
X69092Y-71794D01*
X69113Y-71809D01*
X69147Y-71819D01*
X69196Y-71823D01*
X69242Y-71824D01*
X69343Y-71824D01*
X69182Y-71919D01*
X69129Y-71950D01*
X69083Y-71979D01*
X69045Y-72003D01*
X69019Y-72021D01*
X69009Y-72030D01*
X68996Y-72061D01*
X69001Y-72094D01*
X69021Y-72123D01*
X69023Y-72124D01*
X69047Y-72139D01*
X69066Y-72146D01*
X69067Y-72146D01*
X69079Y-72141D01*
X69107Y-72127D01*
X69144Y-72107D01*
X69190Y-72082D01*
X69239Y-72055D01*
X69290Y-72026D01*
X69336Y-71998D01*
X69377Y-71974D01*
X69398Y-71960D01*
X69423Y-71945D01*
X69401Y-71988D01*
X69383Y-72022D01*
X69360Y-72062D01*
X69348Y-72084D01*
X69326Y-72127D01*
X69318Y-72161D01*
X69324Y-72190D01*
X69333Y-72206D01*
X69356Y-72223D01*
X69388Y-72229D01*
X69420Y-72223D01*
X69435Y-72213D01*
X69447Y-72197D01*
X69466Y-72168D01*
X69488Y-72130D01*
X69501Y-72108D01*
X69550Y-72019D01*
X69556Y-72223D01*
X69558Y-72299D01*
X69561Y-72357D01*
X69565Y-72399D01*
X69571Y-72428D01*
X69580Y-72447D01*
X69593Y-72457D01*
X69611Y-72460D01*
X69628Y-72461D01*
X69628Y-72461D01*
X69628Y-72461D01*
G37*
G36*
X69582Y-62798D02*
X69614Y-62786D01*
X69624Y-62777D01*
X69629Y-62771D01*
X69632Y-62763D01*
X69635Y-62752D01*
X69638Y-62736D01*
X69640Y-62712D01*
X69641Y-62679D01*
X69642Y-62636D01*
X69643Y-62581D01*
X69644Y-62511D01*
X69644Y-62425D01*
X69644Y-62322D01*
X69644Y-62223D01*
X69644Y-62099D01*
X69644Y-61993D01*
X69643Y-61904D01*
X69642Y-61831D01*
X69640Y-61771D01*
X69638Y-61724D01*
X69634Y-61686D01*
X69629Y-61657D01*
X69623Y-61634D01*
X69616Y-61616D01*
X69606Y-61602D01*
X69595Y-61588D01*
X69583Y-61575D01*
X69539Y-61542D01*
X69489Y-61527D01*
X69448Y-61528D01*
X69403Y-61538D01*
X69346Y-61553D01*
X69286Y-61572D01*
X69229Y-61593D01*
X69215Y-61598D01*
X69151Y-61623D01*
X69150Y-61585D01*
X69148Y-61553D01*
X69141Y-61512D01*
X69136Y-61488D01*
X69122Y-61428D01*
X69217Y-61369D01*
X69345Y-61283D01*
X69454Y-61201D01*
X69542Y-61122D01*
X69609Y-61046D01*
X69657Y-60975D01*
X69664Y-60961D01*
X69682Y-60918D01*
X69692Y-60882D01*
X69695Y-60841D01*
X69696Y-60815D01*
X69695Y-60770D01*
X69690Y-60740D01*
X69681Y-60717D01*
X69672Y-60704D01*
X69637Y-60670D01*
X69585Y-60641D01*
X69521Y-60621D01*
X69504Y-60617D01*
X69441Y-60610D01*
X69361Y-60606D01*
X69269Y-60608D01*
X69168Y-60614D01*
X69064Y-60624D01*
X68958Y-60638D01*
X68866Y-60653D01*
X68829Y-60660D01*
X68810Y-60662D01*
X68805Y-60660D01*
X68813Y-60654D01*
X68819Y-60650D01*
X68871Y-60615D01*
X68932Y-60573D01*
X69000Y-60526D01*
X69073Y-60475D01*
X69148Y-60420D01*
X69226Y-60365D01*
X69304Y-60310D01*
X69378Y-60255D01*
X69449Y-60204D01*
X69513Y-60156D01*
X69569Y-60114D01*
X69615Y-60079D01*
X69649Y-60052D01*
X69669Y-60035D01*
X69674Y-60030D01*
X69679Y-59993D01*
X69667Y-59961D01*
X69642Y-59939D01*
X69610Y-59932D01*
X69591Y-59934D01*
X69556Y-59940D01*
X69508Y-59950D01*
X69450Y-59962D01*
X69387Y-59976D01*
X69379Y-59978D01*
X69256Y-60005D01*
X69130Y-60032D01*
X69006Y-60057D01*
X68881Y-60081D01*
X68761Y-60104D01*
X68647Y-60124D01*
X68541Y-60142D01*
X68446Y-60157D01*
X68364Y-60169D01*
X68296Y-60177D01*
X68246Y-60181D01*
X68232Y-60181D01*
X68180Y-60181D01*
X68206Y-60160D01*
X68285Y-60099D01*
X68378Y-60031D01*
X68480Y-59959D01*
X68591Y-59884D01*
X68708Y-59807D01*
X68828Y-59730D01*
X68948Y-59654D01*
X69068Y-59581D01*
X69182Y-59512D01*
X69291Y-59449D01*
X69391Y-59394D01*
X69480Y-59348D01*
X69555Y-59311D01*
X69574Y-59303D01*
X69615Y-59285D01*
X69651Y-59267D01*
X69676Y-59253D01*
X69683Y-59248D01*
X69698Y-59223D01*
X69699Y-59190D01*
X69686Y-59159D01*
X69679Y-59152D01*
X69660Y-59138D01*
X69635Y-59134D01*
X69602Y-59139D01*
X69558Y-59153D01*
X69501Y-59177D01*
X69448Y-59203D01*
X69347Y-59255D01*
X69238Y-59314D01*
X69121Y-59380D01*
X69002Y-59451D01*
X68880Y-59525D01*
X68757Y-59601D01*
X68637Y-59678D01*
X68522Y-59755D01*
X68413Y-59829D01*
X68314Y-59899D01*
X68225Y-59965D01*
X68150Y-60023D01*
X68091Y-60075D01*
X68078Y-60087D01*
X68032Y-60134D01*
X68002Y-60173D01*
X67987Y-60206D01*
X67984Y-60238D01*
X67985Y-60245D01*
X67996Y-60273D01*
X68018Y-60295D01*
X68051Y-60312D01*
X68098Y-60322D01*
X68158Y-60327D01*
X68234Y-60326D01*
X68325Y-60319D01*
X68434Y-60306D01*
X68560Y-60288D01*
X68679Y-60269D01*
X68760Y-60255D01*
X68850Y-60238D01*
X68941Y-60221D01*
X69025Y-60205D01*
X69083Y-60192D01*
X69148Y-60179D01*
X69195Y-60169D01*
X69227Y-60164D01*
X69245Y-60162D01*
X69251Y-60164D01*
X69249Y-60169D01*
X69244Y-60172D01*
X69220Y-60190D01*
X69182Y-60218D01*
X69133Y-60254D01*
X69074Y-60295D01*
X69008Y-60341D01*
X68938Y-60390D01*
X68867Y-60439D01*
X68797Y-60486D01*
X68732Y-60531D01*
X68672Y-60570D01*
X68623Y-60603D01*
X68585Y-60628D01*
X68580Y-60630D01*
X68532Y-60661D01*
X68488Y-60690D01*
X68453Y-60715D01*
X68430Y-60733D01*
X68425Y-60737D01*
X68405Y-60769D01*
X68401Y-60806D01*
X68414Y-60840D01*
X68419Y-60845D01*
X68432Y-60856D01*
X68450Y-60863D01*
X68476Y-60865D01*
X68511Y-60864D01*
X68559Y-60858D01*
X68621Y-60848D01*
X68700Y-60834D01*
X68744Y-60825D01*
X68818Y-60811D01*
X68894Y-60797D01*
X68966Y-60785D01*
X69029Y-60774D01*
X69075Y-60768D01*
X69140Y-60761D01*
X69214Y-60756D01*
X69288Y-60754D01*
X69360Y-60754D01*
X69424Y-60756D01*
X69476Y-60761D01*
X69504Y-60766D01*
X69533Y-60775D01*
X69547Y-60786D01*
X69553Y-60804D01*
X69554Y-60813D01*
X69548Y-60863D01*
X69523Y-60917D01*
X69479Y-60977D01*
X69417Y-61041D01*
X69337Y-61109D01*
X69239Y-61180D01*
X69124Y-61255D01*
X69082Y-61280D01*
X69026Y-61314D01*
X68987Y-61341D01*
X68963Y-61363D01*
X68952Y-61385D01*
X68953Y-61407D01*
X68962Y-61434D01*
X68972Y-61452D01*
X68984Y-61476D01*
X68992Y-61496D01*
X68997Y-61519D01*
X68999Y-61549D01*
X69000Y-61590D01*
X68999Y-61635D01*
X68999Y-61696D01*
X69001Y-61742D01*
X69009Y-61774D01*
X69025Y-61793D01*
X69049Y-61800D01*
X69085Y-61796D01*
X69135Y-61781D01*
X69201Y-61758D01*
X69240Y-61743D01*
X69305Y-61720D01*
X69363Y-61701D01*
X69408Y-61689D01*
X69439Y-61683D01*
X69441Y-61683D01*
X69470Y-61683D01*
X69484Y-61689D01*
X69492Y-61705D01*
X69495Y-61724D01*
X69497Y-61742D01*
X69498Y-61779D01*
X69499Y-61833D01*
X69501Y-61900D01*
X69501Y-61979D01*
X69502Y-62068D01*
X69502Y-62165D01*
X69502Y-62261D01*
X69502Y-62376D01*
X69502Y-62472D01*
X69502Y-62550D01*
X69502Y-62613D01*
X69503Y-62663D01*
X69504Y-62701D01*
X69506Y-62729D01*
X69508Y-62748D01*
X69511Y-62762D01*
X69514Y-62771D01*
X69518Y-62777D01*
X69519Y-62778D01*
X69547Y-62795D01*
X69582Y-62798D01*
X69582Y-62798D01*
X69582Y-62798D01*
G37*
G36*
X69587Y-66441D02*
X69621Y-66441D01*
X69652Y-66423D01*
X69660Y-66415D01*
X69666Y-66406D01*
X69672Y-66397D01*
X69675Y-66384D01*
X69678Y-66366D01*
X69679Y-66340D01*
X69680Y-66304D01*
X69680Y-66254D01*
X69679Y-66190D01*
X69677Y-66107D01*
X69677Y-66085D01*
X69675Y-65981D01*
X69672Y-65896D01*
X69668Y-65826D01*
X69663Y-65769D01*
X69656Y-65721D01*
X69648Y-65680D01*
X69637Y-65643D01*
X69623Y-65608D01*
X69618Y-65595D01*
X69598Y-65557D01*
X69574Y-65518D01*
X69565Y-65507D01*
X69533Y-65467D01*
X69561Y-65394D01*
X69606Y-65265D01*
X69643Y-65131D01*
X69673Y-64997D01*
X69692Y-64872D01*
X69698Y-64807D01*
X69700Y-64762D01*
X69700Y-64732D01*
X69697Y-64713D01*
X69690Y-64700D01*
X69682Y-64691D01*
X69655Y-64674D01*
X69622Y-64668D01*
X69594Y-64675D01*
X69591Y-64676D01*
X69582Y-64687D01*
X69563Y-64712D01*
X69538Y-64748D01*
X69508Y-64791D01*
X69496Y-64809D01*
X69459Y-64861D01*
X69421Y-64913D01*
X69383Y-64961D01*
X69348Y-65003D01*
X69319Y-65036D01*
X69297Y-65057D01*
X69286Y-65063D01*
X69278Y-65053D01*
X69273Y-65026D01*
X69270Y-64985D01*
X69269Y-64932D01*
X69270Y-64873D01*
X69274Y-64808D01*
X69275Y-64798D01*
X69279Y-64742D01*
X69281Y-64703D01*
X69281Y-64677D01*
X69278Y-64659D01*
X69273Y-64646D01*
X69266Y-64637D01*
X69237Y-64614D01*
X69213Y-64608D01*
X69195Y-64608D01*
X69178Y-64614D01*
X69158Y-64629D01*
X69130Y-64655D01*
X69116Y-64670D01*
X69061Y-64726D01*
X68998Y-64788D01*
X68931Y-64853D01*
X68861Y-64920D01*
X68793Y-64983D01*
X68729Y-65041D01*
X68673Y-65092D01*
X68627Y-65130D01*
X68618Y-65138D01*
X68519Y-65210D01*
X68412Y-65271D01*
X68389Y-65283D01*
X68264Y-65345D01*
X68260Y-65308D01*
X68262Y-65265D01*
X68272Y-65208D01*
X68290Y-65140D01*
X68314Y-65065D01*
X68343Y-64985D01*
X68376Y-64906D01*
X68412Y-64829D01*
X68421Y-64811D01*
X68516Y-64649D01*
X68630Y-64490D01*
X68761Y-64335D01*
X68909Y-64186D01*
X69072Y-64046D01*
X69247Y-63914D01*
X69435Y-63793D01*
X69512Y-63749D01*
X69564Y-63718D01*
X69599Y-63693D01*
X69620Y-63671D01*
X69628Y-63650D01*
X69626Y-63625D01*
X69622Y-63610D01*
X69610Y-63586D01*
X69592Y-63574D01*
X69565Y-63572D01*
X69528Y-63581D01*
X69477Y-63601D01*
X69444Y-63616D01*
X69298Y-63685D01*
X69168Y-63746D01*
X69055Y-63799D01*
X68955Y-63846D01*
X68866Y-63887D01*
X68788Y-63922D01*
X68718Y-63954D01*
X68654Y-63982D01*
X68603Y-64004D01*
X68543Y-64031D01*
X68489Y-64055D01*
X68445Y-64076D01*
X68413Y-64093D01*
X68397Y-64103D01*
X68396Y-64105D01*
X68384Y-64135D01*
X68386Y-64167D01*
X68401Y-64197D01*
X68425Y-64217D01*
X68446Y-64222D01*
X68463Y-64217D01*
X68496Y-64206D01*
X68543Y-64187D01*
X68601Y-64164D01*
X68668Y-64135D01*
X68742Y-64103D01*
X68793Y-64080D01*
X68790Y-64086D01*
X68775Y-64103D01*
X68750Y-64131D01*
X68718Y-64165D01*
X68706Y-64177D01*
X68560Y-64341D01*
X68434Y-64507D01*
X68328Y-64676D01*
X68241Y-64849D01*
X68174Y-65027D01*
X68140Y-65145D01*
X68121Y-65239D01*
X68113Y-65316D01*
X68119Y-65379D01*
X68137Y-65427D01*
X68168Y-65462D01*
X68177Y-65468D01*
X68206Y-65482D01*
X68239Y-65487D01*
X68278Y-65483D01*
X68326Y-65469D01*
X68385Y-65444D01*
X68443Y-65417D01*
X68508Y-65383D01*
X68568Y-65349D01*
X68626Y-65313D01*
X68684Y-65271D01*
X68745Y-65223D01*
X68811Y-65166D01*
X68886Y-65098D01*
X68972Y-65017D01*
X68987Y-65002D01*
X69117Y-64877D01*
X69122Y-64963D01*
X69132Y-65046D01*
X69147Y-65112D01*
X69169Y-65160D01*
X69199Y-65193D01*
X69237Y-65211D01*
X69250Y-65214D01*
X69292Y-65213D01*
X69341Y-65194D01*
X69392Y-65162D01*
X69442Y-65117D01*
X69454Y-65104D01*
X69479Y-65076D01*
X69500Y-65055D01*
X69511Y-65047D01*
X69512Y-65047D01*
X69511Y-65059D01*
X69506Y-65086D01*
X69495Y-65125D01*
X69483Y-65171D01*
X69468Y-65221D01*
X69452Y-65270D01*
X69437Y-65313D01*
X69430Y-65332D01*
X69399Y-65413D01*
X69335Y-65424D01*
X69229Y-65451D01*
X69134Y-65496D01*
X69054Y-65556D01*
X68987Y-65631D01*
X68933Y-65720D01*
X68896Y-65822D01*
X68886Y-65864D01*
X68875Y-65945D01*
X68880Y-66017D01*
X68899Y-66078D01*
X68933Y-66125D01*
X68939Y-66131D01*
X68983Y-66158D01*
X69030Y-66164D01*
X69079Y-66150D01*
X69107Y-66133D01*
X69143Y-66100D01*
X69187Y-66052D01*
X69219Y-66012D01*
X69030Y-66012D01*
X69023Y-65981D01*
X69021Y-65942D01*
X69028Y-65891D01*
X69042Y-65836D01*
X69063Y-65783D01*
X69103Y-65717D01*
X69159Y-65659D01*
X69226Y-65611D01*
X69300Y-65579D01*
X69305Y-65577D01*
X69316Y-65575D01*
X69321Y-65578D01*
X69318Y-65590D01*
X69306Y-65614D01*
X69286Y-65651D01*
X69258Y-65700D01*
X69225Y-65755D01*
X69192Y-65806D01*
X69186Y-65815D01*
X69154Y-65861D01*
X69120Y-65907D01*
X69088Y-65947D01*
X69080Y-65956D01*
X69030Y-66012D01*
X69219Y-66012D01*
X69235Y-65992D01*
X69286Y-65924D01*
X69335Y-65850D01*
X69382Y-65776D01*
X69423Y-65701D01*
X69431Y-65686D01*
X69449Y-65652D01*
X69460Y-65634D01*
X69469Y-65630D01*
X69476Y-65636D01*
X69478Y-65638D01*
X69492Y-65662D01*
X69502Y-65694D01*
X69512Y-65737D01*
X69519Y-65793D01*
X69524Y-65862D01*
X69528Y-65948D01*
X69531Y-66052D01*
X69532Y-66105D01*
X69534Y-66192D01*
X69536Y-66261D01*
X69537Y-66314D01*
X69539Y-66353D01*
X69542Y-66381D01*
X69545Y-66400D01*
X69549Y-66413D01*
X69554Y-66421D01*
X69557Y-66424D01*
X69587Y-66441D01*
X69587Y-66441D01*
X69587Y-66441D01*
G37*
G36*
X66870Y-63796D02*
X66920Y-63793D01*
X66978Y-63786D01*
X67037Y-63776D01*
X67091Y-63763D01*
X67133Y-63747D01*
X67151Y-63738D01*
X67173Y-63726D01*
X67180Y-63730D01*
X67181Y-63744D01*
X67186Y-63766D01*
X67200Y-63768D01*
X67218Y-63753D01*
X67239Y-63725D01*
X67258Y-63687D01*
X67271Y-63650D01*
X67279Y-63605D01*
X67283Y-63543D01*
X67283Y-63474D01*
X67282Y-63423D01*
X67283Y-63382D01*
X67287Y-63359D01*
X67289Y-63356D01*
X67308Y-63362D01*
X67324Y-63370D01*
X67340Y-63376D01*
X67347Y-63374D01*
X67347Y-63358D01*
X67338Y-63327D01*
X67320Y-63276D01*
X67310Y-63250D01*
X67284Y-63188D01*
X67247Y-63116D01*
X67206Y-63045D01*
X67190Y-63020D01*
X67150Y-62955D01*
X67108Y-62883D01*
X67073Y-62814D01*
X67058Y-62783D01*
X67023Y-62712D01*
X66989Y-62658D01*
X66965Y-62631D01*
X66939Y-62604D01*
X66924Y-62582D01*
X66922Y-62578D01*
X66932Y-62560D01*
X66955Y-62535D01*
X66965Y-62527D01*
X66994Y-62496D01*
X67024Y-62449D01*
X67056Y-62381D01*
X67063Y-62367D01*
X67092Y-62304D01*
X67127Y-62238D01*
X67160Y-62182D01*
X67173Y-62162D01*
X67260Y-62021D01*
X67323Y-61876D01*
X67326Y-61870D01*
X67341Y-61822D01*
X67348Y-61795D01*
X67345Y-61784D01*
X67333Y-61786D01*
X67324Y-61790D01*
X67300Y-61801D01*
X67289Y-61804D01*
X67285Y-61792D01*
X67282Y-61759D01*
X67282Y-61713D01*
X67283Y-61681D01*
X67281Y-61576D01*
X67266Y-61493D01*
X67237Y-61431D01*
X67213Y-61402D01*
X67181Y-61372D01*
X67181Y-61400D01*
X67175Y-61423D01*
X67160Y-61427D01*
X67150Y-61416D01*
X67132Y-61406D01*
X67094Y-61394D01*
X67044Y-61383D01*
X66988Y-61373D01*
X66932Y-61367D01*
X66883Y-61364D01*
X66881Y-61364D01*
X66838Y-61366D01*
X66817Y-61368D01*
X66816Y-61374D01*
X66824Y-61380D01*
X66893Y-61433D01*
X66941Y-61491D01*
X66967Y-61552D01*
X66971Y-61613D01*
X66952Y-61672D01*
X66920Y-61714D01*
X66894Y-61736D01*
X66851Y-61769D01*
X66798Y-61807D01*
X66740Y-61847D01*
X66729Y-61855D01*
X66661Y-61900D01*
X66612Y-61933D01*
X66579Y-61954D01*
X66558Y-61964D01*
X66548Y-61966D01*
X66546Y-61961D01*
X66548Y-61949D01*
X66551Y-61935D01*
X66553Y-61904D01*
X66544Y-61896D01*
X66525Y-61910D01*
X66511Y-61929D01*
X66497Y-61965D01*
X66487Y-62021D01*
X66482Y-62081D01*
X66475Y-62199D01*
X66440Y-62128D01*
X66405Y-62056D01*
X66405Y-62124D01*
X66416Y-62219D01*
X66452Y-62308D01*
X66513Y-62392D01*
X66539Y-62419D01*
X66588Y-62462D01*
X66642Y-62503D01*
X66690Y-62534D01*
X66694Y-62537D01*
X66770Y-62577D01*
X66694Y-62619D01*
X66647Y-62650D01*
X66593Y-62692D01*
X66544Y-62736D01*
X66539Y-62741D01*
X66470Y-62824D01*
X66426Y-62911D01*
X66407Y-63002D01*
X66405Y-63036D01*
X66406Y-63075D01*
X66408Y-63090D01*
X66414Y-63084D01*
X66422Y-63064D01*
X66440Y-63024D01*
X66459Y-62992D01*
X66470Y-62978D01*
X66476Y-62976D01*
X66480Y-62990D01*
X66481Y-63024D01*
X66482Y-63059D01*
X66488Y-63140D01*
X66504Y-63202D01*
X66508Y-63211D01*
X66528Y-63249D01*
X66543Y-63264D01*
X66552Y-63257D01*
X66552Y-63226D01*
X66551Y-63217D01*
X66546Y-63187D01*
X66549Y-63177D01*
X66562Y-63185D01*
X66567Y-63190D01*
X66588Y-63206D01*
X66625Y-63232D01*
X66672Y-63264D01*
X66715Y-63292D01*
X66802Y-63352D01*
X66869Y-63401D01*
X66917Y-63444D01*
X66950Y-63483D01*
X66967Y-63520D01*
X66973Y-63559D01*
X66970Y-63602D01*
X66969Y-63608D01*
X66949Y-63659D01*
X66912Y-63708D01*
X66866Y-63746D01*
X66845Y-63758D01*
X66821Y-63772D01*
X66813Y-63784D01*
X66813Y-63785D01*
X66832Y-63794D01*
X66870Y-63796D01*
X66870Y-63796D01*
X66870Y-63796D01*
G37*
G36*
X65084Y-64549D02*
X65110Y-64496D01*
X65133Y-64460D01*
X65158Y-64432D01*
X65166Y-64426D01*
X65185Y-64419D01*
X65226Y-64406D01*
X65287Y-64390D01*
X65362Y-64369D01*
X65449Y-64346D01*
X65545Y-64322D01*
X65598Y-64308D01*
X65717Y-64279D01*
X65813Y-64254D01*
X65875Y-64237D01*
X65104Y-64237D01*
X65102Y-64237D01*
X65081Y-64228D01*
X65053Y-64207D01*
X65045Y-64199D01*
X65007Y-64161D01*
X65007Y-63573D01*
X65007Y-63434D01*
X65007Y-63319D01*
X65008Y-63225D01*
X65008Y-63150D01*
X65010Y-63091D01*
X65011Y-63046D01*
X65014Y-63014D01*
X65017Y-62990D01*
X65020Y-62974D01*
X65025Y-62963D01*
X65031Y-62954D01*
X65034Y-62950D01*
X65067Y-62922D01*
X65102Y-62916D01*
X65131Y-62919D01*
X65180Y-62928D01*
X65245Y-62941D01*
X65321Y-62957D01*
X65404Y-62976D01*
X65490Y-62996D01*
X65576Y-63017D01*
X65657Y-63038D01*
X65729Y-63056D01*
X65787Y-63073D01*
X65829Y-63086D01*
X65849Y-63095D01*
X65869Y-63111D01*
X65886Y-63128D01*
X65899Y-63149D01*
X65909Y-63176D01*
X65916Y-63213D01*
X65921Y-63263D01*
X65924Y-63327D01*
X65926Y-63410D01*
X65926Y-63513D01*
X65926Y-63600D01*
X65926Y-63715D01*
X65926Y-63807D01*
X65924Y-63879D01*
X65922Y-63934D01*
X65920Y-63974D01*
X65916Y-64003D01*
X65911Y-64024D01*
X65906Y-64037D01*
X65882Y-64073D01*
X65854Y-64101D01*
X65852Y-64101D01*
X65833Y-64108D01*
X65793Y-64118D01*
X65735Y-64130D01*
X65664Y-64144D01*
X65583Y-64160D01*
X65498Y-64175D01*
X65411Y-64191D01*
X65327Y-64205D01*
X65251Y-64217D01*
X65185Y-64228D01*
X65135Y-64234D01*
X65104Y-64237D01*
X65875Y-64237D01*
X65889Y-64233D01*
X65946Y-64216D01*
X65990Y-64200D01*
X66020Y-64186D01*
X66040Y-64171D01*
X66053Y-64156D01*
X66060Y-64139D01*
X66063Y-64130D01*
X66064Y-64111D01*
X66065Y-64069D01*
X66066Y-64007D01*
X66067Y-63928D01*
X66067Y-63834D01*
X66067Y-63730D01*
X66067Y-63617D01*
X66066Y-63577D01*
X66065Y-63446D01*
X66064Y-63339D01*
X66063Y-63253D01*
X66062Y-63185D01*
X66060Y-63133D01*
X66058Y-63095D01*
X66054Y-63067D01*
X66051Y-63046D01*
X66046Y-63032D01*
X66040Y-63021D01*
X66034Y-63013D01*
X66014Y-62994D01*
X65977Y-62966D01*
X65920Y-62930D01*
X65843Y-62884D01*
X65745Y-62828D01*
X65694Y-62800D01*
X65381Y-62628D01*
X65385Y-62577D01*
X65389Y-62526D01*
X65680Y-62364D01*
X65778Y-62310D01*
X65848Y-62270D01*
X65108Y-62270D01*
X65068Y-62259D01*
X65039Y-62238D01*
X65007Y-62206D01*
X65007Y-61616D01*
X65007Y-61025D01*
X65045Y-60987D01*
X65074Y-60963D01*
X65101Y-60950D01*
X65106Y-60950D01*
X65137Y-60952D01*
X65187Y-60958D01*
X65252Y-60968D01*
X65329Y-60981D01*
X65413Y-60995D01*
X65499Y-61010D01*
X65585Y-61026D01*
X65665Y-61042D01*
X65736Y-61056D01*
X65793Y-61068D01*
X65833Y-61078D01*
X65852Y-61084D01*
X65872Y-61098D01*
X65887Y-61113D01*
X65900Y-61133D01*
X65909Y-61160D01*
X65916Y-61197D01*
X65921Y-61246D01*
X65924Y-61310D01*
X65925Y-61393D01*
X65926Y-61498D01*
X65926Y-61584D01*
X65926Y-61697D01*
X65926Y-61788D01*
X65925Y-61858D01*
X65923Y-61912D01*
X65920Y-61952D01*
X65917Y-61981D01*
X65912Y-62002D01*
X65906Y-62018D01*
X65904Y-62023D01*
X65880Y-62060D01*
X65851Y-62089D01*
X65849Y-62091D01*
X65828Y-62099D01*
X65786Y-62112D01*
X65728Y-62129D01*
X65656Y-62148D01*
X65576Y-62169D01*
X65490Y-62190D01*
X65404Y-62210D01*
X65322Y-62229D01*
X65247Y-62245D01*
X65183Y-62259D01*
X65135Y-62267D01*
X65108Y-62270D01*
X65848Y-62270D01*
X65856Y-62265D01*
X65916Y-62230D01*
X65961Y-62201D01*
X65994Y-62178D01*
X66018Y-62158D01*
X66034Y-62138D01*
X66047Y-62119D01*
X66051Y-62112D01*
X66056Y-62089D01*
X66060Y-62044D01*
X66064Y-61981D01*
X66067Y-61902D01*
X66068Y-61811D01*
X66070Y-61712D01*
X66071Y-61608D01*
X66071Y-61501D01*
X66070Y-61397D01*
X66068Y-61297D01*
X66067Y-61206D01*
X66063Y-61127D01*
X66060Y-61063D01*
X66056Y-61017D01*
X66051Y-60994D01*
X66050Y-60993D01*
X66041Y-60982D01*
X66030Y-60972D01*
X66014Y-60962D01*
X65991Y-60952D01*
X65957Y-60941D01*
X65910Y-60927D01*
X65848Y-60911D01*
X65768Y-60890D01*
X65667Y-60865D01*
X65590Y-60846D01*
X65494Y-60822D01*
X65405Y-60799D01*
X65327Y-60779D01*
X65262Y-60762D01*
X65214Y-60749D01*
X65188Y-60741D01*
X65185Y-60740D01*
X65156Y-60720D01*
X65126Y-60685D01*
X65115Y-60669D01*
X65082Y-60613D01*
X64980Y-60613D01*
X64878Y-60613D01*
X64878Y-61461D01*
X64878Y-61635D01*
X64878Y-61784D01*
X64878Y-61911D01*
X64878Y-62018D01*
X64880Y-62108D01*
X64882Y-62181D01*
X64885Y-62239D01*
X64889Y-62286D01*
X64895Y-62321D01*
X64902Y-62349D01*
X64911Y-62370D01*
X64921Y-62386D01*
X64935Y-62400D01*
X64950Y-62413D01*
X64968Y-62427D01*
X64975Y-62432D01*
X65033Y-62480D01*
X65033Y-62580D01*
X65033Y-62682D01*
X64976Y-62722D01*
X64957Y-62736D01*
X64940Y-62748D01*
X64927Y-62761D01*
X64914Y-62776D01*
X64905Y-62797D01*
X64897Y-62823D01*
X64891Y-62858D01*
X64886Y-62902D01*
X64883Y-62959D01*
X64881Y-63030D01*
X64880Y-63117D01*
X64879Y-63222D01*
X64879Y-63347D01*
X64880Y-63493D01*
X64880Y-63664D01*
X64881Y-63700D01*
X64884Y-64541D01*
X64984Y-64545D01*
X65084Y-64549D01*
X65084Y-64549D01*
X65084Y-64549D01*
G37*
G36*
X87551Y-61344D02*
X87544Y-61357D01*
X87527Y-61384D01*
X87501Y-61424D01*
X87470Y-61470D01*
X87438Y-61517D01*
X87412Y-61556D01*
X87395Y-61583D01*
X87389Y-61594D01*
X87391Y-61600D01*
X87402Y-61622D01*
X87419Y-61654D01*
X87428Y-61673D01*
X87441Y-61703D01*
X87444Y-61717D01*
X87440Y-61720D01*
X87417Y-61731D01*
X87378Y-61748D01*
X87327Y-61770D01*
X87267Y-61796D01*
X87202Y-61823D01*
X87136Y-61850D01*
X87074Y-61876D01*
X87017Y-61900D01*
X86971Y-61918D01*
X86939Y-61930D01*
X86925Y-61935D01*
X86922Y-61933D01*
X86908Y-61919D01*
X86889Y-61893D01*
X86843Y-61837D01*
X86774Y-61782D01*
X86696Y-61748D01*
X86609Y-61737D01*
X86529Y-61746D01*
X86452Y-61778D01*
X86382Y-61832D01*
X86330Y-61898D01*
X86298Y-61974D01*
X86287Y-62060D01*
X86296Y-62142D01*
X86327Y-62221D01*
X86380Y-62291D01*
X86414Y-62320D01*
X86485Y-62361D01*
X86560Y-62384D01*
X86579Y-62386D01*
X86662Y-62383D01*
X86742Y-62358D01*
X86813Y-62315D01*
X86871Y-62254D01*
X86877Y-62246D01*
X86898Y-62218D01*
X86912Y-62199D01*
X86924Y-62184D01*
X87179Y-62290D01*
X87219Y-62307D01*
X87288Y-62336D01*
X87348Y-62361D01*
X87396Y-62382D01*
X87428Y-62396D01*
X87441Y-62402D01*
X87441Y-62403D01*
X87443Y-62412D01*
X87436Y-62431D01*
X87419Y-62467D01*
X87407Y-62490D01*
X87394Y-62517D01*
X87389Y-62529D01*
X87394Y-62540D01*
X87411Y-62566D01*
X87437Y-62603D01*
X87467Y-62649D01*
X87497Y-62692D01*
X87523Y-62732D01*
X87542Y-62761D01*
X87549Y-62775D01*
X87549Y-62777D01*
X87542Y-62790D01*
X87523Y-62813D01*
X87490Y-62847D01*
X87442Y-62896D01*
X87435Y-62904D01*
X87394Y-62944D01*
X87359Y-62977D01*
X87335Y-62999D01*
X87324Y-63007D01*
X87324Y-63007D01*
X87310Y-62999D01*
X87281Y-62981D01*
X87241Y-62955D01*
X87193Y-62923D01*
X87071Y-62838D01*
X86956Y-62885D01*
X86920Y-62899D01*
X86877Y-62917D01*
X86847Y-62930D01*
X86833Y-62937D01*
X86829Y-62950D01*
X86821Y-62981D01*
X86812Y-63027D01*
X86802Y-63082D01*
X86792Y-63134D01*
X86783Y-63181D01*
X86777Y-63215D01*
X86774Y-63230D01*
X86771Y-63234D01*
X86764Y-63237D01*
X86748Y-63239D01*
X86719Y-63240D01*
X86674Y-63241D01*
X86609Y-63241D01*
X86602Y-63241D01*
X86540Y-63240D01*
X86491Y-63239D01*
X86459Y-63237D01*
X86446Y-63235D01*
X86446Y-63235D01*
X86442Y-63220D01*
X86435Y-63187D01*
X86426Y-63140D01*
X86415Y-63084D01*
X86415Y-63080D01*
X86404Y-63024D01*
X86394Y-62978D01*
X86387Y-62945D01*
X86382Y-62931D01*
X86378Y-62928D01*
X86356Y-62917D01*
X86322Y-62901D01*
X86280Y-62882D01*
X86236Y-62864D01*
X86196Y-62848D01*
X86167Y-62838D01*
X86153Y-62835D01*
X86153Y-62835D01*
X86140Y-62843D01*
X86111Y-62862D01*
X86071Y-62890D01*
X86023Y-62922D01*
X86019Y-62925D01*
X85972Y-62957D01*
X85932Y-62983D01*
X85904Y-63000D01*
X85891Y-63007D01*
X85890Y-63007D01*
X85876Y-62996D01*
X85849Y-62972D01*
X85813Y-62937D01*
X85772Y-62896D01*
X85759Y-62883D01*
X85714Y-62837D01*
X85685Y-62805D01*
X85669Y-62785D01*
X85665Y-62776D01*
X85666Y-62775D01*
X85674Y-62761D01*
X85694Y-62731D01*
X85721Y-62691D01*
X85754Y-62643D01*
X85756Y-62640D01*
X85788Y-62592D01*
X85815Y-62553D01*
X85833Y-62525D01*
X85840Y-62513D01*
X85840Y-62511D01*
X85835Y-62492D01*
X85823Y-62458D01*
X85807Y-62417D01*
X85790Y-62373D01*
X85773Y-62333D01*
X85759Y-62304D01*
X85751Y-62290D01*
X85751Y-62289D01*
X85734Y-62284D01*
X85698Y-62276D01*
X85650Y-62266D01*
X85592Y-62255D01*
X85583Y-62253D01*
X85526Y-62243D01*
X85480Y-62234D01*
X85448Y-62227D01*
X85434Y-62224D01*
X85433Y-62216D01*
X85431Y-62188D01*
X85429Y-62146D01*
X85429Y-62095D01*
X85429Y-62042D01*
X85430Y-61990D01*
X85432Y-61946D01*
X85434Y-61914D01*
X85437Y-61900D01*
X85438Y-61900D01*
X85455Y-61895D01*
X85490Y-61887D01*
X85539Y-61877D01*
X85597Y-61866D01*
X85608Y-61864D01*
X85664Y-61854D01*
X85710Y-61844D01*
X85741Y-61837D01*
X85754Y-61834D01*
X85756Y-61829D01*
X85767Y-61806D01*
X85782Y-61768D01*
X85801Y-61721D01*
X85845Y-61613D01*
X85754Y-61481D01*
X85746Y-61469D01*
X85713Y-61421D01*
X85687Y-61382D01*
X85670Y-61354D01*
X85663Y-61343D01*
X85664Y-61342D01*
X85675Y-61329D01*
X85700Y-61303D01*
X85735Y-61267D01*
X85776Y-61225D01*
X85807Y-61194D01*
X85844Y-61158D01*
X85869Y-61135D01*
X85885Y-61122D01*
X85895Y-61117D01*
X85902Y-61119D01*
X85915Y-61127D01*
X85944Y-61147D01*
X85985Y-61174D01*
X86031Y-61206D01*
X86071Y-61233D01*
X86115Y-61262D01*
X86147Y-61280D01*
X86162Y-61287D01*
X86169Y-61285D01*
X86195Y-61276D01*
X86234Y-61260D01*
X86281Y-61240D01*
X86386Y-61194D01*
X86399Y-61125D01*
X86407Y-61084D01*
X86418Y-61025D01*
X86429Y-60969D01*
X86446Y-60882D01*
X86765Y-60879D01*
X86771Y-60893D01*
X86775Y-60906D01*
X86782Y-60938D01*
X86791Y-60984D01*
X86801Y-61038D01*
X86810Y-61085D01*
X86819Y-61131D01*
X86825Y-61165D01*
X86828Y-61180D01*
X86833Y-61183D01*
X86856Y-61195D01*
X86892Y-61212D01*
X86935Y-61230D01*
X86980Y-61249D01*
X87021Y-61265D01*
X87053Y-61277D01*
X87069Y-61281D01*
X87081Y-61275D01*
X87109Y-61257D01*
X87148Y-61231D01*
X87194Y-61200D01*
X87241Y-61168D01*
X87280Y-61141D01*
X87309Y-61122D01*
X87322Y-61115D01*
X87331Y-61119D01*
X87353Y-61137D01*
X87389Y-61172D01*
X87441Y-61224D01*
X87449Y-61233D01*
X87489Y-61274D01*
X87521Y-61309D01*
X87543Y-61333D01*
X87551Y-61344D01*
X87551Y-61344D01*
G37*
G54D12*
X65100Y-74900D03*
G54D13*
X67500Y-74900D03*
G54D14*
X66000Y-76900D03*
G54D15*
X92250Y-69000D03*
X92250Y-68000D03*
X92250Y-67000D03*
X92250Y-66000D03*
X92250Y-65000D03*
X92250Y-64000D03*
X92250Y-63000D03*
X92250Y-62000D03*
X92250Y-77000D03*
X92250Y-76000D03*
X92250Y-75000D03*
X92250Y-74000D03*
X92250Y-73000D03*
X92250Y-72000D03*
X92250Y-71000D03*
X92250Y-70000D03*
G54D16*
X68750Y-63250D03*
X68375Y-62875D03*
X69124Y-62875D03*
X69124Y-63624D03*
X68375Y-63624D03*
G54D17*
X78174Y-70300D03*
G54D18*
X77174Y-70300D03*
G54D19*
X88550Y-62950D03*
G54D20*
X88550Y-60950D03*
G54D19*
X80300Y-62900D03*
G54D20*
X80300Y-60900D03*
G54D19*
X90100Y-70674D03*
G54D20*
X90100Y-68674D03*
G54D17*
X78174Y-69300D03*
G54D18*
X77174Y-69300D03*
G54D17*
X71750Y-58750D03*
G54D18*
X71750Y-57750D03*
G54D17*
X68550Y-58750D03*
G54D18*
X68550Y-57750D03*
G54D17*
X67550Y-58750D03*
G54D18*
X67550Y-57750D03*
G54D17*
X66550Y-58750D03*
G54D18*
X66550Y-57750D03*
G54D17*
X65550Y-58750D03*
G54D18*
X65550Y-57750D03*
G54D17*
X64550Y-58750D03*
G54D18*
X64550Y-57750D03*
G54D17*
X77600Y-72600D03*
G54D18*
X76600Y-72600D03*
G54D17*
X70050Y-68000D03*
G54D18*
X70050Y-69000D03*
G54D17*
X71050Y-68000D03*
G54D18*
X71050Y-69000D03*
G54D17*
X72050Y-68000D03*
G54D18*
X72050Y-69000D03*
G54D17*
X79500Y-75750D03*
G54D18*
X80500Y-75750D03*
G54D17*
X81500Y-75750D03*
G54D18*
X82500Y-75750D03*
G54D17*
X79825Y-69500D03*
G54D18*
X79825Y-70500D03*
X79825Y-71500D03*
G54D17*
X80874Y-69500D03*
G54D18*
X80874Y-70500D03*
X80874Y-71500D03*
G54D17*
X79450Y-67174D03*
G54D18*
X80450Y-67174D03*
X81450Y-67174D03*
G54D17*
X79450Y-68174D03*
G54D18*
X80450Y-68174D03*
X81450Y-68174D03*
G54D17*
X77500Y-75750D03*
G54D18*
X78500Y-75750D03*
G54D17*
X88500Y-75750D03*
G54D18*
X87500Y-75750D03*
X86500Y-75750D03*
X85500Y-75750D03*
X84500Y-75750D03*
X83500Y-75750D03*
G54D17*
X82550Y-62950D03*
G54D18*
X81550Y-62950D03*
X82550Y-61950D03*
X81550Y-61950D03*
X82550Y-60950D03*
X81550Y-60950D03*
G54D17*
X84550Y-65650D03*
G54D18*
X83550Y-65650D03*
X82550Y-65650D03*
X81550Y-65650D03*
G54D17*
X74300Y-62900D03*
G54D18*
X73300Y-62900D03*
X74300Y-61900D03*
X73300Y-61900D03*
X74300Y-60900D03*
X73300Y-60900D03*
G54D17*
X80300Y-65600D03*
G54D18*
X79300Y-65600D03*
X78300Y-65600D03*
X77300Y-65600D03*
G54D17*
X84100Y-70674D03*
G54D18*
X83100Y-70674D03*
X84100Y-69674D03*
X83100Y-69674D03*
X84100Y-68674D03*
X83100Y-68674D03*
G54D17*
X88700Y-73500D03*
G54D18*
X87700Y-73500D03*
X86700Y-73500D03*
X85700Y-73500D03*
G54D21*
X65725Y-71374D03*
X65725Y-72374D03*
G54D17*
X77600Y-73600D03*
G54D18*
X76600Y-73600D03*
G54D22*
X89000Y-77000D03*
X88000Y-77000D03*
X87000Y-77000D03*
X84000Y-77000D03*
X85000Y-77000D03*
X86000Y-77000D03*
X82000Y-77000D03*
X81000Y-77000D03*
X80000Y-77000D03*
X78000Y-77000D03*
X77000Y-77000D03*
X89000Y-58000D03*
X88000Y-58000D03*
X87000Y-58000D03*
X86000Y-58000D03*
X85000Y-58000D03*
X84000Y-58000D03*
X83000Y-58000D03*
X82000Y-58000D03*
X80400Y-58000D03*
X79400Y-58000D03*
X78400Y-58000D03*
X77400Y-58000D03*
X76400Y-58000D03*
X75400Y-58000D03*
X74400Y-58000D03*
X73400Y-58000D03*
X79000Y-77000D03*
G54D23*
X90000Y-75000D03*
X70000Y-58000D03*
X69500Y-77000D03*
G54D24*
X75886Y-77280D03*
X74114Y-74720D03*
X74114Y-77280D03*
X75886Y-74720D03*
G54D25*
X81550Y-64450D03*
X82550Y-64450D03*
X83550Y-64450D03*
X84550Y-64450D03*
X85550Y-64450D03*
X86550Y-64450D03*
X87550Y-64450D03*
X88550Y-64450D03*
X88550Y-59450D03*
X87550Y-59450D03*
X86550Y-59450D03*
X85550Y-59450D03*
X84550Y-59450D03*
X83550Y-59450D03*
X82550Y-59450D03*
X81550Y-59450D03*
X73300Y-64400D03*
X74300Y-64400D03*
X75300Y-64400D03*
X76300Y-64400D03*
X77300Y-64400D03*
X78300Y-64400D03*
X79300Y-64400D03*
X80300Y-64400D03*
X80300Y-59400D03*
X79300Y-59400D03*
X78300Y-59400D03*
X77300Y-59400D03*
X76300Y-59400D03*
X75300Y-59400D03*
X74300Y-59400D03*
X73300Y-59400D03*
X83100Y-72174D03*
X84100Y-72174D03*
X85100Y-72174D03*
X86100Y-72174D03*
X87100Y-72174D03*
X88100Y-72174D03*
X89100Y-72174D03*
X90100Y-72174D03*
X90100Y-67174D03*
X89100Y-67174D03*
X88100Y-67174D03*
X87100Y-67174D03*
X86100Y-67174D03*
X85100Y-67174D03*
X84100Y-67174D03*
X83100Y-67174D03*
G54D26*
X70000Y-74100D03*
G54D27*
X71000Y-74100D03*
G54D26*
X72000Y-74100D03*
G54D17*
X76200Y-65600D03*
G54D18*
X75200Y-65600D03*
X74200Y-65600D03*
X73200Y-65600D03*
G54D17*
X88600Y-65650D03*
G54D18*
X87600Y-65650D03*
X86600Y-65650D03*
X85600Y-65650D03*
G54D17*
X80600Y-73600D03*
G54D18*
X79600Y-73600D03*
X78600Y-73600D03*
G54D17*
X94500Y-74500D03*
G54D18*
X93500Y-74500D03*
X94500Y-73500D03*
X93500Y-73500D03*
X94500Y-72500D03*
X93500Y-72500D03*
X94500Y-71500D03*
X93500Y-71500D03*
X94500Y-70500D03*
X93500Y-70500D03*
X94500Y-69500D03*
X93500Y-69500D03*
X94500Y-68500D03*
X93500Y-68500D03*
X94500Y-67500D03*
X93500Y-67500D03*
X94500Y-66500D03*
X93500Y-66500D03*
X94500Y-65500D03*
X93500Y-65500D03*
X94500Y-64500D03*
X93500Y-64500D03*
X94500Y-63500D03*
X93500Y-63500D03*
X94500Y-62500D03*
X93500Y-62500D03*
G54D28*
X91125Y-73500D03*
X91125Y-73100D03*
X91125Y-72725D03*
X91150Y-66000D03*
X91150Y-65625D03*
X91150Y-65250D03*
G54D17*
X80600Y-72600D03*
G54D18*
X79600Y-72600D03*
X78600Y-72600D03*
M02*
