G04 (created by PCBNEW (2014-01-10 BZR 4027)-stable) date Thursday, 14 August 2014 18:29:29*
%MOIN*%
G04 Gerber Fmt 3.4, Leading zero omitted, Abs format*
%FSLAX34Y34*%
G01*
G70*
G90*
G04 APERTURE LIST*
%ADD10C,0.00590551*%
%ADD11C,0.00787402*%
%ADD12C,0.00511811*%
%ADD13C,0.0026*%
%ADD14C,0.0001*%
%ADD15C,0.005*%
%ADD16C,0.015*%
%ADD17C,0.006*%
%ADD18C,0.007*%
%ADD19C,0.012*%
%ADD20C,0.008*%
%ADD21C,0.01*%
%ADD22C,0.0019685*%
%ADD23C,0.1*%
G04 APERTURE END LIST*
G54D10*
G54D11*
X82500Y-76400D02*
X82500Y-76100D01*
X81500Y-76400D02*
X82500Y-76400D01*
X81500Y-76200D02*
X81500Y-77300D01*
G54D12*
X89616Y-73171D02*
X89983Y-73171D01*
X89616Y-73723D01*
X89983Y-73723D01*
X89416Y-65371D02*
X89783Y-65923D01*
X89783Y-65371D02*
X89416Y-65923D01*
X72550Y-66560D02*
X72550Y-66823D01*
X72366Y-66271D02*
X72550Y-66560D01*
X72733Y-66271D01*
G54D11*
X94800Y-75340D02*
X94600Y-75140D01*
X94380Y-75340D02*
X94800Y-75340D01*
X94580Y-75140D02*
X94380Y-75340D01*
G54D12*
X71599Y-57178D02*
X71835Y-57021D01*
X71599Y-57021D02*
X71835Y-57178D01*
G54D11*
X81580Y-71800D02*
X81580Y-71720D01*
X81460Y-71920D02*
X81580Y-71800D01*
X81380Y-71920D02*
X81460Y-71920D01*
X81520Y-69320D02*
X81380Y-69320D01*
X81620Y-69420D02*
X81520Y-69320D01*
X81620Y-69520D02*
X81620Y-69420D01*
X79320Y-69400D02*
X79380Y-69340D01*
X79040Y-69680D02*
X79320Y-69400D01*
X79040Y-69880D02*
X79040Y-69680D01*
X79200Y-71380D02*
X79020Y-71200D01*
X79400Y-71380D02*
X79200Y-71380D01*
G54D12*
X81230Y-72739D02*
X81219Y-72762D01*
X81219Y-72796D01*
X81230Y-72829D01*
X81253Y-72852D01*
X81275Y-72863D01*
X81320Y-72874D01*
X81354Y-72874D01*
X81399Y-72863D01*
X81421Y-72852D01*
X81444Y-72829D01*
X81455Y-72796D01*
X81455Y-72773D01*
X81444Y-72739D01*
X81433Y-72728D01*
X81354Y-72728D01*
X81354Y-72773D01*
X81455Y-72627D02*
X81219Y-72627D01*
X81455Y-72492D01*
X81219Y-72492D01*
X81455Y-72380D02*
X81219Y-72380D01*
X81219Y-72323D01*
X81230Y-72290D01*
X81253Y-72267D01*
X81275Y-72256D01*
X81320Y-72245D01*
X81354Y-72245D01*
X81399Y-72256D01*
X81421Y-72267D01*
X81444Y-72290D01*
X81455Y-72323D01*
X81455Y-72380D01*
G54D11*
X79240Y-71800D02*
X79240Y-72020D01*
X79180Y-71740D02*
X79240Y-71800D01*
X78700Y-71740D02*
X79180Y-71740D01*
X78600Y-71840D02*
X78700Y-71740D01*
X78600Y-72160D02*
X78600Y-71840D01*
X77560Y-71900D02*
X77560Y-72240D01*
X77440Y-71780D02*
X77560Y-71900D01*
X76680Y-71780D02*
X77440Y-71780D01*
X76600Y-71860D02*
X76680Y-71780D01*
X76600Y-72200D02*
X76600Y-71860D01*
G54D12*
X78852Y-71441D02*
X78863Y-71430D01*
X78886Y-71419D01*
X78942Y-71419D01*
X78964Y-71430D01*
X78976Y-71441D01*
X78987Y-71464D01*
X78987Y-71486D01*
X78976Y-71520D01*
X78841Y-71655D01*
X78987Y-71655D01*
X76667Y-71595D02*
X76532Y-71595D01*
X76600Y-71595D02*
X76600Y-71359D01*
X76577Y-71393D01*
X76555Y-71415D01*
X76532Y-71426D01*
X77658Y-75011D02*
X77566Y-74880D01*
X77501Y-75011D02*
X77501Y-74735D01*
X77606Y-74735D01*
X77632Y-74749D01*
X77645Y-74762D01*
X77658Y-74788D01*
X77658Y-74827D01*
X77645Y-74854D01*
X77632Y-74867D01*
X77606Y-74880D01*
X77501Y-74880D01*
X77881Y-74998D02*
X77855Y-75011D01*
X77803Y-75011D01*
X77776Y-74998D01*
X77763Y-74972D01*
X77763Y-74867D01*
X77776Y-74840D01*
X77803Y-74827D01*
X77855Y-74827D01*
X77881Y-74840D01*
X77895Y-74867D01*
X77895Y-74893D01*
X77763Y-74919D01*
X78000Y-74998D02*
X78026Y-75011D01*
X78078Y-75011D01*
X78104Y-74998D01*
X78118Y-74972D01*
X78118Y-74959D01*
X78104Y-74932D01*
X78078Y-74919D01*
X78039Y-74919D01*
X78013Y-74906D01*
X78000Y-74880D01*
X78000Y-74867D01*
X78013Y-74840D01*
X78039Y-74827D01*
X78078Y-74827D01*
X78104Y-74840D01*
X78341Y-74998D02*
X78314Y-75011D01*
X78262Y-75011D01*
X78236Y-74998D01*
X78223Y-74972D01*
X78223Y-74867D01*
X78236Y-74840D01*
X78262Y-74827D01*
X78314Y-74827D01*
X78341Y-74840D01*
X78354Y-74867D01*
X78354Y-74893D01*
X78223Y-74919D01*
X78433Y-74827D02*
X78538Y-74827D01*
X78472Y-74735D02*
X78472Y-74972D01*
X78485Y-74998D01*
X78511Y-75011D01*
X78538Y-75011D01*
X69852Y-67373D02*
X69840Y-67384D01*
X69807Y-67395D01*
X69784Y-67395D01*
X69750Y-67384D01*
X69728Y-67361D01*
X69717Y-67339D01*
X69705Y-67294D01*
X69705Y-67260D01*
X69717Y-67215D01*
X69728Y-67193D01*
X69750Y-67170D01*
X69784Y-67159D01*
X69807Y-67159D01*
X69840Y-67170D01*
X69852Y-67181D01*
X69942Y-67384D02*
X69975Y-67395D01*
X70032Y-67395D01*
X70054Y-67384D01*
X70065Y-67373D01*
X70076Y-67350D01*
X70076Y-67328D01*
X70065Y-67305D01*
X70054Y-67294D01*
X70032Y-67283D01*
X69987Y-67271D01*
X69964Y-67260D01*
X69953Y-67249D01*
X69942Y-67226D01*
X69942Y-67204D01*
X69953Y-67181D01*
X69964Y-67170D01*
X69987Y-67159D01*
X70043Y-67159D01*
X70076Y-67170D01*
X70301Y-67395D02*
X70166Y-67395D01*
X70234Y-67395D02*
X70234Y-67159D01*
X70211Y-67193D01*
X70189Y-67215D01*
X70166Y-67226D01*
X70898Y-67373D02*
X70886Y-67384D01*
X70853Y-67395D01*
X70830Y-67395D01*
X70796Y-67384D01*
X70774Y-67361D01*
X70763Y-67339D01*
X70751Y-67294D01*
X70751Y-67260D01*
X70763Y-67215D01*
X70774Y-67193D01*
X70796Y-67170D01*
X70830Y-67159D01*
X70853Y-67159D01*
X70886Y-67170D01*
X70898Y-67181D01*
X70988Y-67384D02*
X71021Y-67395D01*
X71078Y-67395D01*
X71100Y-67384D01*
X71111Y-67373D01*
X71123Y-67350D01*
X71123Y-67328D01*
X71111Y-67305D01*
X71100Y-67294D01*
X71078Y-67283D01*
X71033Y-67271D01*
X71010Y-67260D01*
X70999Y-67249D01*
X70988Y-67226D01*
X70988Y-67204D01*
X70999Y-67181D01*
X71010Y-67170D01*
X71033Y-67159D01*
X71089Y-67159D01*
X71123Y-67170D01*
X71213Y-67181D02*
X71224Y-67170D01*
X71246Y-67159D01*
X71303Y-67159D01*
X71325Y-67170D01*
X71336Y-67181D01*
X71348Y-67204D01*
X71348Y-67226D01*
X71336Y-67260D01*
X71201Y-67395D01*
X71348Y-67395D01*
X71944Y-67373D02*
X71933Y-67384D01*
X71899Y-67395D01*
X71876Y-67395D01*
X71843Y-67384D01*
X71820Y-67361D01*
X71809Y-67339D01*
X71798Y-67294D01*
X71798Y-67260D01*
X71809Y-67215D01*
X71820Y-67193D01*
X71843Y-67170D01*
X71876Y-67159D01*
X71899Y-67159D01*
X71933Y-67170D01*
X71944Y-67181D01*
X72034Y-67384D02*
X72067Y-67395D01*
X72124Y-67395D01*
X72146Y-67384D01*
X72157Y-67373D01*
X72169Y-67350D01*
X72169Y-67328D01*
X72157Y-67305D01*
X72146Y-67294D01*
X72124Y-67283D01*
X72079Y-67271D01*
X72056Y-67260D01*
X72045Y-67249D01*
X72034Y-67226D01*
X72034Y-67204D01*
X72045Y-67181D01*
X72056Y-67170D01*
X72079Y-67159D01*
X72135Y-67159D01*
X72169Y-67170D01*
X72247Y-67159D02*
X72394Y-67159D01*
X72315Y-67249D01*
X72349Y-67249D01*
X72371Y-67260D01*
X72382Y-67271D01*
X72394Y-67294D01*
X72394Y-67350D01*
X72382Y-67373D01*
X72371Y-67384D01*
X72349Y-67395D01*
X72281Y-67395D01*
X72259Y-67384D01*
X72247Y-67373D01*
X81776Y-70505D02*
X81956Y-70505D01*
X81866Y-70595D02*
X81866Y-70415D01*
X82181Y-70359D02*
X82068Y-70359D01*
X82057Y-70471D01*
X82068Y-70460D01*
X82091Y-70449D01*
X82147Y-70449D01*
X82169Y-70460D01*
X82181Y-70471D01*
X82192Y-70494D01*
X82192Y-70550D01*
X82181Y-70573D01*
X82169Y-70584D01*
X82147Y-70595D01*
X82091Y-70595D01*
X82068Y-70584D01*
X82057Y-70573D01*
X82259Y-70359D02*
X82338Y-70595D01*
X82417Y-70359D01*
X82000Y-71050D02*
X81977Y-71039D01*
X81943Y-71039D01*
X81910Y-71050D01*
X81887Y-71073D01*
X81876Y-71095D01*
X81865Y-71140D01*
X81865Y-71174D01*
X81876Y-71219D01*
X81887Y-71241D01*
X81910Y-71264D01*
X81943Y-71275D01*
X81966Y-71275D01*
X82000Y-71264D01*
X82011Y-71253D01*
X82011Y-71174D01*
X81966Y-71174D01*
X82112Y-71275D02*
X82112Y-71039D01*
X82247Y-71275D01*
X82247Y-71039D01*
X82359Y-71275D02*
X82359Y-71039D01*
X82416Y-71039D01*
X82449Y-71050D01*
X82472Y-71073D01*
X82483Y-71095D01*
X82494Y-71140D01*
X82494Y-71174D01*
X82483Y-71219D01*
X82472Y-71241D01*
X82449Y-71264D01*
X82416Y-71275D01*
X82359Y-71275D01*
G54D11*
X67700Y-63950D02*
G75*
G03X67700Y-63950I-100J0D01*
G74*
G01*
G54D12*
X80300Y-61883D02*
X80300Y-61995D01*
X80221Y-61759D02*
X80300Y-61883D01*
X80378Y-61759D01*
X67061Y-72849D02*
X67061Y-72489D01*
X67241Y-72039D02*
X67241Y-72264D01*
X66768Y-72264D01*
X67241Y-71882D02*
X66768Y-71882D01*
X66768Y-71770D01*
X66791Y-71702D01*
X66836Y-71657D01*
X66881Y-71635D01*
X66971Y-71612D01*
X67038Y-71612D01*
X67128Y-71635D01*
X67173Y-71657D01*
X67218Y-71702D01*
X67241Y-71770D01*
X67241Y-71882D01*
X67061Y-71410D02*
X67061Y-71050D01*
X67241Y-71230D02*
X66881Y-71230D01*
X84945Y-69003D02*
X84709Y-69003D01*
X84878Y-68924D01*
X84709Y-68846D01*
X84945Y-68846D01*
X84934Y-68744D02*
X84945Y-68711D01*
X84945Y-68655D01*
X84934Y-68632D01*
X84923Y-68621D01*
X84900Y-68610D01*
X84878Y-68610D01*
X84855Y-68621D01*
X84844Y-68632D01*
X84833Y-68655D01*
X84821Y-68700D01*
X84810Y-68722D01*
X84799Y-68733D01*
X84776Y-68744D01*
X84754Y-68744D01*
X84731Y-68733D01*
X84720Y-68722D01*
X84709Y-68700D01*
X84709Y-68643D01*
X84720Y-68610D01*
X84709Y-68531D02*
X84709Y-68385D01*
X84799Y-68463D01*
X84799Y-68430D01*
X84810Y-68407D01*
X84821Y-68396D01*
X84844Y-68385D01*
X84900Y-68385D01*
X84923Y-68396D01*
X84934Y-68407D01*
X84945Y-68430D01*
X84945Y-68497D01*
X84934Y-68520D01*
X84923Y-68531D01*
X84945Y-70003D02*
X84709Y-70003D01*
X84878Y-69924D01*
X84709Y-69846D01*
X84945Y-69846D01*
X84934Y-69744D02*
X84945Y-69711D01*
X84945Y-69655D01*
X84934Y-69632D01*
X84923Y-69621D01*
X84900Y-69610D01*
X84878Y-69610D01*
X84855Y-69621D01*
X84844Y-69632D01*
X84833Y-69655D01*
X84821Y-69700D01*
X84810Y-69722D01*
X84799Y-69733D01*
X84776Y-69744D01*
X84754Y-69744D01*
X84731Y-69733D01*
X84720Y-69722D01*
X84709Y-69700D01*
X84709Y-69643D01*
X84720Y-69610D01*
X84731Y-69520D02*
X84720Y-69508D01*
X84709Y-69486D01*
X84709Y-69430D01*
X84720Y-69407D01*
X84731Y-69396D01*
X84754Y-69385D01*
X84776Y-69385D01*
X84810Y-69396D01*
X84945Y-69531D01*
X84945Y-69385D01*
X76903Y-68470D02*
X76881Y-68459D01*
X76847Y-68459D01*
X76813Y-68470D01*
X76791Y-68493D01*
X76780Y-68515D01*
X76768Y-68560D01*
X76768Y-68594D01*
X76780Y-68639D01*
X76791Y-68661D01*
X76813Y-68684D01*
X76847Y-68695D01*
X76870Y-68695D01*
X76903Y-68684D01*
X76915Y-68673D01*
X76915Y-68594D01*
X76870Y-68594D01*
X77016Y-68695D02*
X77016Y-68459D01*
X77151Y-68695D01*
X77151Y-68459D01*
X77263Y-68695D02*
X77263Y-68459D01*
X77320Y-68459D01*
X77353Y-68470D01*
X77376Y-68493D01*
X77387Y-68515D01*
X77398Y-68560D01*
X77398Y-68594D01*
X77387Y-68639D01*
X77376Y-68661D01*
X77353Y-68684D01*
X77320Y-68695D01*
X77263Y-68695D01*
X78039Y-68605D02*
X78219Y-68605D01*
X78129Y-68695D02*
X78129Y-68515D01*
G54D11*
X67100Y-77700D02*
X67300Y-77700D01*
X68000Y-77700D02*
X67500Y-77700D01*
X68000Y-77600D02*
X68000Y-77700D01*
X67500Y-77000D02*
X68000Y-77000D01*
X67800Y-77000D02*
X67500Y-77000D01*
X68100Y-77000D02*
G75*
G03X68100Y-77000I-100J0D01*
G74*
G01*
X67600Y-77300D02*
G75*
G03X68300Y-77399I399J300D01*
G74*
G01*
X68300Y-77399D02*
G75*
G03X68399Y-76699I-300J399D01*
G74*
G01*
X68399Y-76699D02*
G75*
G03X67699Y-76600I-399J-300D01*
G74*
G01*
G54D12*
X76937Y-71627D02*
X76937Y-71312D01*
X77087Y-71417D02*
X77087Y-71627D01*
X77087Y-71447D02*
X77102Y-71432D01*
X77132Y-71417D01*
X77177Y-71417D01*
X77207Y-71432D01*
X77222Y-71462D01*
X77222Y-71627D01*
X77327Y-71417D02*
X77447Y-71417D01*
X77372Y-71312D02*
X77372Y-71582D01*
X77387Y-71612D01*
X77417Y-71627D01*
X77447Y-71627D01*
X77552Y-71627D02*
X77552Y-71417D01*
X77552Y-71477D02*
X77567Y-71447D01*
X77582Y-71432D01*
X77612Y-71417D01*
X77642Y-71417D01*
X77897Y-71627D02*
X77747Y-71627D01*
X77747Y-71312D01*
X78047Y-71627D02*
X78017Y-71612D01*
X78002Y-71597D01*
X77987Y-71567D01*
X77987Y-71477D01*
X78002Y-71447D01*
X78017Y-71432D01*
X78047Y-71417D01*
X78092Y-71417D01*
X78122Y-71432D01*
X78137Y-71447D01*
X78152Y-71477D01*
X78152Y-71567D01*
X78137Y-71597D01*
X78122Y-71612D01*
X78092Y-71627D01*
X78047Y-71627D01*
X78422Y-71612D02*
X78392Y-71627D01*
X78332Y-71627D01*
X78302Y-71612D01*
X78287Y-71597D01*
X78272Y-71567D01*
X78272Y-71477D01*
X78287Y-71447D01*
X78302Y-71432D01*
X78332Y-71417D01*
X78392Y-71417D01*
X78422Y-71432D01*
X78557Y-71627D02*
X78557Y-71312D01*
X78587Y-71507D02*
X78677Y-71627D01*
X78677Y-71417D02*
X78557Y-71537D01*
X81571Y-69570D02*
X81571Y-69683D01*
X81504Y-69548D02*
X81740Y-69626D01*
X81504Y-69705D01*
X81740Y-69896D02*
X81740Y-69784D01*
X81628Y-69773D01*
X81639Y-69784D01*
X81650Y-69806D01*
X81650Y-69863D01*
X81639Y-69885D01*
X81628Y-69896D01*
X81605Y-69908D01*
X81549Y-69908D01*
X81526Y-69896D01*
X81515Y-69885D01*
X81504Y-69863D01*
X81504Y-69806D01*
X81515Y-69784D01*
X81526Y-69773D01*
X81515Y-70178D02*
X81504Y-70211D01*
X81504Y-70268D01*
X81515Y-70290D01*
X81526Y-70301D01*
X81549Y-70313D01*
X81571Y-70313D01*
X81594Y-70301D01*
X81605Y-70290D01*
X81616Y-70268D01*
X81628Y-70223D01*
X81639Y-70200D01*
X81650Y-70189D01*
X81673Y-70178D01*
X81695Y-70178D01*
X81718Y-70189D01*
X81729Y-70200D01*
X81740Y-70223D01*
X81740Y-70279D01*
X81729Y-70313D01*
X81515Y-70504D02*
X81504Y-70481D01*
X81504Y-70436D01*
X81515Y-70414D01*
X81538Y-70403D01*
X81628Y-70403D01*
X81650Y-70414D01*
X81661Y-70436D01*
X81661Y-70481D01*
X81650Y-70504D01*
X81628Y-70515D01*
X81605Y-70515D01*
X81583Y-70403D01*
X81661Y-70616D02*
X81504Y-70616D01*
X81639Y-70616D02*
X81650Y-70628D01*
X81661Y-70650D01*
X81661Y-70684D01*
X81650Y-70706D01*
X81628Y-70718D01*
X81504Y-70718D01*
X81515Y-70819D02*
X81504Y-70841D01*
X81504Y-70886D01*
X81515Y-70909D01*
X81538Y-70920D01*
X81549Y-70920D01*
X81571Y-70909D01*
X81583Y-70886D01*
X81583Y-70853D01*
X81594Y-70830D01*
X81616Y-70819D01*
X81628Y-70819D01*
X81650Y-70830D01*
X81661Y-70853D01*
X81661Y-70886D01*
X81650Y-70909D01*
X81515Y-71111D02*
X81504Y-71089D01*
X81504Y-71044D01*
X81515Y-71021D01*
X81538Y-71010D01*
X81628Y-71010D01*
X81650Y-71021D01*
X81661Y-71044D01*
X81661Y-71089D01*
X81650Y-71111D01*
X81628Y-71123D01*
X81605Y-71123D01*
X81583Y-71010D01*
X81504Y-71404D02*
X81661Y-71404D01*
X81740Y-71404D02*
X81729Y-71393D01*
X81718Y-71404D01*
X81729Y-71415D01*
X81740Y-71404D01*
X81718Y-71404D01*
X81661Y-71516D02*
X81504Y-71516D01*
X81639Y-71516D02*
X81650Y-71528D01*
X81661Y-71550D01*
X81661Y-71584D01*
X81650Y-71606D01*
X81628Y-71617D01*
X81504Y-71617D01*
X81904Y-69484D02*
X81938Y-69495D01*
X81994Y-69495D01*
X82016Y-69484D01*
X82028Y-69473D01*
X82039Y-69450D01*
X82039Y-69428D01*
X82028Y-69405D01*
X82016Y-69394D01*
X81994Y-69383D01*
X81949Y-69371D01*
X81926Y-69360D01*
X81915Y-69349D01*
X81904Y-69326D01*
X81904Y-69304D01*
X81915Y-69281D01*
X81926Y-69270D01*
X81949Y-69259D01*
X82005Y-69259D01*
X82039Y-69270D01*
X82230Y-69484D02*
X82208Y-69495D01*
X82163Y-69495D01*
X82140Y-69484D01*
X82129Y-69461D01*
X82129Y-69371D01*
X82140Y-69349D01*
X82163Y-69338D01*
X82208Y-69338D01*
X82230Y-69349D01*
X82241Y-69371D01*
X82241Y-69394D01*
X82129Y-69416D01*
X82343Y-69338D02*
X82343Y-69495D01*
X82343Y-69360D02*
X82354Y-69349D01*
X82376Y-69338D01*
X82410Y-69338D01*
X82433Y-69349D01*
X82444Y-69371D01*
X82444Y-69495D01*
X78839Y-71144D02*
X78839Y-71009D01*
X79075Y-71077D02*
X78839Y-71077D01*
X79075Y-70931D02*
X78918Y-70931D01*
X78940Y-70931D02*
X78929Y-70919D01*
X78918Y-70897D01*
X78918Y-70863D01*
X78929Y-70841D01*
X78951Y-70829D01*
X79075Y-70829D01*
X78951Y-70829D02*
X78929Y-70818D01*
X78918Y-70796D01*
X78918Y-70762D01*
X78929Y-70739D01*
X78951Y-70728D01*
X79075Y-70728D01*
X78918Y-70616D02*
X79154Y-70616D01*
X78929Y-70616D02*
X78918Y-70593D01*
X78918Y-70548D01*
X78929Y-70526D01*
X78940Y-70515D01*
X78963Y-70503D01*
X79030Y-70503D01*
X79053Y-70515D01*
X79064Y-70526D01*
X79075Y-70548D01*
X79075Y-70593D01*
X79064Y-70616D01*
X79075Y-70222D02*
X78839Y-70222D01*
X78918Y-70110D02*
X79075Y-70110D01*
X78940Y-70110D02*
X78929Y-70098D01*
X78918Y-70076D01*
X78918Y-70042D01*
X78929Y-70020D01*
X78951Y-70008D01*
X79075Y-70008D01*
X78917Y-75032D02*
X79048Y-75032D01*
X78891Y-75111D02*
X78982Y-74835D01*
X79074Y-75111D01*
X79166Y-75111D02*
X79166Y-74927D01*
X79166Y-74980D02*
X79179Y-74954D01*
X79192Y-74940D01*
X79219Y-74927D01*
X79245Y-74927D01*
X79455Y-75111D02*
X79455Y-74835D01*
X79455Y-75098D02*
X79429Y-75111D01*
X79376Y-75111D01*
X79350Y-75098D01*
X79337Y-75085D01*
X79324Y-75059D01*
X79324Y-74980D01*
X79337Y-74954D01*
X79350Y-74940D01*
X79376Y-74927D01*
X79429Y-74927D01*
X79455Y-74940D01*
X79704Y-74927D02*
X79704Y-75111D01*
X79586Y-74927D02*
X79586Y-75072D01*
X79599Y-75098D01*
X79625Y-75111D01*
X79665Y-75111D01*
X79691Y-75098D01*
X79704Y-75085D01*
X79835Y-75111D02*
X79835Y-74927D01*
X79835Y-74835D02*
X79822Y-74849D01*
X79835Y-74862D01*
X79849Y-74849D01*
X79835Y-74835D01*
X79835Y-74862D01*
X79967Y-74927D02*
X79967Y-75111D01*
X79967Y-74954D02*
X79980Y-74940D01*
X80006Y-74927D01*
X80045Y-74927D01*
X80072Y-74940D01*
X80085Y-74967D01*
X80085Y-75111D01*
X80255Y-75111D02*
X80229Y-75098D01*
X80216Y-75085D01*
X80203Y-75059D01*
X80203Y-74980D01*
X80216Y-74954D01*
X80229Y-74940D01*
X80255Y-74927D01*
X80295Y-74927D01*
X80321Y-74940D01*
X80334Y-74954D01*
X80347Y-74980D01*
X80347Y-75059D01*
X80334Y-75085D01*
X80321Y-75098D01*
X80295Y-75111D01*
X80255Y-75111D01*
X80465Y-75111D02*
X80465Y-74835D01*
X80570Y-74835D01*
X80597Y-74849D01*
X80610Y-74862D01*
X80623Y-74888D01*
X80623Y-74927D01*
X80610Y-74954D01*
X80597Y-74967D01*
X80570Y-74980D01*
X80465Y-74980D01*
X80715Y-74927D02*
X80767Y-75111D01*
X80820Y-74980D01*
X80872Y-75111D01*
X80925Y-74927D01*
X81030Y-75111D02*
X81030Y-74927D01*
X81030Y-74980D02*
X81043Y-74954D01*
X81056Y-74940D01*
X81082Y-74927D01*
X81108Y-74927D01*
G54D11*
X67200Y-76800D02*
X67200Y-77200D01*
X67000Y-77000D02*
X67400Y-77000D01*
G54D12*
X81229Y-66545D02*
X81229Y-66309D01*
X81308Y-66478D01*
X81386Y-66309D01*
X81386Y-66545D01*
X81544Y-66309D02*
X81589Y-66309D01*
X81611Y-66320D01*
X81634Y-66343D01*
X81645Y-66388D01*
X81645Y-66466D01*
X81634Y-66511D01*
X81611Y-66534D01*
X81589Y-66545D01*
X81544Y-66545D01*
X81521Y-66534D01*
X81499Y-66511D01*
X81488Y-66466D01*
X81488Y-66388D01*
X81499Y-66343D01*
X81521Y-66320D01*
X81544Y-66309D01*
X81746Y-66545D02*
X81746Y-66309D01*
X81803Y-66309D01*
X81836Y-66320D01*
X81859Y-66343D01*
X81870Y-66365D01*
X81881Y-66410D01*
X81881Y-66444D01*
X81870Y-66489D01*
X81859Y-66511D01*
X81836Y-66534D01*
X81803Y-66545D01*
X81746Y-66545D01*
X79147Y-66455D02*
X79327Y-66455D01*
X79237Y-66545D02*
X79237Y-66365D01*
X79552Y-66309D02*
X79439Y-66309D01*
X79428Y-66421D01*
X79439Y-66410D01*
X79462Y-66399D01*
X79518Y-66399D01*
X79541Y-66410D01*
X79552Y-66421D01*
X79563Y-66444D01*
X79563Y-66500D01*
X79552Y-66523D01*
X79541Y-66534D01*
X79518Y-66545D01*
X79462Y-66545D01*
X79439Y-66534D01*
X79428Y-66523D01*
X64495Y-59412D02*
X64705Y-59412D01*
X64495Y-59727D01*
X64705Y-59727D01*
X64795Y-59412D02*
X65005Y-59412D01*
X64795Y-59727D01*
X65005Y-59727D01*
X65185Y-59577D02*
X65185Y-59727D01*
X65080Y-59412D02*
X65185Y-59577D01*
X65290Y-59412D01*
X65455Y-59577D02*
X65455Y-59727D01*
X65350Y-59412D02*
X65455Y-59577D01*
X65560Y-59412D01*
X65634Y-59412D02*
X65844Y-59727D01*
X65844Y-59412D02*
X65634Y-59727D01*
X66174Y-59412D02*
X66384Y-59727D01*
X66384Y-59412D02*
X66174Y-59727D01*
X64457Y-60054D02*
X64562Y-60054D01*
X64607Y-60219D02*
X64457Y-60219D01*
X64457Y-59904D01*
X64607Y-59904D01*
X64742Y-60009D02*
X64742Y-60219D01*
X64742Y-60039D02*
X64757Y-60024D01*
X64787Y-60009D01*
X64832Y-60009D01*
X64862Y-60024D01*
X64877Y-60054D01*
X64877Y-60219D01*
X65162Y-60219D02*
X65162Y-59904D01*
X65162Y-60204D02*
X65132Y-60219D01*
X65072Y-60219D01*
X65042Y-60204D01*
X65027Y-60189D01*
X65012Y-60159D01*
X65012Y-60069D01*
X65027Y-60039D01*
X65042Y-60024D01*
X65072Y-60009D01*
X65132Y-60009D01*
X65162Y-60024D01*
X65297Y-60204D02*
X65327Y-60219D01*
X65387Y-60219D01*
X65417Y-60204D01*
X65432Y-60174D01*
X65432Y-60159D01*
X65417Y-60129D01*
X65387Y-60114D01*
X65342Y-60114D01*
X65312Y-60099D01*
X65297Y-60069D01*
X65297Y-60054D01*
X65312Y-60024D01*
X65342Y-60009D01*
X65387Y-60009D01*
X65417Y-60024D01*
X65522Y-60009D02*
X65642Y-60009D01*
X65567Y-59904D02*
X65567Y-60174D01*
X65582Y-60204D01*
X65612Y-60219D01*
X65642Y-60219D01*
X65792Y-60219D02*
X65762Y-60204D01*
X65747Y-60189D01*
X65732Y-60159D01*
X65732Y-60069D01*
X65747Y-60039D01*
X65762Y-60024D01*
X65792Y-60009D01*
X65837Y-60009D01*
X65867Y-60024D01*
X65882Y-60039D01*
X65897Y-60069D01*
X65897Y-60159D01*
X65882Y-60189D01*
X65867Y-60204D01*
X65837Y-60219D01*
X65792Y-60219D01*
X66032Y-60009D02*
X66032Y-60324D01*
X66032Y-60024D02*
X66062Y-60009D01*
X66122Y-60009D01*
X66152Y-60024D01*
X66167Y-60039D01*
X66182Y-60069D01*
X66182Y-60159D01*
X66167Y-60189D01*
X66152Y-60204D01*
X66122Y-60219D01*
X66062Y-60219D01*
X66032Y-60204D01*
X66302Y-60204D02*
X66332Y-60219D01*
X66392Y-60219D01*
X66422Y-60204D01*
X66437Y-60174D01*
X66437Y-60159D01*
X66422Y-60129D01*
X66392Y-60114D01*
X66347Y-60114D01*
X66317Y-60099D01*
X66302Y-60069D01*
X66302Y-60054D01*
X66317Y-60024D01*
X66347Y-60009D01*
X66392Y-60009D01*
X66422Y-60024D01*
X76478Y-70592D02*
X76478Y-70479D01*
X76545Y-70614D02*
X76309Y-70536D01*
X76545Y-70457D01*
X76309Y-70378D02*
X76500Y-70378D01*
X76523Y-70367D01*
X76534Y-70356D01*
X76545Y-70333D01*
X76545Y-70288D01*
X76534Y-70266D01*
X76523Y-70255D01*
X76500Y-70243D01*
X76309Y-70243D01*
X76309Y-70153D02*
X76545Y-69996D01*
X76309Y-69996D02*
X76545Y-70153D01*
X89025Y-60321D02*
X89104Y-60321D01*
X89138Y-60445D02*
X89025Y-60445D01*
X89025Y-60209D01*
X89138Y-60209D01*
X89239Y-60445D02*
X89239Y-60209D01*
X89374Y-60445D01*
X89374Y-60209D01*
X80175Y-60221D02*
X80254Y-60221D01*
X80288Y-60345D02*
X80175Y-60345D01*
X80175Y-60109D01*
X80288Y-60109D01*
X80389Y-60345D02*
X80389Y-60109D01*
X80524Y-60345D01*
X80524Y-60109D01*
X90325Y-67971D02*
X90404Y-67971D01*
X90438Y-68095D02*
X90325Y-68095D01*
X90325Y-67859D01*
X90438Y-67859D01*
X90539Y-68095D02*
X90539Y-67859D01*
X90674Y-68095D01*
X90674Y-67859D01*
X76421Y-69429D02*
X76421Y-69508D01*
X76545Y-69508D02*
X76309Y-69508D01*
X76309Y-69396D01*
X76545Y-69205D02*
X76421Y-69205D01*
X76399Y-69216D01*
X76388Y-69238D01*
X76388Y-69283D01*
X76399Y-69306D01*
X76534Y-69205D02*
X76545Y-69227D01*
X76545Y-69283D01*
X76534Y-69306D01*
X76511Y-69317D01*
X76489Y-69317D01*
X76466Y-69306D01*
X76455Y-69283D01*
X76455Y-69227D01*
X76444Y-69205D01*
X76388Y-69092D02*
X76545Y-69092D01*
X76410Y-69092D02*
X76399Y-69081D01*
X76388Y-69058D01*
X76388Y-69025D01*
X76399Y-69002D01*
X76421Y-68991D01*
X76545Y-68991D01*
X80320Y-66320D02*
X80297Y-66309D01*
X80263Y-66309D01*
X80230Y-66320D01*
X80207Y-66343D01*
X80196Y-66365D01*
X80185Y-66410D01*
X80185Y-66444D01*
X80196Y-66489D01*
X80207Y-66511D01*
X80230Y-66534D01*
X80263Y-66545D01*
X80286Y-66545D01*
X80320Y-66534D01*
X80331Y-66523D01*
X80331Y-66444D01*
X80286Y-66444D01*
X80432Y-66545D02*
X80432Y-66309D01*
X80567Y-66545D01*
X80567Y-66309D01*
X80679Y-66545D02*
X80679Y-66309D01*
X80736Y-66309D01*
X80769Y-66320D01*
X80792Y-66343D01*
X80803Y-66365D01*
X80814Y-66410D01*
X80814Y-66444D01*
X80803Y-66489D01*
X80792Y-66511D01*
X80769Y-66534D01*
X80736Y-66545D01*
X80679Y-66545D01*
X77196Y-74405D02*
X77376Y-74405D01*
X77286Y-74495D02*
X77286Y-74315D01*
X77601Y-74259D02*
X77488Y-74259D01*
X77477Y-74371D01*
X77488Y-74360D01*
X77511Y-74349D01*
X77567Y-74349D01*
X77589Y-74360D01*
X77601Y-74371D01*
X77612Y-74394D01*
X77612Y-74450D01*
X77601Y-74473D01*
X77589Y-74484D01*
X77567Y-74495D01*
X77511Y-74495D01*
X77488Y-74484D01*
X77477Y-74473D01*
X77679Y-74259D02*
X77758Y-74495D01*
X77837Y-74259D01*
X78318Y-74259D02*
X78465Y-74259D01*
X78386Y-74349D01*
X78420Y-74349D01*
X78442Y-74360D01*
X78453Y-74371D01*
X78465Y-74394D01*
X78465Y-74450D01*
X78453Y-74473D01*
X78442Y-74484D01*
X78420Y-74495D01*
X78352Y-74495D01*
X78330Y-74484D01*
X78318Y-74473D01*
X78543Y-74338D02*
X78600Y-74495D01*
X78656Y-74338D01*
X78723Y-74259D02*
X78869Y-74259D01*
X78791Y-74349D01*
X78824Y-74349D01*
X78847Y-74360D01*
X78858Y-74371D01*
X78869Y-74394D01*
X78869Y-74450D01*
X78858Y-74473D01*
X78847Y-74484D01*
X78824Y-74495D01*
X78757Y-74495D01*
X78734Y-74484D01*
X78723Y-74473D01*
X76420Y-74270D02*
X76397Y-74259D01*
X76363Y-74259D01*
X76330Y-74270D01*
X76307Y-74293D01*
X76296Y-74315D01*
X76285Y-74360D01*
X76285Y-74394D01*
X76296Y-74439D01*
X76307Y-74461D01*
X76330Y-74484D01*
X76363Y-74495D01*
X76386Y-74495D01*
X76420Y-74484D01*
X76431Y-74473D01*
X76431Y-74394D01*
X76386Y-74394D01*
X76532Y-74495D02*
X76532Y-74259D01*
X76667Y-74495D01*
X76667Y-74259D01*
X76779Y-74495D02*
X76779Y-74259D01*
X76836Y-74259D01*
X76869Y-74270D01*
X76892Y-74293D01*
X76903Y-74315D01*
X76914Y-74360D01*
X76914Y-74394D01*
X76903Y-74439D01*
X76892Y-74461D01*
X76869Y-74484D01*
X76836Y-74495D01*
X76779Y-74495D01*
X79560Y-74495D02*
X79481Y-74383D01*
X79425Y-74495D02*
X79425Y-74259D01*
X79515Y-74259D01*
X79538Y-74270D01*
X79549Y-74281D01*
X79560Y-74304D01*
X79560Y-74338D01*
X79549Y-74360D01*
X79538Y-74371D01*
X79515Y-74383D01*
X79425Y-74383D01*
X79639Y-74259D02*
X79796Y-74495D01*
X79796Y-74259D02*
X79639Y-74495D01*
X80420Y-74259D02*
X80555Y-74259D01*
X80487Y-74495D02*
X80487Y-74259D01*
X80611Y-74259D02*
X80768Y-74495D01*
X80768Y-74259D02*
X80611Y-74495D01*
X81104Y-77732D02*
X81235Y-77732D01*
X81078Y-77811D02*
X81170Y-77535D01*
X81261Y-77811D01*
X81353Y-77535D02*
X81353Y-77759D01*
X81366Y-77785D01*
X81380Y-77798D01*
X81406Y-77811D01*
X81458Y-77811D01*
X81485Y-77798D01*
X81498Y-77785D01*
X81511Y-77759D01*
X81511Y-77535D01*
X81616Y-77535D02*
X81800Y-77811D01*
X81800Y-77535D02*
X81616Y-77811D01*
X82114Y-77667D02*
X82206Y-77667D01*
X82246Y-77811D02*
X82114Y-77811D01*
X82114Y-77535D01*
X82246Y-77535D01*
X82364Y-77627D02*
X82364Y-77811D01*
X82364Y-77654D02*
X82377Y-77640D01*
X82403Y-77627D01*
X82443Y-77627D01*
X82469Y-77640D01*
X82482Y-77667D01*
X82482Y-77811D01*
X87529Y-75011D02*
X87437Y-74880D01*
X87371Y-75011D02*
X87371Y-74735D01*
X87476Y-74735D01*
X87502Y-74749D01*
X87516Y-74762D01*
X87529Y-74788D01*
X87529Y-74827D01*
X87516Y-74854D01*
X87502Y-74867D01*
X87476Y-74880D01*
X87371Y-74880D01*
X87752Y-74998D02*
X87725Y-75011D01*
X87673Y-75011D01*
X87647Y-74998D01*
X87634Y-74972D01*
X87634Y-74867D01*
X87647Y-74840D01*
X87673Y-74827D01*
X87725Y-74827D01*
X87752Y-74840D01*
X87765Y-74867D01*
X87765Y-74893D01*
X87634Y-74919D01*
X87870Y-74998D02*
X87896Y-75011D01*
X87949Y-75011D01*
X87975Y-74998D01*
X87988Y-74972D01*
X87988Y-74959D01*
X87975Y-74932D01*
X87949Y-74919D01*
X87909Y-74919D01*
X87883Y-74906D01*
X87870Y-74880D01*
X87870Y-74867D01*
X87883Y-74840D01*
X87909Y-74827D01*
X87949Y-74827D01*
X87975Y-74840D01*
X88224Y-74827D02*
X88224Y-75011D01*
X88106Y-74827D02*
X88106Y-74972D01*
X88119Y-74998D01*
X88145Y-75011D01*
X88185Y-75011D01*
X88211Y-74998D01*
X88224Y-74985D01*
X88355Y-75011D02*
X88355Y-74827D01*
X88355Y-74854D02*
X88369Y-74840D01*
X88395Y-74827D01*
X88434Y-74827D01*
X88460Y-74840D01*
X88474Y-74867D01*
X88474Y-75011D01*
X88474Y-74867D02*
X88487Y-74840D01*
X88513Y-74827D01*
X88552Y-74827D01*
X88579Y-74840D01*
X88592Y-74867D01*
X88592Y-75011D01*
X88828Y-74998D02*
X88802Y-75011D01*
X88749Y-75011D01*
X88723Y-74998D01*
X88710Y-74972D01*
X88710Y-74867D01*
X88723Y-74840D01*
X88749Y-74827D01*
X88802Y-74827D01*
X88828Y-74840D01*
X88841Y-74867D01*
X88841Y-74893D01*
X88710Y-74919D01*
X85499Y-75011D02*
X85499Y-74735D01*
X85499Y-74867D02*
X85657Y-74867D01*
X85657Y-75011D02*
X85657Y-74735D01*
X85827Y-75011D02*
X85801Y-74998D01*
X85788Y-74985D01*
X85775Y-74959D01*
X85775Y-74880D01*
X85788Y-74854D01*
X85801Y-74840D01*
X85827Y-74827D01*
X85867Y-74827D01*
X85893Y-74840D01*
X85906Y-74854D01*
X85919Y-74880D01*
X85919Y-74959D01*
X85906Y-74985D01*
X85893Y-74998D01*
X85867Y-75011D01*
X85827Y-75011D01*
X86077Y-75011D02*
X86050Y-74998D01*
X86037Y-74972D01*
X86037Y-74735D01*
X86300Y-75011D02*
X86300Y-74735D01*
X86300Y-74998D02*
X86274Y-75011D01*
X86221Y-75011D01*
X86195Y-74998D01*
X86182Y-74985D01*
X86169Y-74959D01*
X86169Y-74880D01*
X86182Y-74854D01*
X86195Y-74840D01*
X86221Y-74827D01*
X86274Y-74827D01*
X86300Y-74840D01*
X83420Y-74932D02*
X83552Y-74932D01*
X83394Y-75011D02*
X83486Y-74735D01*
X83578Y-75011D01*
X83670Y-75011D02*
X83670Y-74735D01*
X83670Y-74840D02*
X83696Y-74827D01*
X83749Y-74827D01*
X83775Y-74840D01*
X83788Y-74854D01*
X83801Y-74880D01*
X83801Y-74959D01*
X83788Y-74985D01*
X83775Y-74998D01*
X83749Y-75011D01*
X83696Y-75011D01*
X83670Y-74998D01*
X83959Y-75011D02*
X83932Y-74998D01*
X83919Y-74985D01*
X83906Y-74959D01*
X83906Y-74880D01*
X83919Y-74854D01*
X83932Y-74840D01*
X83959Y-74827D01*
X83998Y-74827D01*
X84024Y-74840D01*
X84037Y-74854D01*
X84050Y-74880D01*
X84050Y-74959D01*
X84037Y-74985D01*
X84024Y-74998D01*
X83998Y-75011D01*
X83959Y-75011D01*
X84169Y-75011D02*
X84169Y-74827D01*
X84169Y-74880D02*
X84182Y-74854D01*
X84195Y-74840D01*
X84221Y-74827D01*
X84247Y-74827D01*
X84300Y-74827D02*
X84405Y-74827D01*
X84339Y-74735D02*
X84339Y-74972D01*
X84352Y-74998D01*
X84379Y-75011D01*
X84405Y-75011D01*
X74707Y-77695D02*
X74628Y-77583D01*
X74572Y-77695D02*
X74572Y-77459D01*
X74662Y-77459D01*
X74685Y-77470D01*
X74696Y-77481D01*
X74707Y-77504D01*
X74707Y-77538D01*
X74696Y-77560D01*
X74685Y-77571D01*
X74662Y-77583D01*
X74572Y-77583D01*
X74898Y-77684D02*
X74876Y-77695D01*
X74831Y-77695D01*
X74808Y-77684D01*
X74797Y-77661D01*
X74797Y-77571D01*
X74808Y-77549D01*
X74831Y-77538D01*
X74876Y-77538D01*
X74898Y-77549D01*
X74910Y-77571D01*
X74910Y-77594D01*
X74797Y-77616D01*
X75000Y-77684D02*
X75022Y-77695D01*
X75067Y-77695D01*
X75089Y-77684D01*
X75101Y-77661D01*
X75101Y-77650D01*
X75089Y-77628D01*
X75067Y-77616D01*
X75033Y-77616D01*
X75011Y-77605D01*
X75000Y-77583D01*
X75000Y-77571D01*
X75011Y-77549D01*
X75033Y-77538D01*
X75067Y-77538D01*
X75089Y-77549D01*
X75292Y-77684D02*
X75269Y-77695D01*
X75224Y-77695D01*
X75202Y-77684D01*
X75191Y-77661D01*
X75191Y-77571D01*
X75202Y-77549D01*
X75224Y-77538D01*
X75269Y-77538D01*
X75292Y-77549D01*
X75303Y-77571D01*
X75303Y-77594D01*
X75191Y-77616D01*
X75371Y-77538D02*
X75461Y-77538D01*
X75404Y-77459D02*
X75404Y-77661D01*
X75416Y-77684D01*
X75438Y-77695D01*
X75461Y-77695D01*
X70739Y-77029D02*
X70739Y-76635D01*
X70926Y-76766D02*
X70926Y-77029D01*
X70926Y-76804D02*
X70945Y-76785D01*
X70983Y-76766D01*
X71039Y-76766D01*
X71076Y-76785D01*
X71095Y-76823D01*
X71095Y-77029D01*
X71283Y-76766D02*
X71283Y-77160D01*
X71283Y-76785D02*
X71320Y-76766D01*
X71395Y-76766D01*
X71433Y-76785D01*
X71451Y-76804D01*
X71470Y-76841D01*
X71470Y-76954D01*
X71451Y-76991D01*
X71433Y-77010D01*
X71395Y-77029D01*
X71320Y-77029D01*
X71283Y-77010D01*
X71808Y-76766D02*
X71808Y-77029D01*
X71639Y-76766D02*
X71639Y-76973D01*
X71658Y-77010D01*
X71695Y-77029D01*
X71751Y-77029D01*
X71789Y-77010D01*
X71808Y-76991D01*
X71939Y-76766D02*
X72089Y-76766D01*
X71995Y-76635D02*
X71995Y-76973D01*
X72014Y-77010D01*
X72051Y-77029D01*
X72089Y-77029D01*
X72220Y-76991D02*
X72239Y-77010D01*
X72220Y-77029D01*
X72201Y-77010D01*
X72220Y-76991D01*
X72220Y-77029D01*
X72220Y-76785D02*
X72239Y-76804D01*
X72220Y-76823D01*
X72201Y-76804D01*
X72220Y-76785D01*
X72220Y-76823D01*
X70823Y-77631D02*
X70598Y-77631D01*
X70711Y-77631D02*
X70711Y-77238D01*
X70673Y-77294D01*
X70636Y-77331D01*
X70598Y-77350D01*
X70973Y-77275D02*
X70992Y-77256D01*
X71030Y-77238D01*
X71123Y-77238D01*
X71161Y-77256D01*
X71180Y-77275D01*
X71198Y-77313D01*
X71198Y-77350D01*
X71180Y-77406D01*
X70955Y-77631D01*
X71198Y-77631D01*
X71367Y-77594D02*
X71386Y-77612D01*
X71367Y-77631D01*
X71348Y-77612D01*
X71367Y-77594D01*
X71367Y-77631D01*
X71555Y-77594D02*
X71573Y-77612D01*
X71555Y-77631D01*
X71536Y-77612D01*
X71555Y-77594D01*
X71555Y-77631D01*
X71723Y-77275D02*
X71742Y-77256D01*
X71779Y-77238D01*
X71873Y-77238D01*
X71911Y-77256D01*
X71929Y-77275D01*
X71948Y-77313D01*
X71948Y-77350D01*
X71929Y-77406D01*
X71704Y-77631D01*
X71948Y-77631D01*
X72286Y-77369D02*
X72286Y-77631D01*
X72192Y-77219D02*
X72098Y-77500D01*
X72342Y-77500D01*
X72436Y-77238D02*
X72567Y-77631D01*
X72698Y-77238D01*
G54D11*
X81950Y-62950D02*
X82150Y-62950D01*
X81950Y-61950D02*
X82150Y-61950D01*
X81950Y-60950D02*
X82150Y-60950D01*
X73650Y-60900D02*
X73850Y-60900D01*
X73650Y-61900D02*
X73850Y-61900D01*
X73650Y-62900D02*
X73850Y-62900D01*
G54D12*
X83395Y-61303D02*
X83159Y-61303D01*
X83328Y-61224D01*
X83159Y-61146D01*
X83395Y-61146D01*
X83384Y-61044D02*
X83395Y-61011D01*
X83395Y-60955D01*
X83384Y-60932D01*
X83373Y-60921D01*
X83350Y-60910D01*
X83328Y-60910D01*
X83305Y-60921D01*
X83294Y-60932D01*
X83283Y-60955D01*
X83271Y-61000D01*
X83260Y-61022D01*
X83249Y-61033D01*
X83226Y-61044D01*
X83204Y-61044D01*
X83181Y-61033D01*
X83170Y-61022D01*
X83159Y-61000D01*
X83159Y-60943D01*
X83170Y-60910D01*
X83159Y-60831D02*
X83159Y-60685D01*
X83249Y-60763D01*
X83249Y-60730D01*
X83260Y-60707D01*
X83271Y-60696D01*
X83294Y-60685D01*
X83350Y-60685D01*
X83373Y-60696D01*
X83384Y-60707D01*
X83395Y-60730D01*
X83395Y-60797D01*
X83384Y-60820D01*
X83373Y-60831D01*
X83395Y-62253D02*
X83159Y-62253D01*
X83328Y-62174D01*
X83159Y-62096D01*
X83395Y-62096D01*
X83384Y-61994D02*
X83395Y-61961D01*
X83395Y-61905D01*
X83384Y-61882D01*
X83373Y-61871D01*
X83350Y-61860D01*
X83328Y-61860D01*
X83305Y-61871D01*
X83294Y-61882D01*
X83283Y-61905D01*
X83271Y-61950D01*
X83260Y-61972D01*
X83249Y-61983D01*
X83226Y-61994D01*
X83204Y-61994D01*
X83181Y-61983D01*
X83170Y-61972D01*
X83159Y-61950D01*
X83159Y-61893D01*
X83170Y-61860D01*
X83181Y-61770D02*
X83170Y-61758D01*
X83159Y-61736D01*
X83159Y-61680D01*
X83170Y-61657D01*
X83181Y-61646D01*
X83204Y-61635D01*
X83226Y-61635D01*
X83260Y-61646D01*
X83395Y-61781D01*
X83395Y-61635D01*
X83395Y-63203D02*
X83159Y-63203D01*
X83328Y-63124D01*
X83159Y-63046D01*
X83395Y-63046D01*
X83384Y-62944D02*
X83395Y-62911D01*
X83395Y-62855D01*
X83384Y-62832D01*
X83373Y-62821D01*
X83350Y-62810D01*
X83328Y-62810D01*
X83305Y-62821D01*
X83294Y-62832D01*
X83283Y-62855D01*
X83271Y-62900D01*
X83260Y-62922D01*
X83249Y-62933D01*
X83226Y-62944D01*
X83204Y-62944D01*
X83181Y-62933D01*
X83170Y-62922D01*
X83159Y-62900D01*
X83159Y-62843D01*
X83170Y-62810D01*
X83395Y-62585D02*
X83395Y-62720D01*
X83395Y-62652D02*
X83159Y-62652D01*
X83193Y-62675D01*
X83215Y-62697D01*
X83226Y-62720D01*
X75145Y-63153D02*
X74909Y-63153D01*
X75078Y-63074D01*
X74909Y-62996D01*
X75145Y-62996D01*
X75134Y-62894D02*
X75145Y-62861D01*
X75145Y-62805D01*
X75134Y-62782D01*
X75123Y-62771D01*
X75100Y-62760D01*
X75078Y-62760D01*
X75055Y-62771D01*
X75044Y-62782D01*
X75033Y-62805D01*
X75021Y-62850D01*
X75010Y-62872D01*
X74999Y-62883D01*
X74976Y-62894D01*
X74954Y-62894D01*
X74931Y-62883D01*
X74920Y-62872D01*
X74909Y-62850D01*
X74909Y-62793D01*
X74920Y-62760D01*
X75145Y-62535D02*
X75145Y-62670D01*
X75145Y-62602D02*
X74909Y-62602D01*
X74943Y-62625D01*
X74965Y-62647D01*
X74976Y-62670D01*
X75145Y-62203D02*
X74909Y-62203D01*
X75078Y-62124D01*
X74909Y-62046D01*
X75145Y-62046D01*
X75134Y-61944D02*
X75145Y-61911D01*
X75145Y-61855D01*
X75134Y-61832D01*
X75123Y-61821D01*
X75100Y-61810D01*
X75078Y-61810D01*
X75055Y-61821D01*
X75044Y-61832D01*
X75033Y-61855D01*
X75021Y-61900D01*
X75010Y-61922D01*
X74999Y-61933D01*
X74976Y-61944D01*
X74954Y-61944D01*
X74931Y-61933D01*
X74920Y-61922D01*
X74909Y-61900D01*
X74909Y-61843D01*
X74920Y-61810D01*
X74931Y-61720D02*
X74920Y-61708D01*
X74909Y-61686D01*
X74909Y-61630D01*
X74920Y-61607D01*
X74931Y-61596D01*
X74954Y-61585D01*
X74976Y-61585D01*
X75010Y-61596D01*
X75145Y-61731D01*
X75145Y-61585D01*
X75145Y-61203D02*
X74909Y-61203D01*
X75078Y-61124D01*
X74909Y-61046D01*
X75145Y-61046D01*
X75134Y-60944D02*
X75145Y-60911D01*
X75145Y-60855D01*
X75134Y-60832D01*
X75123Y-60821D01*
X75100Y-60810D01*
X75078Y-60810D01*
X75055Y-60821D01*
X75044Y-60832D01*
X75033Y-60855D01*
X75021Y-60900D01*
X75010Y-60922D01*
X74999Y-60933D01*
X74976Y-60944D01*
X74954Y-60944D01*
X74931Y-60933D01*
X74920Y-60922D01*
X74909Y-60900D01*
X74909Y-60843D01*
X74920Y-60810D01*
X74909Y-60731D02*
X74909Y-60585D01*
X74999Y-60663D01*
X74999Y-60630D01*
X75010Y-60607D01*
X75021Y-60596D01*
X75044Y-60585D01*
X75100Y-60585D01*
X75123Y-60596D01*
X75134Y-60607D01*
X75145Y-60630D01*
X75145Y-60697D01*
X75134Y-60720D01*
X75123Y-60731D01*
X84945Y-71003D02*
X84709Y-71003D01*
X84878Y-70924D01*
X84709Y-70846D01*
X84945Y-70846D01*
X84934Y-70744D02*
X84945Y-70711D01*
X84945Y-70655D01*
X84934Y-70632D01*
X84923Y-70621D01*
X84900Y-70610D01*
X84878Y-70610D01*
X84855Y-70621D01*
X84844Y-70632D01*
X84833Y-70655D01*
X84821Y-70700D01*
X84810Y-70722D01*
X84799Y-70733D01*
X84776Y-70744D01*
X84754Y-70744D01*
X84731Y-70733D01*
X84720Y-70722D01*
X84709Y-70700D01*
X84709Y-70643D01*
X84720Y-70610D01*
X84945Y-70385D02*
X84945Y-70520D01*
X84945Y-70452D02*
X84709Y-70452D01*
X84743Y-70475D01*
X84765Y-70497D01*
X84776Y-70520D01*
X78609Y-67491D02*
X78609Y-67356D01*
X78845Y-67423D02*
X78609Y-67423D01*
X78721Y-67277D02*
X78721Y-67198D01*
X78845Y-67164D02*
X78845Y-67277D01*
X78609Y-67277D01*
X78609Y-67164D01*
X78823Y-66928D02*
X78834Y-66939D01*
X78845Y-66973D01*
X78845Y-66996D01*
X78834Y-67029D01*
X78811Y-67052D01*
X78789Y-67063D01*
X78744Y-67074D01*
X78710Y-67074D01*
X78665Y-67063D01*
X78643Y-67052D01*
X78620Y-67029D01*
X78609Y-66996D01*
X78609Y-66973D01*
X78620Y-66939D01*
X78631Y-66928D01*
X78845Y-66827D02*
X78609Y-66827D01*
X78778Y-66748D01*
X78609Y-66670D01*
X78845Y-66670D01*
X78845Y-66523D02*
X78834Y-66546D01*
X78823Y-66557D01*
X78800Y-66568D01*
X78733Y-66568D01*
X78710Y-66557D01*
X78699Y-66546D01*
X78688Y-66523D01*
X78688Y-66490D01*
X78699Y-66467D01*
X78710Y-66456D01*
X78733Y-66445D01*
X78800Y-66445D01*
X78823Y-66456D01*
X78834Y-66467D01*
X78845Y-66490D01*
X78845Y-66523D01*
X78845Y-66242D02*
X78609Y-66242D01*
X78834Y-66242D02*
X78845Y-66265D01*
X78845Y-66310D01*
X78834Y-66332D01*
X78823Y-66343D01*
X78800Y-66355D01*
X78733Y-66355D01*
X78710Y-66343D01*
X78699Y-66332D01*
X78688Y-66310D01*
X78688Y-66265D01*
X78699Y-66242D01*
X88471Y-61809D02*
X88628Y-62045D01*
X88628Y-61809D02*
X88471Y-62045D01*
X90021Y-69509D02*
X90178Y-69509D01*
X90021Y-69745D01*
X90178Y-69745D01*
X78845Y-68593D02*
X78845Y-68706D01*
X78609Y-68706D01*
X78845Y-68514D02*
X78609Y-68514D01*
X78609Y-68458D01*
X78620Y-68424D01*
X78643Y-68402D01*
X78665Y-68391D01*
X78710Y-68379D01*
X78744Y-68379D01*
X78789Y-68391D01*
X78811Y-68402D01*
X78834Y-68424D01*
X78845Y-68458D01*
X78845Y-68514D01*
X78845Y-68278D02*
X78609Y-68278D01*
X78778Y-68200D01*
X78609Y-68121D01*
X78845Y-68121D01*
X78845Y-67975D02*
X78834Y-67997D01*
X78823Y-68008D01*
X78800Y-68020D01*
X78733Y-68020D01*
X78710Y-68008D01*
X78699Y-67997D01*
X78688Y-67975D01*
X78688Y-67941D01*
X78699Y-67918D01*
X78710Y-67907D01*
X78733Y-67896D01*
X78800Y-67896D01*
X78823Y-67907D01*
X78834Y-67918D01*
X78845Y-67941D01*
X78845Y-67975D01*
X78845Y-67693D02*
X78609Y-67693D01*
X78834Y-67693D02*
X78845Y-67716D01*
X78845Y-67761D01*
X78834Y-67783D01*
X78823Y-67795D01*
X78800Y-67806D01*
X78733Y-67806D01*
X78710Y-67795D01*
X78699Y-67783D01*
X78688Y-67761D01*
X78688Y-67716D01*
X78699Y-67693D01*
G54D13*
X75221Y-67654D02*
X75378Y-67654D01*
X75378Y-67654D02*
X75378Y-67556D01*
X75221Y-67556D02*
X75378Y-67556D01*
X75221Y-67654D02*
X75221Y-67556D01*
X75221Y-67851D02*
X75378Y-67851D01*
X75378Y-67851D02*
X75378Y-67753D01*
X75221Y-67753D02*
X75378Y-67753D01*
X75221Y-67851D02*
X75221Y-67753D01*
X75221Y-68047D02*
X75378Y-68047D01*
X75378Y-68047D02*
X75378Y-67949D01*
X75221Y-67949D02*
X75378Y-67949D01*
X75221Y-68047D02*
X75221Y-67949D01*
X75221Y-68244D02*
X75378Y-68244D01*
X75378Y-68244D02*
X75378Y-68146D01*
X75221Y-68146D02*
X75378Y-68146D01*
X75221Y-68244D02*
X75221Y-68146D01*
X76322Y-68244D02*
X76479Y-68244D01*
X76479Y-68244D02*
X76479Y-68146D01*
X76322Y-68146D02*
X76479Y-68146D01*
X76322Y-68244D02*
X76322Y-68146D01*
X76322Y-68047D02*
X76479Y-68047D01*
X76479Y-68047D02*
X76479Y-67949D01*
X76322Y-67949D02*
X76479Y-67949D01*
X76322Y-68047D02*
X76322Y-67949D01*
X76322Y-67851D02*
X76479Y-67851D01*
X76479Y-67851D02*
X76479Y-67753D01*
X76322Y-67753D02*
X76479Y-67753D01*
X76322Y-67851D02*
X76322Y-67753D01*
X76322Y-67654D02*
X76479Y-67654D01*
X76479Y-67654D02*
X76479Y-67556D01*
X76322Y-67556D02*
X76479Y-67556D01*
X76322Y-67654D02*
X76322Y-67556D01*
G54D14*
X74984Y-68411D02*
X74984Y-67389D01*
X74984Y-67389D02*
X76716Y-67389D01*
X76716Y-67389D02*
X76716Y-68411D01*
X76716Y-68411D02*
X74984Y-68411D01*
G54D15*
X75555Y-68313D02*
X75555Y-67487D01*
X75555Y-67487D02*
X76145Y-67487D01*
X76145Y-67487D02*
X76145Y-68313D01*
X76145Y-68313D02*
X75555Y-68313D01*
X75378Y-68313D02*
X75378Y-67487D01*
X75378Y-67487D02*
X76322Y-67487D01*
X76322Y-67487D02*
X76322Y-68313D01*
X76322Y-68313D02*
X75378Y-68313D01*
X75555Y-67487D02*
X75752Y-67487D01*
X75752Y-67487D02*
X75555Y-67684D01*
X75555Y-67684D02*
X75555Y-67487D01*
G54D14*
X75450Y-67348D02*
G75*
G03X75450Y-67348I-69J0D01*
G74*
G01*
G54D16*
X62300Y-73200D02*
X62000Y-73200D01*
X62000Y-73200D02*
X62000Y-76600D01*
X62000Y-76600D02*
X62300Y-76600D01*
X63500Y-73200D02*
X63500Y-76600D01*
X67300Y-73200D02*
X67300Y-76600D01*
X62300Y-76600D02*
X67300Y-76600D01*
X62300Y-73200D02*
X67300Y-73200D01*
G54D15*
X68111Y-63850D02*
G75*
G03X68111Y-63850I-111J0D01*
G74*
G01*
X69750Y-62350D02*
X67750Y-62350D01*
X67750Y-62350D02*
X67750Y-64150D01*
X67750Y-64150D02*
X69750Y-64150D01*
X69750Y-64150D02*
X69750Y-62350D01*
G54D17*
X78674Y-69800D02*
X78674Y-70800D01*
X78674Y-70800D02*
X76674Y-70800D01*
X76674Y-70800D02*
X76674Y-69800D01*
X76674Y-69800D02*
X78674Y-69800D01*
G54D10*
X88550Y-60950D02*
X87800Y-60950D01*
X88550Y-62950D02*
X87800Y-62950D01*
X87800Y-63450D02*
X87800Y-60450D01*
X87800Y-60450D02*
X82800Y-60450D01*
X82800Y-60450D02*
X82800Y-63450D01*
X82800Y-63450D02*
X87800Y-63450D01*
X80300Y-60900D02*
X79550Y-60900D01*
X80300Y-62900D02*
X79550Y-62900D01*
X79550Y-63400D02*
X79550Y-60400D01*
X79550Y-60400D02*
X74550Y-60400D01*
X74550Y-60400D02*
X74550Y-63400D01*
X74550Y-63400D02*
X79550Y-63400D01*
X90100Y-68674D02*
X89350Y-68674D01*
X90100Y-70674D02*
X89350Y-70674D01*
X89350Y-71174D02*
X89350Y-68174D01*
X89350Y-68174D02*
X84350Y-68174D01*
X84350Y-68174D02*
X84350Y-71174D01*
X84350Y-71174D02*
X89350Y-71174D01*
G54D15*
X77560Y-67580D02*
X77240Y-67580D01*
X77250Y-68020D02*
X77560Y-68020D01*
X77240Y-68120D02*
X77240Y-67480D01*
X77240Y-67480D02*
X77560Y-67480D01*
X77560Y-67480D02*
X77560Y-68120D01*
X77560Y-68120D02*
X77240Y-68120D01*
X78460Y-67630D02*
X78140Y-67630D01*
X78150Y-68070D02*
X78460Y-68070D01*
X78140Y-68170D02*
X78140Y-67530D01*
X78140Y-67530D02*
X78460Y-67530D01*
X78460Y-67530D02*
X78460Y-68170D01*
X78460Y-68170D02*
X78140Y-68170D01*
X68700Y-59550D02*
X68700Y-60850D01*
X67400Y-59550D02*
X67400Y-60850D01*
X67150Y-59550D02*
X67150Y-60850D01*
X67150Y-60850D02*
X68950Y-60850D01*
X68950Y-60850D02*
X68950Y-59550D01*
X68950Y-59550D02*
X67150Y-59550D01*
X68600Y-64900D02*
X68600Y-65400D01*
X68100Y-64900D02*
X68100Y-65390D01*
X67950Y-64900D02*
X68750Y-64900D01*
X68750Y-64900D02*
X68750Y-65400D01*
X68750Y-65400D02*
X67950Y-65400D01*
X67950Y-65400D02*
X67950Y-64900D01*
X68284Y-72180D02*
X69264Y-72180D01*
X69264Y-70920D02*
X68284Y-70920D01*
X68284Y-71100D02*
X69264Y-71100D01*
X69264Y-72000D02*
X68284Y-72000D01*
X69264Y-72180D02*
X69264Y-70920D01*
X68284Y-70920D02*
X68284Y-72180D01*
X73750Y-73250D02*
X74250Y-73250D01*
X73750Y-73750D02*
X74240Y-73750D01*
X73750Y-73900D02*
X73750Y-73100D01*
X73750Y-73100D02*
X74250Y-73100D01*
X74250Y-73100D02*
X74250Y-73900D01*
X74250Y-73900D02*
X73750Y-73900D01*
G54D18*
X66870Y-64039D02*
X64430Y-64039D01*
X64430Y-63999D02*
X66870Y-63999D01*
X66870Y-63960D02*
X64430Y-63960D01*
X64430Y-63920D02*
X66870Y-63920D01*
X66870Y-63881D02*
X64430Y-63881D01*
X64430Y-63842D02*
X66870Y-63842D01*
X66870Y-63802D02*
X64430Y-63802D01*
X66870Y-61323D02*
X66870Y-64077D01*
X66870Y-64078D02*
X64430Y-64078D01*
X64430Y-64078D02*
X64430Y-61322D01*
X64430Y-61322D02*
X66870Y-61322D01*
X70361Y-72320D02*
X70361Y-69880D01*
X70401Y-69880D02*
X70401Y-72320D01*
X70440Y-72320D02*
X70440Y-69880D01*
X70480Y-69880D02*
X70480Y-72320D01*
X70519Y-72320D02*
X70519Y-69880D01*
X70558Y-69880D02*
X70558Y-72320D01*
X70598Y-72320D02*
X70598Y-69880D01*
X73077Y-72320D02*
X70323Y-72320D01*
X70322Y-72320D02*
X70322Y-69880D01*
X70322Y-69880D02*
X73078Y-69880D01*
X73078Y-69880D02*
X73078Y-72320D01*
G54D17*
X78674Y-68800D02*
X78674Y-69800D01*
X78674Y-69800D02*
X76674Y-69800D01*
X76674Y-69800D02*
X76674Y-68800D01*
X76674Y-68800D02*
X78674Y-68800D01*
X72250Y-59250D02*
X71250Y-59250D01*
X71250Y-59250D02*
X71250Y-57250D01*
X71250Y-57250D02*
X72250Y-57250D01*
X72250Y-57250D02*
X72250Y-59250D01*
X69050Y-59250D02*
X68050Y-59250D01*
X68050Y-59250D02*
X68050Y-57250D01*
X68050Y-57250D02*
X69050Y-57250D01*
X69050Y-57250D02*
X69050Y-59250D01*
X68050Y-59250D02*
X67050Y-59250D01*
X67050Y-59250D02*
X67050Y-57250D01*
X67050Y-57250D02*
X68050Y-57250D01*
X68050Y-57250D02*
X68050Y-59250D01*
X67050Y-59250D02*
X66050Y-59250D01*
X66050Y-59250D02*
X66050Y-57250D01*
X66050Y-57250D02*
X67050Y-57250D01*
X67050Y-57250D02*
X67050Y-59250D01*
X66050Y-59250D02*
X65050Y-59250D01*
X65050Y-59250D02*
X65050Y-57250D01*
X65050Y-57250D02*
X66050Y-57250D01*
X66050Y-57250D02*
X66050Y-59250D01*
X65050Y-59250D02*
X64050Y-59250D01*
X64050Y-59250D02*
X64050Y-57250D01*
X64050Y-57250D02*
X65050Y-57250D01*
X65050Y-57250D02*
X65050Y-59250D01*
X78100Y-72100D02*
X78100Y-73100D01*
X78100Y-73100D02*
X76100Y-73100D01*
X76100Y-73100D02*
X76100Y-72100D01*
X76100Y-72100D02*
X78100Y-72100D01*
X69550Y-67500D02*
X70550Y-67500D01*
X70550Y-67500D02*
X70550Y-69500D01*
X70550Y-69500D02*
X69550Y-69500D01*
X69550Y-69500D02*
X69550Y-67500D01*
X70550Y-67500D02*
X71550Y-67500D01*
X71550Y-67500D02*
X71550Y-69500D01*
X71550Y-69500D02*
X70550Y-69500D01*
X70550Y-69500D02*
X70550Y-67500D01*
X71550Y-67500D02*
X72550Y-67500D01*
X72550Y-67500D02*
X72550Y-69500D01*
X72550Y-69500D02*
X71550Y-69500D01*
X71550Y-69500D02*
X71550Y-67500D01*
X79000Y-76250D02*
X79000Y-75250D01*
X79000Y-75250D02*
X81000Y-75250D01*
X81000Y-75250D02*
X81000Y-76250D01*
X81000Y-76250D02*
X79000Y-76250D01*
X81000Y-76250D02*
X81000Y-75250D01*
X81000Y-75250D02*
X83000Y-75250D01*
X83000Y-75250D02*
X83000Y-76250D01*
X83000Y-76250D02*
X81000Y-76250D01*
X79325Y-69000D02*
X80325Y-69000D01*
X80325Y-69000D02*
X80325Y-72000D01*
X80325Y-72000D02*
X79325Y-72000D01*
X79325Y-72000D02*
X79325Y-69000D01*
X80325Y-70000D02*
X79325Y-70000D01*
X80374Y-69000D02*
X81374Y-69000D01*
X81374Y-69000D02*
X81374Y-72000D01*
X81374Y-72000D02*
X80374Y-72000D01*
X80374Y-72000D02*
X80374Y-69000D01*
X81374Y-70000D02*
X80374Y-70000D01*
X78950Y-67674D02*
X78950Y-66674D01*
X78950Y-66674D02*
X81950Y-66674D01*
X81950Y-66674D02*
X81950Y-67674D01*
X81950Y-67674D02*
X78950Y-67674D01*
X79950Y-66674D02*
X79950Y-67674D01*
X78950Y-68674D02*
X78950Y-67674D01*
X78950Y-67674D02*
X81950Y-67674D01*
X81950Y-67674D02*
X81950Y-68674D01*
X81950Y-68674D02*
X78950Y-68674D01*
X79950Y-67674D02*
X79950Y-68674D01*
G54D10*
X64087Y-69474D02*
G75*
G03X64875Y-70262I787J0D01*
G74*
G01*
X68024Y-70262D02*
G75*
G03X68812Y-69474I0J787D01*
G74*
G01*
X68812Y-66325D02*
G75*
G03X68024Y-65537I-787J0D01*
G74*
G01*
X64875Y-65537D02*
G75*
G03X64087Y-66325I0J-787D01*
G74*
G01*
X64087Y-69474D02*
X64087Y-66325D01*
X68812Y-66325D02*
X68812Y-69474D01*
X64875Y-65537D02*
X68024Y-65537D01*
X68024Y-70262D02*
X64875Y-70262D01*
G54D17*
X77000Y-76250D02*
X77000Y-75250D01*
X77000Y-75250D02*
X79000Y-75250D01*
X79000Y-75250D02*
X79000Y-76250D01*
X79000Y-76250D02*
X77000Y-76250D01*
G54D19*
X89000Y-75250D02*
X89000Y-76250D01*
X89000Y-76250D02*
X83000Y-76250D01*
X83000Y-76250D02*
X83000Y-75250D01*
X83000Y-75250D02*
X89000Y-75250D01*
X88000Y-75250D02*
X88000Y-76250D01*
G54D20*
X83050Y-60450D02*
X83050Y-63450D01*
X81050Y-63450D02*
X81050Y-60450D01*
X81050Y-60450D02*
X83050Y-60450D01*
X83050Y-63450D02*
X81050Y-63450D01*
G54D21*
X81050Y-65150D02*
X85050Y-65150D01*
X81050Y-66150D02*
X85050Y-66150D01*
X85050Y-66150D02*
X85050Y-65150D01*
X81050Y-65150D02*
X81050Y-66150D01*
G54D20*
X74800Y-60400D02*
X74800Y-63400D01*
X72800Y-63400D02*
X72800Y-60400D01*
X72800Y-60400D02*
X74800Y-60400D01*
X74800Y-63400D02*
X72800Y-63400D01*
G54D21*
X76800Y-65100D02*
X80800Y-65100D01*
X76800Y-66100D02*
X80800Y-66100D01*
X80800Y-66100D02*
X80800Y-65100D01*
X76800Y-65100D02*
X76800Y-66100D01*
G54D20*
X84600Y-68174D02*
X84600Y-71174D01*
X82600Y-71174D02*
X82600Y-68174D01*
X82600Y-68174D02*
X84600Y-68174D01*
X84600Y-71174D02*
X82600Y-71174D01*
G54D21*
X85200Y-73000D02*
X89200Y-73000D01*
X85200Y-74000D02*
X89200Y-74000D01*
X89200Y-74000D02*
X89200Y-73000D01*
X85200Y-73000D02*
X85200Y-74000D01*
G54D22*
X66625Y-70624D02*
X66625Y-73124D01*
X66625Y-70624D02*
X63875Y-70624D01*
X64725Y-70624D02*
X64725Y-73124D01*
X63875Y-73124D02*
X66625Y-73124D01*
X63875Y-73124D02*
X63875Y-70624D01*
G54D17*
X78100Y-73100D02*
X78100Y-74100D01*
X78100Y-74100D02*
X76100Y-74100D01*
X76100Y-74100D02*
X76100Y-73100D01*
X76100Y-73100D02*
X78100Y-73100D01*
G54D15*
X75848Y-60213D02*
X75528Y-60213D01*
X75538Y-60653D02*
X75848Y-60653D01*
X75528Y-60753D02*
X75528Y-60113D01*
X75528Y-60113D02*
X75848Y-60113D01*
X75848Y-60113D02*
X75848Y-60753D01*
X75848Y-60753D02*
X75528Y-60753D01*
X73670Y-68810D02*
X73670Y-68490D01*
X73230Y-68500D02*
X73230Y-68810D01*
X73130Y-68490D02*
X73770Y-68490D01*
X73770Y-68490D02*
X73770Y-68810D01*
X73770Y-68810D02*
X73130Y-68810D01*
X73130Y-68810D02*
X73130Y-68490D01*
X78220Y-66885D02*
X78220Y-66565D01*
X77780Y-66575D02*
X77780Y-66885D01*
X77680Y-66565D02*
X78320Y-66565D01*
X78320Y-66565D02*
X78320Y-66885D01*
X78320Y-66885D02*
X77680Y-66885D01*
X77680Y-66885D02*
X77680Y-66565D01*
X74630Y-66790D02*
X74630Y-67110D01*
X75070Y-67100D02*
X75070Y-66790D01*
X75170Y-67110D02*
X74530Y-67110D01*
X74530Y-67110D02*
X74530Y-66790D01*
X74530Y-66790D02*
X75170Y-66790D01*
X75170Y-66790D02*
X75170Y-67110D01*
X69950Y-60581D02*
X69950Y-60081D01*
X70450Y-60581D02*
X70450Y-60091D01*
X70600Y-60581D02*
X69800Y-60581D01*
X69800Y-60581D02*
X69800Y-60081D01*
X69800Y-60081D02*
X70600Y-60081D01*
X70600Y-60081D02*
X70600Y-60581D01*
X71250Y-64800D02*
X71250Y-64300D01*
X71750Y-64800D02*
X71750Y-64310D01*
X71900Y-64800D02*
X71100Y-64800D01*
X71100Y-64800D02*
X71100Y-64300D01*
X71100Y-64300D02*
X71900Y-64300D01*
X71900Y-64300D02*
X71900Y-64800D01*
X71250Y-65800D02*
X71250Y-65300D01*
X71750Y-65800D02*
X71750Y-65310D01*
X71900Y-65800D02*
X71100Y-65800D01*
X71100Y-65800D02*
X71100Y-65300D01*
X71100Y-65300D02*
X71900Y-65300D01*
X71900Y-65300D02*
X71900Y-65800D01*
X71250Y-66800D02*
X71250Y-66300D01*
X71750Y-66800D02*
X71750Y-66310D01*
X71900Y-66800D02*
X71100Y-66800D01*
X71100Y-66800D02*
X71100Y-66300D01*
X71100Y-66300D02*
X71900Y-66300D01*
X71900Y-66300D02*
X71900Y-66800D01*
X71250Y-63800D02*
X71250Y-63300D01*
X71750Y-63800D02*
X71750Y-63310D01*
X71900Y-63800D02*
X71100Y-63800D01*
X71100Y-63800D02*
X71100Y-63300D01*
X71100Y-63300D02*
X71900Y-63300D01*
X71900Y-63300D02*
X71900Y-63800D01*
X82870Y-77310D02*
X83190Y-77310D01*
X83180Y-76870D02*
X82870Y-76870D01*
X83190Y-76770D02*
X83190Y-77410D01*
X83190Y-77410D02*
X82870Y-77410D01*
X82870Y-77410D02*
X82870Y-76770D01*
X82870Y-76770D02*
X83190Y-76770D01*
X75180Y-72640D02*
X75180Y-72960D01*
X75620Y-72950D02*
X75620Y-72640D01*
X75720Y-72960D02*
X75080Y-72960D01*
X75080Y-72960D02*
X75080Y-72640D01*
X75080Y-72640D02*
X75720Y-72640D01*
X75720Y-72640D02*
X75720Y-72960D01*
X75180Y-73460D02*
X75180Y-73780D01*
X75620Y-73770D02*
X75620Y-73460D01*
X75720Y-73780D02*
X75080Y-73780D01*
X75080Y-73780D02*
X75080Y-73460D01*
X75080Y-73460D02*
X75720Y-73460D01*
X75720Y-73460D02*
X75720Y-73780D01*
G54D16*
X90000Y-62000D02*
X90000Y-57500D01*
X90000Y-57500D02*
X89500Y-57000D01*
X89500Y-57000D02*
X64000Y-57000D01*
X90000Y-78000D02*
X64000Y-78000D01*
X64000Y-78000D02*
X64000Y-57000D01*
X90000Y-62000D02*
X91000Y-63000D01*
X91000Y-63000D02*
X91000Y-76000D01*
X91000Y-76000D02*
X90000Y-77000D01*
X90000Y-77000D02*
X90000Y-78000D01*
G54D19*
X76200Y-77200D02*
X73800Y-77200D01*
X73800Y-77200D02*
X73800Y-74800D01*
X73800Y-74800D02*
X76200Y-74800D01*
X76200Y-74800D02*
X76200Y-77200D01*
G54D23*
X75316Y-76000D02*
G75*
G03X75316Y-76000I-316J0D01*
G74*
G01*
G54D10*
X81050Y-59950D02*
X81050Y-58950D01*
X81050Y-64950D02*
X81050Y-63950D01*
X81050Y-64950D02*
X89050Y-64950D01*
X89050Y-64950D02*
X89050Y-63950D01*
X89050Y-63950D02*
X81050Y-63950D01*
X81050Y-58950D02*
X89050Y-58950D01*
X89050Y-58950D02*
X89050Y-59950D01*
X89050Y-59950D02*
X81050Y-59950D01*
X72800Y-59900D02*
X72800Y-58900D01*
X72800Y-64900D02*
X72800Y-63900D01*
X72800Y-64900D02*
X80800Y-64900D01*
X80800Y-64900D02*
X80800Y-63900D01*
X80800Y-63900D02*
X72800Y-63900D01*
X72800Y-58900D02*
X80800Y-58900D01*
X80800Y-58900D02*
X80800Y-59900D01*
X80800Y-59900D02*
X72800Y-59900D01*
X82600Y-67674D02*
X82600Y-66674D01*
X82600Y-72674D02*
X82600Y-71674D01*
X82600Y-72674D02*
X90600Y-72674D01*
X90600Y-72674D02*
X90600Y-71674D01*
X90600Y-71674D02*
X82600Y-71674D01*
X82600Y-66674D02*
X90600Y-66674D01*
X90600Y-66674D02*
X90600Y-67674D01*
X90600Y-67674D02*
X82600Y-67674D01*
X68500Y-76600D02*
X73500Y-76600D01*
X73500Y-73100D02*
X68500Y-73100D01*
X68500Y-76600D02*
X68500Y-73100D01*
X73500Y-73100D02*
X73500Y-76600D01*
G54D15*
X71317Y-61760D02*
X71317Y-62080D01*
X71757Y-62070D02*
X71757Y-61760D01*
X71857Y-62080D02*
X71217Y-62080D01*
X71217Y-62080D02*
X71217Y-61760D01*
X71217Y-61760D02*
X71857Y-61760D01*
X71857Y-61760D02*
X71857Y-62080D01*
X71190Y-60570D02*
X71510Y-60570D01*
X71500Y-60130D02*
X71190Y-60130D01*
X71510Y-60030D02*
X71510Y-60670D01*
X71510Y-60670D02*
X71190Y-60670D01*
X71190Y-60670D02*
X71190Y-60030D01*
X71190Y-60030D02*
X71510Y-60030D01*
X74100Y-71300D02*
X74100Y-71350D01*
X74100Y-71350D02*
X76200Y-71350D01*
X76200Y-69850D02*
X74100Y-69850D01*
X74100Y-69850D02*
X74100Y-71300D01*
X74100Y-70400D02*
X74300Y-70400D01*
X74300Y-70400D02*
X74300Y-70800D01*
X74300Y-70800D02*
X74100Y-70800D01*
X76200Y-69850D02*
X76200Y-71350D01*
G54D21*
X72700Y-65100D02*
X76700Y-65100D01*
X72700Y-66100D02*
X76700Y-66100D01*
X76700Y-66100D02*
X76700Y-65100D01*
X72700Y-65100D02*
X72700Y-66100D01*
X85100Y-65150D02*
X89100Y-65150D01*
X85100Y-66150D02*
X89100Y-66150D01*
X89100Y-66150D02*
X89100Y-65150D01*
X85100Y-65150D02*
X85100Y-66150D01*
G54D15*
X83275Y-73675D02*
X83535Y-73675D01*
X83275Y-74425D02*
X83535Y-74425D01*
X82725Y-74050D02*
X82465Y-74050D01*
X82725Y-74640D02*
X82725Y-73460D01*
X82725Y-73460D02*
X83275Y-73460D01*
X83275Y-73460D02*
X83275Y-74640D01*
X83275Y-74640D02*
X82725Y-74640D01*
X81500Y-75000D02*
X81500Y-74100D01*
X81500Y-74100D02*
X82000Y-74100D01*
X82000Y-74100D02*
X82000Y-75000D01*
X82000Y-75000D02*
X81500Y-75000D01*
X81850Y-72300D02*
X81850Y-71400D01*
X81850Y-71400D02*
X82350Y-71400D01*
X82350Y-71400D02*
X82350Y-72300D01*
X82350Y-72300D02*
X81850Y-72300D01*
X84200Y-74400D02*
X84200Y-73500D01*
X84200Y-73500D02*
X84700Y-73500D01*
X84700Y-73500D02*
X84700Y-74400D01*
X84700Y-74400D02*
X84200Y-74400D01*
X89809Y-64623D02*
X89809Y-63723D01*
X89809Y-63723D02*
X90309Y-63723D01*
X90309Y-63723D02*
X90309Y-64623D01*
X90309Y-64623D02*
X89809Y-64623D01*
G54D17*
X81100Y-73100D02*
X81100Y-74100D01*
X81100Y-74100D02*
X78100Y-74100D01*
X78100Y-74100D02*
X78100Y-73100D01*
X78100Y-73100D02*
X81100Y-73100D01*
X80100Y-74100D02*
X80100Y-73100D01*
G54D15*
X93356Y-76447D02*
X93435Y-76447D01*
X93396Y-76053D02*
X93396Y-76447D01*
X93356Y-76447D02*
X93356Y-76053D01*
X93356Y-76053D02*
X93435Y-76053D01*
X93868Y-75974D02*
X93632Y-75974D01*
X93632Y-75974D02*
X93632Y-76132D01*
X93632Y-76132D02*
X93474Y-76132D01*
X93474Y-76132D02*
X93474Y-76368D01*
X93474Y-76368D02*
X93632Y-76368D01*
X93632Y-76368D02*
X93632Y-76526D01*
X93632Y-76526D02*
X93868Y-76526D01*
X93868Y-76526D02*
X93868Y-76368D01*
X93868Y-76368D02*
X94026Y-76368D01*
X94026Y-76368D02*
X94026Y-76171D01*
X94026Y-76171D02*
X94026Y-76132D01*
X94026Y-76132D02*
X93868Y-76132D01*
X93868Y-76132D02*
X93868Y-75974D01*
X94121Y-76250D02*
G75*
G03X94121Y-76250I-371J0D01*
G74*
G01*
X94183Y-75817D02*
X94183Y-76683D01*
X94183Y-76683D02*
X93317Y-76683D01*
X93317Y-76683D02*
X93317Y-75817D01*
X93317Y-75817D02*
X94183Y-75817D01*
X93300Y-75250D02*
X94200Y-75250D01*
X94200Y-75250D02*
X94200Y-75750D01*
X94200Y-75750D02*
X93300Y-75750D01*
X93300Y-75750D02*
X93300Y-75250D01*
X94200Y-77250D02*
X93300Y-77250D01*
X93300Y-77250D02*
X93300Y-76750D01*
X93300Y-76750D02*
X94200Y-76750D01*
X94200Y-76750D02*
X94200Y-77250D01*
G54D20*
X95000Y-75000D02*
X95000Y-62000D01*
X93000Y-62000D02*
X93000Y-75000D01*
X93000Y-75000D02*
X95000Y-75000D01*
X95000Y-62000D02*
X93000Y-62000D01*
G54D15*
X76550Y-66800D02*
X75650Y-66800D01*
X75650Y-66800D02*
X75650Y-66300D01*
X75650Y-66300D02*
X76550Y-66300D01*
X76550Y-66300D02*
X76550Y-66800D01*
X73900Y-68150D02*
X73000Y-68150D01*
X73000Y-68150D02*
X73000Y-67650D01*
X73000Y-67650D02*
X73900Y-67650D01*
X73900Y-67650D02*
X73900Y-68150D01*
X73900Y-67350D02*
X73000Y-67350D01*
X73000Y-67350D02*
X73000Y-66850D01*
X73000Y-66850D02*
X73900Y-66850D01*
X73900Y-66850D02*
X73900Y-67350D01*
X85311Y-61509D02*
X85311Y-62309D01*
X85361Y-62459D02*
X85361Y-61359D01*
X85411Y-61259D02*
X85411Y-62559D01*
X85461Y-62659D02*
X85461Y-61159D01*
X85511Y-62709D02*
X85511Y-61109D01*
X85561Y-61009D02*
X85561Y-62809D01*
X88361Y-61909D02*
G75*
G03X88361Y-61909I-1550J0D01*
G74*
G01*
X85161Y-60259D02*
X85161Y-63559D01*
X85161Y-63559D02*
X88161Y-63559D01*
X88161Y-63559D02*
X88461Y-63259D01*
X88461Y-63259D02*
X88461Y-60559D01*
X88461Y-60559D02*
X88161Y-60259D01*
X88161Y-60259D02*
X85161Y-60259D01*
X88261Y-61909D02*
X87961Y-61909D01*
X88111Y-61759D02*
X88111Y-62059D01*
X86984Y-69285D02*
X86984Y-70085D01*
X87034Y-70235D02*
X87034Y-69135D01*
X87084Y-69035D02*
X87084Y-70335D01*
X87134Y-70435D02*
X87134Y-68935D01*
X87184Y-70485D02*
X87184Y-68885D01*
X87234Y-68785D02*
X87234Y-70585D01*
X90034Y-69685D02*
G75*
G03X90034Y-69685I-1550J0D01*
G74*
G01*
X86834Y-68035D02*
X86834Y-71335D01*
X86834Y-71335D02*
X89834Y-71335D01*
X89834Y-71335D02*
X90134Y-71035D01*
X90134Y-71035D02*
X90134Y-68335D01*
X90134Y-68335D02*
X89834Y-68035D01*
X89834Y-68035D02*
X86834Y-68035D01*
X89934Y-69685D02*
X89634Y-69685D01*
X89784Y-69535D02*
X89784Y-69835D01*
X77043Y-61509D02*
X77043Y-62309D01*
X77093Y-62459D02*
X77093Y-61359D01*
X77143Y-61259D02*
X77143Y-62559D01*
X77193Y-62659D02*
X77193Y-61159D01*
X77243Y-62709D02*
X77243Y-61109D01*
X77293Y-61009D02*
X77293Y-62809D01*
X80093Y-61909D02*
G75*
G03X80093Y-61909I-1550J0D01*
G74*
G01*
X76893Y-60259D02*
X76893Y-63559D01*
X76893Y-63559D02*
X79893Y-63559D01*
X79893Y-63559D02*
X80193Y-63259D01*
X80193Y-63259D02*
X80193Y-60559D01*
X80193Y-60559D02*
X79893Y-60259D01*
X79893Y-60259D02*
X76893Y-60259D01*
X79993Y-61909D02*
X79693Y-61909D01*
X79843Y-61759D02*
X79843Y-62059D01*
G54D17*
X81100Y-72100D02*
X81100Y-73100D01*
X81100Y-73100D02*
X78100Y-73100D01*
X78100Y-73100D02*
X78100Y-72100D01*
X78100Y-72100D02*
X81100Y-72100D01*
X80100Y-73100D02*
X80100Y-72100D01*
G54D12*
X75945Y-68080D02*
X75709Y-68080D01*
X75923Y-67833D02*
X75934Y-67844D01*
X75945Y-67878D01*
X75945Y-67900D01*
X75934Y-67934D01*
X75911Y-67956D01*
X75889Y-67968D01*
X75844Y-67979D01*
X75810Y-67979D01*
X75765Y-67968D01*
X75743Y-67956D01*
X75720Y-67934D01*
X75709Y-67900D01*
X75709Y-67878D01*
X75720Y-67844D01*
X75731Y-67833D01*
X75945Y-67608D02*
X75945Y-67743D01*
X75945Y-67675D02*
X75709Y-67675D01*
X75743Y-67698D01*
X75765Y-67720D01*
X75776Y-67743D01*
X67479Y-63399D02*
X67670Y-63399D01*
X67693Y-63388D01*
X67704Y-63377D01*
X67715Y-63354D01*
X67715Y-63309D01*
X67704Y-63287D01*
X67693Y-63276D01*
X67670Y-63264D01*
X67479Y-63264D01*
X67479Y-63040D02*
X67479Y-63152D01*
X67591Y-63163D01*
X67580Y-63152D01*
X67569Y-63130D01*
X67569Y-63073D01*
X67580Y-63051D01*
X67591Y-63040D01*
X67614Y-63028D01*
X67670Y-63028D01*
X67693Y-63040D01*
X67704Y-63051D01*
X67715Y-63073D01*
X67715Y-63130D01*
X67704Y-63152D01*
X67693Y-63163D01*
X77728Y-70704D02*
X77728Y-70592D01*
X77795Y-70727D02*
X77559Y-70648D01*
X77795Y-70569D01*
X77559Y-70491D02*
X77750Y-70491D01*
X77773Y-70479D01*
X77784Y-70468D01*
X77795Y-70446D01*
X77795Y-70401D01*
X77784Y-70378D01*
X77773Y-70367D01*
X77750Y-70356D01*
X77559Y-70356D01*
X77559Y-70266D02*
X77795Y-70108D01*
X77559Y-70108D02*
X77795Y-70266D01*
X77795Y-69895D02*
X77795Y-70030D01*
X77795Y-69962D02*
X77559Y-69962D01*
X77593Y-69985D01*
X77615Y-70007D01*
X77626Y-70030D01*
X87023Y-61939D02*
X87034Y-61950D01*
X87045Y-61984D01*
X87045Y-62006D01*
X87034Y-62040D01*
X87011Y-62063D01*
X86989Y-62074D01*
X86944Y-62085D01*
X86910Y-62085D01*
X86865Y-62074D01*
X86843Y-62063D01*
X86820Y-62040D01*
X86809Y-62006D01*
X86809Y-61984D01*
X86820Y-61950D01*
X86831Y-61939D01*
X87045Y-61714D02*
X87045Y-61849D01*
X87045Y-61781D02*
X86809Y-61781D01*
X86843Y-61804D01*
X86865Y-61826D01*
X86876Y-61849D01*
X87305Y-63039D02*
X87305Y-62860D01*
X87395Y-62949D02*
X87215Y-62949D01*
X78823Y-61939D02*
X78834Y-61950D01*
X78845Y-61984D01*
X78845Y-62006D01*
X78834Y-62040D01*
X78811Y-62063D01*
X78789Y-62074D01*
X78744Y-62085D01*
X78710Y-62085D01*
X78665Y-62074D01*
X78643Y-62063D01*
X78620Y-62040D01*
X78609Y-62006D01*
X78609Y-61984D01*
X78620Y-61950D01*
X78631Y-61939D01*
X78631Y-61849D02*
X78620Y-61838D01*
X78609Y-61815D01*
X78609Y-61759D01*
X78620Y-61736D01*
X78631Y-61725D01*
X78654Y-61714D01*
X78676Y-61714D01*
X78710Y-61725D01*
X78845Y-61860D01*
X78845Y-61714D01*
X79055Y-62989D02*
X79055Y-62810D01*
X79145Y-62899D02*
X78965Y-62899D01*
X88773Y-69689D02*
X88784Y-69700D01*
X88795Y-69734D01*
X88795Y-69756D01*
X88784Y-69790D01*
X88761Y-69813D01*
X88739Y-69824D01*
X88694Y-69835D01*
X88660Y-69835D01*
X88615Y-69824D01*
X88593Y-69813D01*
X88570Y-69790D01*
X88559Y-69756D01*
X88559Y-69734D01*
X88570Y-69700D01*
X88581Y-69689D01*
X88559Y-69610D02*
X88559Y-69464D01*
X88649Y-69543D01*
X88649Y-69509D01*
X88660Y-69486D01*
X88671Y-69475D01*
X88694Y-69464D01*
X88750Y-69464D01*
X88773Y-69475D01*
X88784Y-69486D01*
X88795Y-69509D01*
X88795Y-69576D01*
X88784Y-69599D01*
X88773Y-69610D01*
X88855Y-70764D02*
X88855Y-70584D01*
X88945Y-70674D02*
X88765Y-70674D01*
X77123Y-67789D02*
X77134Y-67800D01*
X77145Y-67834D01*
X77145Y-67856D01*
X77134Y-67890D01*
X77111Y-67913D01*
X77089Y-67924D01*
X77044Y-67935D01*
X77010Y-67935D01*
X76965Y-67924D01*
X76943Y-67913D01*
X76920Y-67890D01*
X76909Y-67856D01*
X76909Y-67834D01*
X76920Y-67800D01*
X76931Y-67789D01*
X76988Y-67586D02*
X77145Y-67586D01*
X76898Y-67643D02*
X77066Y-67699D01*
X77066Y-67553D01*
X78023Y-67839D02*
X78034Y-67850D01*
X78045Y-67884D01*
X78045Y-67906D01*
X78034Y-67940D01*
X78011Y-67963D01*
X77989Y-67974D01*
X77944Y-67985D01*
X77910Y-67985D01*
X77865Y-67974D01*
X77843Y-67963D01*
X77820Y-67940D01*
X77809Y-67906D01*
X77809Y-67884D01*
X77820Y-67850D01*
X77831Y-67839D01*
X77809Y-67625D02*
X77809Y-67738D01*
X77921Y-67749D01*
X77910Y-67738D01*
X77899Y-67715D01*
X77899Y-67659D01*
X77910Y-67636D01*
X77921Y-67625D01*
X77944Y-67614D01*
X78000Y-67614D01*
X78023Y-67625D01*
X78034Y-67636D01*
X78045Y-67659D01*
X78045Y-67715D01*
X78034Y-67738D01*
X78023Y-67749D01*
X68010Y-60373D02*
X67999Y-60384D01*
X67965Y-60395D01*
X67943Y-60395D01*
X67909Y-60384D01*
X67886Y-60361D01*
X67875Y-60339D01*
X67864Y-60294D01*
X67864Y-60260D01*
X67875Y-60215D01*
X67886Y-60193D01*
X67909Y-60170D01*
X67943Y-60159D01*
X67965Y-60159D01*
X67999Y-60170D01*
X68010Y-60181D01*
X68213Y-60159D02*
X68168Y-60159D01*
X68145Y-60170D01*
X68134Y-60181D01*
X68111Y-60215D01*
X68100Y-60260D01*
X68100Y-60350D01*
X68111Y-60373D01*
X68123Y-60384D01*
X68145Y-60395D01*
X68190Y-60395D01*
X68213Y-60384D01*
X68224Y-60373D01*
X68235Y-60350D01*
X68235Y-60294D01*
X68224Y-60271D01*
X68213Y-60260D01*
X68190Y-60249D01*
X68145Y-60249D01*
X68123Y-60260D01*
X68111Y-60271D01*
X68100Y-60294D01*
X67310Y-65173D02*
X67299Y-65184D01*
X67265Y-65195D01*
X67243Y-65195D01*
X67209Y-65184D01*
X67186Y-65161D01*
X67175Y-65139D01*
X67164Y-65094D01*
X67164Y-65060D01*
X67175Y-65015D01*
X67186Y-64993D01*
X67209Y-64970D01*
X67243Y-64959D01*
X67265Y-64959D01*
X67299Y-64970D01*
X67310Y-64981D01*
X67445Y-65060D02*
X67423Y-65049D01*
X67411Y-65038D01*
X67400Y-65015D01*
X67400Y-65004D01*
X67411Y-64981D01*
X67423Y-64970D01*
X67445Y-64959D01*
X67490Y-64959D01*
X67513Y-64970D01*
X67524Y-64981D01*
X67535Y-65004D01*
X67535Y-65015D01*
X67524Y-65038D01*
X67513Y-65049D01*
X67490Y-65060D01*
X67445Y-65060D01*
X67423Y-65071D01*
X67411Y-65083D01*
X67400Y-65105D01*
X67400Y-65150D01*
X67411Y-65173D01*
X67423Y-65184D01*
X67445Y-65195D01*
X67490Y-65195D01*
X67513Y-65184D01*
X67524Y-65173D01*
X67535Y-65150D01*
X67535Y-65105D01*
X67524Y-65083D01*
X67513Y-65071D01*
X67490Y-65060D01*
X68157Y-71579D02*
X68169Y-71590D01*
X68180Y-71624D01*
X68180Y-71646D01*
X68169Y-71680D01*
X68146Y-71703D01*
X68124Y-71714D01*
X68079Y-71725D01*
X68045Y-71725D01*
X68000Y-71714D01*
X67977Y-71703D01*
X67955Y-71680D01*
X67944Y-71646D01*
X67944Y-71624D01*
X67955Y-71590D01*
X67966Y-71579D01*
X68180Y-71466D02*
X68180Y-71421D01*
X68169Y-71399D01*
X68157Y-71388D01*
X68124Y-71365D01*
X68079Y-71354D01*
X67989Y-71354D01*
X67966Y-71365D01*
X67955Y-71376D01*
X67944Y-71399D01*
X67944Y-71444D01*
X67955Y-71466D01*
X67966Y-71478D01*
X67989Y-71489D01*
X68045Y-71489D01*
X68067Y-71478D01*
X68079Y-71466D01*
X68090Y-71444D01*
X68090Y-71399D01*
X68079Y-71376D01*
X68067Y-71365D01*
X68045Y-71354D01*
X74673Y-73651D02*
X74684Y-73663D01*
X74695Y-73696D01*
X74695Y-73719D01*
X74684Y-73753D01*
X74661Y-73775D01*
X74639Y-73786D01*
X74594Y-73798D01*
X74560Y-73798D01*
X74515Y-73786D01*
X74493Y-73775D01*
X74470Y-73753D01*
X74459Y-73719D01*
X74459Y-73696D01*
X74470Y-73663D01*
X74481Y-73651D01*
X74695Y-73426D02*
X74695Y-73561D01*
X74695Y-73494D02*
X74459Y-73494D01*
X74493Y-73516D01*
X74515Y-73539D01*
X74526Y-73561D01*
X74695Y-73201D02*
X74695Y-73336D01*
X74695Y-73269D02*
X74459Y-73269D01*
X74493Y-73291D01*
X74515Y-73314D01*
X74526Y-73336D01*
X65475Y-63395D02*
X65475Y-63159D01*
X65531Y-63159D01*
X65565Y-63170D01*
X65588Y-63193D01*
X65599Y-63215D01*
X65610Y-63260D01*
X65610Y-63294D01*
X65599Y-63339D01*
X65588Y-63361D01*
X65565Y-63384D01*
X65531Y-63395D01*
X65475Y-63395D01*
X65835Y-63395D02*
X65700Y-63395D01*
X65768Y-63395D02*
X65768Y-63159D01*
X65745Y-63193D01*
X65723Y-63215D01*
X65700Y-63226D01*
X71245Y-71274D02*
X71009Y-71274D01*
X71009Y-71218D01*
X71020Y-71184D01*
X71043Y-71161D01*
X71065Y-71150D01*
X71110Y-71139D01*
X71144Y-71139D01*
X71189Y-71150D01*
X71211Y-71161D01*
X71234Y-71184D01*
X71245Y-71218D01*
X71245Y-71274D01*
X71031Y-71049D02*
X71020Y-71038D01*
X71009Y-71015D01*
X71009Y-70959D01*
X71020Y-70936D01*
X71031Y-70925D01*
X71054Y-70914D01*
X71076Y-70914D01*
X71110Y-70925D01*
X71245Y-71060D01*
X71245Y-70914D01*
X77671Y-69553D02*
X77671Y-69632D01*
X77795Y-69632D02*
X77559Y-69632D01*
X77559Y-69519D01*
X77728Y-69441D02*
X77728Y-69328D01*
X77795Y-69463D02*
X77559Y-69384D01*
X77795Y-69306D01*
X77795Y-69227D02*
X77559Y-69227D01*
X77795Y-69092D01*
X77559Y-69092D01*
X77795Y-68856D02*
X77795Y-68991D01*
X77795Y-68923D02*
X77559Y-68923D01*
X77593Y-68946D01*
X77615Y-68968D01*
X77626Y-68991D01*
X71503Y-58109D02*
X71503Y-58278D01*
X71491Y-58311D01*
X71469Y-58334D01*
X71435Y-58345D01*
X71413Y-58345D01*
X71615Y-58345D02*
X71615Y-58109D01*
X71705Y-58109D01*
X71728Y-58120D01*
X71739Y-58131D01*
X71750Y-58154D01*
X71750Y-58188D01*
X71739Y-58210D01*
X71728Y-58221D01*
X71705Y-58233D01*
X71615Y-58233D01*
X71975Y-58345D02*
X71840Y-58345D01*
X71908Y-58345D02*
X71908Y-58109D01*
X71885Y-58143D01*
X71863Y-58165D01*
X71840Y-58176D01*
X68353Y-58109D02*
X68353Y-58278D01*
X68341Y-58311D01*
X68319Y-58334D01*
X68285Y-58345D01*
X68263Y-58345D01*
X68465Y-58345D02*
X68465Y-58109D01*
X68555Y-58109D01*
X68578Y-58120D01*
X68589Y-58131D01*
X68600Y-58154D01*
X68600Y-58188D01*
X68589Y-58210D01*
X68578Y-58221D01*
X68555Y-58233D01*
X68465Y-58233D01*
X68690Y-58131D02*
X68701Y-58120D01*
X68724Y-58109D01*
X68780Y-58109D01*
X68803Y-58120D01*
X68814Y-58131D01*
X68825Y-58154D01*
X68825Y-58176D01*
X68814Y-58210D01*
X68679Y-58345D01*
X68825Y-58345D01*
X67353Y-58109D02*
X67353Y-58278D01*
X67341Y-58311D01*
X67319Y-58334D01*
X67285Y-58345D01*
X67263Y-58345D01*
X67465Y-58345D02*
X67465Y-58109D01*
X67555Y-58109D01*
X67578Y-58120D01*
X67589Y-58131D01*
X67600Y-58154D01*
X67600Y-58188D01*
X67589Y-58210D01*
X67578Y-58221D01*
X67555Y-58233D01*
X67465Y-58233D01*
X67679Y-58109D02*
X67825Y-58109D01*
X67746Y-58199D01*
X67780Y-58199D01*
X67803Y-58210D01*
X67814Y-58221D01*
X67825Y-58244D01*
X67825Y-58300D01*
X67814Y-58323D01*
X67803Y-58334D01*
X67780Y-58345D01*
X67713Y-58345D01*
X67690Y-58334D01*
X67679Y-58323D01*
X66403Y-58109D02*
X66403Y-58278D01*
X66391Y-58311D01*
X66369Y-58334D01*
X66335Y-58345D01*
X66313Y-58345D01*
X66515Y-58345D02*
X66515Y-58109D01*
X66605Y-58109D01*
X66628Y-58120D01*
X66639Y-58131D01*
X66650Y-58154D01*
X66650Y-58188D01*
X66639Y-58210D01*
X66628Y-58221D01*
X66605Y-58233D01*
X66515Y-58233D01*
X66853Y-58188D02*
X66853Y-58345D01*
X66796Y-58098D02*
X66740Y-58266D01*
X66886Y-58266D01*
X65403Y-58109D02*
X65403Y-58278D01*
X65391Y-58311D01*
X65369Y-58334D01*
X65335Y-58345D01*
X65313Y-58345D01*
X65515Y-58345D02*
X65515Y-58109D01*
X65605Y-58109D01*
X65628Y-58120D01*
X65639Y-58131D01*
X65650Y-58154D01*
X65650Y-58188D01*
X65639Y-58210D01*
X65628Y-58221D01*
X65605Y-58233D01*
X65515Y-58233D01*
X65864Y-58109D02*
X65751Y-58109D01*
X65740Y-58221D01*
X65751Y-58210D01*
X65774Y-58199D01*
X65830Y-58199D01*
X65853Y-58210D01*
X65864Y-58221D01*
X65875Y-58244D01*
X65875Y-58300D01*
X65864Y-58323D01*
X65853Y-58334D01*
X65830Y-58345D01*
X65774Y-58345D01*
X65751Y-58334D01*
X65740Y-58323D01*
X64403Y-58109D02*
X64403Y-58278D01*
X64391Y-58311D01*
X64369Y-58334D01*
X64335Y-58345D01*
X64313Y-58345D01*
X64515Y-58345D02*
X64515Y-58109D01*
X64605Y-58109D01*
X64628Y-58120D01*
X64639Y-58131D01*
X64650Y-58154D01*
X64650Y-58188D01*
X64639Y-58210D01*
X64628Y-58221D01*
X64605Y-58233D01*
X64515Y-58233D01*
X64853Y-58109D02*
X64808Y-58109D01*
X64785Y-58120D01*
X64774Y-58131D01*
X64751Y-58165D01*
X64740Y-58210D01*
X64740Y-58300D01*
X64751Y-58323D01*
X64763Y-58334D01*
X64785Y-58345D01*
X64830Y-58345D01*
X64853Y-58334D01*
X64864Y-58323D01*
X64875Y-58300D01*
X64875Y-58244D01*
X64864Y-58221D01*
X64853Y-58210D01*
X64830Y-58199D01*
X64785Y-58199D01*
X64763Y-58210D01*
X64751Y-58221D01*
X64740Y-58244D01*
X76984Y-72796D02*
X77153Y-72796D01*
X77187Y-72808D01*
X77209Y-72830D01*
X77220Y-72864D01*
X77220Y-72886D01*
X77220Y-72684D02*
X76984Y-72684D01*
X76984Y-72594D01*
X76995Y-72571D01*
X77007Y-72560D01*
X77029Y-72549D01*
X77063Y-72549D01*
X77085Y-72560D01*
X77097Y-72571D01*
X77108Y-72594D01*
X77108Y-72684D01*
X76984Y-72470D02*
X76984Y-72313D01*
X77220Y-72414D01*
X69803Y-68359D02*
X69803Y-68528D01*
X69791Y-68561D01*
X69769Y-68584D01*
X69735Y-68595D01*
X69713Y-68595D01*
X69915Y-68595D02*
X69915Y-68359D01*
X70005Y-68359D01*
X70028Y-68370D01*
X70039Y-68381D01*
X70050Y-68404D01*
X70050Y-68438D01*
X70039Y-68460D01*
X70028Y-68471D01*
X70005Y-68483D01*
X69915Y-68483D01*
X70185Y-68460D02*
X70163Y-68449D01*
X70151Y-68438D01*
X70140Y-68415D01*
X70140Y-68404D01*
X70151Y-68381D01*
X70163Y-68370D01*
X70185Y-68359D01*
X70230Y-68359D01*
X70253Y-68370D01*
X70264Y-68381D01*
X70275Y-68404D01*
X70275Y-68415D01*
X70264Y-68438D01*
X70253Y-68449D01*
X70230Y-68460D01*
X70185Y-68460D01*
X70163Y-68471D01*
X70151Y-68483D01*
X70140Y-68505D01*
X70140Y-68550D01*
X70151Y-68573D01*
X70163Y-68584D01*
X70185Y-68595D01*
X70230Y-68595D01*
X70253Y-68584D01*
X70264Y-68573D01*
X70275Y-68550D01*
X70275Y-68505D01*
X70264Y-68483D01*
X70253Y-68471D01*
X70230Y-68460D01*
X70803Y-68409D02*
X70803Y-68578D01*
X70791Y-68611D01*
X70769Y-68634D01*
X70735Y-68645D01*
X70713Y-68645D01*
X70915Y-68645D02*
X70915Y-68409D01*
X71005Y-68409D01*
X71028Y-68420D01*
X71039Y-68431D01*
X71050Y-68454D01*
X71050Y-68488D01*
X71039Y-68510D01*
X71028Y-68521D01*
X71005Y-68533D01*
X70915Y-68533D01*
X71163Y-68645D02*
X71208Y-68645D01*
X71230Y-68634D01*
X71241Y-68623D01*
X71264Y-68589D01*
X71275Y-68544D01*
X71275Y-68454D01*
X71264Y-68431D01*
X71253Y-68420D01*
X71230Y-68409D01*
X71185Y-68409D01*
X71163Y-68420D01*
X71151Y-68431D01*
X71140Y-68454D01*
X71140Y-68510D01*
X71151Y-68533D01*
X71163Y-68544D01*
X71185Y-68555D01*
X71230Y-68555D01*
X71253Y-68544D01*
X71264Y-68533D01*
X71275Y-68510D01*
X71740Y-68409D02*
X71740Y-68578D01*
X71729Y-68611D01*
X71706Y-68634D01*
X71673Y-68645D01*
X71650Y-68645D01*
X71853Y-68645D02*
X71853Y-68409D01*
X71943Y-68409D01*
X71965Y-68420D01*
X71976Y-68431D01*
X71988Y-68454D01*
X71988Y-68488D01*
X71976Y-68510D01*
X71965Y-68521D01*
X71943Y-68533D01*
X71853Y-68533D01*
X72213Y-68645D02*
X72078Y-68645D01*
X72145Y-68645D02*
X72145Y-68409D01*
X72123Y-68443D01*
X72100Y-68465D01*
X72078Y-68476D01*
X72359Y-68409D02*
X72381Y-68409D01*
X72404Y-68420D01*
X72415Y-68431D01*
X72426Y-68454D01*
X72438Y-68499D01*
X72438Y-68555D01*
X72426Y-68600D01*
X72415Y-68623D01*
X72404Y-68634D01*
X72381Y-68645D01*
X72359Y-68645D01*
X72336Y-68634D01*
X72325Y-68623D01*
X72314Y-68600D01*
X72303Y-68555D01*
X72303Y-68499D01*
X72314Y-68454D01*
X72325Y-68431D01*
X72336Y-68420D01*
X72359Y-68409D01*
X79859Y-76059D02*
X80028Y-76059D01*
X80061Y-76070D01*
X80084Y-76093D01*
X80095Y-76126D01*
X80095Y-76149D01*
X80095Y-75946D02*
X79859Y-75946D01*
X79859Y-75856D01*
X79870Y-75834D01*
X79881Y-75823D01*
X79904Y-75811D01*
X79938Y-75811D01*
X79960Y-75823D01*
X79971Y-75834D01*
X79983Y-75856D01*
X79983Y-75946D01*
X80095Y-75586D02*
X80095Y-75721D01*
X80095Y-75654D02*
X79859Y-75654D01*
X79893Y-75676D01*
X79915Y-75699D01*
X79926Y-75721D01*
X79881Y-75496D02*
X79870Y-75485D01*
X79859Y-75463D01*
X79859Y-75406D01*
X79870Y-75384D01*
X79881Y-75373D01*
X79904Y-75361D01*
X79926Y-75361D01*
X79960Y-75373D01*
X80095Y-75508D01*
X80095Y-75361D01*
X81909Y-76009D02*
X82078Y-76009D01*
X82111Y-76020D01*
X82134Y-76043D01*
X82145Y-76076D01*
X82145Y-76099D01*
X82145Y-75896D02*
X81909Y-75896D01*
X81909Y-75806D01*
X81920Y-75784D01*
X81931Y-75773D01*
X81954Y-75761D01*
X81988Y-75761D01*
X82010Y-75773D01*
X82021Y-75784D01*
X82033Y-75806D01*
X82033Y-75896D01*
X82145Y-75536D02*
X82145Y-75671D01*
X82145Y-75604D02*
X81909Y-75604D01*
X81943Y-75626D01*
X81965Y-75649D01*
X81976Y-75671D01*
X81909Y-75458D02*
X81909Y-75311D01*
X81999Y-75390D01*
X81999Y-75356D01*
X82010Y-75334D01*
X82021Y-75323D01*
X82044Y-75311D01*
X82100Y-75311D01*
X82123Y-75323D01*
X82134Y-75334D01*
X82145Y-75356D01*
X82145Y-75424D01*
X82134Y-75446D01*
X82123Y-75458D01*
X79625Y-71095D02*
X79625Y-70859D01*
X79760Y-71095D02*
X79659Y-70960D01*
X79760Y-70859D02*
X79625Y-70994D01*
X79985Y-71095D02*
X79850Y-71095D01*
X79918Y-71095D02*
X79918Y-70859D01*
X79895Y-70893D01*
X79873Y-70915D01*
X79850Y-70926D01*
X80675Y-71095D02*
X80675Y-70859D01*
X80810Y-71095D02*
X80709Y-70960D01*
X80810Y-70859D02*
X80675Y-70994D01*
X80900Y-70881D02*
X80911Y-70870D01*
X80934Y-70859D01*
X80990Y-70859D01*
X81013Y-70870D01*
X81024Y-70881D01*
X81035Y-70904D01*
X81035Y-70926D01*
X81024Y-70960D01*
X80889Y-71095D01*
X81035Y-71095D01*
X81045Y-67374D02*
X80809Y-67374D01*
X81045Y-67239D02*
X80910Y-67340D01*
X80809Y-67239D02*
X80944Y-67374D01*
X80809Y-67160D02*
X80809Y-67014D01*
X80899Y-67093D01*
X80899Y-67059D01*
X80910Y-67036D01*
X80921Y-67025D01*
X80944Y-67014D01*
X81000Y-67014D01*
X81023Y-67025D01*
X81034Y-67036D01*
X81045Y-67059D01*
X81045Y-67126D01*
X81034Y-67149D01*
X81023Y-67160D01*
X81095Y-68424D02*
X80859Y-68424D01*
X81095Y-68289D02*
X80960Y-68390D01*
X80859Y-68289D02*
X80994Y-68424D01*
X80938Y-68086D02*
X81095Y-68086D01*
X80848Y-68143D02*
X81016Y-68199D01*
X81016Y-68053D01*
X66410Y-67995D02*
X66298Y-67995D01*
X66298Y-67759D01*
X66613Y-67995D02*
X66478Y-67995D01*
X66545Y-67995D02*
X66545Y-67759D01*
X66523Y-67793D01*
X66500Y-67815D01*
X66478Y-67826D01*
X78095Y-76024D02*
X77859Y-76024D01*
X77859Y-75934D01*
X77870Y-75911D01*
X77881Y-75900D01*
X77904Y-75889D01*
X77938Y-75889D01*
X77960Y-75900D01*
X77971Y-75911D01*
X77983Y-75934D01*
X77983Y-76024D01*
X77881Y-75799D02*
X77870Y-75788D01*
X77859Y-75765D01*
X77859Y-75709D01*
X77870Y-75686D01*
X77881Y-75675D01*
X77904Y-75664D01*
X77926Y-75664D01*
X77960Y-75675D01*
X78095Y-75810D01*
X78095Y-75664D01*
X86145Y-75874D02*
X85909Y-75874D01*
X85909Y-75784D01*
X85920Y-75761D01*
X85931Y-75750D01*
X85954Y-75739D01*
X85988Y-75739D01*
X86010Y-75750D01*
X86021Y-75761D01*
X86033Y-75784D01*
X86033Y-75874D01*
X85909Y-75660D02*
X85909Y-75514D01*
X85999Y-75593D01*
X85999Y-75559D01*
X86010Y-75536D01*
X86021Y-75525D01*
X86044Y-75514D01*
X86100Y-75514D01*
X86123Y-75525D01*
X86134Y-75536D01*
X86145Y-75559D01*
X86145Y-75626D01*
X86134Y-75649D01*
X86123Y-75660D01*
X82195Y-61624D02*
X81959Y-61624D01*
X81959Y-61534D01*
X81970Y-61511D01*
X81981Y-61500D01*
X82004Y-61489D01*
X82038Y-61489D01*
X82060Y-61500D01*
X82071Y-61511D01*
X82083Y-61534D01*
X82083Y-61624D01*
X82038Y-61286D02*
X82195Y-61286D01*
X81948Y-61343D02*
X82116Y-61399D01*
X82116Y-61253D01*
X83195Y-65774D02*
X82959Y-65774D01*
X82959Y-65684D01*
X82970Y-65661D01*
X82981Y-65650D01*
X83004Y-65639D01*
X83038Y-65639D01*
X83060Y-65650D01*
X83071Y-65661D01*
X83083Y-65684D01*
X83083Y-65774D01*
X82959Y-65425D02*
X82959Y-65538D01*
X83071Y-65549D01*
X83060Y-65538D01*
X83049Y-65515D01*
X83049Y-65459D01*
X83060Y-65436D01*
X83071Y-65425D01*
X83094Y-65414D01*
X83150Y-65414D01*
X83173Y-65425D01*
X83184Y-65436D01*
X83195Y-65459D01*
X83195Y-65515D01*
X83184Y-65538D01*
X83173Y-65549D01*
X73895Y-61524D02*
X73659Y-61524D01*
X73659Y-61434D01*
X73670Y-61411D01*
X73681Y-61400D01*
X73704Y-61389D01*
X73738Y-61389D01*
X73760Y-61400D01*
X73771Y-61411D01*
X73783Y-61434D01*
X73783Y-61524D01*
X73659Y-61186D02*
X73659Y-61231D01*
X73670Y-61254D01*
X73681Y-61265D01*
X73715Y-61288D01*
X73760Y-61299D01*
X73850Y-61299D01*
X73873Y-61288D01*
X73884Y-61276D01*
X73895Y-61254D01*
X73895Y-61209D01*
X73884Y-61186D01*
X73873Y-61175D01*
X73850Y-61164D01*
X73794Y-61164D01*
X73771Y-61175D01*
X73760Y-61186D01*
X73749Y-61209D01*
X73749Y-61254D01*
X73760Y-61276D01*
X73771Y-61288D01*
X73794Y-61299D01*
X78945Y-65774D02*
X78709Y-65774D01*
X78709Y-65684D01*
X78720Y-65661D01*
X78731Y-65650D01*
X78754Y-65639D01*
X78788Y-65639D01*
X78810Y-65650D01*
X78821Y-65661D01*
X78833Y-65684D01*
X78833Y-65774D01*
X78709Y-65560D02*
X78709Y-65403D01*
X78945Y-65504D01*
X83425Y-69295D02*
X83425Y-69059D01*
X83515Y-69059D01*
X83538Y-69070D01*
X83549Y-69081D01*
X83560Y-69104D01*
X83560Y-69138D01*
X83549Y-69160D01*
X83538Y-69171D01*
X83515Y-69183D01*
X83425Y-69183D01*
X83695Y-69160D02*
X83673Y-69149D01*
X83661Y-69138D01*
X83650Y-69115D01*
X83650Y-69104D01*
X83661Y-69081D01*
X83673Y-69070D01*
X83695Y-69059D01*
X83740Y-69059D01*
X83763Y-69070D01*
X83774Y-69081D01*
X83785Y-69104D01*
X83785Y-69115D01*
X83774Y-69138D01*
X83763Y-69149D01*
X83740Y-69160D01*
X83695Y-69160D01*
X83673Y-69171D01*
X83661Y-69183D01*
X83650Y-69205D01*
X83650Y-69250D01*
X83661Y-69273D01*
X83673Y-69284D01*
X83695Y-69295D01*
X83740Y-69295D01*
X83763Y-69284D01*
X83774Y-69273D01*
X83785Y-69250D01*
X83785Y-69205D01*
X83774Y-69183D01*
X83763Y-69171D01*
X83740Y-69160D01*
X87345Y-73624D02*
X87109Y-73624D01*
X87109Y-73534D01*
X87120Y-73511D01*
X87131Y-73500D01*
X87154Y-73489D01*
X87188Y-73489D01*
X87210Y-73500D01*
X87221Y-73511D01*
X87233Y-73534D01*
X87233Y-73624D01*
X87345Y-73376D02*
X87345Y-73331D01*
X87334Y-73309D01*
X87323Y-73298D01*
X87289Y-73275D01*
X87244Y-73264D01*
X87154Y-73264D01*
X87131Y-73275D01*
X87120Y-73286D01*
X87109Y-73309D01*
X87109Y-73354D01*
X87120Y-73376D01*
X87131Y-73388D01*
X87154Y-73399D01*
X87210Y-73399D01*
X87233Y-73388D01*
X87244Y-73376D01*
X87255Y-73354D01*
X87255Y-73309D01*
X87244Y-73286D01*
X87233Y-73275D01*
X87210Y-73264D01*
X77170Y-73886D02*
X76934Y-73886D01*
X76934Y-73796D01*
X76945Y-73774D01*
X76957Y-73763D01*
X76979Y-73751D01*
X77013Y-73751D01*
X77035Y-73763D01*
X77047Y-73774D01*
X77058Y-73796D01*
X77058Y-73886D01*
X77170Y-73526D02*
X77170Y-73661D01*
X77170Y-73594D02*
X76934Y-73594D01*
X76968Y-73616D01*
X76990Y-73639D01*
X77002Y-73661D01*
X76934Y-73313D02*
X76934Y-73425D01*
X77047Y-73436D01*
X77035Y-73425D01*
X77024Y-73403D01*
X77024Y-73346D01*
X77035Y-73324D01*
X77047Y-73313D01*
X77069Y-73301D01*
X77125Y-73301D01*
X77148Y-73313D01*
X77159Y-73324D01*
X77170Y-73346D01*
X77170Y-73403D01*
X77159Y-73425D01*
X77148Y-73436D01*
X76245Y-60439D02*
X76133Y-60518D01*
X76245Y-60574D02*
X76009Y-60574D01*
X76009Y-60484D01*
X76020Y-60461D01*
X76031Y-60450D01*
X76054Y-60439D01*
X76088Y-60439D01*
X76110Y-60450D01*
X76121Y-60461D01*
X76133Y-60484D01*
X76133Y-60574D01*
X76088Y-60236D02*
X76245Y-60236D01*
X75998Y-60293D02*
X76166Y-60349D01*
X76166Y-60203D01*
X72895Y-68689D02*
X72783Y-68768D01*
X72895Y-68824D02*
X72659Y-68824D01*
X72659Y-68734D01*
X72670Y-68711D01*
X72681Y-68700D01*
X72704Y-68689D01*
X72738Y-68689D01*
X72760Y-68700D01*
X72771Y-68711D01*
X72783Y-68734D01*
X72783Y-68824D01*
X72659Y-68475D02*
X72659Y-68588D01*
X72771Y-68599D01*
X72760Y-68588D01*
X72749Y-68565D01*
X72749Y-68509D01*
X72760Y-68486D01*
X72771Y-68475D01*
X72794Y-68464D01*
X72850Y-68464D01*
X72873Y-68475D01*
X72884Y-68486D01*
X72895Y-68509D01*
X72895Y-68565D01*
X72884Y-68588D01*
X72873Y-68599D01*
X77445Y-66764D02*
X77333Y-66843D01*
X77445Y-66899D02*
X77209Y-66899D01*
X77209Y-66809D01*
X77220Y-66787D01*
X77231Y-66775D01*
X77254Y-66764D01*
X77288Y-66764D01*
X77310Y-66775D01*
X77321Y-66787D01*
X77333Y-66809D01*
X77333Y-66899D01*
X77209Y-66562D02*
X77209Y-66607D01*
X77220Y-66629D01*
X77231Y-66640D01*
X77265Y-66663D01*
X77310Y-66674D01*
X77400Y-66674D01*
X77423Y-66663D01*
X77434Y-66652D01*
X77445Y-66629D01*
X77445Y-66584D01*
X77434Y-66562D01*
X77423Y-66550D01*
X77400Y-66539D01*
X77344Y-66539D01*
X77321Y-66550D01*
X77310Y-66562D01*
X77299Y-66584D01*
X77299Y-66629D01*
X77310Y-66652D01*
X77321Y-66663D01*
X77344Y-66674D01*
X74810Y-66695D02*
X74731Y-66583D01*
X74675Y-66695D02*
X74675Y-66459D01*
X74765Y-66459D01*
X74788Y-66470D01*
X74799Y-66481D01*
X74810Y-66504D01*
X74810Y-66538D01*
X74799Y-66560D01*
X74788Y-66571D01*
X74765Y-66583D01*
X74675Y-66583D01*
X74889Y-66459D02*
X75046Y-66459D01*
X74945Y-66695D01*
X70210Y-59945D02*
X70131Y-59833D01*
X70075Y-59945D02*
X70075Y-59709D01*
X70165Y-59709D01*
X70188Y-59720D01*
X70199Y-59731D01*
X70210Y-59754D01*
X70210Y-59788D01*
X70199Y-59810D01*
X70188Y-59821D01*
X70165Y-59833D01*
X70075Y-59833D01*
X70345Y-59810D02*
X70323Y-59799D01*
X70311Y-59788D01*
X70300Y-59765D01*
X70300Y-59754D01*
X70311Y-59731D01*
X70323Y-59720D01*
X70345Y-59709D01*
X70390Y-59709D01*
X70413Y-59720D01*
X70424Y-59731D01*
X70435Y-59754D01*
X70435Y-59765D01*
X70424Y-59788D01*
X70413Y-59799D01*
X70390Y-59810D01*
X70345Y-59810D01*
X70323Y-59821D01*
X70311Y-59833D01*
X70300Y-59855D01*
X70300Y-59900D01*
X70311Y-59923D01*
X70323Y-59934D01*
X70345Y-59945D01*
X70390Y-59945D01*
X70413Y-59934D01*
X70424Y-59923D01*
X70435Y-59900D01*
X70435Y-59855D01*
X70424Y-59833D01*
X70413Y-59821D01*
X70390Y-59810D01*
X70770Y-64564D02*
X70658Y-64643D01*
X70770Y-64699D02*
X70534Y-64699D01*
X70534Y-64609D01*
X70545Y-64587D01*
X70557Y-64575D01*
X70579Y-64564D01*
X70613Y-64564D01*
X70635Y-64575D01*
X70647Y-64587D01*
X70658Y-64609D01*
X70658Y-64699D01*
X70770Y-64452D02*
X70770Y-64407D01*
X70759Y-64384D01*
X70748Y-64373D01*
X70714Y-64350D01*
X70669Y-64339D01*
X70579Y-64339D01*
X70557Y-64350D01*
X70545Y-64362D01*
X70534Y-64384D01*
X70534Y-64429D01*
X70545Y-64452D01*
X70557Y-64463D01*
X70579Y-64474D01*
X70635Y-64474D01*
X70658Y-64463D01*
X70669Y-64452D01*
X70680Y-64429D01*
X70680Y-64384D01*
X70669Y-64362D01*
X70658Y-64350D01*
X70635Y-64339D01*
X70770Y-65676D02*
X70657Y-65755D01*
X70770Y-65811D02*
X70534Y-65811D01*
X70534Y-65721D01*
X70545Y-65699D01*
X70556Y-65687D01*
X70579Y-65676D01*
X70612Y-65676D01*
X70635Y-65687D01*
X70646Y-65699D01*
X70657Y-65721D01*
X70657Y-65811D01*
X70770Y-65451D02*
X70770Y-65586D01*
X70770Y-65519D02*
X70534Y-65519D01*
X70567Y-65541D01*
X70590Y-65564D01*
X70601Y-65586D01*
X70534Y-65305D02*
X70534Y-65282D01*
X70545Y-65260D01*
X70556Y-65249D01*
X70579Y-65237D01*
X70624Y-65226D01*
X70680Y-65226D01*
X70725Y-65237D01*
X70747Y-65249D01*
X70759Y-65260D01*
X70770Y-65282D01*
X70770Y-65305D01*
X70759Y-65327D01*
X70747Y-65339D01*
X70725Y-65350D01*
X70680Y-65361D01*
X70624Y-65361D01*
X70579Y-65350D01*
X70556Y-65339D01*
X70545Y-65327D01*
X70534Y-65305D01*
X70795Y-66701D02*
X70683Y-66780D01*
X70795Y-66836D02*
X70559Y-66836D01*
X70559Y-66746D01*
X70570Y-66724D01*
X70581Y-66713D01*
X70604Y-66701D01*
X70638Y-66701D01*
X70660Y-66713D01*
X70671Y-66724D01*
X70683Y-66746D01*
X70683Y-66836D01*
X70795Y-66476D02*
X70795Y-66611D01*
X70795Y-66544D02*
X70559Y-66544D01*
X70593Y-66566D01*
X70615Y-66589D01*
X70626Y-66611D01*
X70795Y-66251D02*
X70795Y-66386D01*
X70795Y-66319D02*
X70559Y-66319D01*
X70593Y-66341D01*
X70615Y-66364D01*
X70626Y-66386D01*
X70745Y-63677D02*
X70633Y-63755D01*
X70745Y-63812D02*
X70509Y-63812D01*
X70509Y-63722D01*
X70520Y-63699D01*
X70531Y-63688D01*
X70554Y-63677D01*
X70588Y-63677D01*
X70610Y-63688D01*
X70621Y-63699D01*
X70633Y-63722D01*
X70633Y-63812D01*
X70745Y-63452D02*
X70745Y-63587D01*
X70745Y-63519D02*
X70509Y-63519D01*
X70543Y-63542D01*
X70565Y-63564D01*
X70576Y-63587D01*
X70531Y-63362D02*
X70520Y-63350D01*
X70509Y-63328D01*
X70509Y-63272D01*
X70520Y-63249D01*
X70531Y-63238D01*
X70554Y-63227D01*
X70576Y-63227D01*
X70610Y-63238D01*
X70745Y-63373D01*
X70745Y-63227D01*
X82775Y-77191D02*
X82663Y-77270D01*
X82775Y-77326D02*
X82539Y-77326D01*
X82539Y-77236D01*
X82550Y-77214D01*
X82561Y-77203D01*
X82584Y-77191D01*
X82618Y-77191D01*
X82640Y-77203D01*
X82651Y-77214D01*
X82663Y-77236D01*
X82663Y-77326D01*
X82775Y-76966D02*
X82775Y-77101D01*
X82775Y-77034D02*
X82539Y-77034D01*
X82573Y-77056D01*
X82595Y-77079D01*
X82606Y-77101D01*
X82539Y-76888D02*
X82539Y-76741D01*
X82629Y-76820D01*
X82629Y-76786D01*
X82640Y-76764D01*
X82651Y-76753D01*
X82674Y-76741D01*
X82730Y-76741D01*
X82753Y-76753D01*
X82764Y-76764D01*
X82775Y-76786D01*
X82775Y-76854D01*
X82764Y-76876D01*
X82753Y-76888D01*
X75248Y-72495D02*
X75169Y-72383D01*
X75113Y-72495D02*
X75113Y-72259D01*
X75203Y-72259D01*
X75225Y-72270D01*
X75236Y-72281D01*
X75248Y-72304D01*
X75248Y-72338D01*
X75236Y-72360D01*
X75225Y-72371D01*
X75203Y-72383D01*
X75113Y-72383D01*
X75473Y-72495D02*
X75338Y-72495D01*
X75405Y-72495D02*
X75405Y-72259D01*
X75383Y-72293D01*
X75360Y-72315D01*
X75338Y-72326D01*
X75675Y-72338D02*
X75675Y-72495D01*
X75619Y-72248D02*
X75563Y-72416D01*
X75709Y-72416D01*
X75248Y-74115D02*
X75169Y-74003D01*
X75113Y-74115D02*
X75113Y-73879D01*
X75203Y-73879D01*
X75225Y-73890D01*
X75236Y-73901D01*
X75248Y-73924D01*
X75248Y-73958D01*
X75236Y-73980D01*
X75225Y-73991D01*
X75203Y-74003D01*
X75113Y-74003D01*
X75338Y-73901D02*
X75349Y-73890D01*
X75371Y-73879D01*
X75428Y-73879D01*
X75450Y-73890D01*
X75461Y-73901D01*
X75473Y-73924D01*
X75473Y-73946D01*
X75461Y-73980D01*
X75326Y-74115D01*
X75473Y-74115D01*
X75619Y-73879D02*
X75641Y-73879D01*
X75664Y-73890D01*
X75675Y-73901D01*
X75686Y-73924D01*
X75698Y-73969D01*
X75698Y-74025D01*
X75686Y-74070D01*
X75675Y-74093D01*
X75664Y-74104D01*
X75641Y-74115D01*
X75619Y-74115D01*
X75596Y-74104D01*
X75585Y-74093D01*
X75574Y-74070D01*
X75563Y-74025D01*
X75563Y-73969D01*
X75574Y-73924D01*
X75585Y-73901D01*
X75596Y-73890D01*
X75619Y-73879D01*
X74785Y-76134D02*
X74818Y-76145D01*
X74875Y-76145D01*
X74897Y-76134D01*
X74908Y-76123D01*
X74920Y-76100D01*
X74920Y-76078D01*
X74908Y-76055D01*
X74897Y-76044D01*
X74875Y-76033D01*
X74830Y-76021D01*
X74807Y-76010D01*
X74796Y-75999D01*
X74785Y-75976D01*
X74785Y-75954D01*
X74796Y-75931D01*
X74807Y-75920D01*
X74830Y-75909D01*
X74886Y-75909D01*
X74920Y-75920D01*
X74998Y-75909D02*
X75055Y-76145D01*
X75100Y-75976D01*
X75144Y-76145D01*
X75201Y-75909D01*
X75414Y-76145D02*
X75279Y-76145D01*
X75347Y-76145D02*
X75347Y-75909D01*
X75324Y-75943D01*
X75302Y-75965D01*
X75279Y-75976D01*
X70870Y-74809D02*
X70870Y-75000D01*
X70881Y-75023D01*
X70892Y-75034D01*
X70915Y-75045D01*
X70960Y-75045D01*
X70982Y-75034D01*
X70993Y-75023D01*
X71005Y-75000D01*
X71005Y-74809D01*
X71218Y-74888D02*
X71218Y-75045D01*
X71162Y-74798D02*
X71106Y-74966D01*
X71252Y-74966D01*
X69467Y-74195D02*
X69332Y-74195D01*
X69400Y-74195D02*
X69400Y-73959D01*
X69377Y-73993D01*
X69355Y-74015D01*
X69332Y-74026D01*
X71410Y-62373D02*
X71399Y-62384D01*
X71365Y-62395D01*
X71343Y-62395D01*
X71309Y-62384D01*
X71286Y-62361D01*
X71275Y-62339D01*
X71264Y-62294D01*
X71264Y-62260D01*
X71275Y-62215D01*
X71286Y-62193D01*
X71309Y-62170D01*
X71343Y-62159D01*
X71365Y-62159D01*
X71399Y-62170D01*
X71410Y-62181D01*
X71489Y-62159D02*
X71646Y-62159D01*
X71545Y-62395D01*
X71198Y-61123D02*
X71186Y-61134D01*
X71153Y-61145D01*
X71130Y-61145D01*
X71096Y-61134D01*
X71074Y-61111D01*
X71063Y-61089D01*
X71051Y-61044D01*
X71051Y-61010D01*
X71063Y-60965D01*
X71074Y-60943D01*
X71096Y-60920D01*
X71130Y-60909D01*
X71153Y-60909D01*
X71186Y-60920D01*
X71198Y-60931D01*
X71423Y-61145D02*
X71288Y-61145D01*
X71355Y-61145D02*
X71355Y-60909D01*
X71333Y-60943D01*
X71310Y-60965D01*
X71288Y-60976D01*
X71569Y-60909D02*
X71591Y-60909D01*
X71614Y-60920D01*
X71625Y-60931D01*
X71636Y-60954D01*
X71648Y-60999D01*
X71648Y-61055D01*
X71636Y-61100D01*
X71625Y-61123D01*
X71614Y-61134D01*
X71591Y-61145D01*
X71569Y-61145D01*
X71546Y-61134D01*
X71535Y-61123D01*
X71524Y-61100D01*
X71513Y-61055D01*
X71513Y-60999D01*
X71524Y-60954D01*
X71535Y-60931D01*
X71546Y-60920D01*
X71569Y-60909D01*
X75127Y-70768D02*
X75105Y-70756D01*
X75082Y-70734D01*
X75048Y-70700D01*
X75026Y-70689D01*
X75003Y-70689D01*
X75015Y-70745D02*
X74992Y-70734D01*
X74970Y-70711D01*
X74958Y-70666D01*
X74958Y-70588D01*
X74970Y-70543D01*
X74992Y-70520D01*
X75015Y-70509D01*
X75060Y-70509D01*
X75082Y-70520D01*
X75105Y-70543D01*
X75116Y-70588D01*
X75116Y-70666D01*
X75105Y-70711D01*
X75082Y-70734D01*
X75060Y-70745D01*
X75015Y-70745D01*
X75206Y-70531D02*
X75217Y-70520D01*
X75239Y-70509D01*
X75296Y-70509D01*
X75318Y-70520D01*
X75329Y-70531D01*
X75341Y-70554D01*
X75341Y-70576D01*
X75329Y-70610D01*
X75194Y-70745D01*
X75341Y-70745D01*
X74845Y-65674D02*
X74609Y-65674D01*
X74609Y-65584D01*
X74620Y-65561D01*
X74631Y-65550D01*
X74654Y-65539D01*
X74688Y-65539D01*
X74710Y-65550D01*
X74721Y-65561D01*
X74733Y-65584D01*
X74733Y-65674D01*
X74845Y-65314D02*
X74845Y-65449D01*
X74845Y-65381D02*
X74609Y-65381D01*
X74643Y-65404D01*
X74665Y-65426D01*
X74676Y-65449D01*
X87195Y-65936D02*
X86959Y-65936D01*
X86959Y-65846D01*
X86970Y-65824D01*
X86981Y-65813D01*
X87004Y-65801D01*
X87038Y-65801D01*
X87060Y-65813D01*
X87071Y-65824D01*
X87083Y-65846D01*
X87083Y-65936D01*
X87195Y-65576D02*
X87195Y-65711D01*
X87195Y-65644D02*
X86959Y-65644D01*
X86993Y-65666D01*
X87015Y-65689D01*
X87026Y-65711D01*
X87195Y-65351D02*
X87195Y-65486D01*
X87195Y-65419D02*
X86959Y-65419D01*
X86993Y-65441D01*
X87015Y-65464D01*
X87026Y-65486D01*
X82377Y-73718D02*
X82355Y-73706D01*
X82332Y-73684D01*
X82298Y-73650D01*
X82276Y-73639D01*
X82253Y-73639D01*
X82265Y-73695D02*
X82242Y-73684D01*
X82220Y-73661D01*
X82208Y-73616D01*
X82208Y-73538D01*
X82220Y-73493D01*
X82242Y-73470D01*
X82265Y-73459D01*
X82310Y-73459D01*
X82332Y-73470D01*
X82355Y-73493D01*
X82366Y-73538D01*
X82366Y-73616D01*
X82355Y-73661D01*
X82332Y-73684D01*
X82310Y-73695D01*
X82265Y-73695D01*
X82444Y-73459D02*
X82591Y-73459D01*
X82512Y-73549D01*
X82546Y-73549D01*
X82568Y-73560D01*
X82579Y-73571D01*
X82591Y-73594D01*
X82591Y-73650D01*
X82579Y-73673D01*
X82568Y-73684D01*
X82546Y-73695D01*
X82478Y-73695D01*
X82456Y-73684D01*
X82444Y-73673D01*
X81445Y-74701D02*
X81333Y-74780D01*
X81445Y-74836D02*
X81209Y-74836D01*
X81209Y-74746D01*
X81220Y-74724D01*
X81231Y-74713D01*
X81254Y-74701D01*
X81288Y-74701D01*
X81310Y-74713D01*
X81321Y-74724D01*
X81333Y-74746D01*
X81333Y-74836D01*
X81445Y-74476D02*
X81445Y-74611D01*
X81445Y-74544D02*
X81209Y-74544D01*
X81243Y-74566D01*
X81265Y-74589D01*
X81276Y-74611D01*
X81209Y-74263D02*
X81209Y-74375D01*
X81321Y-74386D01*
X81310Y-74375D01*
X81299Y-74353D01*
X81299Y-74296D01*
X81310Y-74274D01*
X81321Y-74263D01*
X81344Y-74251D01*
X81400Y-74251D01*
X81423Y-74263D01*
X81434Y-74274D01*
X81445Y-74296D01*
X81445Y-74353D01*
X81434Y-74375D01*
X81423Y-74386D01*
X81948Y-72695D02*
X81869Y-72583D01*
X81813Y-72695D02*
X81813Y-72459D01*
X81903Y-72459D01*
X81925Y-72470D01*
X81936Y-72481D01*
X81948Y-72504D01*
X81948Y-72538D01*
X81936Y-72560D01*
X81925Y-72571D01*
X81903Y-72583D01*
X81813Y-72583D01*
X82173Y-72695D02*
X82038Y-72695D01*
X82105Y-72695D02*
X82105Y-72459D01*
X82083Y-72493D01*
X82060Y-72515D01*
X82038Y-72526D01*
X82375Y-72459D02*
X82330Y-72459D01*
X82308Y-72470D01*
X82296Y-72481D01*
X82274Y-72515D01*
X82263Y-72560D01*
X82263Y-72650D01*
X82274Y-72673D01*
X82285Y-72684D01*
X82308Y-72695D01*
X82353Y-72695D01*
X82375Y-72684D01*
X82386Y-72673D01*
X82398Y-72650D01*
X82398Y-72594D01*
X82386Y-72571D01*
X82375Y-72560D01*
X82353Y-72549D01*
X82308Y-72549D01*
X82285Y-72560D01*
X82274Y-72571D01*
X82263Y-72594D01*
X84995Y-74151D02*
X84883Y-74230D01*
X84995Y-74286D02*
X84759Y-74286D01*
X84759Y-74196D01*
X84770Y-74174D01*
X84781Y-74163D01*
X84804Y-74151D01*
X84838Y-74151D01*
X84860Y-74163D01*
X84871Y-74174D01*
X84883Y-74196D01*
X84883Y-74286D01*
X84995Y-73926D02*
X84995Y-74061D01*
X84995Y-73994D02*
X84759Y-73994D01*
X84793Y-74016D01*
X84815Y-74039D01*
X84826Y-74061D01*
X84860Y-73791D02*
X84849Y-73814D01*
X84838Y-73825D01*
X84815Y-73836D01*
X84804Y-73836D01*
X84781Y-73825D01*
X84770Y-73814D01*
X84759Y-73791D01*
X84759Y-73746D01*
X84770Y-73724D01*
X84781Y-73713D01*
X84804Y-73701D01*
X84815Y-73701D01*
X84838Y-73713D01*
X84849Y-73724D01*
X84860Y-73746D01*
X84860Y-73791D01*
X84871Y-73814D01*
X84883Y-73825D01*
X84905Y-73836D01*
X84950Y-73836D01*
X84973Y-73825D01*
X84984Y-73814D01*
X84995Y-73791D01*
X84995Y-73746D01*
X84984Y-73724D01*
X84973Y-73713D01*
X84950Y-73701D01*
X84905Y-73701D01*
X84883Y-73713D01*
X84871Y-73724D01*
X84860Y-73746D01*
X89745Y-64301D02*
X89633Y-64380D01*
X89745Y-64436D02*
X89509Y-64436D01*
X89509Y-64346D01*
X89520Y-64324D01*
X89531Y-64313D01*
X89554Y-64301D01*
X89588Y-64301D01*
X89610Y-64313D01*
X89621Y-64324D01*
X89633Y-64346D01*
X89633Y-64436D01*
X89745Y-64076D02*
X89745Y-64211D01*
X89745Y-64144D02*
X89509Y-64144D01*
X89543Y-64166D01*
X89565Y-64189D01*
X89576Y-64211D01*
X89509Y-63998D02*
X89509Y-63840D01*
X89745Y-63941D01*
X79195Y-73886D02*
X78959Y-73886D01*
X78959Y-73796D01*
X78970Y-73774D01*
X78981Y-73763D01*
X79004Y-73751D01*
X79038Y-73751D01*
X79060Y-73763D01*
X79071Y-73774D01*
X79083Y-73796D01*
X79083Y-73886D01*
X79195Y-73526D02*
X79195Y-73661D01*
X79195Y-73594D02*
X78959Y-73594D01*
X78993Y-73616D01*
X79015Y-73639D01*
X79026Y-73661D01*
X78959Y-73324D02*
X78959Y-73369D01*
X78970Y-73391D01*
X78981Y-73403D01*
X79015Y-73425D01*
X79060Y-73436D01*
X79150Y-73436D01*
X79173Y-73425D01*
X79184Y-73414D01*
X79195Y-73391D01*
X79195Y-73346D01*
X79184Y-73324D01*
X79173Y-73313D01*
X79150Y-73301D01*
X79094Y-73301D01*
X79071Y-73313D01*
X79060Y-73324D01*
X79049Y-73346D01*
X79049Y-73391D01*
X79060Y-73414D01*
X79071Y-73425D01*
X79094Y-73436D01*
X94715Y-76380D02*
X94603Y-76459D01*
X94715Y-76515D02*
X94479Y-76515D01*
X94479Y-76425D01*
X94490Y-76403D01*
X94501Y-76391D01*
X94524Y-76380D01*
X94558Y-76380D01*
X94580Y-76391D01*
X94591Y-76403D01*
X94603Y-76425D01*
X94603Y-76515D01*
X94479Y-76313D02*
X94715Y-76234D01*
X94479Y-76155D01*
X94715Y-75953D02*
X94715Y-76088D01*
X94715Y-76020D02*
X94479Y-76020D01*
X94513Y-76043D01*
X94535Y-76065D01*
X94546Y-76088D01*
X93195Y-75551D02*
X93083Y-75630D01*
X93195Y-75686D02*
X92959Y-75686D01*
X92959Y-75596D01*
X92970Y-75574D01*
X92981Y-75563D01*
X93004Y-75551D01*
X93038Y-75551D01*
X93060Y-75563D01*
X93071Y-75574D01*
X93083Y-75596D01*
X93083Y-75686D01*
X93195Y-75326D02*
X93195Y-75461D01*
X93195Y-75394D02*
X92959Y-75394D01*
X92993Y-75416D01*
X93015Y-75439D01*
X93026Y-75461D01*
X93195Y-75214D02*
X93195Y-75169D01*
X93184Y-75146D01*
X93173Y-75135D01*
X93139Y-75113D01*
X93094Y-75101D01*
X93004Y-75101D01*
X92981Y-75113D01*
X92970Y-75124D01*
X92959Y-75146D01*
X92959Y-75191D01*
X92970Y-75214D01*
X92981Y-75225D01*
X93004Y-75236D01*
X93060Y-75236D01*
X93083Y-75225D01*
X93094Y-75214D01*
X93105Y-75191D01*
X93105Y-75146D01*
X93094Y-75124D01*
X93083Y-75113D01*
X93060Y-75101D01*
X93195Y-77201D02*
X93083Y-77280D01*
X93195Y-77336D02*
X92959Y-77336D01*
X92959Y-77246D01*
X92970Y-77224D01*
X92981Y-77213D01*
X93004Y-77201D01*
X93038Y-77201D01*
X93060Y-77213D01*
X93071Y-77224D01*
X93083Y-77246D01*
X93083Y-77336D01*
X92981Y-77111D02*
X92970Y-77100D01*
X92959Y-77078D01*
X92959Y-77021D01*
X92970Y-76999D01*
X92981Y-76988D01*
X93004Y-76976D01*
X93026Y-76976D01*
X93060Y-76988D01*
X93195Y-77123D01*
X93195Y-76976D01*
X93195Y-76751D02*
X93195Y-76886D01*
X93195Y-76819D02*
X92959Y-76819D01*
X92993Y-76841D01*
X93015Y-76864D01*
X93026Y-76886D01*
X75948Y-67145D02*
X75869Y-67033D01*
X75813Y-67145D02*
X75813Y-66909D01*
X75903Y-66909D01*
X75925Y-66920D01*
X75936Y-66931D01*
X75948Y-66954D01*
X75948Y-66988D01*
X75936Y-67010D01*
X75925Y-67021D01*
X75903Y-67033D01*
X75813Y-67033D01*
X76038Y-66931D02*
X76049Y-66920D01*
X76071Y-66909D01*
X76128Y-66909D01*
X76150Y-66920D01*
X76161Y-66931D01*
X76173Y-66954D01*
X76173Y-66976D01*
X76161Y-67010D01*
X76026Y-67145D01*
X76173Y-67145D01*
X76263Y-66931D02*
X76274Y-66920D01*
X76296Y-66909D01*
X76353Y-66909D01*
X76375Y-66920D01*
X76386Y-66931D01*
X76398Y-66954D01*
X76398Y-66976D01*
X76386Y-67010D01*
X76251Y-67145D01*
X76398Y-67145D01*
X72895Y-68001D02*
X72783Y-68080D01*
X72895Y-68136D02*
X72659Y-68136D01*
X72659Y-68046D01*
X72670Y-68024D01*
X72681Y-68013D01*
X72704Y-68001D01*
X72738Y-68001D01*
X72760Y-68013D01*
X72771Y-68024D01*
X72783Y-68046D01*
X72783Y-68136D01*
X72681Y-67911D02*
X72670Y-67900D01*
X72659Y-67878D01*
X72659Y-67821D01*
X72670Y-67799D01*
X72681Y-67788D01*
X72704Y-67776D01*
X72726Y-67776D01*
X72760Y-67788D01*
X72895Y-67923D01*
X72895Y-67776D01*
X72659Y-67698D02*
X72659Y-67551D01*
X72749Y-67630D01*
X72749Y-67596D01*
X72760Y-67574D01*
X72771Y-67563D01*
X72794Y-67551D01*
X72850Y-67551D01*
X72873Y-67563D01*
X72884Y-67574D01*
X72895Y-67596D01*
X72895Y-67664D01*
X72884Y-67686D01*
X72873Y-67698D01*
X72945Y-67251D02*
X72833Y-67330D01*
X72945Y-67386D02*
X72709Y-67386D01*
X72709Y-67296D01*
X72720Y-67274D01*
X72731Y-67263D01*
X72754Y-67251D01*
X72788Y-67251D01*
X72810Y-67263D01*
X72821Y-67274D01*
X72833Y-67296D01*
X72833Y-67386D01*
X72731Y-67161D02*
X72720Y-67150D01*
X72709Y-67128D01*
X72709Y-67071D01*
X72720Y-67049D01*
X72731Y-67038D01*
X72754Y-67026D01*
X72776Y-67026D01*
X72810Y-67038D01*
X72945Y-67173D01*
X72945Y-67026D01*
X72788Y-66824D02*
X72945Y-66824D01*
X72698Y-66880D02*
X72866Y-66936D01*
X72866Y-66790D01*
X86673Y-62051D02*
X86684Y-62063D01*
X86695Y-62096D01*
X86695Y-62119D01*
X86684Y-62153D01*
X86661Y-62175D01*
X86639Y-62186D01*
X86594Y-62198D01*
X86560Y-62198D01*
X86515Y-62186D01*
X86493Y-62175D01*
X86470Y-62153D01*
X86459Y-62119D01*
X86459Y-62096D01*
X86470Y-62063D01*
X86481Y-62051D01*
X86684Y-61961D02*
X86695Y-61928D01*
X86695Y-61871D01*
X86684Y-61849D01*
X86673Y-61838D01*
X86650Y-61826D01*
X86628Y-61826D01*
X86605Y-61838D01*
X86594Y-61849D01*
X86583Y-61871D01*
X86571Y-61916D01*
X86560Y-61939D01*
X86549Y-61950D01*
X86526Y-61961D01*
X86504Y-61961D01*
X86481Y-61950D01*
X86470Y-61939D01*
X86459Y-61916D01*
X86459Y-61860D01*
X86470Y-61826D01*
X86695Y-61601D02*
X86695Y-61736D01*
X86695Y-61669D02*
X86459Y-61669D01*
X86493Y-61691D01*
X86515Y-61714D01*
X86526Y-61736D01*
X88473Y-69801D02*
X88484Y-69813D01*
X88495Y-69846D01*
X88495Y-69869D01*
X88484Y-69903D01*
X88461Y-69925D01*
X88439Y-69936D01*
X88394Y-69948D01*
X88360Y-69948D01*
X88315Y-69936D01*
X88293Y-69925D01*
X88270Y-69903D01*
X88259Y-69869D01*
X88259Y-69846D01*
X88270Y-69813D01*
X88281Y-69801D01*
X88484Y-69711D02*
X88495Y-69678D01*
X88495Y-69621D01*
X88484Y-69599D01*
X88473Y-69588D01*
X88450Y-69576D01*
X88428Y-69576D01*
X88405Y-69588D01*
X88394Y-69599D01*
X88383Y-69621D01*
X88371Y-69666D01*
X88360Y-69689D01*
X88349Y-69700D01*
X88326Y-69711D01*
X88304Y-69711D01*
X88281Y-69700D01*
X88270Y-69689D01*
X88259Y-69666D01*
X88259Y-69610D01*
X88270Y-69576D01*
X88259Y-69498D02*
X88259Y-69351D01*
X88349Y-69430D01*
X88349Y-69396D01*
X88360Y-69374D01*
X88371Y-69363D01*
X88394Y-69351D01*
X88450Y-69351D01*
X88473Y-69363D01*
X88484Y-69374D01*
X88495Y-69396D01*
X88495Y-69464D01*
X88484Y-69486D01*
X88473Y-69498D01*
X78473Y-62051D02*
X78484Y-62063D01*
X78495Y-62096D01*
X78495Y-62119D01*
X78484Y-62153D01*
X78461Y-62175D01*
X78439Y-62186D01*
X78394Y-62198D01*
X78360Y-62198D01*
X78315Y-62186D01*
X78293Y-62175D01*
X78270Y-62153D01*
X78259Y-62119D01*
X78259Y-62096D01*
X78270Y-62063D01*
X78281Y-62051D01*
X78484Y-61961D02*
X78495Y-61928D01*
X78495Y-61871D01*
X78484Y-61849D01*
X78473Y-61838D01*
X78450Y-61826D01*
X78428Y-61826D01*
X78405Y-61838D01*
X78394Y-61849D01*
X78383Y-61871D01*
X78371Y-61916D01*
X78360Y-61939D01*
X78349Y-61950D01*
X78326Y-61961D01*
X78304Y-61961D01*
X78281Y-61950D01*
X78270Y-61939D01*
X78259Y-61916D01*
X78259Y-61860D01*
X78270Y-61826D01*
X78281Y-61736D02*
X78270Y-61725D01*
X78259Y-61703D01*
X78259Y-61646D01*
X78270Y-61624D01*
X78281Y-61613D01*
X78304Y-61601D01*
X78326Y-61601D01*
X78360Y-61613D01*
X78495Y-61748D01*
X78495Y-61601D01*
X79195Y-72734D02*
X78959Y-72734D01*
X79195Y-72599D02*
X79060Y-72700D01*
X78959Y-72599D02*
X79094Y-72734D01*
X78959Y-72385D02*
X78959Y-72498D01*
X79071Y-72509D01*
X79060Y-72498D01*
X79049Y-72475D01*
X79049Y-72419D01*
X79060Y-72396D01*
X79071Y-72385D01*
X79094Y-72374D01*
X79150Y-72374D01*
X79173Y-72385D01*
X79184Y-72396D01*
X79195Y-72419D01*
X79195Y-72475D01*
X79184Y-72498D01*
X79173Y-72509D01*
M02*
