M48
;DRILL file {Pcbnew (2014-01-10 BZR 4027)-stable} date Thursday, 14 August 2014 18:29:25
;FORMAT={-:-/ absolute / metric / decimal}
FMAT,2
METRIC,TZ
T1C0.400
T2C0.600
T3C0.813
T4C0.998
T5C1.000
T6C1.001
T7C1.016
T8C1.143
T9C3.175
%
G90
G05
M71
T1
X173.675Y-159.705
X173.675Y-161.605
X174.625Y-160.655
X175.575Y-159.705
X175.575Y-161.605
X176.454Y-151.994
X181.483Y-158.521
X186.309Y-169.164
X197.714Y-153.035
X207.445Y-184.286
T2
X231.458Y-184.722
X231.458Y-185.674
X231.458Y-186.69
X231.521Y-165.735
X231.521Y-166.688
X231.521Y-167.64
T3
X186.436Y-147.32
X188.976Y-147.32
X191.516Y-147.32
X194.056Y-147.32
X195.58Y-195.58
X196.596Y-147.32
X198.12Y-195.58
X199.136Y-147.32
X200.66Y-195.58
X201.676Y-147.32
X203.2Y-195.58
X203.962Y-154.686
X203.962Y-159.766
X204.216Y-147.32
X205.74Y-195.58
X208.28Y-147.32
X208.28Y-195.58
X210.82Y-147.32
X213.36Y-147.32
X213.36Y-195.58
X215.9Y-147.32
X215.9Y-195.58
X218.44Y-147.32
X218.44Y-195.58
X220.98Y-147.32
X220.98Y-195.58
X223.52Y-147.32
X223.52Y-195.58
X224.917Y-154.813
X224.917Y-159.893
X226.06Y-147.32
X226.06Y-195.58
X228.854Y-174.434
X228.854Y-179.514
T4
X166.942Y-181.292
X166.942Y-183.832
T5
X186.182Y-150.876
X186.182Y-163.576
X188.722Y-150.876
X188.722Y-163.576
X191.262Y-150.876
X191.262Y-163.576
X193.802Y-150.876
X193.802Y-163.576
X196.342Y-150.876
X196.342Y-163.576
X198.882Y-150.876
X198.882Y-163.576
X201.422Y-150.876
X201.422Y-163.576
X203.962Y-150.876
X203.962Y-163.576
X207.137Y-151.003
X207.137Y-163.703
X209.677Y-151.003
X209.677Y-163.703
X211.074Y-170.624
X211.074Y-183.324
X212.217Y-151.003
X212.217Y-163.703
X213.614Y-170.624
X213.614Y-183.324
X214.757Y-151.003
X214.757Y-163.703
X216.154Y-170.624
X216.154Y-183.324
X217.297Y-151.003
X217.297Y-163.703
X218.694Y-170.624
X218.694Y-183.324
X219.837Y-151.003
X219.837Y-163.703
X221.234Y-170.624
X221.234Y-183.324
X222.377Y-151.003
X222.377Y-163.703
X223.774Y-170.624
X223.774Y-183.324
X224.917Y-151.003
X224.917Y-163.703
X226.314Y-170.624
X226.314Y-183.324
X228.854Y-170.624
X228.854Y-183.324
X234.315Y-157.48
X234.315Y-160.02
X234.315Y-162.56
X234.315Y-165.1
X234.315Y-167.64
X234.315Y-170.18
X234.315Y-172.72
X234.315Y-175.26
X234.315Y-177.8
X234.315Y-180.34
X234.315Y-182.88
X234.315Y-185.42
X234.315Y-187.96
X234.315Y-190.5
X234.315Y-193.04
X234.315Y-195.58
T6
X188.25Y-189.789
X188.25Y-196.291
X192.75Y-189.789
X192.75Y-196.291
T7
X163.957Y-146.685
X163.957Y-149.225
X166.497Y-146.685
X166.497Y-149.225
X169.037Y-146.685
X169.037Y-149.225
X171.577Y-146.685
X171.577Y-149.225
X174.117Y-146.685
X174.117Y-149.225
X177.927Y-172.72
X177.927Y-175.26
X180.467Y-172.72
X180.467Y-175.26
X182.245Y-146.685
X182.245Y-149.225
X183.007Y-172.72
X183.007Y-175.26
X185.928Y-166.624
X186.182Y-154.686
X186.182Y-157.226
X186.182Y-159.766
X188.468Y-166.624
X188.722Y-154.686
X188.722Y-157.226
X188.722Y-159.766
X191.008Y-166.624
X193.548Y-166.624
X194.564Y-184.404
X194.564Y-186.944
X196.024Y-176.022
X196.024Y-178.562
X196.342Y-166.624
X196.85Y-192.405
X197.104Y-184.404
X197.104Y-186.944
X198.564Y-176.022
X198.564Y-178.562
X198.882Y-166.624
X199.39Y-192.405
X199.644Y-184.404
X199.644Y-186.944
X201.422Y-166.624
X201.803Y-170.624
X201.803Y-173.164
X201.93Y-192.405
X202.184Y-184.404
X202.184Y-186.944
X202.756Y-176.53
X202.756Y-179.07
X202.756Y-181.61
X203.962Y-166.624
X204.343Y-170.624
X204.343Y-173.164
X204.47Y-192.405
X204.724Y-184.404
X204.724Y-186.944
X205.422Y-176.53
X205.422Y-179.07
X205.422Y-181.61
X206.883Y-170.624
X206.883Y-173.164
X207.01Y-192.405
X207.137Y-154.813
X207.137Y-157.353
X207.137Y-159.893
X207.137Y-166.751
X209.55Y-192.405
X209.677Y-154.813
X209.677Y-157.353
X209.677Y-159.893
X209.677Y-166.751
X211.074Y-174.434
X211.074Y-176.974
X211.074Y-179.514
X212.09Y-192.405
X212.217Y-166.751
X213.614Y-174.434
X213.614Y-176.974
X213.614Y-179.514
X214.63Y-192.405
X214.757Y-166.751
X217.17Y-192.405
X217.424Y-166.751
X217.678Y-186.69
X219.71Y-192.405
X219.964Y-166.751
X220.218Y-186.69
X222.25Y-192.405
X222.504Y-166.751
X222.758Y-186.69
X224.79Y-192.405
X225.044Y-166.751
X225.298Y-186.69
X237.49Y-158.75
X237.49Y-161.29
X237.49Y-163.83
X237.49Y-166.37
X237.49Y-168.91
X237.49Y-171.45
X237.49Y-173.99
X237.49Y-176.53
X237.49Y-179.07
X237.49Y-181.61
X237.49Y-184.15
X237.49Y-186.69
X237.49Y-189.23
X240.03Y-158.75
X240.03Y-161.29
X240.03Y-163.83
X240.03Y-166.37
X240.03Y-168.91
X240.03Y-171.45
X240.03Y-173.99
X240.03Y-176.53
X240.03Y-179.07
X240.03Y-181.61
X240.03Y-184.15
X240.03Y-186.69
X240.03Y-189.23
T8
X177.8Y-188.214
X180.34Y-188.214
X182.88Y-188.214
T9
X176.53Y-195.58
X177.8Y-147.32
X228.6Y-190.5
T7
X165.354Y-189.484G85X165.354Y-191.008
G05
X166.878Y-195.326G85X168.402Y-195.326
G05
X171.45Y-189.204G85X171.45Y-191.288
G05
T0
M30
