G04 (created by PCBNEW (2014-01-10 BZR 4027)-stable) date Thursday, 14 August 2014 18:29:29*
%MOIN*%
G04 Gerber Fmt 3.4, Leading zero omitted, Abs format*
%FSLAX34Y34*%
G01*
G70*
G90*
G04 APERTURE LIST*
%ADD10C,0.00590551*%
%ADD11C,0.00511811*%
%ADD12C,0.0001*%
G04 APERTURE END LIST*
G54D10*
G54D11*
X73384Y-67350D02*
X73404Y-67329D01*
X73425Y-67268D01*
X73425Y-67226D01*
X73404Y-67164D01*
X73363Y-67123D01*
X73322Y-67103D01*
X73239Y-67082D01*
X73177Y-67082D01*
X73095Y-67103D01*
X73054Y-67123D01*
X73012Y-67164D01*
X72992Y-67226D01*
X72992Y-67268D01*
X73012Y-67329D01*
X73033Y-67350D01*
X73404Y-67515D02*
X73425Y-67577D01*
X73425Y-67680D01*
X73404Y-67721D01*
X73384Y-67742D01*
X73342Y-67763D01*
X73301Y-67763D01*
X73260Y-67742D01*
X73239Y-67721D01*
X73219Y-67680D01*
X73198Y-67598D01*
X73177Y-67556D01*
X73157Y-67536D01*
X73115Y-67515D01*
X73074Y-67515D01*
X73033Y-67536D01*
X73012Y-67556D01*
X72992Y-67598D01*
X72992Y-67701D01*
X73012Y-67763D01*
X73425Y-68175D02*
X73425Y-67928D01*
X73425Y-68051D02*
X72992Y-68051D01*
X73054Y-68010D01*
X73095Y-67969D01*
X73115Y-67928D01*
X73384Y-68938D02*
X73404Y-68917D01*
X73425Y-68856D01*
X73425Y-68814D01*
X73404Y-68752D01*
X73363Y-68711D01*
X73322Y-68691D01*
X73239Y-68670D01*
X73177Y-68670D01*
X73095Y-68691D01*
X73054Y-68711D01*
X73012Y-68752D01*
X72992Y-68814D01*
X72992Y-68856D01*
X73012Y-68917D01*
X73033Y-68938D01*
X73404Y-69103D02*
X73425Y-69165D01*
X73425Y-69268D01*
X73404Y-69309D01*
X73384Y-69330D01*
X73342Y-69350D01*
X73301Y-69350D01*
X73260Y-69330D01*
X73239Y-69309D01*
X73219Y-69268D01*
X73198Y-69185D01*
X73177Y-69144D01*
X73157Y-69124D01*
X73115Y-69103D01*
X73074Y-69103D01*
X73033Y-69124D01*
X73012Y-69144D01*
X72992Y-69185D01*
X72992Y-69289D01*
X73012Y-69350D01*
X73033Y-69515D02*
X73012Y-69536D01*
X72992Y-69577D01*
X72992Y-69680D01*
X73012Y-69722D01*
X73033Y-69742D01*
X73074Y-69763D01*
X73115Y-69763D01*
X73177Y-69742D01*
X73425Y-69495D01*
X73425Y-69763D01*
X73384Y-70526D02*
X73404Y-70505D01*
X73425Y-70443D01*
X73425Y-70402D01*
X73404Y-70340D01*
X73363Y-70299D01*
X73322Y-70278D01*
X73239Y-70258D01*
X73177Y-70258D01*
X73095Y-70278D01*
X73054Y-70299D01*
X73012Y-70340D01*
X72992Y-70402D01*
X72992Y-70443D01*
X73012Y-70505D01*
X73033Y-70526D01*
X73404Y-70691D02*
X73425Y-70753D01*
X73425Y-70856D01*
X73404Y-70897D01*
X73384Y-70918D01*
X73342Y-70938D01*
X73301Y-70938D01*
X73260Y-70918D01*
X73239Y-70897D01*
X73219Y-70856D01*
X73198Y-70773D01*
X73177Y-70732D01*
X73157Y-70712D01*
X73115Y-70691D01*
X73074Y-70691D01*
X73033Y-70712D01*
X73012Y-70732D01*
X72992Y-70773D01*
X72992Y-70877D01*
X73012Y-70938D01*
X72992Y-71083D02*
X72992Y-71351D01*
X73157Y-71206D01*
X73157Y-71268D01*
X73177Y-71310D01*
X73198Y-71330D01*
X73239Y-71351D01*
X73342Y-71351D01*
X73384Y-71330D01*
X73404Y-71310D01*
X73425Y-71268D01*
X73425Y-71145D01*
X73404Y-71103D01*
X73384Y-71083D01*
X74041Y-67433D02*
X74062Y-67453D01*
X74082Y-67433D01*
X74062Y-67412D01*
X74041Y-67433D01*
X74082Y-67433D01*
X73814Y-67433D02*
X73835Y-67453D01*
X73855Y-67433D01*
X73835Y-67412D01*
X73814Y-67433D01*
X73855Y-67433D01*
X74041Y-68959D02*
X74062Y-68979D01*
X74082Y-68959D01*
X74062Y-68938D01*
X74041Y-68959D01*
X74082Y-68959D01*
X73814Y-68959D02*
X73835Y-68979D01*
X73855Y-68959D01*
X73835Y-68938D01*
X73814Y-68959D01*
X73855Y-68959D01*
X74041Y-70815D02*
X74062Y-70835D01*
X74082Y-70815D01*
X74062Y-70794D01*
X74041Y-70815D01*
X74082Y-70815D01*
X73814Y-70815D02*
X73835Y-70835D01*
X73855Y-70815D01*
X73835Y-70794D01*
X73814Y-70815D01*
X73855Y-70815D01*
X73649Y-72629D02*
X73649Y-72898D01*
X73814Y-72753D01*
X73814Y-72815D01*
X73835Y-72856D01*
X73855Y-72877D01*
X73897Y-72898D01*
X74000Y-72898D01*
X74041Y-72877D01*
X74062Y-72856D01*
X74082Y-72815D01*
X74082Y-72691D01*
X74062Y-72650D01*
X74041Y-72629D01*
X73649Y-73289D02*
X73649Y-73083D01*
X73855Y-73062D01*
X73835Y-73083D01*
X73814Y-73124D01*
X73814Y-73227D01*
X73835Y-73269D01*
X73855Y-73289D01*
X73897Y-73310D01*
X74000Y-73310D01*
X74041Y-73289D01*
X74062Y-73269D01*
X74082Y-73227D01*
X74082Y-73124D01*
X74062Y-73083D01*
X74041Y-73062D01*
X73649Y-73578D02*
X73649Y-73619D01*
X73670Y-73661D01*
X73690Y-73681D01*
X73732Y-73702D01*
X73814Y-73722D01*
X73917Y-73722D01*
X74000Y-73702D01*
X74041Y-73681D01*
X74062Y-73661D01*
X74082Y-73619D01*
X74082Y-73578D01*
X74062Y-73537D01*
X74041Y-73516D01*
X74000Y-73496D01*
X73917Y-73475D01*
X73814Y-73475D01*
X73732Y-73496D01*
X73690Y-73516D01*
X73670Y-73537D01*
X73649Y-73578D01*
X74082Y-73908D02*
X73794Y-73908D01*
X73835Y-73908D02*
X73814Y-73929D01*
X73794Y-73970D01*
X73794Y-74032D01*
X73814Y-74073D01*
X73855Y-74094D01*
X74082Y-74094D01*
X73855Y-74094D02*
X73814Y-74114D01*
X73794Y-74155D01*
X73794Y-74217D01*
X73814Y-74259D01*
X73855Y-74279D01*
X74082Y-74279D01*
X73959Y-74465D02*
X73959Y-74671D01*
X74082Y-74424D02*
X73649Y-74568D01*
X74082Y-74712D01*
X74307Y-67391D02*
X74740Y-67680D01*
X74307Y-67680D02*
X74740Y-67391D01*
X74699Y-69165D02*
X74719Y-69185D01*
X74740Y-69165D01*
X74719Y-69144D01*
X74699Y-69165D01*
X74740Y-69165D01*
X74472Y-69165D02*
X74492Y-69185D01*
X74513Y-69165D01*
X74492Y-69144D01*
X74472Y-69165D01*
X74513Y-69165D01*
X74699Y-71021D02*
X74719Y-71041D01*
X74740Y-71021D01*
X74719Y-71000D01*
X74699Y-71021D01*
X74740Y-71021D01*
X74472Y-71021D02*
X74492Y-71041D01*
X74513Y-71021D01*
X74492Y-71000D01*
X74472Y-71021D01*
X74513Y-71021D01*
X74307Y-72506D02*
X74307Y-72794D01*
X74740Y-72609D01*
X74307Y-73042D02*
X74307Y-73083D01*
X74327Y-73124D01*
X74348Y-73145D01*
X74389Y-73166D01*
X74472Y-73186D01*
X74575Y-73186D01*
X74657Y-73166D01*
X74699Y-73145D01*
X74719Y-73124D01*
X74740Y-73083D01*
X74740Y-73042D01*
X74719Y-73001D01*
X74699Y-72980D01*
X74657Y-72959D01*
X74575Y-72939D01*
X74472Y-72939D01*
X74389Y-72959D01*
X74348Y-72980D01*
X74327Y-73001D01*
X74307Y-73042D01*
X74307Y-73454D02*
X74307Y-73496D01*
X74327Y-73537D01*
X74348Y-73557D01*
X74389Y-73578D01*
X74472Y-73599D01*
X74575Y-73599D01*
X74657Y-73578D01*
X74699Y-73557D01*
X74719Y-73537D01*
X74740Y-73496D01*
X74740Y-73454D01*
X74719Y-73413D01*
X74699Y-73392D01*
X74657Y-73372D01*
X74575Y-73351D01*
X74472Y-73351D01*
X74389Y-73372D01*
X74348Y-73392D01*
X74327Y-73413D01*
X74307Y-73454D01*
X74740Y-73784D02*
X74451Y-73784D01*
X74492Y-73784D02*
X74472Y-73805D01*
X74451Y-73846D01*
X74451Y-73908D01*
X74472Y-73949D01*
X74513Y-73970D01*
X74740Y-73970D01*
X74513Y-73970D02*
X74472Y-73991D01*
X74451Y-74032D01*
X74451Y-74094D01*
X74472Y-74135D01*
X74513Y-74155D01*
X74740Y-74155D01*
X74616Y-74341D02*
X74616Y-74547D01*
X74740Y-74300D02*
X74307Y-74444D01*
X74740Y-74589D01*
X75356Y-67433D02*
X75377Y-67453D01*
X75397Y-67433D01*
X75377Y-67412D01*
X75356Y-67433D01*
X75397Y-67433D01*
X75129Y-67433D02*
X75150Y-67453D01*
X75170Y-67433D01*
X75150Y-67412D01*
X75129Y-67433D01*
X75170Y-67433D01*
X74964Y-68917D02*
X75397Y-69206D01*
X74964Y-69206D02*
X75397Y-68917D01*
X75356Y-71021D02*
X75377Y-71041D01*
X75397Y-71021D01*
X75377Y-71000D01*
X75356Y-71021D01*
X75397Y-71021D01*
X75129Y-71021D02*
X75150Y-71041D01*
X75170Y-71021D01*
X75150Y-71000D01*
X75129Y-71021D01*
X75170Y-71021D01*
X75397Y-72774D02*
X75397Y-72526D01*
X75397Y-72650D02*
X74964Y-72650D01*
X75026Y-72609D01*
X75067Y-72568D01*
X75088Y-72526D01*
X75005Y-72939D02*
X74985Y-72959D01*
X74964Y-73001D01*
X74964Y-73104D01*
X74985Y-73145D01*
X75005Y-73166D01*
X75047Y-73186D01*
X75088Y-73186D01*
X75150Y-73166D01*
X75397Y-72918D01*
X75397Y-73186D01*
X74964Y-73454D02*
X74964Y-73496D01*
X74985Y-73537D01*
X75005Y-73557D01*
X75047Y-73578D01*
X75129Y-73599D01*
X75232Y-73599D01*
X75315Y-73578D01*
X75356Y-73557D01*
X75377Y-73537D01*
X75397Y-73496D01*
X75397Y-73454D01*
X75377Y-73413D01*
X75356Y-73392D01*
X75315Y-73372D01*
X75232Y-73351D01*
X75129Y-73351D01*
X75047Y-73372D01*
X75005Y-73392D01*
X74985Y-73413D01*
X74964Y-73454D01*
X74964Y-73867D02*
X74964Y-73908D01*
X74985Y-73949D01*
X75005Y-73970D01*
X75047Y-73991D01*
X75129Y-74011D01*
X75232Y-74011D01*
X75315Y-73991D01*
X75356Y-73970D01*
X75377Y-73949D01*
X75397Y-73908D01*
X75397Y-73867D01*
X75377Y-73826D01*
X75356Y-73805D01*
X75315Y-73784D01*
X75232Y-73764D01*
X75129Y-73764D01*
X75047Y-73784D01*
X75005Y-73805D01*
X74985Y-73826D01*
X74964Y-73867D01*
X75397Y-74197D02*
X75109Y-74197D01*
X75150Y-74197D02*
X75129Y-74217D01*
X75109Y-74259D01*
X75109Y-74320D01*
X75129Y-74362D01*
X75170Y-74382D01*
X75397Y-74382D01*
X75170Y-74382D02*
X75129Y-74403D01*
X75109Y-74444D01*
X75109Y-74506D01*
X75129Y-74547D01*
X75170Y-74568D01*
X75397Y-74568D01*
X75273Y-74754D02*
X75273Y-74960D01*
X75397Y-74712D02*
X74964Y-74857D01*
X75397Y-75001D01*
X76013Y-67433D02*
X76034Y-67453D01*
X76055Y-67433D01*
X76034Y-67412D01*
X76013Y-67433D01*
X76055Y-67433D01*
X75787Y-67433D02*
X75807Y-67453D01*
X75828Y-67433D01*
X75807Y-67412D01*
X75787Y-67433D01*
X75828Y-67433D01*
X76013Y-68959D02*
X76034Y-68979D01*
X76055Y-68959D01*
X76034Y-68938D01*
X76013Y-68959D01*
X76055Y-68959D01*
X75787Y-68959D02*
X75807Y-68979D01*
X75828Y-68959D01*
X75807Y-68938D01*
X75787Y-68959D01*
X75828Y-68959D01*
X75622Y-70773D02*
X76055Y-71062D01*
X75622Y-71062D02*
X76055Y-70773D01*
X76055Y-72774D02*
X76055Y-72526D01*
X76055Y-72650D02*
X75622Y-72650D01*
X75684Y-72609D01*
X75725Y-72568D01*
X75745Y-72526D01*
X75622Y-73166D02*
X75622Y-72959D01*
X75828Y-72939D01*
X75807Y-72959D01*
X75787Y-73001D01*
X75787Y-73104D01*
X75807Y-73145D01*
X75828Y-73166D01*
X75869Y-73186D01*
X75972Y-73186D01*
X76013Y-73166D01*
X76034Y-73145D01*
X76055Y-73104D01*
X76055Y-73001D01*
X76034Y-72959D01*
X76013Y-72939D01*
X75622Y-73454D02*
X75622Y-73496D01*
X75642Y-73537D01*
X75663Y-73557D01*
X75704Y-73578D01*
X75787Y-73599D01*
X75890Y-73599D01*
X75972Y-73578D01*
X76013Y-73557D01*
X76034Y-73537D01*
X76055Y-73496D01*
X76055Y-73454D01*
X76034Y-73413D01*
X76013Y-73392D01*
X75972Y-73372D01*
X75890Y-73351D01*
X75787Y-73351D01*
X75704Y-73372D01*
X75663Y-73392D01*
X75642Y-73413D01*
X75622Y-73454D01*
X75622Y-73867D02*
X75622Y-73908D01*
X75642Y-73949D01*
X75663Y-73970D01*
X75704Y-73991D01*
X75787Y-74011D01*
X75890Y-74011D01*
X75972Y-73991D01*
X76013Y-73970D01*
X76034Y-73949D01*
X76055Y-73908D01*
X76055Y-73867D01*
X76034Y-73826D01*
X76013Y-73805D01*
X75972Y-73784D01*
X75890Y-73764D01*
X75787Y-73764D01*
X75704Y-73784D01*
X75663Y-73805D01*
X75642Y-73826D01*
X75622Y-73867D01*
X76055Y-74197D02*
X75766Y-74197D01*
X75807Y-74197D02*
X75787Y-74217D01*
X75766Y-74259D01*
X75766Y-74320D01*
X75787Y-74362D01*
X75828Y-74382D01*
X76055Y-74382D01*
X75828Y-74382D02*
X75787Y-74403D01*
X75766Y-74444D01*
X75766Y-74506D01*
X75787Y-74547D01*
X75828Y-74568D01*
X76055Y-74568D01*
X75931Y-74754D02*
X75931Y-74960D01*
X76055Y-74712D02*
X75622Y-74857D01*
X76055Y-75001D01*
G54D12*
G36*
X72323Y-77591D02*
X72434Y-77591D01*
X72434Y-77474D01*
X72434Y-77194D01*
X72434Y-76914D01*
X72714Y-76914D01*
X72994Y-76914D01*
X72994Y-77194D01*
X72994Y-77474D01*
X72714Y-77474D01*
X72434Y-77474D01*
X72434Y-77591D01*
X72717Y-77591D01*
X73111Y-77591D01*
X73111Y-77197D01*
X73111Y-76803D01*
X72717Y-76803D01*
X72323Y-76803D01*
X72323Y-77197D01*
X72323Y-77591D01*
X72323Y-77591D01*
X72323Y-77591D01*
G37*
G36*
X71537Y-77474D02*
X71649Y-77476D01*
X71761Y-77477D01*
X71763Y-77534D01*
X71764Y-77591D01*
X71985Y-77591D01*
X71985Y-77363D01*
X71985Y-77308D01*
X71985Y-77252D01*
X72040Y-77252D01*
X72096Y-77252D01*
X72096Y-77308D01*
X72096Y-77363D01*
X72040Y-77363D01*
X71985Y-77363D01*
X71985Y-77591D01*
X71985Y-77591D01*
X72041Y-77590D01*
X72087Y-77590D01*
X72125Y-77590D01*
X72155Y-77589D01*
X72177Y-77589D01*
X72193Y-77588D01*
X72204Y-77587D01*
X72209Y-77585D01*
X72210Y-77584D01*
X72210Y-77578D01*
X72211Y-77563D01*
X72211Y-77539D01*
X72211Y-77509D01*
X72211Y-77472D01*
X72211Y-77429D01*
X72211Y-77382D01*
X72211Y-77332D01*
X72211Y-77303D01*
X72210Y-77028D01*
X72099Y-77028D01*
X71987Y-77028D01*
X71986Y-77140D01*
X71985Y-77252D01*
X71930Y-77252D01*
X71875Y-77252D01*
X71875Y-77308D01*
X71875Y-77363D01*
X71820Y-77363D01*
X71764Y-77363D01*
X71764Y-77308D01*
X71764Y-77252D01*
X71650Y-77252D01*
X71537Y-77252D01*
X71537Y-77363D01*
X71537Y-77474D01*
X71537Y-77474D01*
X71537Y-77474D01*
G37*
G36*
X71426Y-77591D02*
X71481Y-77591D01*
X71537Y-77591D01*
X71537Y-77532D01*
X71537Y-77474D01*
X71481Y-77474D01*
X71426Y-77474D01*
X71426Y-77533D01*
X71426Y-77591D01*
X71426Y-77591D01*
X71426Y-77591D01*
G37*
G36*
X70977Y-77474D02*
X71088Y-77474D01*
X71199Y-77474D01*
X71199Y-77533D01*
X71199Y-77591D01*
X71254Y-77591D01*
X71281Y-77590D01*
X71298Y-77589D01*
X71309Y-77587D01*
X71313Y-77584D01*
X71313Y-77576D01*
X71314Y-77561D01*
X71314Y-77541D01*
X71314Y-77527D01*
X71312Y-77477D01*
X71255Y-77475D01*
X71199Y-77474D01*
X71199Y-77419D01*
X71199Y-77363D01*
X71088Y-77363D01*
X70977Y-77363D01*
X70977Y-77419D01*
X70977Y-77474D01*
X70977Y-77474D01*
X70977Y-77474D01*
G37*
G36*
X70866Y-77591D02*
X70921Y-77591D01*
X70977Y-77591D01*
X70977Y-77533D01*
X70977Y-77474D01*
X70921Y-77474D01*
X70866Y-77474D01*
X70866Y-77533D01*
X70866Y-77591D01*
X70866Y-77591D01*
X70866Y-77591D01*
G37*
G36*
X71537Y-76244D02*
X71650Y-76244D01*
X71764Y-76244D01*
X71764Y-76300D01*
X71764Y-76355D01*
X71706Y-76355D01*
X71648Y-76355D01*
X71648Y-76410D01*
X71648Y-76465D01*
X71706Y-76465D01*
X71764Y-76465D01*
X71764Y-76579D01*
X71764Y-76692D01*
X71875Y-76692D01*
X71985Y-76692D01*
X71985Y-76579D01*
X71985Y-76465D01*
X71930Y-76465D01*
X71875Y-76465D01*
X71875Y-76410D01*
X71875Y-76355D01*
X71930Y-76355D01*
X71985Y-76355D01*
X71985Y-76300D01*
X71985Y-76244D01*
X71875Y-76244D01*
X71764Y-76244D01*
X71763Y-76187D01*
X71761Y-76130D01*
X71649Y-76129D01*
X71537Y-76128D01*
X71537Y-76186D01*
X71537Y-76244D01*
X71537Y-76244D01*
X71537Y-76244D01*
G37*
G36*
X71537Y-76576D02*
X71592Y-76576D01*
X71648Y-76576D01*
X71648Y-76520D01*
X71648Y-76465D01*
X71592Y-76465D01*
X71537Y-76465D01*
X71537Y-76520D01*
X71537Y-76576D01*
X71537Y-76576D01*
X71537Y-76576D01*
G37*
G36*
X71537Y-77025D02*
X71592Y-77025D01*
X71648Y-77025D01*
X71648Y-76970D01*
X71648Y-76914D01*
X71761Y-76914D01*
X71875Y-76914D01*
X71875Y-76859D01*
X71875Y-76803D01*
X71761Y-76803D01*
X71648Y-76803D01*
X71648Y-76748D01*
X71648Y-76692D01*
X71592Y-76692D01*
X71537Y-76692D01*
X71537Y-76859D01*
X71537Y-77025D01*
X71537Y-77025D01*
X71537Y-77025D01*
G37*
G36*
X71426Y-76465D02*
X71481Y-76465D01*
X71537Y-76465D01*
X71537Y-76410D01*
X71537Y-76355D01*
X71481Y-76355D01*
X71426Y-76355D01*
X71426Y-76410D01*
X71426Y-76465D01*
X71426Y-76465D01*
X71426Y-76465D01*
G37*
G36*
X71426Y-76692D02*
X71481Y-76692D01*
X71537Y-76692D01*
X71537Y-76634D01*
X71537Y-76576D01*
X71481Y-76576D01*
X71426Y-76576D01*
X71426Y-76634D01*
X71426Y-76692D01*
X71426Y-76692D01*
X71426Y-76692D01*
G37*
G36*
X71088Y-77252D02*
X71201Y-77252D01*
X71315Y-77252D01*
X71315Y-77197D01*
X71315Y-77141D01*
X71201Y-77141D01*
X71088Y-77141D01*
X71088Y-77197D01*
X71088Y-77252D01*
X71088Y-77252D01*
X71088Y-77252D01*
G37*
G36*
X70749Y-77141D02*
X70863Y-77141D01*
X70977Y-77141D01*
X70977Y-77083D01*
X70977Y-77025D01*
X71032Y-77025D01*
X71088Y-77025D01*
X71088Y-76970D01*
X71088Y-76914D01*
X71032Y-76914D01*
X70977Y-76914D01*
X70977Y-76859D01*
X70977Y-76803D01*
X70977Y-76692D01*
X70977Y-76634D01*
X70977Y-76576D01*
X70977Y-76465D01*
X70977Y-76410D01*
X70977Y-76355D01*
X71032Y-76355D01*
X71088Y-76355D01*
X71088Y-76410D01*
X71088Y-76465D01*
X71032Y-76465D01*
X70977Y-76465D01*
X70977Y-76576D01*
X71032Y-76576D01*
X71088Y-76576D01*
X71088Y-76634D01*
X71088Y-76692D01*
X71032Y-76692D01*
X70977Y-76692D01*
X70977Y-76803D01*
X71032Y-76803D01*
X71088Y-76803D01*
X71088Y-76859D01*
X71088Y-76914D01*
X71143Y-76914D01*
X71199Y-76914D01*
X71199Y-76859D01*
X71199Y-76803D01*
X71257Y-76803D01*
X71315Y-76803D01*
X71315Y-76859D01*
X71315Y-76914D01*
X71257Y-76914D01*
X71199Y-76914D01*
X71199Y-76970D01*
X71199Y-77025D01*
X71255Y-77026D01*
X71312Y-77028D01*
X71314Y-77085D01*
X71315Y-77141D01*
X71426Y-77141D01*
X71537Y-77141D01*
X71537Y-77083D01*
X71537Y-77025D01*
X71481Y-77025D01*
X71426Y-77025D01*
X71426Y-76859D01*
X71426Y-76692D01*
X71370Y-76692D01*
X71315Y-76692D01*
X71314Y-76635D01*
X71312Y-76579D01*
X71255Y-76577D01*
X71199Y-76576D01*
X71199Y-76465D01*
X71199Y-76355D01*
X71312Y-76355D01*
X71426Y-76355D01*
X71426Y-76241D01*
X71426Y-76128D01*
X71370Y-76128D01*
X71315Y-76128D01*
X71314Y-76185D01*
X71312Y-76241D01*
X71257Y-76241D01*
X71201Y-76241D01*
X71200Y-76185D01*
X71198Y-76128D01*
X71143Y-76128D01*
X71088Y-76128D01*
X71088Y-76186D01*
X71088Y-76244D01*
X71032Y-76244D01*
X70977Y-76244D01*
X70977Y-76186D01*
X70977Y-76128D01*
X70921Y-76128D01*
X70866Y-76128D01*
X70865Y-76185D01*
X70863Y-76241D01*
X70806Y-76243D01*
X70749Y-76244D01*
X70749Y-76300D01*
X70749Y-76355D01*
X70807Y-76355D01*
X70866Y-76355D01*
X70866Y-76410D01*
X70866Y-76465D01*
X70807Y-76465D01*
X70749Y-76465D01*
X70749Y-76520D01*
X70749Y-76576D01*
X70806Y-76577D01*
X70863Y-76579D01*
X70863Y-76634D01*
X70863Y-76690D01*
X70806Y-76691D01*
X70749Y-76692D01*
X70749Y-76748D01*
X70749Y-76803D01*
X70807Y-76803D01*
X70866Y-76803D01*
X70866Y-76859D01*
X70866Y-76914D01*
X70807Y-76914D01*
X70749Y-76914D01*
X70749Y-77028D01*
X70749Y-77141D01*
X70749Y-77141D01*
X70749Y-77141D01*
G37*
G36*
X71764Y-77141D02*
X71820Y-77141D01*
X71875Y-77141D01*
X71874Y-77085D01*
X71873Y-77028D01*
X71818Y-77026D01*
X71764Y-77025D01*
X71764Y-77083D01*
X71764Y-77141D01*
X71764Y-77141D01*
X71764Y-77141D01*
G37*
G36*
X72772Y-76465D02*
X72828Y-76465D01*
X72883Y-76465D01*
X72883Y-76520D01*
X72883Y-76576D01*
X72939Y-76576D01*
X72994Y-76576D01*
X72996Y-76633D01*
X72997Y-76690D01*
X73053Y-76690D01*
X73108Y-76690D01*
X73109Y-76577D01*
X73111Y-76465D01*
X73053Y-76465D01*
X72994Y-76465D01*
X72994Y-76410D01*
X72994Y-76355D01*
X72883Y-76355D01*
X72772Y-76355D01*
X72772Y-76410D01*
X72772Y-76465D01*
X72772Y-76465D01*
X72772Y-76465D01*
G37*
G36*
X72661Y-76692D02*
X72717Y-76692D01*
X72772Y-76692D01*
X72772Y-76579D01*
X72772Y-76465D01*
X72717Y-76465D01*
X72661Y-76465D01*
X72661Y-76579D01*
X72661Y-76692D01*
X72661Y-76692D01*
X72661Y-76692D01*
G37*
G36*
X72323Y-76465D02*
X72434Y-76465D01*
X72545Y-76465D01*
X72545Y-76410D01*
X72545Y-76355D01*
X72659Y-76355D01*
X72772Y-76355D01*
X72772Y-76300D01*
X72772Y-76244D01*
X72883Y-76244D01*
X72994Y-76244D01*
X72994Y-76300D01*
X72994Y-76355D01*
X73053Y-76355D01*
X73111Y-76355D01*
X73109Y-76243D01*
X73108Y-76130D01*
X72828Y-76130D01*
X72548Y-76130D01*
X72547Y-76243D01*
X72545Y-76355D01*
X72434Y-76355D01*
X72323Y-76355D01*
X72323Y-76410D01*
X72323Y-76465D01*
X72323Y-76465D01*
X72323Y-76465D01*
G37*
G36*
X71985Y-75568D02*
X71986Y-75680D01*
X71987Y-75792D01*
X72042Y-75794D01*
X72096Y-75795D01*
X72096Y-75906D01*
X72096Y-76017D01*
X72154Y-76017D01*
X72212Y-76017D01*
X72212Y-75906D01*
X72212Y-75795D01*
X72154Y-75795D01*
X72096Y-75795D01*
X72097Y-75738D01*
X72099Y-75681D01*
X72155Y-75680D01*
X72212Y-75678D01*
X72212Y-75623D01*
X72212Y-75568D01*
X72099Y-75568D01*
X71985Y-75568D01*
X71985Y-75568D01*
X71985Y-75568D01*
G37*
G36*
X71985Y-76128D02*
X72040Y-76128D01*
X72096Y-76128D01*
X72096Y-76072D01*
X72096Y-76017D01*
X72040Y-76017D01*
X71985Y-76017D01*
X71985Y-76072D01*
X71985Y-76128D01*
X71985Y-76128D01*
X71985Y-76128D01*
G37*
G36*
X71985Y-76914D02*
X72099Y-76914D01*
X72212Y-76914D01*
X72212Y-76803D01*
X72212Y-76692D01*
X72323Y-76692D01*
X72434Y-76692D01*
X72434Y-76634D01*
X72434Y-76576D01*
X72379Y-76576D01*
X72323Y-76576D01*
X72323Y-76520D01*
X72323Y-76465D01*
X72268Y-76465D01*
X72212Y-76465D01*
X72212Y-76410D01*
X72212Y-76355D01*
X72268Y-76355D01*
X72323Y-76355D01*
X72323Y-76300D01*
X72323Y-76244D01*
X72379Y-76244D01*
X72434Y-76244D01*
X72434Y-76186D01*
X72434Y-76128D01*
X72265Y-76128D01*
X72096Y-76128D01*
X72096Y-76465D01*
X72096Y-76803D01*
X72040Y-76803D01*
X71985Y-76803D01*
X71985Y-76859D01*
X71985Y-76914D01*
X71985Y-76914D01*
X71985Y-76914D01*
G37*
G36*
X71875Y-76017D02*
X71930Y-76017D01*
X71985Y-76017D01*
X71985Y-75961D01*
X71985Y-75906D01*
X71930Y-75906D01*
X71875Y-75906D01*
X71875Y-75961D01*
X71875Y-76017D01*
X71875Y-76017D01*
X71875Y-76017D01*
G37*
G36*
X71648Y-76017D02*
X71706Y-76017D01*
X71764Y-76017D01*
X71764Y-75961D01*
X71764Y-75906D01*
X71820Y-75906D01*
X71875Y-75906D01*
X71875Y-75850D01*
X71875Y-75795D01*
X71761Y-75795D01*
X71648Y-75795D01*
X71648Y-75906D01*
X71648Y-76017D01*
X71648Y-76017D01*
X71648Y-76017D01*
G37*
G36*
X71648Y-75457D02*
X71706Y-75457D01*
X71764Y-75457D01*
X71764Y-75512D01*
X71764Y-75568D01*
X71706Y-75568D01*
X71648Y-75568D01*
X71648Y-75623D01*
X71648Y-75679D01*
X71761Y-75679D01*
X71875Y-75679D01*
X71875Y-75623D01*
X71875Y-75568D01*
X71930Y-75568D01*
X71985Y-75568D01*
X71985Y-75568D01*
X71985Y-75512D01*
X71985Y-75457D01*
X72099Y-75457D01*
X72212Y-75457D01*
X72212Y-75401D01*
X72212Y-75346D01*
X72100Y-75344D01*
X71987Y-75343D01*
X71986Y-75286D01*
X71985Y-75229D01*
X71930Y-75229D01*
X71875Y-75229D01*
X71875Y-75343D01*
X71875Y-75457D01*
X71820Y-75457D01*
X71764Y-75457D01*
X71763Y-75344D01*
X71761Y-75232D01*
X71706Y-75232D01*
X71650Y-75232D01*
X71649Y-75344D01*
X71648Y-75457D01*
X71648Y-75457D01*
X71648Y-75457D01*
G37*
G36*
X72323Y-76017D02*
X72434Y-76017D01*
X72434Y-75906D01*
X72434Y-75626D01*
X72434Y-75346D01*
X72714Y-75346D01*
X72994Y-75346D01*
X72994Y-75626D01*
X72994Y-75906D01*
X72714Y-75906D01*
X72434Y-75906D01*
X72434Y-76017D01*
X72717Y-76017D01*
X73111Y-76017D01*
X73111Y-75623D01*
X73111Y-75229D01*
X72717Y-75229D01*
X72323Y-75229D01*
X72323Y-75623D01*
X72323Y-76017D01*
X72323Y-76017D01*
X72323Y-76017D01*
G37*
G36*
X70749Y-76017D02*
X70866Y-76017D01*
X70866Y-75906D01*
X70866Y-75626D01*
X70866Y-75346D01*
X71146Y-75346D01*
X71426Y-75346D01*
X71426Y-75626D01*
X71426Y-75906D01*
X71146Y-75906D01*
X70866Y-75906D01*
X70866Y-76017D01*
X71143Y-76017D01*
X71537Y-76017D01*
X71537Y-75623D01*
X71537Y-75229D01*
X71143Y-75229D01*
X70749Y-75229D01*
X70749Y-75623D01*
X70749Y-76017D01*
X70749Y-76017D01*
X70749Y-76017D01*
G37*
G36*
X72545Y-77363D02*
X72714Y-77363D01*
X72883Y-77363D01*
X72883Y-77194D01*
X72883Y-77025D01*
X72716Y-77026D01*
X72548Y-77028D01*
X72547Y-77196D01*
X72545Y-77363D01*
X72545Y-77363D01*
X72545Y-77363D01*
G37*
G36*
X72545Y-75457D02*
X72547Y-75624D01*
X72548Y-75792D01*
X72716Y-75793D01*
X72883Y-75795D01*
X72883Y-75626D01*
X72883Y-75457D01*
X72714Y-75457D01*
X72545Y-75457D01*
X72545Y-75457D01*
X72545Y-75457D01*
G37*
G36*
X70977Y-75795D02*
X71142Y-75795D01*
X71182Y-75795D01*
X71219Y-75794D01*
X71251Y-75794D01*
X71278Y-75793D01*
X71297Y-75793D01*
X71309Y-75792D01*
X71311Y-75791D01*
X71312Y-75786D01*
X71313Y-75771D01*
X71314Y-75749D01*
X71314Y-75720D01*
X71315Y-75686D01*
X71315Y-75648D01*
X71315Y-75622D01*
X71315Y-75457D01*
X71146Y-75457D01*
X70977Y-75457D01*
X70977Y-75626D01*
X70977Y-75795D01*
X70977Y-75795D01*
X70977Y-75795D01*
G37*
M02*
