G04 (created by PCBNEW (2014-01-10 BZR 4027)-stable) date Thursday, 14 August 2014 18:29:29*
%MOIN*%
G04 Gerber Fmt 3.4, Leading zero omitted, Abs format*
%FSLAX34Y34*%
G01*
G70*
G90*
G04 APERTURE LIST*
%ADD10C,0.00590551*%
G04 APERTURE END LIST*
G54D10*
X89992Y-78000D02*
X63925Y-78000D01*
X91250Y-72500D02*
G75*
G03X91500Y-72250I0J250D01*
G74*
G01*
X91000Y-72250D02*
G75*
G03X91250Y-72500I250J0D01*
G74*
G01*
X91000Y-72250D02*
X91000Y-66500D01*
X91500Y-66500D02*
X91500Y-72250D01*
X91500Y-66500D02*
G75*
G03X91250Y-66250I-250J0D01*
G74*
G01*
X91250Y-66250D02*
G75*
G03X91000Y-66500I0J-250D01*
G74*
G01*
X91750Y-77500D02*
X92000Y-77500D01*
X91500Y-77250D02*
X91750Y-77500D01*
X91500Y-74000D02*
X91500Y-77250D01*
X91000Y-76000D02*
X91000Y-74000D01*
X91500Y-61750D02*
X91750Y-61500D01*
X91500Y-64750D02*
X91500Y-61750D01*
X91000Y-63000D02*
X91000Y-64750D01*
X91250Y-65000D02*
G75*
G03X91500Y-64750I0J250D01*
G74*
G01*
X91000Y-64750D02*
G75*
G03X91250Y-65000I250J0D01*
G74*
G01*
X91500Y-74000D02*
G75*
G03X91250Y-73750I-250J0D01*
G74*
G01*
X91250Y-73750D02*
G75*
G03X91000Y-74000I0J-250D01*
G74*
G01*
X90000Y-77000D02*
X89992Y-78000D01*
X91000Y-76000D02*
X90000Y-77000D01*
X94250Y-77500D02*
X92000Y-77500D01*
X95000Y-76750D02*
X94250Y-77500D01*
X95000Y-62000D02*
X95000Y-76750D01*
X94500Y-61500D02*
X95000Y-62000D01*
X91750Y-61500D02*
X94500Y-61500D01*
X90000Y-62000D02*
X91000Y-63000D01*
X90000Y-57475D02*
X90000Y-62000D01*
X89500Y-56975D02*
X90000Y-57475D01*
X63925Y-56975D02*
X89500Y-56975D01*
X63925Y-78000D02*
X63925Y-56975D01*
M02*
