G04 (created by PCBNEW (2014-01-10 BZR 4027)-stable) date Thursday, 14 August 2014 18:29:29*
%MOIN*%
G04 Gerber Fmt 3.4, Leading zero omitted, Abs format*
%FSLAX34Y34*%
G01*
G70*
G90*
G04 APERTURE LIST*
%ADD10C,0.00590551*%
%ADD11O,0.0315X0.0118*%
%ADD12R,0.0165X0.0579*%
%ADD13R,0.0413386X0.0579*%
%ADD14R,0.114173X0.114173*%
%ADD15R,0.0394X0.0354*%
%ADD16R,0.0709X0.1457*%
%ADD17R,0.0512X0.059*%
%ADD18R,0.106X0.063*%
%ADD19R,0.059X0.0512*%
%ADD20R,0.1259X0.0787*%
%ADD21R,0.0787X0.1259*%
%ADD22R,0.216535X0.15748*%
%ADD23O,0.138385X0.0767717*%
%ADD24R,0.0354X0.0394*%
%ADD25R,0.023622X0.0629921*%
%ADD26R,0.0394X0.0236*%
%ADD27R,0.045X0.025*%
%ADD28R,0.0276X0.0236*%
%ADD29R,0.0276X0.0354*%
%ADD30R,0.025X0.045*%
%ADD31R,0.1575X0.063*%
G04 APERTURE END LIST*
G54D10*
G54D11*
X75240Y-67605D03*
X75240Y-67802D03*
X75240Y-67998D03*
X75240Y-68195D03*
X76460Y-68195D03*
X76460Y-67998D03*
X76460Y-67802D03*
X76460Y-67605D03*
G54D12*
X68750Y-64352D03*
X69006Y-64352D03*
X69262Y-64352D03*
G54D13*
X69642Y-64352D03*
G54D12*
X69518Y-62148D03*
X67982Y-64352D03*
X68238Y-64352D03*
X68494Y-64352D03*
X69262Y-62148D03*
X69006Y-62148D03*
X68750Y-62148D03*
X68494Y-62148D03*
X68238Y-62148D03*
X67979Y-62148D03*
G54D14*
X68750Y-63250D03*
G54D15*
X77400Y-67504D03*
X77400Y-68096D03*
X78300Y-67554D03*
X78300Y-68146D03*
G54D16*
X68857Y-60200D03*
X67243Y-60200D03*
G54D17*
X68725Y-65150D03*
X67975Y-65150D03*
G54D18*
X68774Y-71000D03*
X68774Y-72100D03*
G54D19*
X74000Y-73125D03*
X74000Y-73875D03*
G54D20*
X65650Y-64038D03*
X65650Y-61362D03*
G54D21*
X70362Y-71100D03*
X73038Y-71100D03*
G54D22*
X66450Y-69573D03*
X66450Y-66226D03*
G54D23*
X65725Y-71374D03*
X65725Y-72374D03*
G54D15*
X75688Y-60137D03*
X75688Y-60729D03*
G54D24*
X73746Y-68650D03*
X73154Y-68650D03*
X78296Y-66725D03*
X77704Y-66725D03*
X74554Y-66950D03*
X75146Y-66950D03*
G54D17*
X69825Y-60331D03*
X70575Y-60331D03*
X71125Y-64550D03*
X71875Y-64550D03*
X71125Y-65550D03*
X71875Y-65550D03*
X71125Y-66550D03*
X71875Y-66550D03*
X71125Y-63550D03*
X71875Y-63550D03*
G54D15*
X83030Y-77386D03*
X83030Y-76794D03*
G54D24*
X75104Y-72800D03*
X75696Y-72800D03*
X75104Y-73620D03*
X75696Y-73620D03*
X71241Y-61920D03*
X71833Y-61920D03*
G54D15*
X71350Y-60646D03*
X71350Y-60054D03*
G54D25*
X74411Y-69537D03*
X74411Y-71662D03*
X74903Y-69537D03*
X75396Y-69537D03*
X75888Y-69537D03*
X74903Y-71662D03*
X75396Y-71662D03*
X75888Y-71662D03*
G54D26*
X83416Y-74425D03*
X82584Y-74050D03*
X83416Y-73675D03*
G54D27*
X81750Y-74850D03*
X81750Y-74250D03*
X82100Y-72150D03*
X82100Y-71550D03*
X84450Y-74250D03*
X84450Y-73650D03*
X90059Y-64473D03*
X90059Y-63873D03*
G54D28*
X93278Y-75994D03*
G54D29*
X94222Y-76250D03*
G54D28*
X93278Y-76506D03*
G54D30*
X93450Y-75500D03*
X94050Y-75500D03*
X94050Y-77000D03*
X93450Y-77000D03*
X76400Y-66550D03*
X75800Y-66550D03*
X73750Y-67900D03*
X73150Y-67900D03*
X73750Y-67100D03*
X73150Y-67100D03*
G54D31*
X88012Y-61909D03*
X85610Y-61909D03*
X89685Y-69685D03*
X87283Y-69685D03*
X79744Y-61909D03*
X77342Y-61909D03*
M02*
