G04 (created by PCBNEW (2014-01-10 BZR 4027)-stable) date Thursday, 14 August 2014 18:29:29*
%MOIN*%
G04 Gerber Fmt 3.4, Leading zero omitted, Abs format*
%FSLAX34Y34*%
G01*
G70*
G90*
G04 APERTURE LIST*
%ADD10C,0.00590551*%
%ADD11C,0.00984252*%
%ADD12C,0.0137795*%
%ADD13C,0.189*%
%ADD14R,0.189X0.189*%
%ADD15O,0.14963X0.11026*%
%ADD16O,0.1X0.0590551*%
%ADD17C,0.019685*%
%ADD18C,0.0629551*%
%ADD19R,0.06X0.06*%
%ADD20C,0.06*%
%ADD21R,0.065X0.065*%
%ADD22C,0.065*%
%ADD23O,0.138385X0.0767717*%
%ADD24O,0.06X0.1*%
%ADD25C,0.125*%
%ADD26C,0.0787*%
%ADD27C,0.0629921*%
%ADD28C,0.07*%
%ADD29R,0.07X0.07*%
%ADD30C,0.023622*%
%ADD31C,0.00787402*%
%ADD32C,0.0354331*%
%ADD33C,0.019685*%
%ADD34C,0.01*%
G04 APERTURE END LIST*
G54D10*
G54D11*
X69590Y-59780D02*
X70090Y-60030D01*
X70090Y-59530D02*
X69590Y-59780D01*
G54D12*
X69640Y-59780D02*
X70240Y-59780D01*
G54D13*
X65100Y-74900D03*
G54D14*
X67500Y-74900D03*
G54D15*
X66000Y-76900D03*
G54D16*
X92250Y-69000D03*
X92250Y-68000D03*
X92250Y-67000D03*
X92250Y-66000D03*
X92250Y-65000D03*
X92250Y-64000D03*
X92250Y-63000D03*
X92250Y-62000D03*
X92250Y-77000D03*
X92250Y-76000D03*
X92250Y-75000D03*
X92250Y-74000D03*
X92250Y-73000D03*
X92250Y-72000D03*
X92250Y-71000D03*
X92250Y-70000D03*
G54D17*
X69590Y-59780D03*
G54D18*
X70140Y-59780D03*
G54D17*
X68750Y-63250D03*
X68375Y-62875D03*
X69124Y-62875D03*
X69124Y-63624D03*
X68375Y-63624D03*
G54D19*
X78174Y-70300D03*
G54D20*
X77174Y-70300D03*
G54D21*
X88550Y-62950D03*
G54D22*
X88550Y-60950D03*
G54D21*
X80300Y-62900D03*
G54D22*
X80300Y-60900D03*
G54D21*
X90100Y-70674D03*
G54D22*
X90100Y-68674D03*
G54D19*
X78174Y-69300D03*
G54D20*
X77174Y-69300D03*
G54D19*
X71750Y-58750D03*
G54D20*
X71750Y-57750D03*
G54D19*
X68550Y-58750D03*
G54D20*
X68550Y-57750D03*
G54D19*
X67550Y-58750D03*
G54D20*
X67550Y-57750D03*
G54D19*
X66550Y-58750D03*
G54D20*
X66550Y-57750D03*
G54D19*
X65550Y-58750D03*
G54D20*
X65550Y-57750D03*
G54D19*
X64550Y-58750D03*
G54D20*
X64550Y-57750D03*
G54D19*
X77600Y-72600D03*
G54D20*
X76600Y-72600D03*
G54D19*
X70050Y-68000D03*
G54D20*
X70050Y-69000D03*
G54D19*
X71050Y-68000D03*
G54D20*
X71050Y-69000D03*
G54D19*
X72050Y-68000D03*
G54D20*
X72050Y-69000D03*
G54D19*
X79500Y-75750D03*
G54D20*
X80500Y-75750D03*
G54D19*
X81500Y-75750D03*
G54D20*
X82500Y-75750D03*
G54D19*
X79825Y-69500D03*
G54D20*
X79825Y-70500D03*
X79825Y-71500D03*
G54D19*
X80874Y-69500D03*
G54D20*
X80874Y-70500D03*
X80874Y-71500D03*
G54D19*
X79450Y-67174D03*
G54D20*
X80450Y-67174D03*
X81450Y-67174D03*
G54D19*
X79450Y-68174D03*
G54D20*
X80450Y-68174D03*
X81450Y-68174D03*
G54D19*
X77500Y-75750D03*
G54D20*
X78500Y-75750D03*
G54D19*
X88500Y-75750D03*
G54D20*
X87500Y-75750D03*
X86500Y-75750D03*
X85500Y-75750D03*
X84500Y-75750D03*
X83500Y-75750D03*
G54D19*
X82550Y-62950D03*
G54D20*
X81550Y-62950D03*
X82550Y-61950D03*
X81550Y-61950D03*
X82550Y-60950D03*
X81550Y-60950D03*
G54D19*
X84550Y-65650D03*
G54D20*
X83550Y-65650D03*
X82550Y-65650D03*
X81550Y-65650D03*
G54D19*
X74300Y-62900D03*
G54D20*
X73300Y-62900D03*
X74300Y-61900D03*
X73300Y-61900D03*
X74300Y-60900D03*
X73300Y-60900D03*
G54D19*
X80300Y-65600D03*
G54D20*
X79300Y-65600D03*
X78300Y-65600D03*
X77300Y-65600D03*
G54D19*
X84100Y-70674D03*
G54D20*
X83100Y-70674D03*
X84100Y-69674D03*
X83100Y-69674D03*
X84100Y-68674D03*
X83100Y-68674D03*
G54D19*
X88700Y-73500D03*
G54D20*
X87700Y-73500D03*
X86700Y-73500D03*
X85700Y-73500D03*
G54D23*
X65725Y-71374D03*
X65725Y-72374D03*
G54D19*
X77600Y-73600D03*
G54D20*
X76600Y-73600D03*
G54D24*
X89000Y-77000D03*
X88000Y-77000D03*
X87000Y-77000D03*
X84000Y-77000D03*
X85000Y-77000D03*
X86000Y-77000D03*
X82000Y-77000D03*
X81000Y-77000D03*
X80000Y-77000D03*
X78000Y-77000D03*
X77000Y-77000D03*
X89000Y-58000D03*
X88000Y-58000D03*
X87000Y-58000D03*
X86000Y-58000D03*
X85000Y-58000D03*
X84000Y-58000D03*
X83000Y-58000D03*
X82000Y-58000D03*
X80400Y-58000D03*
X79400Y-58000D03*
X78400Y-58000D03*
X77400Y-58000D03*
X76400Y-58000D03*
X75400Y-58000D03*
X74400Y-58000D03*
X73400Y-58000D03*
X79000Y-77000D03*
G54D25*
X90000Y-75000D03*
X70000Y-58000D03*
X69500Y-77000D03*
G54D26*
X75886Y-77280D03*
X74114Y-74720D03*
X74114Y-77280D03*
X75886Y-74720D03*
G54D27*
X81550Y-64450D03*
X82550Y-64450D03*
X83550Y-64450D03*
X84550Y-64450D03*
X85550Y-64450D03*
X86550Y-64450D03*
X87550Y-64450D03*
X88550Y-64450D03*
X88550Y-59450D03*
X87550Y-59450D03*
X86550Y-59450D03*
X85550Y-59450D03*
X84550Y-59450D03*
X83550Y-59450D03*
X82550Y-59450D03*
X81550Y-59450D03*
X73300Y-64400D03*
X74300Y-64400D03*
X75300Y-64400D03*
X76300Y-64400D03*
X77300Y-64400D03*
X78300Y-64400D03*
X79300Y-64400D03*
X80300Y-64400D03*
X80300Y-59400D03*
X79300Y-59400D03*
X78300Y-59400D03*
X77300Y-59400D03*
X76300Y-59400D03*
X75300Y-59400D03*
X74300Y-59400D03*
X73300Y-59400D03*
X83100Y-72174D03*
X84100Y-72174D03*
X85100Y-72174D03*
X86100Y-72174D03*
X87100Y-72174D03*
X88100Y-72174D03*
X89100Y-72174D03*
X90100Y-72174D03*
X90100Y-67174D03*
X89100Y-67174D03*
X88100Y-67174D03*
X87100Y-67174D03*
X86100Y-67174D03*
X85100Y-67174D03*
X84100Y-67174D03*
X83100Y-67174D03*
G54D28*
X70000Y-74100D03*
G54D29*
X71000Y-74100D03*
G54D28*
X72000Y-74100D03*
G54D19*
X76200Y-65600D03*
G54D20*
X75200Y-65600D03*
X74200Y-65600D03*
X73200Y-65600D03*
G54D19*
X88600Y-65650D03*
G54D20*
X87600Y-65650D03*
X86600Y-65650D03*
X85600Y-65650D03*
G54D19*
X80600Y-73600D03*
G54D20*
X79600Y-73600D03*
X78600Y-73600D03*
G54D19*
X94500Y-74500D03*
G54D20*
X93500Y-74500D03*
X94500Y-73500D03*
X93500Y-73500D03*
X94500Y-72500D03*
X93500Y-72500D03*
X94500Y-71500D03*
X93500Y-71500D03*
X94500Y-70500D03*
X93500Y-70500D03*
X94500Y-69500D03*
X93500Y-69500D03*
X94500Y-68500D03*
X93500Y-68500D03*
X94500Y-67500D03*
X93500Y-67500D03*
X94500Y-66500D03*
X93500Y-66500D03*
X94500Y-65500D03*
X93500Y-65500D03*
X94500Y-64500D03*
X93500Y-64500D03*
X94500Y-63500D03*
X93500Y-63500D03*
X94500Y-62500D03*
X93500Y-62500D03*
G54D30*
X91125Y-73500D03*
X91125Y-73100D03*
X91125Y-72725D03*
X91150Y-66000D03*
X91150Y-65625D03*
X91150Y-65250D03*
G54D19*
X80600Y-72600D03*
G54D20*
X79600Y-72600D03*
X78600Y-72600D03*
G54D17*
X69470Y-59840D03*
X81671Y-72553D03*
X77840Y-60250D03*
X73350Y-66600D03*
X71450Y-62410D03*
G54D31*
X79825Y-70500D02*
X79600Y-70500D01*
X78600Y-71500D02*
X78600Y-72600D01*
X79600Y-70500D02*
X78600Y-71500D01*
X74300Y-62900D02*
X78850Y-62900D01*
X79800Y-66824D02*
X79450Y-67174D01*
X79800Y-63850D02*
X79800Y-66824D01*
X78850Y-62900D02*
X79800Y-63850D01*
X84100Y-68674D02*
X84100Y-69674D01*
X74300Y-62900D02*
X74300Y-61900D01*
X82550Y-60950D02*
X82550Y-61950D01*
X81118Y-70255D02*
X84100Y-70255D01*
X80874Y-70500D02*
X81118Y-70255D01*
X79450Y-68174D02*
X79450Y-67174D01*
X82550Y-61950D02*
X82550Y-62950D01*
X82550Y-62950D02*
X82550Y-64450D01*
X84100Y-70674D02*
X84100Y-70255D01*
X84100Y-70255D02*
X84100Y-69674D01*
X74300Y-60900D02*
X74300Y-61900D01*
X80905Y-76155D02*
X80475Y-75725D01*
X82677Y-76155D02*
X80905Y-76155D01*
X83000Y-75831D02*
X82677Y-76155D01*
X83000Y-73274D02*
X83000Y-75831D01*
X84100Y-72174D02*
X83000Y-73274D01*
X79798Y-76401D02*
X80475Y-75725D01*
X79000Y-76401D02*
X79798Y-76401D01*
X79000Y-77000D02*
X79000Y-76401D01*
G54D32*
X68700Y-74900D02*
X69200Y-74900D01*
X69200Y-74900D02*
X70000Y-74100D01*
X70140Y-59780D02*
X71460Y-59780D01*
X71460Y-59780D02*
X72038Y-60358D01*
X70220Y-64320D02*
X70220Y-62213D01*
X70220Y-62213D02*
X70201Y-62195D01*
X80300Y-62900D02*
X80260Y-62900D01*
X79730Y-62370D02*
X76627Y-62370D01*
X80260Y-62900D02*
X79730Y-62370D01*
X70220Y-64320D02*
X73050Y-67150D01*
X73050Y-69839D02*
X73050Y-67150D01*
X90100Y-72174D02*
X90100Y-70674D01*
X78174Y-70300D02*
X78174Y-69300D01*
X90100Y-70192D02*
X89770Y-69862D01*
X90100Y-70674D02*
X90100Y-70192D01*
X78751Y-69300D02*
X78174Y-69300D01*
X79239Y-68812D02*
X78751Y-69300D01*
X82112Y-68812D02*
X79239Y-68812D01*
X82834Y-68090D02*
X82112Y-68812D01*
X87997Y-68090D02*
X82834Y-68090D01*
X89770Y-69862D02*
X87997Y-68090D01*
X80300Y-64400D02*
X80300Y-62900D01*
X74562Y-68325D02*
X74335Y-68554D01*
X74335Y-68554D02*
X73050Y-69839D01*
X78174Y-69300D02*
X77200Y-68325D01*
X77200Y-68325D02*
X74562Y-68325D01*
X72074Y-60322D02*
X72038Y-60358D01*
X72038Y-60358D02*
X70201Y-62195D01*
X76627Y-62370D02*
X74580Y-60322D01*
X74580Y-60322D02*
X72074Y-60322D01*
X70000Y-72888D02*
X70000Y-73294D01*
X70000Y-73294D02*
X70000Y-74100D01*
X73050Y-69839D02*
X70000Y-72888D01*
X67500Y-74900D02*
X68700Y-74900D01*
X68700Y-74900D02*
X68722Y-74900D01*
X90705Y-66605D02*
X88550Y-64450D01*
X90705Y-68927D02*
X90705Y-66605D01*
X89770Y-69862D02*
X90705Y-68927D01*
X88550Y-64450D02*
X88550Y-62950D01*
G54D33*
X85700Y-72774D02*
X85700Y-73500D01*
X85100Y-72174D02*
X85700Y-72774D01*
X86700Y-72774D02*
X86700Y-73500D01*
X86100Y-72174D02*
X86700Y-72774D01*
X87700Y-72774D02*
X87700Y-73500D01*
X87100Y-72174D02*
X87700Y-72774D01*
X88700Y-72774D02*
X88700Y-73500D01*
X88100Y-72174D02*
X88700Y-72774D01*
G54D31*
X69590Y-59780D02*
X69530Y-59780D01*
X69530Y-59780D02*
X69470Y-59840D01*
X78600Y-73600D02*
X78600Y-74020D01*
X78000Y-74620D02*
X78000Y-77000D01*
X78600Y-74020D02*
X78000Y-74620D01*
X82500Y-73382D02*
X82500Y-75750D01*
X81671Y-72553D02*
X82500Y-73382D01*
X88085Y-59914D02*
X88550Y-59450D01*
X88085Y-65949D02*
X88085Y-59914D01*
X88393Y-66257D02*
X88085Y-65949D01*
X89182Y-66257D02*
X88393Y-66257D01*
X90100Y-67174D02*
X89182Y-66257D01*
X80400Y-58000D02*
X80400Y-58166D01*
X80300Y-58698D02*
X80300Y-59400D01*
X80400Y-58598D02*
X80300Y-58698D01*
X80400Y-58166D02*
X80400Y-58598D01*
X66750Y-57750D02*
X67750Y-57750D01*
X69374Y-57125D02*
X68750Y-57750D01*
X71125Y-57125D02*
X69374Y-57125D01*
X71750Y-57750D02*
X71125Y-57125D01*
X80450Y-67174D02*
X80450Y-68174D01*
G54D32*
X64500Y-75500D02*
X65100Y-74900D01*
X64500Y-77250D02*
X64500Y-75500D01*
X65000Y-77750D02*
X64500Y-77250D01*
X67250Y-77750D02*
X65000Y-77750D01*
X71000Y-74400D02*
X67250Y-77750D01*
X71000Y-74100D02*
X71000Y-74400D01*
X78704Y-63804D02*
X79300Y-64400D01*
X73300Y-64400D02*
X73895Y-63804D01*
X73895Y-63804D02*
X78704Y-63804D01*
X88496Y-71571D02*
X89100Y-72174D01*
X83703Y-71571D02*
X88496Y-71571D01*
X83100Y-72174D02*
X83703Y-71571D01*
X69070Y-70929D02*
X65100Y-74900D01*
X69070Y-64318D02*
X69070Y-70929D01*
X68375Y-63624D02*
X69070Y-64318D01*
G54D31*
X77840Y-60250D02*
X77810Y-60220D01*
X77810Y-60220D02*
X77810Y-58410D01*
X77810Y-58410D02*
X77400Y-58000D01*
X94000Y-68000D02*
X94500Y-68500D01*
X93400Y-68000D02*
X94000Y-68000D01*
X92900Y-67500D02*
X93400Y-68000D01*
X92900Y-65500D02*
X92900Y-67500D01*
X92400Y-65000D02*
X92900Y-65500D01*
X92250Y-65000D02*
X92400Y-65000D01*
X92000Y-63000D02*
X92250Y-63000D01*
X91600Y-63400D02*
X92000Y-63000D01*
X91600Y-73200D02*
X91600Y-63400D01*
X91900Y-73500D02*
X91600Y-73200D01*
X93500Y-73500D02*
X91900Y-73500D01*
X92300Y-73000D02*
X92250Y-73000D01*
X93000Y-72300D02*
X92300Y-73000D01*
X93000Y-69000D02*
X93000Y-72300D01*
X93500Y-68500D02*
X93000Y-69000D01*
X87500Y-75750D02*
X87250Y-75750D01*
X87250Y-75750D02*
X86000Y-77000D01*
X85000Y-76250D02*
X85500Y-75750D01*
X85000Y-77000D02*
X85000Y-76250D01*
X83500Y-75901D02*
X83500Y-75750D01*
X84000Y-76401D02*
X83500Y-75901D01*
X84000Y-77000D02*
X84000Y-76401D01*
X77000Y-77000D02*
X77000Y-76235D01*
X77101Y-76133D02*
X77101Y-75750D01*
X77000Y-76235D02*
X77101Y-76133D01*
X77500Y-75750D02*
X77101Y-75750D01*
X75300Y-59400D02*
X76300Y-59400D01*
X85100Y-67174D02*
X86100Y-67174D01*
X77600Y-72600D02*
X78120Y-73120D01*
X79600Y-72660D02*
X79600Y-72600D01*
X79140Y-73120D02*
X79600Y-72660D01*
X78120Y-73120D02*
X79140Y-73120D01*
X72500Y-64850D02*
X72500Y-65750D01*
X72500Y-65750D02*
X73350Y-66600D01*
X72490Y-64840D02*
X72500Y-64850D01*
X72490Y-63450D02*
X72490Y-64840D01*
X71450Y-62410D02*
X72490Y-63450D01*
X94000Y-75250D02*
X92250Y-77000D01*
X94000Y-72900D02*
X94000Y-75250D01*
X93600Y-72500D02*
X94000Y-72900D01*
X93500Y-72500D02*
X93600Y-72500D01*
X94000Y-65000D02*
X93500Y-65500D01*
X94000Y-62300D02*
X94000Y-65000D01*
X93700Y-62000D02*
X94000Y-62300D01*
X92250Y-62000D02*
X93700Y-62000D01*
X94000Y-67000D02*
X94500Y-67500D01*
X93400Y-67000D02*
X94000Y-67000D01*
X93100Y-66700D02*
X93400Y-67000D01*
X93100Y-64800D02*
X93100Y-66700D01*
X92300Y-64000D02*
X93100Y-64800D01*
X92250Y-64000D02*
X92300Y-64000D01*
X81450Y-67174D02*
X81450Y-66630D01*
X74860Y-58540D02*
X75400Y-58000D01*
X74860Y-60120D02*
X74860Y-58540D01*
X76740Y-62000D02*
X74860Y-60120D01*
X80380Y-62000D02*
X76740Y-62000D01*
X80880Y-62500D02*
X80380Y-62000D01*
X80880Y-66060D02*
X80880Y-62500D01*
X81450Y-66630D02*
X80880Y-66060D01*
X80767Y-70981D02*
X82300Y-70981D01*
X79825Y-69500D02*
X79825Y-69898D01*
X88000Y-75136D02*
X88000Y-77000D01*
X88000Y-75136D02*
X89556Y-73579D01*
X89556Y-73579D02*
X89556Y-71966D01*
X89556Y-71966D02*
X88691Y-71101D01*
X88691Y-71101D02*
X82420Y-71101D01*
X80767Y-70981D02*
X80223Y-70438D01*
X80223Y-70438D02*
X80223Y-70297D01*
X80223Y-70297D02*
X79825Y-69898D01*
X82300Y-70981D02*
X82420Y-71101D01*
G54D33*
X85600Y-65650D02*
X85510Y-65650D01*
X84170Y-65070D02*
X83550Y-64450D01*
X84930Y-65070D02*
X84170Y-65070D01*
X85510Y-65650D02*
X84930Y-65070D01*
X85863Y-64993D02*
X86530Y-65660D01*
X85273Y-64993D02*
X85863Y-64993D01*
X84740Y-64460D02*
X85273Y-64993D01*
X87600Y-65650D02*
X87000Y-65050D01*
X85760Y-64450D02*
X85550Y-64450D01*
X86360Y-65050D02*
X85760Y-64450D01*
X87000Y-65050D02*
X86360Y-65050D01*
G54D31*
X82371Y-58628D02*
X81550Y-59450D01*
X84000Y-58628D02*
X82371Y-58628D01*
X84000Y-58000D02*
X84000Y-58628D01*
X75500Y-57341D02*
X77601Y-57341D01*
X78770Y-58630D02*
X79400Y-58000D01*
X78240Y-58630D02*
X78770Y-58630D01*
X77960Y-58350D02*
X78240Y-58630D01*
X77960Y-57700D02*
X77960Y-58350D01*
X77601Y-57341D02*
X77960Y-57700D01*
X73190Y-57341D02*
X75500Y-57341D01*
X72148Y-58383D02*
X73190Y-57341D01*
X72148Y-58750D02*
X72148Y-58383D01*
X71750Y-58750D02*
X72148Y-58750D01*
X71351Y-58750D02*
X71750Y-58750D01*
X70980Y-59120D02*
X71351Y-58750D01*
X69519Y-59120D02*
X70980Y-59120D01*
X69148Y-58750D02*
X69519Y-59120D01*
X68750Y-58750D02*
X69148Y-58750D01*
G54D33*
X73866Y-64933D02*
X73200Y-65600D01*
X74766Y-64933D02*
X73866Y-64933D01*
X75300Y-64400D02*
X74766Y-64933D01*
X76702Y-65062D02*
X77250Y-65610D01*
X75962Y-65062D02*
X76702Y-65062D01*
X75300Y-64400D02*
X75962Y-65062D01*
X78042Y-65600D02*
X78300Y-65600D01*
X77355Y-64913D02*
X78042Y-65600D01*
X77087Y-64913D02*
X77355Y-64913D01*
X76574Y-64400D02*
X77087Y-64913D01*
X76300Y-64400D02*
X76574Y-64400D01*
X79300Y-65600D02*
X79025Y-65600D01*
X77875Y-64975D02*
X77300Y-64400D01*
X79025Y-65600D02*
X78401Y-64975D01*
X78401Y-64975D02*
X77875Y-64975D01*
G54D31*
X78400Y-58000D02*
X78400Y-57530D01*
X68050Y-58250D02*
X67550Y-58750D01*
X68910Y-58250D02*
X68050Y-58250D01*
X69623Y-58963D02*
X68910Y-58250D01*
X70426Y-58963D02*
X69623Y-58963D01*
X71170Y-58220D02*
X70426Y-58963D01*
X72000Y-58220D02*
X71170Y-58220D01*
X73040Y-57180D02*
X72000Y-58220D01*
X78050Y-57180D02*
X73040Y-57180D01*
X78400Y-57530D02*
X78050Y-57180D01*
X82050Y-66124D02*
X83100Y-67174D01*
X82050Y-60565D02*
X82050Y-66124D01*
X81134Y-59649D02*
X82050Y-60565D01*
X81134Y-59244D02*
X81134Y-59649D01*
X81780Y-58598D02*
X81134Y-59244D01*
X82000Y-58598D02*
X81780Y-58598D01*
X82000Y-58000D02*
X82000Y-58598D01*
X83094Y-66169D02*
X84100Y-67174D01*
X83094Y-60594D02*
X83094Y-66169D01*
X84107Y-59581D02*
X83094Y-60594D01*
X84107Y-59271D02*
X84107Y-59581D01*
X84780Y-58598D02*
X84107Y-59271D01*
X85000Y-58598D02*
X84780Y-58598D01*
X85000Y-58000D02*
X85000Y-58598D01*
G54D10*
G36*
X79612Y-66726D02*
X79120Y-66726D01*
X79066Y-66748D01*
X79024Y-66790D01*
X79001Y-66845D01*
X79001Y-66904D01*
X79001Y-67504D01*
X79024Y-67558D01*
X79065Y-67600D01*
X79120Y-67623D01*
X79179Y-67623D01*
X79262Y-67623D01*
X79262Y-67726D01*
X79120Y-67726D01*
X79066Y-67748D01*
X79024Y-67790D01*
X79001Y-67845D01*
X79001Y-67904D01*
X79001Y-68504D01*
X79024Y-68558D01*
X79031Y-68565D01*
X79008Y-68580D01*
X79008Y-68580D01*
X78623Y-68966D01*
X78602Y-68915D01*
X78559Y-68872D01*
X78504Y-68850D01*
X78445Y-68849D01*
X78187Y-68849D01*
X77432Y-68094D01*
X77325Y-68023D01*
X77200Y-67998D01*
X75650Y-67998D01*
X75650Y-65510D01*
X75581Y-65345D01*
X75455Y-65218D01*
X75289Y-65150D01*
X75110Y-65149D01*
X74945Y-65218D01*
X74818Y-65344D01*
X74750Y-65510D01*
X74749Y-65689D01*
X74818Y-65854D01*
X74944Y-65981D01*
X75110Y-66049D01*
X75289Y-66050D01*
X75454Y-65981D01*
X75581Y-65855D01*
X75649Y-65689D01*
X75650Y-65510D01*
X75650Y-67998D01*
X74562Y-67998D01*
X74437Y-68023D01*
X74331Y-68094D01*
X74330Y-68095D01*
X74103Y-68322D01*
X74103Y-68322D01*
X73377Y-69049D01*
X73377Y-67150D01*
X73377Y-67149D01*
X73377Y-67149D01*
X73372Y-67125D01*
X73352Y-67024D01*
X73352Y-67024D01*
X73281Y-66918D01*
X73281Y-66918D01*
X70547Y-64184D01*
X70547Y-62312D01*
X72209Y-60649D01*
X72918Y-60649D01*
X72851Y-60810D01*
X72851Y-60988D01*
X72919Y-61153D01*
X73045Y-61279D01*
X73210Y-61348D01*
X73388Y-61348D01*
X73553Y-61280D01*
X73679Y-61154D01*
X73748Y-60989D01*
X73748Y-60811D01*
X73681Y-60649D01*
X73918Y-60649D01*
X73851Y-60810D01*
X73851Y-60988D01*
X73919Y-61153D01*
X74045Y-61279D01*
X74112Y-61307D01*
X74112Y-61492D01*
X74046Y-61519D01*
X73920Y-61645D01*
X73851Y-61810D01*
X73851Y-61988D01*
X73919Y-62153D01*
X74045Y-62279D01*
X74112Y-62307D01*
X74112Y-62451D01*
X73970Y-62451D01*
X73916Y-62474D01*
X73874Y-62515D01*
X73851Y-62570D01*
X73851Y-62629D01*
X73851Y-63229D01*
X73874Y-63283D01*
X73915Y-63325D01*
X73970Y-63348D01*
X74029Y-63348D01*
X74629Y-63348D01*
X74683Y-63325D01*
X74725Y-63284D01*
X74748Y-63229D01*
X74748Y-63170D01*
X74748Y-63087D01*
X78772Y-63087D01*
X79612Y-63927D01*
X79612Y-64043D01*
X79419Y-63850D01*
X79333Y-63936D01*
X79251Y-63928D01*
X79164Y-63945D01*
X79123Y-64000D01*
X79300Y-64177D01*
X79409Y-64067D01*
X79476Y-64135D01*
X79612Y-64270D01*
X79612Y-64310D01*
X79522Y-64400D01*
X79612Y-64489D01*
X79612Y-64529D01*
X79476Y-64664D01*
X79409Y-64732D01*
X79300Y-64622D01*
X79123Y-64799D01*
X79164Y-64854D01*
X79340Y-64870D01*
X79419Y-64949D01*
X79476Y-64892D01*
X79612Y-64756D01*
X79612Y-65275D01*
X79555Y-65218D01*
X79476Y-65186D01*
X79389Y-65150D01*
X79210Y-65149D01*
X79077Y-65205D01*
X79077Y-64400D01*
X78900Y-64223D01*
X78845Y-64264D01*
X78828Y-64448D01*
X78845Y-64535D01*
X78900Y-64576D01*
X79077Y-64400D01*
X79077Y-65205D01*
X79045Y-65218D01*
X79020Y-65243D01*
X78576Y-64799D01*
X78565Y-64792D01*
X78693Y-64663D01*
X78764Y-64492D01*
X78765Y-64307D01*
X78694Y-64136D01*
X78563Y-64006D01*
X78392Y-63935D01*
X78207Y-63934D01*
X78036Y-64005D01*
X77906Y-64136D01*
X77835Y-64307D01*
X77834Y-64492D01*
X77899Y-64648D01*
X77758Y-64507D01*
X77764Y-64492D01*
X77765Y-64307D01*
X77694Y-64136D01*
X77563Y-64006D01*
X77392Y-63935D01*
X77207Y-63934D01*
X77036Y-64005D01*
X76906Y-64136D01*
X76835Y-64307D01*
X76835Y-64309D01*
X76749Y-64224D01*
X76723Y-64206D01*
X76694Y-64136D01*
X76563Y-64006D01*
X76392Y-63935D01*
X76207Y-63934D01*
X76036Y-64005D01*
X75906Y-64136D01*
X75835Y-64307D01*
X75834Y-64492D01*
X75899Y-64648D01*
X75758Y-64507D01*
X75764Y-64492D01*
X75765Y-64307D01*
X75694Y-64136D01*
X75563Y-64006D01*
X75392Y-63935D01*
X75207Y-63934D01*
X75036Y-64005D01*
X74906Y-64136D01*
X74835Y-64307D01*
X74834Y-64492D01*
X74841Y-64507D01*
X74697Y-64651D01*
X74763Y-64492D01*
X74763Y-64308D01*
X74693Y-64137D01*
X74562Y-64007D01*
X74392Y-63936D01*
X74208Y-63936D01*
X74037Y-64006D01*
X73907Y-64137D01*
X73836Y-64307D01*
X73836Y-64491D01*
X73906Y-64662D01*
X73929Y-64684D01*
X73866Y-64684D01*
X73787Y-64700D01*
X73771Y-64703D01*
X73771Y-64351D01*
X73754Y-64264D01*
X73748Y-64260D01*
X73748Y-62811D01*
X73748Y-61811D01*
X73680Y-61646D01*
X73554Y-61520D01*
X73389Y-61451D01*
X73211Y-61451D01*
X73046Y-61519D01*
X72920Y-61645D01*
X72851Y-61810D01*
X72851Y-61988D01*
X72919Y-62153D01*
X73045Y-62279D01*
X73210Y-62348D01*
X73388Y-62348D01*
X73553Y-62280D01*
X73679Y-62154D01*
X73748Y-61989D01*
X73748Y-61811D01*
X73748Y-62811D01*
X73680Y-62646D01*
X73554Y-62520D01*
X73389Y-62451D01*
X73211Y-62451D01*
X73046Y-62519D01*
X72920Y-62645D01*
X72851Y-62810D01*
X72851Y-62988D01*
X72919Y-63153D01*
X73045Y-63279D01*
X73210Y-63348D01*
X73388Y-63348D01*
X73553Y-63280D01*
X73679Y-63154D01*
X73748Y-62989D01*
X73748Y-62811D01*
X73748Y-64260D01*
X73699Y-64223D01*
X73522Y-64400D01*
X73699Y-64576D01*
X73754Y-64535D01*
X73771Y-64351D01*
X73771Y-64703D01*
X73771Y-64703D01*
X73690Y-64757D01*
X73476Y-64972D01*
X73476Y-64799D01*
X73476Y-64000D01*
X73435Y-63945D01*
X73251Y-63928D01*
X73164Y-63945D01*
X73123Y-64000D01*
X73300Y-64177D01*
X73476Y-64000D01*
X73476Y-64799D01*
X73300Y-64622D01*
X73123Y-64799D01*
X73164Y-64854D01*
X73348Y-64871D01*
X73435Y-64854D01*
X73476Y-64799D01*
X73476Y-64972D01*
X73296Y-65152D01*
X73289Y-65150D01*
X73110Y-65149D01*
X73077Y-65163D01*
X73077Y-64400D01*
X72900Y-64223D01*
X72845Y-64264D01*
X72828Y-64448D01*
X72845Y-64535D01*
X72900Y-64576D01*
X73077Y-64400D01*
X73077Y-65163D01*
X72945Y-65218D01*
X72818Y-65344D01*
X72750Y-65510D01*
X72749Y-65689D01*
X72781Y-65766D01*
X72687Y-65672D01*
X72687Y-64850D01*
X72677Y-64799D01*
X72677Y-63450D01*
X72663Y-63378D01*
X72663Y-63378D01*
X72622Y-63317D01*
X71696Y-62391D01*
X71696Y-62361D01*
X71659Y-62270D01*
X71590Y-62200D01*
X71499Y-62163D01*
X71401Y-62163D01*
X71310Y-62200D01*
X71240Y-62269D01*
X71203Y-62360D01*
X71203Y-62458D01*
X71240Y-62549D01*
X71309Y-62619D01*
X71400Y-62656D01*
X71431Y-62656D01*
X72302Y-63527D01*
X72302Y-64840D01*
X72312Y-64890D01*
X72312Y-65750D01*
X72326Y-65821D01*
X72367Y-65882D01*
X73103Y-66618D01*
X73103Y-66648D01*
X73140Y-66739D01*
X73209Y-66809D01*
X73300Y-66846D01*
X73398Y-66846D01*
X73489Y-66809D01*
X73559Y-66740D01*
X73596Y-66649D01*
X73596Y-66551D01*
X73559Y-66460D01*
X73490Y-66390D01*
X73399Y-66353D01*
X73368Y-66353D01*
X73033Y-66018D01*
X73110Y-66049D01*
X73289Y-66050D01*
X73454Y-65981D01*
X73581Y-65855D01*
X73649Y-65689D01*
X73650Y-65510D01*
X73647Y-65504D01*
X73969Y-65181D01*
X74033Y-65181D01*
X73945Y-65218D01*
X73818Y-65344D01*
X73750Y-65510D01*
X73749Y-65689D01*
X73818Y-65854D01*
X73944Y-65981D01*
X74110Y-66049D01*
X74289Y-66050D01*
X74454Y-65981D01*
X74581Y-65855D01*
X74649Y-65689D01*
X74650Y-65510D01*
X74581Y-65345D01*
X74455Y-65218D01*
X74366Y-65181D01*
X74766Y-65181D01*
X74766Y-65181D01*
X74861Y-65162D01*
X74942Y-65109D01*
X75192Y-64858D01*
X75207Y-64864D01*
X75392Y-64865D01*
X75407Y-64858D01*
X75770Y-65221D01*
X75750Y-65270D01*
X75749Y-65329D01*
X75749Y-65929D01*
X75772Y-65984D01*
X75814Y-66027D01*
X75870Y-66049D01*
X75929Y-66050D01*
X76529Y-66050D01*
X76584Y-66027D01*
X76627Y-65985D01*
X76649Y-65929D01*
X76650Y-65870D01*
X76650Y-65361D01*
X76850Y-65561D01*
X76849Y-65689D01*
X76918Y-65854D01*
X77044Y-65981D01*
X77210Y-66049D01*
X77389Y-66050D01*
X77554Y-65981D01*
X77681Y-65855D01*
X77749Y-65689D01*
X77749Y-65658D01*
X77866Y-65775D01*
X77866Y-65775D01*
X77892Y-65793D01*
X77892Y-65793D01*
X77918Y-65854D01*
X78044Y-65981D01*
X78210Y-66049D01*
X78389Y-66050D01*
X78554Y-65981D01*
X78681Y-65855D01*
X78749Y-65689D01*
X78749Y-65675D01*
X78849Y-65775D01*
X78849Y-65775D01*
X78899Y-65808D01*
X78918Y-65854D01*
X79044Y-65981D01*
X79210Y-66049D01*
X79389Y-66050D01*
X79554Y-65981D01*
X79612Y-65924D01*
X79612Y-66726D01*
X79612Y-66726D01*
G37*
G54D34*
X79612Y-66726D02*
X79120Y-66726D01*
X79066Y-66748D01*
X79024Y-66790D01*
X79001Y-66845D01*
X79001Y-66904D01*
X79001Y-67504D01*
X79024Y-67558D01*
X79065Y-67600D01*
X79120Y-67623D01*
X79179Y-67623D01*
X79262Y-67623D01*
X79262Y-67726D01*
X79120Y-67726D01*
X79066Y-67748D01*
X79024Y-67790D01*
X79001Y-67845D01*
X79001Y-67904D01*
X79001Y-68504D01*
X79024Y-68558D01*
X79031Y-68565D01*
X79008Y-68580D01*
X79008Y-68580D01*
X78623Y-68966D01*
X78602Y-68915D01*
X78559Y-68872D01*
X78504Y-68850D01*
X78445Y-68849D01*
X78187Y-68849D01*
X77432Y-68094D01*
X77325Y-68023D01*
X77200Y-67998D01*
X75650Y-67998D01*
X75650Y-65510D01*
X75581Y-65345D01*
X75455Y-65218D01*
X75289Y-65150D01*
X75110Y-65149D01*
X74945Y-65218D01*
X74818Y-65344D01*
X74750Y-65510D01*
X74749Y-65689D01*
X74818Y-65854D01*
X74944Y-65981D01*
X75110Y-66049D01*
X75289Y-66050D01*
X75454Y-65981D01*
X75581Y-65855D01*
X75649Y-65689D01*
X75650Y-65510D01*
X75650Y-67998D01*
X74562Y-67998D01*
X74437Y-68023D01*
X74331Y-68094D01*
X74330Y-68095D01*
X74103Y-68322D01*
X74103Y-68322D01*
X73377Y-69049D01*
X73377Y-67150D01*
X73377Y-67149D01*
X73377Y-67149D01*
X73372Y-67125D01*
X73352Y-67024D01*
X73352Y-67024D01*
X73281Y-66918D01*
X73281Y-66918D01*
X70547Y-64184D01*
X70547Y-62312D01*
X72209Y-60649D01*
X72918Y-60649D01*
X72851Y-60810D01*
X72851Y-60988D01*
X72919Y-61153D01*
X73045Y-61279D01*
X73210Y-61348D01*
X73388Y-61348D01*
X73553Y-61280D01*
X73679Y-61154D01*
X73748Y-60989D01*
X73748Y-60811D01*
X73681Y-60649D01*
X73918Y-60649D01*
X73851Y-60810D01*
X73851Y-60988D01*
X73919Y-61153D01*
X74045Y-61279D01*
X74112Y-61307D01*
X74112Y-61492D01*
X74046Y-61519D01*
X73920Y-61645D01*
X73851Y-61810D01*
X73851Y-61988D01*
X73919Y-62153D01*
X74045Y-62279D01*
X74112Y-62307D01*
X74112Y-62451D01*
X73970Y-62451D01*
X73916Y-62474D01*
X73874Y-62515D01*
X73851Y-62570D01*
X73851Y-62629D01*
X73851Y-63229D01*
X73874Y-63283D01*
X73915Y-63325D01*
X73970Y-63348D01*
X74029Y-63348D01*
X74629Y-63348D01*
X74683Y-63325D01*
X74725Y-63284D01*
X74748Y-63229D01*
X74748Y-63170D01*
X74748Y-63087D01*
X78772Y-63087D01*
X79612Y-63927D01*
X79612Y-64043D01*
X79419Y-63850D01*
X79333Y-63936D01*
X79251Y-63928D01*
X79164Y-63945D01*
X79123Y-64000D01*
X79300Y-64177D01*
X79409Y-64067D01*
X79476Y-64135D01*
X79612Y-64270D01*
X79612Y-64310D01*
X79522Y-64400D01*
X79612Y-64489D01*
X79612Y-64529D01*
X79476Y-64664D01*
X79409Y-64732D01*
X79300Y-64622D01*
X79123Y-64799D01*
X79164Y-64854D01*
X79340Y-64870D01*
X79419Y-64949D01*
X79476Y-64892D01*
X79612Y-64756D01*
X79612Y-65275D01*
X79555Y-65218D01*
X79476Y-65186D01*
X79389Y-65150D01*
X79210Y-65149D01*
X79077Y-65205D01*
X79077Y-64400D01*
X78900Y-64223D01*
X78845Y-64264D01*
X78828Y-64448D01*
X78845Y-64535D01*
X78900Y-64576D01*
X79077Y-64400D01*
X79077Y-65205D01*
X79045Y-65218D01*
X79020Y-65243D01*
X78576Y-64799D01*
X78565Y-64792D01*
X78693Y-64663D01*
X78764Y-64492D01*
X78765Y-64307D01*
X78694Y-64136D01*
X78563Y-64006D01*
X78392Y-63935D01*
X78207Y-63934D01*
X78036Y-64005D01*
X77906Y-64136D01*
X77835Y-64307D01*
X77834Y-64492D01*
X77899Y-64648D01*
X77758Y-64507D01*
X77764Y-64492D01*
X77765Y-64307D01*
X77694Y-64136D01*
X77563Y-64006D01*
X77392Y-63935D01*
X77207Y-63934D01*
X77036Y-64005D01*
X76906Y-64136D01*
X76835Y-64307D01*
X76835Y-64309D01*
X76749Y-64224D01*
X76723Y-64206D01*
X76694Y-64136D01*
X76563Y-64006D01*
X76392Y-63935D01*
X76207Y-63934D01*
X76036Y-64005D01*
X75906Y-64136D01*
X75835Y-64307D01*
X75834Y-64492D01*
X75899Y-64648D01*
X75758Y-64507D01*
X75764Y-64492D01*
X75765Y-64307D01*
X75694Y-64136D01*
X75563Y-64006D01*
X75392Y-63935D01*
X75207Y-63934D01*
X75036Y-64005D01*
X74906Y-64136D01*
X74835Y-64307D01*
X74834Y-64492D01*
X74841Y-64507D01*
X74697Y-64651D01*
X74763Y-64492D01*
X74763Y-64308D01*
X74693Y-64137D01*
X74562Y-64007D01*
X74392Y-63936D01*
X74208Y-63936D01*
X74037Y-64006D01*
X73907Y-64137D01*
X73836Y-64307D01*
X73836Y-64491D01*
X73906Y-64662D01*
X73929Y-64684D01*
X73866Y-64684D01*
X73787Y-64700D01*
X73771Y-64703D01*
X73771Y-64351D01*
X73754Y-64264D01*
X73748Y-64260D01*
X73748Y-62811D01*
X73748Y-61811D01*
X73680Y-61646D01*
X73554Y-61520D01*
X73389Y-61451D01*
X73211Y-61451D01*
X73046Y-61519D01*
X72920Y-61645D01*
X72851Y-61810D01*
X72851Y-61988D01*
X72919Y-62153D01*
X73045Y-62279D01*
X73210Y-62348D01*
X73388Y-62348D01*
X73553Y-62280D01*
X73679Y-62154D01*
X73748Y-61989D01*
X73748Y-61811D01*
X73748Y-62811D01*
X73680Y-62646D01*
X73554Y-62520D01*
X73389Y-62451D01*
X73211Y-62451D01*
X73046Y-62519D01*
X72920Y-62645D01*
X72851Y-62810D01*
X72851Y-62988D01*
X72919Y-63153D01*
X73045Y-63279D01*
X73210Y-63348D01*
X73388Y-63348D01*
X73553Y-63280D01*
X73679Y-63154D01*
X73748Y-62989D01*
X73748Y-62811D01*
X73748Y-64260D01*
X73699Y-64223D01*
X73522Y-64400D01*
X73699Y-64576D01*
X73754Y-64535D01*
X73771Y-64351D01*
X73771Y-64703D01*
X73771Y-64703D01*
X73690Y-64757D01*
X73476Y-64972D01*
X73476Y-64799D01*
X73476Y-64000D01*
X73435Y-63945D01*
X73251Y-63928D01*
X73164Y-63945D01*
X73123Y-64000D01*
X73300Y-64177D01*
X73476Y-64000D01*
X73476Y-64799D01*
X73300Y-64622D01*
X73123Y-64799D01*
X73164Y-64854D01*
X73348Y-64871D01*
X73435Y-64854D01*
X73476Y-64799D01*
X73476Y-64972D01*
X73296Y-65152D01*
X73289Y-65150D01*
X73110Y-65149D01*
X73077Y-65163D01*
X73077Y-64400D01*
X72900Y-64223D01*
X72845Y-64264D01*
X72828Y-64448D01*
X72845Y-64535D01*
X72900Y-64576D01*
X73077Y-64400D01*
X73077Y-65163D01*
X72945Y-65218D01*
X72818Y-65344D01*
X72750Y-65510D01*
X72749Y-65689D01*
X72781Y-65766D01*
X72687Y-65672D01*
X72687Y-64850D01*
X72677Y-64799D01*
X72677Y-63450D01*
X72663Y-63378D01*
X72663Y-63378D01*
X72622Y-63317D01*
X71696Y-62391D01*
X71696Y-62361D01*
X71659Y-62270D01*
X71590Y-62200D01*
X71499Y-62163D01*
X71401Y-62163D01*
X71310Y-62200D01*
X71240Y-62269D01*
X71203Y-62360D01*
X71203Y-62458D01*
X71240Y-62549D01*
X71309Y-62619D01*
X71400Y-62656D01*
X71431Y-62656D01*
X72302Y-63527D01*
X72302Y-64840D01*
X72312Y-64890D01*
X72312Y-65750D01*
X72326Y-65821D01*
X72367Y-65882D01*
X73103Y-66618D01*
X73103Y-66648D01*
X73140Y-66739D01*
X73209Y-66809D01*
X73300Y-66846D01*
X73398Y-66846D01*
X73489Y-66809D01*
X73559Y-66740D01*
X73596Y-66649D01*
X73596Y-66551D01*
X73559Y-66460D01*
X73490Y-66390D01*
X73399Y-66353D01*
X73368Y-66353D01*
X73033Y-66018D01*
X73110Y-66049D01*
X73289Y-66050D01*
X73454Y-65981D01*
X73581Y-65855D01*
X73649Y-65689D01*
X73650Y-65510D01*
X73647Y-65504D01*
X73969Y-65181D01*
X74033Y-65181D01*
X73945Y-65218D01*
X73818Y-65344D01*
X73750Y-65510D01*
X73749Y-65689D01*
X73818Y-65854D01*
X73944Y-65981D01*
X74110Y-66049D01*
X74289Y-66050D01*
X74454Y-65981D01*
X74581Y-65855D01*
X74649Y-65689D01*
X74650Y-65510D01*
X74581Y-65345D01*
X74455Y-65218D01*
X74366Y-65181D01*
X74766Y-65181D01*
X74766Y-65181D01*
X74861Y-65162D01*
X74942Y-65109D01*
X75192Y-64858D01*
X75207Y-64864D01*
X75392Y-64865D01*
X75407Y-64858D01*
X75770Y-65221D01*
X75750Y-65270D01*
X75749Y-65329D01*
X75749Y-65929D01*
X75772Y-65984D01*
X75814Y-66027D01*
X75870Y-66049D01*
X75929Y-66050D01*
X76529Y-66050D01*
X76584Y-66027D01*
X76627Y-65985D01*
X76649Y-65929D01*
X76650Y-65870D01*
X76650Y-65361D01*
X76850Y-65561D01*
X76849Y-65689D01*
X76918Y-65854D01*
X77044Y-65981D01*
X77210Y-66049D01*
X77389Y-66050D01*
X77554Y-65981D01*
X77681Y-65855D01*
X77749Y-65689D01*
X77749Y-65658D01*
X77866Y-65775D01*
X77866Y-65775D01*
X77892Y-65793D01*
X77892Y-65793D01*
X77918Y-65854D01*
X78044Y-65981D01*
X78210Y-66049D01*
X78389Y-66050D01*
X78554Y-65981D01*
X78681Y-65855D01*
X78749Y-65689D01*
X78749Y-65675D01*
X78849Y-65775D01*
X78849Y-65775D01*
X78899Y-65808D01*
X78918Y-65854D01*
X79044Y-65981D01*
X79210Y-66049D01*
X79389Y-66050D01*
X79554Y-65981D01*
X79612Y-65924D01*
X79612Y-66726D01*
G54D10*
G36*
X90931Y-72531D02*
X90931Y-72541D01*
X90899Y-72574D01*
X90858Y-72671D01*
X90858Y-72777D01*
X90899Y-72875D01*
X90930Y-72907D01*
X90930Y-72917D01*
X90899Y-72948D01*
X90858Y-73046D01*
X90858Y-73152D01*
X90899Y-73250D01*
X90930Y-73281D01*
X90930Y-73318D01*
X90899Y-73348D01*
X90858Y-73446D01*
X90858Y-73552D01*
X90899Y-73650D01*
X90929Y-73681D01*
X90929Y-73720D01*
X90925Y-73724D01*
X90925Y-73724D01*
X90871Y-73805D01*
X90870Y-73805D01*
X90844Y-73869D01*
X90825Y-73965D01*
X90825Y-73982D01*
X90822Y-74000D01*
X90822Y-75926D01*
X90773Y-75974D01*
X90773Y-74846D01*
X90656Y-74562D01*
X90438Y-74344D01*
X90154Y-74226D01*
X89846Y-74226D01*
X89562Y-74343D01*
X89344Y-74561D01*
X89226Y-74845D01*
X89226Y-75153D01*
X89343Y-75437D01*
X89561Y-75655D01*
X89845Y-75773D01*
X90153Y-75773D01*
X90437Y-75656D01*
X90655Y-75438D01*
X90773Y-75154D01*
X90773Y-74846D01*
X90773Y-75974D01*
X89874Y-76874D01*
X89835Y-76931D01*
X89822Y-77000D01*
X89822Y-77004D01*
X89815Y-77822D01*
X89448Y-77822D01*
X89448Y-77212D01*
X89448Y-76787D01*
X89414Y-76615D01*
X89317Y-76470D01*
X89171Y-76373D01*
X89000Y-76338D01*
X88950Y-76348D01*
X88950Y-76020D01*
X88950Y-75479D01*
X88949Y-75420D01*
X88927Y-75364D01*
X88884Y-75322D01*
X88829Y-75299D01*
X88687Y-75300D01*
X88650Y-75337D01*
X88650Y-75600D01*
X88912Y-75600D01*
X88950Y-75562D01*
X88950Y-75479D01*
X88950Y-76020D01*
X88950Y-75937D01*
X88912Y-75900D01*
X88650Y-75900D01*
X88650Y-76162D01*
X88687Y-76200D01*
X88829Y-76200D01*
X88884Y-76177D01*
X88927Y-76135D01*
X88949Y-76079D01*
X88950Y-76020D01*
X88950Y-76348D01*
X88828Y-76373D01*
X88682Y-76470D01*
X88585Y-76615D01*
X88551Y-76787D01*
X88551Y-77212D01*
X88585Y-77384D01*
X88682Y-77529D01*
X88828Y-77626D01*
X89000Y-77661D01*
X89171Y-77626D01*
X89317Y-77529D01*
X89414Y-77384D01*
X89448Y-77212D01*
X89448Y-77822D01*
X81422Y-77822D01*
X81422Y-77317D01*
X81422Y-76682D01*
X81345Y-76529D01*
X81215Y-76417D01*
X81214Y-76404D01*
X81150Y-76415D01*
X81150Y-76750D01*
X81398Y-76750D01*
X81422Y-76682D01*
X81422Y-77317D01*
X81398Y-77250D01*
X81150Y-77250D01*
X81150Y-77584D01*
X81214Y-77595D01*
X81215Y-77582D01*
X81345Y-77470D01*
X81422Y-77317D01*
X81422Y-77822D01*
X80850Y-77822D01*
X80850Y-77584D01*
X80850Y-77250D01*
X80850Y-76750D01*
X80850Y-76415D01*
X80785Y-76404D01*
X80784Y-76417D01*
X80654Y-76529D01*
X80577Y-76682D01*
X80601Y-76750D01*
X80850Y-76750D01*
X80850Y-77250D01*
X80601Y-77250D01*
X80577Y-77317D01*
X80654Y-77470D01*
X80784Y-77582D01*
X80785Y-77595D01*
X80850Y-77584D01*
X80850Y-77822D01*
X80422Y-77822D01*
X80422Y-77317D01*
X80398Y-77250D01*
X80150Y-77250D01*
X80150Y-77584D01*
X80214Y-77595D01*
X80215Y-77582D01*
X80345Y-77470D01*
X80422Y-77317D01*
X80422Y-77822D01*
X79850Y-77822D01*
X79850Y-77584D01*
X79850Y-77250D01*
X79601Y-77250D01*
X79577Y-77317D01*
X79654Y-77470D01*
X79784Y-77582D01*
X79785Y-77595D01*
X79850Y-77584D01*
X79850Y-77822D01*
X76428Y-77822D01*
X76428Y-77172D01*
X76428Y-74612D01*
X76387Y-74515D01*
X76387Y-73600D01*
X76215Y-73427D01*
X76161Y-73466D01*
X76143Y-73644D01*
X76161Y-73733D01*
X76215Y-73772D01*
X76387Y-73600D01*
X76387Y-74515D01*
X76345Y-74413D01*
X76193Y-74260D01*
X75994Y-74178D01*
X75778Y-74177D01*
X75579Y-74260D01*
X75426Y-74412D01*
X75344Y-74611D01*
X75343Y-74827D01*
X75426Y-75026D01*
X75578Y-75179D01*
X75777Y-75261D01*
X75993Y-75262D01*
X76192Y-75179D01*
X76345Y-75027D01*
X76427Y-74828D01*
X76428Y-74612D01*
X76428Y-77172D01*
X76345Y-76973D01*
X76193Y-76820D01*
X75994Y-76738D01*
X75778Y-76737D01*
X75579Y-76820D01*
X75426Y-76972D01*
X75344Y-77171D01*
X75343Y-77387D01*
X75426Y-77586D01*
X75578Y-77739D01*
X75777Y-77821D01*
X75993Y-77822D01*
X76192Y-77739D01*
X76345Y-77587D01*
X76427Y-77388D01*
X76428Y-77172D01*
X76428Y-77822D01*
X74663Y-77822D01*
X74663Y-74649D01*
X74648Y-74574D01*
X74590Y-74521D01*
X74392Y-74720D01*
X74590Y-74918D01*
X74648Y-74865D01*
X74663Y-74649D01*
X74663Y-77822D01*
X74656Y-77822D01*
X74656Y-77172D01*
X74573Y-76973D01*
X74421Y-76820D01*
X74312Y-76775D01*
X74312Y-75196D01*
X74312Y-74243D01*
X74259Y-74185D01*
X74043Y-74170D01*
X73968Y-74185D01*
X73915Y-74243D01*
X74114Y-74441D01*
X74312Y-74243D01*
X74312Y-75196D01*
X74114Y-74998D01*
X73915Y-75196D01*
X73968Y-75254D01*
X74184Y-75269D01*
X74259Y-75254D01*
X74312Y-75196D01*
X74312Y-76775D01*
X74222Y-76738D01*
X74006Y-76737D01*
X73835Y-76808D01*
X73835Y-74720D01*
X73637Y-74521D01*
X73579Y-74574D01*
X73564Y-74790D01*
X73579Y-74865D01*
X73637Y-74918D01*
X73835Y-74720D01*
X73835Y-76808D01*
X73807Y-76820D01*
X73654Y-76972D01*
X73572Y-77171D01*
X73571Y-77387D01*
X73654Y-77586D01*
X73806Y-77739D01*
X74005Y-77821D01*
X74221Y-77822D01*
X74420Y-77739D01*
X74573Y-77587D01*
X74655Y-77388D01*
X74656Y-77172D01*
X74656Y-77822D01*
X72500Y-77822D01*
X72500Y-74000D01*
X72424Y-73817D01*
X72283Y-73676D01*
X72099Y-73600D01*
X71900Y-73599D01*
X71717Y-73675D01*
X71576Y-73816D01*
X71500Y-74000D01*
X71500Y-74070D01*
X71500Y-73779D01*
X71499Y-73720D01*
X71477Y-73664D01*
X71434Y-73622D01*
X71379Y-73599D01*
X71212Y-73600D01*
X71175Y-73637D01*
X71175Y-73925D01*
X71462Y-73925D01*
X71500Y-73887D01*
X71500Y-73779D01*
X71500Y-74070D01*
X71499Y-74199D01*
X71575Y-74382D01*
X71716Y-74523D01*
X71900Y-74599D01*
X72099Y-74600D01*
X72282Y-74524D01*
X72423Y-74383D01*
X72499Y-74199D01*
X72500Y-74000D01*
X72500Y-77822D01*
X71500Y-77822D01*
X71500Y-74420D01*
X71500Y-74312D01*
X71462Y-74275D01*
X71175Y-74275D01*
X71175Y-74562D01*
X71212Y-74600D01*
X71379Y-74600D01*
X71434Y-74577D01*
X71477Y-74535D01*
X71499Y-74479D01*
X71500Y-74420D01*
X71500Y-77822D01*
X70825Y-77822D01*
X70825Y-74562D01*
X70825Y-74275D01*
X70825Y-73925D01*
X70825Y-73637D01*
X70787Y-73600D01*
X70620Y-73599D01*
X70565Y-73622D01*
X70522Y-73664D01*
X70500Y-73720D01*
X70499Y-73779D01*
X70500Y-73887D01*
X70537Y-73925D01*
X70825Y-73925D01*
X70825Y-74275D01*
X70537Y-74275D01*
X70500Y-74312D01*
X70499Y-74420D01*
X70500Y-74479D01*
X70522Y-74535D01*
X70565Y-74577D01*
X70620Y-74600D01*
X70787Y-74600D01*
X70825Y-74562D01*
X70825Y-77822D01*
X70273Y-77822D01*
X70273Y-76846D01*
X70156Y-76562D01*
X69938Y-76344D01*
X69654Y-76226D01*
X69346Y-76226D01*
X69062Y-76343D01*
X68844Y-76561D01*
X68726Y-76845D01*
X68726Y-77153D01*
X68843Y-77437D01*
X69061Y-77655D01*
X69345Y-77773D01*
X69653Y-77773D01*
X69937Y-77656D01*
X70155Y-77438D01*
X70273Y-77154D01*
X70273Y-76846D01*
X70273Y-77822D01*
X66914Y-77822D01*
X66914Y-76900D01*
X66860Y-76632D01*
X66709Y-76405D01*
X66482Y-76253D01*
X66215Y-76200D01*
X66215Y-74854D01*
X66147Y-74514D01*
X66047Y-74383D01*
X65616Y-74813D01*
X65616Y-73952D01*
X65485Y-73852D01*
X65054Y-73784D01*
X64714Y-73852D01*
X64583Y-73952D01*
X65100Y-74469D01*
X65616Y-73952D01*
X65616Y-74813D01*
X65530Y-74900D01*
X66047Y-75416D01*
X66147Y-75285D01*
X66215Y-74854D01*
X66215Y-76200D01*
X66214Y-76200D01*
X65785Y-76200D01*
X65616Y-76233D01*
X65616Y-75847D01*
X65100Y-75330D01*
X64583Y-75847D01*
X64714Y-75947D01*
X65145Y-76015D01*
X65485Y-75947D01*
X65616Y-75847D01*
X65616Y-76233D01*
X65517Y-76253D01*
X65290Y-76405D01*
X65139Y-76632D01*
X65085Y-76900D01*
X65139Y-77167D01*
X65290Y-77394D01*
X65517Y-77546D01*
X65785Y-77599D01*
X66214Y-77599D01*
X66482Y-77546D01*
X66709Y-77394D01*
X66860Y-77167D01*
X66914Y-76900D01*
X66914Y-77822D01*
X64102Y-77822D01*
X64102Y-75351D01*
X64152Y-75416D01*
X64669Y-74900D01*
X64152Y-74383D01*
X64102Y-74448D01*
X64102Y-69648D01*
X64729Y-70275D01*
X68070Y-70275D01*
X68825Y-69520D01*
X68825Y-66129D01*
X68629Y-65933D01*
X68629Y-63634D01*
X68613Y-63536D01*
X68605Y-63517D01*
X68559Y-63510D01*
X68489Y-63579D01*
X68489Y-63440D01*
X68489Y-63059D01*
X68375Y-62945D01*
X68306Y-63015D01*
X68306Y-62875D01*
X68192Y-62762D01*
X68146Y-62769D01*
X68122Y-62865D01*
X68138Y-62963D01*
X68146Y-62982D01*
X68192Y-62989D01*
X68306Y-62875D01*
X68306Y-63015D01*
X68262Y-63059D01*
X68269Y-63105D01*
X68365Y-63129D01*
X68463Y-63113D01*
X68482Y-63105D01*
X68489Y-63059D01*
X68489Y-63440D01*
X68482Y-63394D01*
X68386Y-63370D01*
X68288Y-63386D01*
X68269Y-63394D01*
X68262Y-63440D01*
X68375Y-63554D01*
X68489Y-63440D01*
X68489Y-63579D01*
X68445Y-63624D01*
X68559Y-63737D01*
X68605Y-63730D01*
X68629Y-63634D01*
X68629Y-65933D01*
X68489Y-65794D01*
X68489Y-63807D01*
X68375Y-63693D01*
X68306Y-63763D01*
X68306Y-63624D01*
X68192Y-63510D01*
X68146Y-63517D01*
X68122Y-63613D01*
X68138Y-63711D01*
X68146Y-63730D01*
X68192Y-63737D01*
X68306Y-63624D01*
X68306Y-63763D01*
X68262Y-63807D01*
X68269Y-63853D01*
X68365Y-63877D01*
X68463Y-63861D01*
X68482Y-63853D01*
X68489Y-63807D01*
X68489Y-65794D01*
X68170Y-65475D01*
X67006Y-65475D01*
X67006Y-57705D01*
X66988Y-57616D01*
X66934Y-57577D01*
X66762Y-57750D01*
X66934Y-57922D01*
X66988Y-57883D01*
X67006Y-57705D01*
X67006Y-65475D01*
X66998Y-65475D01*
X66998Y-59020D01*
X66998Y-58420D01*
X66975Y-58366D01*
X66934Y-58324D01*
X66879Y-58301D01*
X66820Y-58301D01*
X66722Y-58301D01*
X66722Y-58134D01*
X66722Y-57365D01*
X66683Y-57311D01*
X66505Y-57293D01*
X66416Y-57311D01*
X66377Y-57365D01*
X66550Y-57537D01*
X66722Y-57365D01*
X66722Y-58134D01*
X66550Y-57962D01*
X66377Y-58134D01*
X66416Y-58188D01*
X66594Y-58206D01*
X66683Y-58188D01*
X66722Y-58134D01*
X66722Y-58301D01*
X66337Y-58301D01*
X66337Y-57750D01*
X66165Y-57577D01*
X66111Y-57616D01*
X66093Y-57794D01*
X66111Y-57883D01*
X66165Y-57922D01*
X66337Y-57750D01*
X66337Y-58301D01*
X66220Y-58301D01*
X66166Y-58324D01*
X66124Y-58365D01*
X66101Y-58420D01*
X66101Y-58479D01*
X66101Y-59079D01*
X66124Y-59133D01*
X66165Y-59175D01*
X66220Y-59198D01*
X66279Y-59198D01*
X66879Y-59198D01*
X66933Y-59175D01*
X66975Y-59134D01*
X66998Y-59079D01*
X66998Y-59020D01*
X66998Y-65475D01*
X66006Y-65475D01*
X66006Y-57705D01*
X65988Y-57616D01*
X65934Y-57577D01*
X65762Y-57750D01*
X65934Y-57922D01*
X65988Y-57883D01*
X66006Y-57705D01*
X66006Y-65475D01*
X65998Y-65475D01*
X65998Y-59020D01*
X65998Y-58420D01*
X65975Y-58366D01*
X65934Y-58324D01*
X65879Y-58301D01*
X65820Y-58301D01*
X65722Y-58301D01*
X65722Y-58134D01*
X65722Y-57365D01*
X65683Y-57311D01*
X65505Y-57293D01*
X65416Y-57311D01*
X65377Y-57365D01*
X65550Y-57537D01*
X65722Y-57365D01*
X65722Y-58134D01*
X65550Y-57962D01*
X65377Y-58134D01*
X65416Y-58188D01*
X65594Y-58206D01*
X65683Y-58188D01*
X65722Y-58134D01*
X65722Y-58301D01*
X65337Y-58301D01*
X65337Y-57750D01*
X65165Y-57577D01*
X65111Y-57616D01*
X65093Y-57794D01*
X65111Y-57883D01*
X65165Y-57922D01*
X65337Y-57750D01*
X65337Y-58301D01*
X65220Y-58301D01*
X65166Y-58324D01*
X65124Y-58365D01*
X65101Y-58420D01*
X65101Y-58479D01*
X65101Y-59079D01*
X65124Y-59133D01*
X65165Y-59175D01*
X65220Y-59198D01*
X65279Y-59198D01*
X65879Y-59198D01*
X65933Y-59175D01*
X65975Y-59134D01*
X65998Y-59079D01*
X65998Y-59020D01*
X65998Y-65475D01*
X65006Y-65475D01*
X65006Y-57705D01*
X64988Y-57616D01*
X64934Y-57577D01*
X64762Y-57750D01*
X64934Y-57922D01*
X64988Y-57883D01*
X65006Y-57705D01*
X65006Y-65475D01*
X64463Y-65475D01*
X64513Y-65500D01*
X64654Y-65500D01*
X64102Y-66051D01*
X64102Y-59082D01*
X64124Y-59133D01*
X64165Y-59175D01*
X64220Y-59198D01*
X64279Y-59198D01*
X64879Y-59198D01*
X64933Y-59175D01*
X64975Y-59134D01*
X64998Y-59079D01*
X64998Y-59020D01*
X64998Y-58420D01*
X64975Y-58366D01*
X64934Y-58324D01*
X64879Y-58301D01*
X64820Y-58301D01*
X64722Y-58301D01*
X64722Y-58134D01*
X64722Y-57365D01*
X64683Y-57311D01*
X64505Y-57293D01*
X64416Y-57311D01*
X64377Y-57365D01*
X64550Y-57537D01*
X64722Y-57365D01*
X64722Y-58134D01*
X64550Y-57962D01*
X64377Y-58134D01*
X64416Y-58188D01*
X64594Y-58206D01*
X64683Y-58188D01*
X64722Y-58134D01*
X64722Y-58301D01*
X64220Y-58301D01*
X64166Y-58324D01*
X64124Y-58365D01*
X64102Y-58417D01*
X64102Y-57842D01*
X64111Y-57883D01*
X64165Y-57922D01*
X64337Y-57750D01*
X64165Y-57577D01*
X64111Y-57616D01*
X64102Y-57697D01*
X64102Y-57152D01*
X72801Y-57152D01*
X72201Y-57752D01*
X72206Y-57705D01*
X72188Y-57616D01*
X72134Y-57577D01*
X71962Y-57750D01*
X72068Y-57856D01*
X71922Y-58001D01*
X71922Y-57365D01*
X71883Y-57311D01*
X71705Y-57293D01*
X71616Y-57311D01*
X71577Y-57365D01*
X71750Y-57537D01*
X71922Y-57365D01*
X71922Y-58001D01*
X71892Y-58032D01*
X71820Y-58032D01*
X71750Y-57962D01*
X71679Y-58032D01*
X71607Y-58032D01*
X71537Y-57962D01*
X71431Y-57856D01*
X71537Y-57750D01*
X71365Y-57577D01*
X71311Y-57616D01*
X71295Y-57774D01*
X71211Y-57858D01*
X71384Y-58032D01*
X71170Y-58032D01*
X71098Y-58046D01*
X71037Y-58087D01*
X71037Y-58087D01*
X71037Y-58087D01*
X70349Y-58775D01*
X69700Y-58775D01*
X69594Y-58669D01*
X69845Y-58773D01*
X70153Y-58773D01*
X70437Y-58656D01*
X70655Y-58438D01*
X70773Y-58154D01*
X70773Y-57846D01*
X70656Y-57562D01*
X70438Y-57344D01*
X70154Y-57226D01*
X69846Y-57226D01*
X69562Y-57343D01*
X69344Y-57561D01*
X69226Y-57845D01*
X69226Y-58153D01*
X69330Y-58404D01*
X69042Y-58117D01*
X69006Y-58093D01*
X68981Y-58076D01*
X68910Y-58062D01*
X68885Y-58062D01*
X69006Y-57940D01*
X69088Y-57858D01*
X69006Y-57776D01*
X69000Y-57769D01*
X69006Y-57705D01*
X68988Y-57616D01*
X68934Y-57577D01*
X68762Y-57750D01*
X68868Y-57856D01*
X68722Y-58001D01*
X68722Y-57365D01*
X68683Y-57311D01*
X68505Y-57293D01*
X68416Y-57311D01*
X68377Y-57365D01*
X68550Y-57537D01*
X68722Y-57365D01*
X68722Y-58001D01*
X68662Y-58062D01*
X68650Y-58062D01*
X68550Y-57962D01*
X68449Y-58062D01*
X68437Y-58062D01*
X68337Y-57962D01*
X68231Y-57856D01*
X68337Y-57750D01*
X68165Y-57577D01*
X68111Y-57616D01*
X68095Y-57774D01*
X68011Y-57858D01*
X68214Y-58062D01*
X68050Y-58062D01*
X68006Y-58070D01*
X68006Y-57705D01*
X67988Y-57616D01*
X67934Y-57577D01*
X67762Y-57750D01*
X67934Y-57922D01*
X67988Y-57883D01*
X68006Y-57705D01*
X68006Y-58070D01*
X67978Y-58076D01*
X67917Y-58117D01*
X67732Y-58301D01*
X67722Y-58301D01*
X67722Y-58134D01*
X67722Y-57365D01*
X67683Y-57311D01*
X67505Y-57293D01*
X67416Y-57311D01*
X67377Y-57365D01*
X67550Y-57537D01*
X67722Y-57365D01*
X67722Y-58134D01*
X67550Y-57962D01*
X67377Y-58134D01*
X67416Y-58188D01*
X67594Y-58206D01*
X67683Y-58188D01*
X67722Y-58134D01*
X67722Y-58301D01*
X67337Y-58301D01*
X67337Y-57750D01*
X67165Y-57577D01*
X67111Y-57616D01*
X67093Y-57794D01*
X67111Y-57883D01*
X67165Y-57922D01*
X67337Y-57750D01*
X67337Y-58301D01*
X67220Y-58301D01*
X67166Y-58324D01*
X67124Y-58365D01*
X67101Y-58420D01*
X67101Y-58479D01*
X67101Y-59079D01*
X67124Y-59133D01*
X67165Y-59175D01*
X67220Y-59198D01*
X67279Y-59198D01*
X67879Y-59198D01*
X67933Y-59175D01*
X67975Y-59134D01*
X67998Y-59079D01*
X67998Y-59020D01*
X67998Y-58567D01*
X68101Y-58464D01*
X68101Y-58479D01*
X68101Y-59079D01*
X68124Y-59133D01*
X68165Y-59175D01*
X68220Y-59198D01*
X68279Y-59198D01*
X68879Y-59198D01*
X68933Y-59175D01*
X68975Y-59134D01*
X68998Y-59079D01*
X68998Y-59020D01*
X68998Y-58937D01*
X69070Y-58937D01*
X69386Y-59253D01*
X69447Y-59294D01*
X69519Y-59308D01*
X69520Y-59308D01*
X70980Y-59308D01*
X71052Y-59294D01*
X71112Y-59253D01*
X71301Y-59065D01*
X71301Y-59079D01*
X71324Y-59133D01*
X71365Y-59175D01*
X71420Y-59198D01*
X71479Y-59198D01*
X72079Y-59198D01*
X72133Y-59175D01*
X72175Y-59134D01*
X72198Y-59079D01*
X72198Y-59020D01*
X72198Y-58927D01*
X72220Y-58923D01*
X72281Y-58882D01*
X72321Y-58821D01*
X72336Y-58750D01*
X72336Y-58460D01*
X72951Y-57845D01*
X72951Y-58212D01*
X72985Y-58384D01*
X73082Y-58529D01*
X73228Y-58626D01*
X73400Y-58661D01*
X73571Y-58626D01*
X73717Y-58529D01*
X73814Y-58384D01*
X73848Y-58212D01*
X73848Y-57787D01*
X73814Y-57615D01*
X73756Y-57529D01*
X74054Y-57529D01*
X74054Y-57529D01*
X73977Y-57682D01*
X74001Y-57750D01*
X74250Y-57750D01*
X74250Y-57687D01*
X74550Y-57687D01*
X74550Y-57750D01*
X74798Y-57750D01*
X74822Y-57682D01*
X74745Y-57529D01*
X74745Y-57529D01*
X75043Y-57529D01*
X74985Y-57615D01*
X74951Y-57787D01*
X74951Y-58182D01*
X74821Y-58313D01*
X74798Y-58250D01*
X74550Y-58250D01*
X74550Y-58584D01*
X74614Y-58595D01*
X74615Y-58582D01*
X74673Y-58532D01*
X74672Y-58540D01*
X74672Y-59116D01*
X74562Y-59007D01*
X74392Y-58936D01*
X74250Y-58936D01*
X74250Y-58584D01*
X74250Y-58250D01*
X74001Y-58250D01*
X73977Y-58317D01*
X74054Y-58470D01*
X74184Y-58582D01*
X74185Y-58595D01*
X74250Y-58584D01*
X74250Y-58936D01*
X74208Y-58936D01*
X74037Y-59006D01*
X73907Y-59137D01*
X73836Y-59307D01*
X73836Y-59491D01*
X73906Y-59662D01*
X74037Y-59792D01*
X74207Y-59863D01*
X74391Y-59863D01*
X74562Y-59793D01*
X74672Y-59683D01*
X74672Y-60013D01*
X74580Y-59995D01*
X73763Y-59995D01*
X73763Y-59308D01*
X73693Y-59137D01*
X73562Y-59007D01*
X73392Y-58936D01*
X73208Y-58936D01*
X73037Y-59006D01*
X72907Y-59137D01*
X72836Y-59307D01*
X72836Y-59491D01*
X72906Y-59662D01*
X73037Y-59792D01*
X73207Y-59863D01*
X73391Y-59863D01*
X73562Y-59793D01*
X73692Y-59662D01*
X73763Y-59492D01*
X73763Y-59308D01*
X73763Y-59995D01*
X72137Y-59995D01*
X71691Y-59548D01*
X71585Y-59477D01*
X71460Y-59452D01*
X70470Y-59452D01*
X70403Y-59386D01*
X70232Y-59315D01*
X70047Y-59315D01*
X69877Y-59385D01*
X69817Y-59444D01*
X69640Y-59533D01*
X69639Y-59533D01*
X69541Y-59533D01*
X69450Y-59570D01*
X69427Y-59593D01*
X69421Y-59593D01*
X69330Y-59630D01*
X69260Y-59699D01*
X69223Y-59790D01*
X69223Y-59888D01*
X69260Y-59979D01*
X69329Y-60049D01*
X69420Y-60086D01*
X69518Y-60086D01*
X69609Y-60049D01*
X69632Y-60026D01*
X69638Y-60026D01*
X69640Y-60026D01*
X69817Y-60115D01*
X69876Y-60173D01*
X70047Y-60244D01*
X70232Y-60244D01*
X70402Y-60174D01*
X70470Y-60107D01*
X71324Y-60107D01*
X71575Y-60358D01*
X69970Y-61963D01*
X69899Y-62070D01*
X69874Y-62195D01*
X69892Y-62287D01*
X69892Y-64320D01*
X69917Y-64445D01*
X69988Y-64551D01*
X72722Y-67285D01*
X72722Y-69703D01*
X72500Y-69926D01*
X72500Y-68910D01*
X72500Y-68910D01*
X72500Y-68270D01*
X72500Y-67670D01*
X72477Y-67615D01*
X72435Y-67572D01*
X72379Y-67550D01*
X72320Y-67549D01*
X71720Y-67549D01*
X71665Y-67572D01*
X71622Y-67614D01*
X71600Y-67670D01*
X71599Y-67729D01*
X71599Y-68329D01*
X71622Y-68384D01*
X71664Y-68427D01*
X71720Y-68449D01*
X71779Y-68450D01*
X72379Y-68450D01*
X72434Y-68427D01*
X72477Y-68385D01*
X72499Y-68329D01*
X72500Y-68270D01*
X72500Y-68910D01*
X72431Y-68745D01*
X72305Y-68618D01*
X72139Y-68550D01*
X71960Y-68549D01*
X71795Y-68618D01*
X71668Y-68744D01*
X71600Y-68910D01*
X71599Y-69089D01*
X71668Y-69254D01*
X71794Y-69381D01*
X71960Y-69449D01*
X72139Y-69450D01*
X72304Y-69381D01*
X72431Y-69255D01*
X72499Y-69089D01*
X72500Y-68910D01*
X72500Y-69926D01*
X71500Y-70926D01*
X71500Y-68910D01*
X71500Y-68910D01*
X71500Y-68270D01*
X71500Y-67670D01*
X71477Y-67615D01*
X71435Y-67572D01*
X71379Y-67550D01*
X71320Y-67549D01*
X70720Y-67549D01*
X70665Y-67572D01*
X70622Y-67614D01*
X70600Y-67670D01*
X70599Y-67729D01*
X70599Y-68329D01*
X70622Y-68384D01*
X70664Y-68427D01*
X70720Y-68449D01*
X70779Y-68450D01*
X71379Y-68450D01*
X71434Y-68427D01*
X71477Y-68385D01*
X71499Y-68329D01*
X71500Y-68270D01*
X71500Y-68910D01*
X71431Y-68745D01*
X71305Y-68618D01*
X71139Y-68550D01*
X70960Y-68549D01*
X70795Y-68618D01*
X70668Y-68744D01*
X70600Y-68910D01*
X70599Y-69089D01*
X70668Y-69254D01*
X70794Y-69381D01*
X70960Y-69449D01*
X71139Y-69450D01*
X71304Y-69381D01*
X71431Y-69255D01*
X71499Y-69089D01*
X71500Y-68910D01*
X71500Y-70926D01*
X70500Y-71926D01*
X70500Y-68910D01*
X70500Y-68910D01*
X70500Y-68270D01*
X70500Y-67670D01*
X70477Y-67615D01*
X70435Y-67572D01*
X70379Y-67550D01*
X70320Y-67549D01*
X69720Y-67549D01*
X69665Y-67572D01*
X69622Y-67614D01*
X69600Y-67670D01*
X69599Y-67729D01*
X69599Y-68329D01*
X69622Y-68384D01*
X69664Y-68427D01*
X69720Y-68449D01*
X69779Y-68450D01*
X70379Y-68450D01*
X70434Y-68427D01*
X70477Y-68385D01*
X70499Y-68329D01*
X70500Y-68270D01*
X70500Y-68910D01*
X70431Y-68745D01*
X70305Y-68618D01*
X70139Y-68550D01*
X69960Y-68549D01*
X69795Y-68618D01*
X69668Y-68744D01*
X69600Y-68910D01*
X69599Y-69089D01*
X69668Y-69254D01*
X69794Y-69381D01*
X69960Y-69449D01*
X70139Y-69450D01*
X70304Y-69381D01*
X70431Y-69255D01*
X70499Y-69089D01*
X70500Y-68910D01*
X70500Y-71926D01*
X69768Y-72657D01*
X69697Y-72763D01*
X69672Y-72888D01*
X69672Y-73294D01*
X69672Y-73720D01*
X69576Y-73816D01*
X69500Y-74000D01*
X69499Y-74137D01*
X69377Y-74260D01*
X69377Y-63634D01*
X69377Y-62886D01*
X69361Y-62788D01*
X69353Y-62769D01*
X69307Y-62762D01*
X69237Y-62831D01*
X69237Y-62692D01*
X69230Y-62646D01*
X69134Y-62622D01*
X69036Y-62638D01*
X69017Y-62646D01*
X69010Y-62692D01*
X69124Y-62806D01*
X69237Y-62692D01*
X69237Y-62831D01*
X69193Y-62875D01*
X69307Y-62989D01*
X69353Y-62982D01*
X69377Y-62886D01*
X69377Y-63634D01*
X69361Y-63536D01*
X69353Y-63517D01*
X69307Y-63510D01*
X69237Y-63579D01*
X69237Y-63440D01*
X69237Y-63059D01*
X69124Y-62945D01*
X69054Y-63015D01*
X69054Y-62875D01*
X68940Y-62762D01*
X68894Y-62769D01*
X68870Y-62865D01*
X68886Y-62963D01*
X68894Y-62982D01*
X68940Y-62989D01*
X69054Y-62875D01*
X69054Y-63015D01*
X69010Y-63059D01*
X69017Y-63105D01*
X69113Y-63129D01*
X69211Y-63113D01*
X69230Y-63105D01*
X69237Y-63059D01*
X69237Y-63440D01*
X69230Y-63394D01*
X69134Y-63370D01*
X69036Y-63386D01*
X69017Y-63394D01*
X69010Y-63440D01*
X69124Y-63554D01*
X69237Y-63440D01*
X69237Y-63579D01*
X69193Y-63624D01*
X69307Y-63737D01*
X69353Y-63730D01*
X69377Y-63634D01*
X69377Y-74260D01*
X69237Y-74399D01*
X69237Y-63807D01*
X69124Y-63693D01*
X69054Y-63763D01*
X69054Y-63624D01*
X69003Y-63572D01*
X69003Y-63260D01*
X68987Y-63162D01*
X68979Y-63143D01*
X68933Y-63136D01*
X68863Y-63205D01*
X68863Y-63066D01*
X68856Y-63020D01*
X68760Y-62996D01*
X68662Y-63012D01*
X68643Y-63020D01*
X68636Y-63066D01*
X68750Y-63180D01*
X68863Y-63066D01*
X68863Y-63205D01*
X68819Y-63250D01*
X68933Y-63363D01*
X68979Y-63356D01*
X69003Y-63260D01*
X69003Y-63572D01*
X68940Y-63510D01*
X68894Y-63517D01*
X68870Y-63613D01*
X68886Y-63711D01*
X68894Y-63730D01*
X68940Y-63737D01*
X69054Y-63624D01*
X69054Y-63763D01*
X69010Y-63807D01*
X69017Y-63853D01*
X69113Y-63877D01*
X69211Y-63861D01*
X69230Y-63853D01*
X69237Y-63807D01*
X69237Y-74399D01*
X69064Y-74572D01*
X68863Y-74572D01*
X68863Y-63433D01*
X68750Y-63319D01*
X68680Y-63389D01*
X68680Y-63250D01*
X68629Y-63198D01*
X68629Y-62886D01*
X68613Y-62788D01*
X68605Y-62769D01*
X68559Y-62762D01*
X68489Y-62831D01*
X68489Y-62692D01*
X68482Y-62646D01*
X68386Y-62622D01*
X68288Y-62638D01*
X68269Y-62646D01*
X68262Y-62692D01*
X68375Y-62806D01*
X68489Y-62692D01*
X68489Y-62831D01*
X68445Y-62875D01*
X68559Y-62989D01*
X68605Y-62982D01*
X68629Y-62886D01*
X68629Y-63198D01*
X68566Y-63136D01*
X68520Y-63143D01*
X68496Y-63239D01*
X68512Y-63337D01*
X68520Y-63356D01*
X68566Y-63363D01*
X68680Y-63250D01*
X68680Y-63389D01*
X68636Y-63433D01*
X68643Y-63479D01*
X68739Y-63503D01*
X68837Y-63487D01*
X68856Y-63479D01*
X68863Y-63433D01*
X68863Y-74572D01*
X68722Y-74572D01*
X68700Y-74572D01*
X68595Y-74572D01*
X68595Y-73925D01*
X68572Y-73870D01*
X68530Y-73827D01*
X68474Y-73805D01*
X68415Y-73804D01*
X66583Y-73804D01*
X66583Y-72374D01*
X66542Y-72170D01*
X66427Y-71997D01*
X66254Y-71881D01*
X66219Y-71874D01*
X66254Y-71868D01*
X66427Y-71752D01*
X66542Y-71579D01*
X66583Y-71374D01*
X66542Y-71170D01*
X66427Y-70997D01*
X66254Y-70881D01*
X66049Y-70840D01*
X65400Y-70840D01*
X65196Y-70881D01*
X65023Y-70997D01*
X64907Y-71170D01*
X64866Y-71374D01*
X64907Y-71579D01*
X65023Y-71752D01*
X65196Y-71868D01*
X65230Y-71874D01*
X65196Y-71881D01*
X65023Y-71997D01*
X64907Y-72170D01*
X64866Y-72374D01*
X64907Y-72579D01*
X65023Y-72752D01*
X65196Y-72868D01*
X65400Y-72908D01*
X66049Y-72908D01*
X66254Y-72868D01*
X66427Y-72752D01*
X66542Y-72579D01*
X66583Y-72374D01*
X66583Y-73804D01*
X66525Y-73804D01*
X66470Y-73827D01*
X66427Y-73869D01*
X66405Y-73925D01*
X66404Y-73984D01*
X66404Y-75874D01*
X66427Y-75929D01*
X66469Y-75972D01*
X66525Y-75994D01*
X66584Y-75995D01*
X68474Y-75995D01*
X68529Y-75972D01*
X68572Y-75930D01*
X68594Y-75874D01*
X68595Y-75815D01*
X68595Y-75227D01*
X68700Y-75227D01*
X68722Y-75227D01*
X69200Y-75227D01*
X69325Y-75202D01*
X69431Y-75131D01*
X69962Y-74599D01*
X70099Y-74600D01*
X70282Y-74524D01*
X70423Y-74383D01*
X70499Y-74199D01*
X70500Y-74000D01*
X70424Y-73817D01*
X70327Y-73720D01*
X70327Y-73294D01*
X70327Y-73024D01*
X73280Y-70071D01*
X73281Y-70070D01*
X74566Y-68785D01*
X74566Y-68785D01*
X74698Y-68653D01*
X77065Y-68653D01*
X77262Y-68850D01*
X77085Y-68849D01*
X76920Y-68918D01*
X76793Y-69044D01*
X76724Y-69210D01*
X76724Y-69389D01*
X76793Y-69554D01*
X76919Y-69681D01*
X77084Y-69749D01*
X77263Y-69750D01*
X77429Y-69681D01*
X77556Y-69555D01*
X77624Y-69389D01*
X77624Y-69212D01*
X77724Y-69312D01*
X77724Y-69629D01*
X77747Y-69684D01*
X77789Y-69727D01*
X77844Y-69749D01*
X77847Y-69749D01*
X77847Y-69849D01*
X77845Y-69849D01*
X77789Y-69872D01*
X77747Y-69914D01*
X77724Y-69970D01*
X77724Y-70029D01*
X77724Y-70629D01*
X77747Y-70684D01*
X77789Y-70727D01*
X77844Y-70749D01*
X77904Y-70750D01*
X78504Y-70750D01*
X78559Y-70727D01*
X78601Y-70685D01*
X78624Y-70629D01*
X78624Y-70570D01*
X78624Y-69970D01*
X78602Y-69915D01*
X78559Y-69872D01*
X78504Y-69850D01*
X78501Y-69850D01*
X78501Y-69750D01*
X78504Y-69750D01*
X78559Y-69727D01*
X78601Y-69685D01*
X78624Y-69629D01*
X78624Y-69627D01*
X78751Y-69627D01*
X78877Y-69602D01*
X78983Y-69531D01*
X79375Y-69139D01*
X79389Y-69139D01*
X79376Y-69170D01*
X79376Y-69229D01*
X79376Y-69829D01*
X79399Y-69883D01*
X79441Y-69925D01*
X79495Y-69948D01*
X79554Y-69948D01*
X79647Y-69948D01*
X79651Y-69970D01*
X79692Y-70031D01*
X79719Y-70058D01*
X79571Y-70119D01*
X79445Y-70245D01*
X79376Y-70410D01*
X79376Y-70457D01*
X78467Y-71367D01*
X78426Y-71428D01*
X78412Y-71500D01*
X78412Y-72192D01*
X78346Y-72219D01*
X78220Y-72345D01*
X78151Y-72510D01*
X78151Y-72688D01*
X78219Y-72853D01*
X78298Y-72932D01*
X78197Y-72932D01*
X78048Y-72782D01*
X78048Y-72270D01*
X78025Y-72216D01*
X77984Y-72174D01*
X77929Y-72151D01*
X77870Y-72151D01*
X77624Y-72151D01*
X77624Y-70210D01*
X77556Y-70045D01*
X77430Y-69918D01*
X77264Y-69850D01*
X77085Y-69849D01*
X76920Y-69918D01*
X76793Y-70044D01*
X76724Y-70210D01*
X76724Y-70389D01*
X76793Y-70554D01*
X76919Y-70681D01*
X77084Y-70749D01*
X77263Y-70750D01*
X77429Y-70681D01*
X77556Y-70555D01*
X77624Y-70389D01*
X77624Y-70210D01*
X77624Y-72151D01*
X77270Y-72151D01*
X77216Y-72174D01*
X77174Y-72215D01*
X77151Y-72270D01*
X77151Y-72329D01*
X77151Y-72929D01*
X77174Y-72983D01*
X77215Y-73025D01*
X77270Y-73048D01*
X77329Y-73048D01*
X77782Y-73048D01*
X77884Y-73149D01*
X77870Y-73149D01*
X77270Y-73149D01*
X77215Y-73172D01*
X77172Y-73214D01*
X77150Y-73270D01*
X77149Y-73329D01*
X77149Y-73929D01*
X77172Y-73984D01*
X77214Y-74027D01*
X77270Y-74049D01*
X77329Y-74050D01*
X77929Y-74050D01*
X77984Y-74027D01*
X78027Y-73985D01*
X78049Y-73929D01*
X78050Y-73870D01*
X78050Y-73293D01*
X78120Y-73307D01*
X78257Y-73307D01*
X78220Y-73345D01*
X78151Y-73510D01*
X78151Y-73688D01*
X78219Y-73853D01*
X78345Y-73979D01*
X78366Y-73988D01*
X77867Y-74487D01*
X77826Y-74548D01*
X77812Y-74620D01*
X77812Y-75301D01*
X77770Y-75301D01*
X77170Y-75301D01*
X77116Y-75324D01*
X77074Y-75365D01*
X77056Y-75408D01*
X77056Y-73555D01*
X77048Y-73514D01*
X77048Y-72511D01*
X76980Y-72346D01*
X76854Y-72220D01*
X76689Y-72151D01*
X76511Y-72151D01*
X76346Y-72219D01*
X76220Y-72345D01*
X76151Y-72510D01*
X76151Y-72688D01*
X76219Y-72853D01*
X76345Y-72979D01*
X76510Y-73048D01*
X76688Y-73048D01*
X76853Y-72980D01*
X76979Y-72854D01*
X77048Y-72689D01*
X77048Y-72511D01*
X77048Y-73514D01*
X77038Y-73466D01*
X76984Y-73427D01*
X76812Y-73600D01*
X76984Y-73772D01*
X77038Y-73733D01*
X77056Y-73555D01*
X77056Y-75408D01*
X77051Y-75420D01*
X77051Y-75479D01*
X77051Y-75572D01*
X77029Y-75576D01*
X76968Y-75617D01*
X76927Y-75678D01*
X76913Y-75750D01*
X76913Y-76055D01*
X76867Y-76102D01*
X76826Y-76163D01*
X76812Y-76235D01*
X76812Y-76383D01*
X76772Y-76410D01*
X76772Y-73984D01*
X76772Y-73215D01*
X76733Y-73161D01*
X76555Y-73143D01*
X76466Y-73161D01*
X76427Y-73215D01*
X76600Y-73387D01*
X76772Y-73215D01*
X76772Y-73984D01*
X76600Y-73812D01*
X76427Y-73984D01*
X76466Y-74038D01*
X76644Y-74056D01*
X76733Y-74038D01*
X76772Y-73984D01*
X76772Y-76410D01*
X76682Y-76470D01*
X76585Y-76615D01*
X76551Y-76787D01*
X76551Y-77212D01*
X76585Y-77384D01*
X76682Y-77529D01*
X76828Y-77626D01*
X77000Y-77661D01*
X77171Y-77626D01*
X77317Y-77529D01*
X77414Y-77384D01*
X77448Y-77212D01*
X77448Y-76787D01*
X77414Y-76615D01*
X77317Y-76470D01*
X77187Y-76383D01*
X77187Y-76312D01*
X77234Y-76266D01*
X77234Y-76266D01*
X77234Y-76266D01*
X77274Y-76205D01*
X77274Y-76205D01*
X77276Y-76198D01*
X77812Y-76198D01*
X77812Y-76383D01*
X77682Y-76470D01*
X77585Y-76615D01*
X77551Y-76787D01*
X77551Y-77212D01*
X77585Y-77384D01*
X77682Y-77529D01*
X77828Y-77626D01*
X78000Y-77661D01*
X78171Y-77626D01*
X78317Y-77529D01*
X78414Y-77384D01*
X78448Y-77212D01*
X78448Y-76787D01*
X78414Y-76615D01*
X78317Y-76470D01*
X78187Y-76383D01*
X78187Y-76085D01*
X78391Y-76288D01*
X78480Y-76200D01*
X78544Y-76206D01*
X78633Y-76188D01*
X78672Y-76134D01*
X78500Y-75962D01*
X78393Y-76068D01*
X78187Y-75862D01*
X78187Y-75850D01*
X78287Y-75750D01*
X78187Y-75649D01*
X78187Y-75637D01*
X78393Y-75431D01*
X78500Y-75537D01*
X78672Y-75365D01*
X78633Y-75311D01*
X78475Y-75295D01*
X78391Y-75211D01*
X78187Y-75414D01*
X78187Y-74697D01*
X78732Y-74152D01*
X78773Y-74091D01*
X78773Y-74091D01*
X78787Y-74020D01*
X78787Y-74007D01*
X78853Y-73980D01*
X78979Y-73854D01*
X79048Y-73689D01*
X79048Y-73511D01*
X78980Y-73346D01*
X78941Y-73307D01*
X79140Y-73307D01*
X79211Y-73293D01*
X79272Y-73252D01*
X79486Y-73038D01*
X79510Y-73048D01*
X79688Y-73048D01*
X79853Y-72980D01*
X79979Y-72854D01*
X80048Y-72689D01*
X80048Y-72511D01*
X79997Y-72387D01*
X79997Y-71884D01*
X79997Y-71115D01*
X79958Y-71061D01*
X79780Y-71043D01*
X79691Y-71061D01*
X79652Y-71115D01*
X79825Y-71287D01*
X79997Y-71115D01*
X79997Y-71884D01*
X79825Y-71712D01*
X79652Y-71884D01*
X79691Y-71938D01*
X79869Y-71956D01*
X79958Y-71938D01*
X79997Y-71884D01*
X79997Y-72387D01*
X79980Y-72346D01*
X79854Y-72220D01*
X79689Y-72151D01*
X79613Y-72151D01*
X79613Y-71500D01*
X79440Y-71327D01*
X79386Y-71366D01*
X79368Y-71544D01*
X79386Y-71633D01*
X79440Y-71672D01*
X79613Y-71500D01*
X79613Y-72151D01*
X79511Y-72151D01*
X79346Y-72219D01*
X79220Y-72345D01*
X79151Y-72510D01*
X79151Y-72688D01*
X79196Y-72797D01*
X79062Y-72932D01*
X78901Y-72932D01*
X78979Y-72854D01*
X79048Y-72689D01*
X79048Y-72511D01*
X78980Y-72346D01*
X78854Y-72220D01*
X78787Y-72192D01*
X78787Y-71577D01*
X79528Y-70837D01*
X79570Y-70879D01*
X79735Y-70948D01*
X79914Y-70948D01*
X80078Y-70880D01*
X80205Y-70754D01*
X80225Y-70705D01*
X80634Y-71114D01*
X80695Y-71154D01*
X80695Y-71154D01*
X80753Y-71166D01*
X80753Y-71166D01*
X80874Y-71287D01*
X80993Y-71169D01*
X82222Y-71169D01*
X82287Y-71234D01*
X82348Y-71274D01*
X82348Y-71274D01*
X82420Y-71289D01*
X88614Y-71289D01*
X89031Y-71707D01*
X88964Y-71720D01*
X88923Y-71775D01*
X89100Y-71952D01*
X89188Y-71863D01*
X89368Y-72043D01*
X89368Y-72128D01*
X89322Y-72174D01*
X89368Y-72220D01*
X89368Y-72347D01*
X89209Y-72506D01*
X89100Y-72397D01*
X88990Y-72506D01*
X88877Y-72393D01*
X88767Y-72284D01*
X88877Y-72174D01*
X88700Y-71998D01*
X88645Y-72039D01*
X88629Y-72215D01*
X88560Y-72283D01*
X88558Y-72282D01*
X88564Y-72267D01*
X88565Y-72082D01*
X88494Y-71911D01*
X88363Y-71780D01*
X88192Y-71709D01*
X88007Y-71709D01*
X87836Y-71780D01*
X87706Y-71911D01*
X87635Y-72081D01*
X87634Y-72266D01*
X87699Y-72422D01*
X87558Y-72282D01*
X87564Y-72267D01*
X87565Y-72082D01*
X87494Y-71911D01*
X87363Y-71780D01*
X87192Y-71709D01*
X87007Y-71709D01*
X86836Y-71780D01*
X86706Y-71911D01*
X86635Y-72081D01*
X86634Y-72266D01*
X86699Y-72422D01*
X86558Y-72282D01*
X86564Y-72267D01*
X86565Y-72082D01*
X86494Y-71911D01*
X86363Y-71780D01*
X86192Y-71709D01*
X86007Y-71709D01*
X85836Y-71780D01*
X85706Y-71911D01*
X85635Y-72081D01*
X85634Y-72266D01*
X85699Y-72422D01*
X85558Y-72282D01*
X85564Y-72267D01*
X85565Y-72082D01*
X85494Y-71911D01*
X85363Y-71780D01*
X85192Y-71709D01*
X85007Y-71709D01*
X84836Y-71780D01*
X84706Y-71911D01*
X84635Y-72081D01*
X84634Y-72266D01*
X84705Y-72437D01*
X84836Y-72568D01*
X85007Y-72639D01*
X85192Y-72639D01*
X85207Y-72633D01*
X85451Y-72877D01*
X85451Y-73115D01*
X85445Y-73118D01*
X85318Y-73244D01*
X85250Y-73410D01*
X85249Y-73589D01*
X85318Y-73754D01*
X85444Y-73881D01*
X85610Y-73949D01*
X85789Y-73950D01*
X85954Y-73881D01*
X86081Y-73755D01*
X86149Y-73589D01*
X86150Y-73410D01*
X86081Y-73245D01*
X85955Y-73118D01*
X85948Y-73115D01*
X85948Y-72774D01*
X85929Y-72679D01*
X85929Y-72679D01*
X85911Y-72652D01*
X85875Y-72599D01*
X85875Y-72599D01*
X85851Y-72575D01*
X86007Y-72639D01*
X86192Y-72639D01*
X86207Y-72633D01*
X86451Y-72877D01*
X86451Y-73115D01*
X86445Y-73118D01*
X86318Y-73244D01*
X86250Y-73410D01*
X86249Y-73589D01*
X86318Y-73754D01*
X86444Y-73881D01*
X86610Y-73949D01*
X86789Y-73950D01*
X86954Y-73881D01*
X87081Y-73755D01*
X87149Y-73589D01*
X87150Y-73410D01*
X87081Y-73245D01*
X86955Y-73118D01*
X86948Y-73115D01*
X86948Y-72774D01*
X86929Y-72679D01*
X86929Y-72679D01*
X86911Y-72652D01*
X86875Y-72599D01*
X86875Y-72599D01*
X86851Y-72575D01*
X87007Y-72639D01*
X87192Y-72639D01*
X87207Y-72633D01*
X87451Y-72877D01*
X87451Y-73115D01*
X87445Y-73118D01*
X87318Y-73244D01*
X87250Y-73410D01*
X87249Y-73589D01*
X87318Y-73754D01*
X87444Y-73881D01*
X87610Y-73949D01*
X87789Y-73950D01*
X87954Y-73881D01*
X88081Y-73755D01*
X88149Y-73589D01*
X88150Y-73410D01*
X88081Y-73245D01*
X87955Y-73118D01*
X87948Y-73115D01*
X87948Y-72774D01*
X87929Y-72679D01*
X87929Y-72679D01*
X87911Y-72652D01*
X87875Y-72599D01*
X87875Y-72599D01*
X87851Y-72575D01*
X88007Y-72639D01*
X88192Y-72639D01*
X88207Y-72633D01*
X88451Y-72877D01*
X88451Y-73049D01*
X88370Y-73049D01*
X88315Y-73072D01*
X88272Y-73114D01*
X88250Y-73170D01*
X88249Y-73229D01*
X88249Y-73829D01*
X88272Y-73884D01*
X88314Y-73927D01*
X88370Y-73949D01*
X88429Y-73950D01*
X88920Y-73950D01*
X87867Y-75003D01*
X87826Y-75064D01*
X87812Y-75136D01*
X87812Y-75428D01*
X87754Y-75370D01*
X87589Y-75301D01*
X87411Y-75301D01*
X87246Y-75369D01*
X87120Y-75495D01*
X87051Y-75660D01*
X87051Y-75682D01*
X86957Y-75777D01*
X86950Y-75769D01*
X86956Y-75705D01*
X86938Y-75616D01*
X86884Y-75577D01*
X86712Y-75750D01*
X86818Y-75856D01*
X86672Y-76001D01*
X86672Y-75365D01*
X86633Y-75311D01*
X86455Y-75293D01*
X86366Y-75311D01*
X86327Y-75365D01*
X86500Y-75537D01*
X86672Y-75365D01*
X86672Y-76001D01*
X86606Y-76068D01*
X86500Y-75962D01*
X86327Y-76134D01*
X86366Y-76188D01*
X86524Y-76204D01*
X86527Y-76207D01*
X86287Y-76446D01*
X86287Y-75750D01*
X86115Y-75577D01*
X86061Y-75616D01*
X86043Y-75794D01*
X86061Y-75883D01*
X86115Y-75922D01*
X86287Y-75750D01*
X86287Y-76446D01*
X86285Y-76449D01*
X86171Y-76373D01*
X86000Y-76338D01*
X85948Y-76349D01*
X85948Y-75661D01*
X85880Y-75496D01*
X85754Y-75370D01*
X85589Y-75301D01*
X85411Y-75301D01*
X85246Y-75369D01*
X85120Y-75495D01*
X85051Y-75660D01*
X85051Y-75838D01*
X85079Y-75905D01*
X84956Y-76027D01*
X84956Y-75705D01*
X84938Y-75616D01*
X84884Y-75577D01*
X84712Y-75750D01*
X84884Y-75922D01*
X84938Y-75883D01*
X84956Y-75705D01*
X84956Y-76027D01*
X84867Y-76117D01*
X84826Y-76178D01*
X84812Y-76250D01*
X84812Y-76383D01*
X84682Y-76470D01*
X84672Y-76486D01*
X84672Y-76134D01*
X84672Y-75365D01*
X84633Y-75311D01*
X84563Y-75304D01*
X84563Y-72083D01*
X84493Y-71912D01*
X84362Y-71782D01*
X84192Y-71711D01*
X84008Y-71711D01*
X83837Y-71781D01*
X83707Y-71911D01*
X83636Y-72082D01*
X83636Y-72266D01*
X83667Y-72341D01*
X83571Y-72437D01*
X83571Y-72126D01*
X83554Y-72039D01*
X83499Y-71998D01*
X83322Y-72174D01*
X83499Y-72351D01*
X83554Y-72310D01*
X83571Y-72126D01*
X83571Y-72437D01*
X83276Y-72732D01*
X83276Y-72574D01*
X83276Y-71775D01*
X83235Y-71720D01*
X83051Y-71703D01*
X82964Y-71720D01*
X82923Y-71775D01*
X83100Y-71952D01*
X83276Y-71775D01*
X83276Y-72574D01*
X83100Y-72397D01*
X82923Y-72574D01*
X82964Y-72629D01*
X83148Y-72646D01*
X83235Y-72629D01*
X83276Y-72574D01*
X83276Y-72732D01*
X82877Y-73131D01*
X82877Y-72174D01*
X82700Y-71998D01*
X82645Y-72039D01*
X82628Y-72223D01*
X82645Y-72310D01*
X82700Y-72351D01*
X82877Y-72174D01*
X82877Y-73131D01*
X82867Y-73141D01*
X82826Y-73202D01*
X82812Y-73274D01*
X82812Y-75428D01*
X82754Y-75370D01*
X82687Y-75342D01*
X82687Y-73382D01*
X82673Y-73310D01*
X82673Y-73310D01*
X82632Y-73249D01*
X81918Y-72534D01*
X81918Y-72504D01*
X81880Y-72413D01*
X81811Y-72344D01*
X81720Y-72306D01*
X81622Y-72306D01*
X81531Y-72344D01*
X81462Y-72413D01*
X81424Y-72504D01*
X81424Y-72602D01*
X81461Y-72693D01*
X81531Y-72762D01*
X81622Y-72800D01*
X81652Y-72800D01*
X82312Y-73459D01*
X82312Y-75342D01*
X82246Y-75369D01*
X82120Y-75495D01*
X82051Y-75660D01*
X82051Y-75838D01*
X82104Y-75967D01*
X81948Y-75967D01*
X81948Y-75420D01*
X81925Y-75366D01*
X81884Y-75324D01*
X81829Y-75301D01*
X81770Y-75301D01*
X81331Y-75301D01*
X81331Y-71455D01*
X81313Y-71366D01*
X81259Y-71327D01*
X81086Y-71500D01*
X81259Y-71672D01*
X81313Y-71633D01*
X81331Y-71455D01*
X81331Y-75301D01*
X81170Y-75301D01*
X81116Y-75324D01*
X81074Y-75365D01*
X81051Y-75420D01*
X81051Y-75479D01*
X81051Y-75967D01*
X81050Y-75967D01*
X81050Y-72870D01*
X81050Y-72329D01*
X81049Y-72270D01*
X81047Y-72263D01*
X81047Y-71884D01*
X80874Y-71712D01*
X80702Y-71884D01*
X80741Y-71938D01*
X80919Y-71956D01*
X81008Y-71938D01*
X81047Y-71884D01*
X81047Y-72263D01*
X81027Y-72214D01*
X80984Y-72172D01*
X80929Y-72149D01*
X80787Y-72150D01*
X80750Y-72187D01*
X80750Y-72450D01*
X81012Y-72450D01*
X81050Y-72412D01*
X81050Y-72329D01*
X81050Y-72870D01*
X81050Y-72787D01*
X81012Y-72750D01*
X80750Y-72750D01*
X80750Y-73012D01*
X80787Y-73050D01*
X80929Y-73050D01*
X80984Y-73027D01*
X81027Y-72985D01*
X81049Y-72929D01*
X81050Y-72870D01*
X81050Y-75967D01*
X81048Y-75967D01*
X81048Y-73870D01*
X81048Y-73270D01*
X81025Y-73216D01*
X80984Y-73174D01*
X80929Y-73151D01*
X80870Y-73151D01*
X80662Y-73151D01*
X80662Y-71500D01*
X80490Y-71327D01*
X80435Y-71366D01*
X80418Y-71544D01*
X80435Y-71633D01*
X80490Y-71672D01*
X80662Y-71500D01*
X80662Y-73151D01*
X80450Y-73151D01*
X80450Y-73012D01*
X80450Y-72750D01*
X80450Y-72450D01*
X80450Y-72187D01*
X80412Y-72150D01*
X80281Y-72149D01*
X80281Y-71455D01*
X80264Y-71366D01*
X80209Y-71327D01*
X80037Y-71500D01*
X80209Y-71672D01*
X80264Y-71633D01*
X80281Y-71455D01*
X80281Y-72149D01*
X80270Y-72149D01*
X80215Y-72172D01*
X80172Y-72214D01*
X80150Y-72270D01*
X80149Y-72329D01*
X80150Y-72412D01*
X80187Y-72450D01*
X80450Y-72450D01*
X80450Y-72750D01*
X80187Y-72750D01*
X80150Y-72787D01*
X80149Y-72870D01*
X80150Y-72929D01*
X80172Y-72985D01*
X80215Y-73027D01*
X80270Y-73050D01*
X80412Y-73050D01*
X80450Y-73012D01*
X80450Y-73151D01*
X80270Y-73151D01*
X80216Y-73174D01*
X80174Y-73215D01*
X80151Y-73270D01*
X80151Y-73329D01*
X80151Y-73929D01*
X80174Y-73983D01*
X80215Y-74025D01*
X80270Y-74048D01*
X80329Y-74048D01*
X80929Y-74048D01*
X80983Y-74025D01*
X81025Y-73984D01*
X81048Y-73929D01*
X81048Y-73870D01*
X81048Y-75967D01*
X80982Y-75967D01*
X80921Y-75905D01*
X80948Y-75839D01*
X80948Y-75661D01*
X80880Y-75496D01*
X80754Y-75370D01*
X80589Y-75301D01*
X80411Y-75301D01*
X80246Y-75369D01*
X80120Y-75495D01*
X80051Y-75660D01*
X80051Y-75838D01*
X80064Y-75870D01*
X80048Y-75885D01*
X80048Y-73511D01*
X79980Y-73346D01*
X79854Y-73220D01*
X79689Y-73151D01*
X79511Y-73151D01*
X79346Y-73219D01*
X79220Y-73345D01*
X79151Y-73510D01*
X79151Y-73688D01*
X79219Y-73853D01*
X79345Y-73979D01*
X79510Y-74048D01*
X79688Y-74048D01*
X79853Y-73980D01*
X79979Y-73854D01*
X80048Y-73689D01*
X80048Y-73511D01*
X80048Y-75885D01*
X79950Y-75984D01*
X79950Y-75420D01*
X79927Y-75365D01*
X79885Y-75322D01*
X79829Y-75300D01*
X79770Y-75299D01*
X79170Y-75299D01*
X79115Y-75322D01*
X79072Y-75364D01*
X79050Y-75420D01*
X79049Y-75479D01*
X79049Y-76079D01*
X79072Y-76134D01*
X79114Y-76177D01*
X79170Y-76199D01*
X79229Y-76200D01*
X79734Y-76200D01*
X79720Y-76213D01*
X79000Y-76213D01*
X78956Y-76222D01*
X78956Y-75705D01*
X78938Y-75616D01*
X78884Y-75577D01*
X78712Y-75750D01*
X78884Y-75922D01*
X78938Y-75883D01*
X78956Y-75705D01*
X78956Y-76222D01*
X78928Y-76227D01*
X78867Y-76268D01*
X78826Y-76329D01*
X78816Y-76381D01*
X78682Y-76470D01*
X78672Y-76486D01*
X78585Y-76615D01*
X78551Y-76787D01*
X78551Y-77212D01*
X78585Y-77384D01*
X78682Y-77529D01*
X78828Y-77626D01*
X79000Y-77661D01*
X79171Y-77626D01*
X79317Y-77529D01*
X79414Y-77384D01*
X79448Y-77212D01*
X79448Y-76787D01*
X79414Y-76615D01*
X79396Y-76589D01*
X79624Y-76589D01*
X79577Y-76682D01*
X79601Y-76750D01*
X79850Y-76750D01*
X79850Y-76687D01*
X80150Y-76687D01*
X80150Y-76750D01*
X80398Y-76750D01*
X80422Y-76682D01*
X80345Y-76529D01*
X80304Y-76494D01*
X80304Y-76350D01*
X80115Y-76350D01*
X80309Y-76156D01*
X80410Y-76198D01*
X80588Y-76198D01*
X80655Y-76170D01*
X80772Y-76287D01*
X80833Y-76328D01*
X80905Y-76342D01*
X81980Y-76342D01*
X81828Y-76373D01*
X81682Y-76470D01*
X81585Y-76615D01*
X81551Y-76787D01*
X81551Y-77212D01*
X81585Y-77384D01*
X81682Y-77529D01*
X81828Y-77626D01*
X82000Y-77661D01*
X82171Y-77626D01*
X82317Y-77529D01*
X82414Y-77384D01*
X82448Y-77212D01*
X82448Y-76787D01*
X82414Y-76615D01*
X82317Y-76470D01*
X82171Y-76373D01*
X82019Y-76342D01*
X82677Y-76342D01*
X82748Y-76328D01*
X82809Y-76287D01*
X83112Y-75985D01*
X83119Y-76003D01*
X83245Y-76129D01*
X83410Y-76198D01*
X83531Y-76198D01*
X83754Y-76422D01*
X83682Y-76470D01*
X83585Y-76615D01*
X83551Y-76787D01*
X83551Y-77212D01*
X83585Y-77384D01*
X83682Y-77529D01*
X83828Y-77626D01*
X84000Y-77661D01*
X84171Y-77626D01*
X84317Y-77529D01*
X84414Y-77384D01*
X84448Y-77212D01*
X84448Y-76787D01*
X84414Y-76615D01*
X84317Y-76470D01*
X84287Y-76450D01*
X84287Y-75750D01*
X84115Y-75577D01*
X84061Y-75616D01*
X84043Y-75794D01*
X84061Y-75883D01*
X84115Y-75922D01*
X84287Y-75750D01*
X84287Y-76450D01*
X84183Y-76381D01*
X84173Y-76329D01*
X84132Y-76268D01*
X83874Y-76010D01*
X83879Y-76004D01*
X83948Y-75839D01*
X83948Y-75661D01*
X83880Y-75496D01*
X83754Y-75370D01*
X83589Y-75301D01*
X83411Y-75301D01*
X83246Y-75369D01*
X83187Y-75428D01*
X83187Y-73352D01*
X83933Y-72607D01*
X84007Y-72638D01*
X84191Y-72638D01*
X84362Y-72567D01*
X84492Y-72437D01*
X84563Y-72267D01*
X84563Y-72083D01*
X84563Y-75304D01*
X84455Y-75293D01*
X84366Y-75311D01*
X84327Y-75365D01*
X84500Y-75537D01*
X84672Y-75365D01*
X84672Y-76134D01*
X84500Y-75962D01*
X84327Y-76134D01*
X84366Y-76188D01*
X84544Y-76206D01*
X84633Y-76188D01*
X84672Y-76134D01*
X84672Y-76486D01*
X84585Y-76615D01*
X84551Y-76787D01*
X84551Y-77212D01*
X84585Y-77384D01*
X84682Y-77529D01*
X84828Y-77626D01*
X85000Y-77661D01*
X85171Y-77626D01*
X85317Y-77529D01*
X85414Y-77384D01*
X85448Y-77212D01*
X85448Y-76787D01*
X85414Y-76615D01*
X85317Y-76470D01*
X85187Y-76383D01*
X85187Y-76327D01*
X85344Y-76171D01*
X85410Y-76198D01*
X85588Y-76198D01*
X85753Y-76130D01*
X85879Y-76004D01*
X85948Y-75839D01*
X85948Y-75661D01*
X85948Y-76349D01*
X85828Y-76373D01*
X85682Y-76470D01*
X85585Y-76615D01*
X85551Y-76787D01*
X85551Y-77212D01*
X85585Y-77384D01*
X85682Y-77529D01*
X85828Y-77626D01*
X86000Y-77661D01*
X86171Y-77626D01*
X86317Y-77529D01*
X86414Y-77384D01*
X86448Y-77212D01*
X86448Y-76817D01*
X86569Y-76695D01*
X86551Y-76787D01*
X86551Y-77212D01*
X86585Y-77384D01*
X86682Y-77529D01*
X86828Y-77626D01*
X87000Y-77661D01*
X87171Y-77626D01*
X87317Y-77529D01*
X87414Y-77384D01*
X87448Y-77212D01*
X87448Y-76787D01*
X87414Y-76615D01*
X87317Y-76470D01*
X87171Y-76373D01*
X87000Y-76338D01*
X86908Y-76357D01*
X87190Y-76074D01*
X87245Y-76129D01*
X87410Y-76198D01*
X87588Y-76198D01*
X87753Y-76130D01*
X87812Y-76071D01*
X87812Y-76383D01*
X87682Y-76470D01*
X87585Y-76615D01*
X87551Y-76787D01*
X87551Y-77212D01*
X87585Y-77384D01*
X87682Y-77529D01*
X87828Y-77626D01*
X88000Y-77661D01*
X88171Y-77626D01*
X88317Y-77529D01*
X88414Y-77384D01*
X88448Y-77212D01*
X88448Y-76787D01*
X88414Y-76615D01*
X88317Y-76470D01*
X88187Y-76383D01*
X88187Y-76200D01*
X88312Y-76200D01*
X88350Y-76162D01*
X88350Y-75900D01*
X88200Y-75900D01*
X88200Y-75600D01*
X88350Y-75600D01*
X88350Y-75337D01*
X88312Y-75300D01*
X88187Y-75299D01*
X88187Y-75213D01*
X89689Y-73712D01*
X89689Y-73712D01*
X89689Y-73712D01*
X89730Y-73651D01*
X89730Y-73651D01*
X89741Y-73593D01*
X89744Y-73579D01*
X89744Y-73579D01*
X89744Y-73579D01*
X89744Y-72476D01*
X89836Y-72568D01*
X90007Y-72639D01*
X90192Y-72639D01*
X90363Y-72569D01*
X90493Y-72438D01*
X90564Y-72267D01*
X90565Y-72082D01*
X90494Y-71911D01*
X90427Y-71844D01*
X90427Y-71149D01*
X90454Y-71149D01*
X90509Y-71127D01*
X90552Y-71084D01*
X90574Y-71029D01*
X90575Y-70970D01*
X90575Y-70320D01*
X90552Y-70264D01*
X90510Y-70222D01*
X90454Y-70199D01*
X90427Y-70199D01*
X90427Y-70193D01*
X90427Y-70192D01*
X90402Y-70067D01*
X90331Y-69961D01*
X90232Y-69862D01*
X90822Y-69273D01*
X90822Y-72250D01*
X90825Y-72267D01*
X90825Y-72284D01*
X90844Y-72380D01*
X90870Y-72444D01*
X90871Y-72444D01*
X90925Y-72525D01*
X90925Y-72525D01*
X90931Y-72531D01*
X90931Y-72531D01*
G37*
G54D34*
X90931Y-72531D02*
X90931Y-72541D01*
X90899Y-72574D01*
X90858Y-72671D01*
X90858Y-72777D01*
X90899Y-72875D01*
X90930Y-72907D01*
X90930Y-72917D01*
X90899Y-72948D01*
X90858Y-73046D01*
X90858Y-73152D01*
X90899Y-73250D01*
X90930Y-73281D01*
X90930Y-73318D01*
X90899Y-73348D01*
X90858Y-73446D01*
X90858Y-73552D01*
X90899Y-73650D01*
X90929Y-73681D01*
X90929Y-73720D01*
X90925Y-73724D01*
X90925Y-73724D01*
X90871Y-73805D01*
X90870Y-73805D01*
X90844Y-73869D01*
X90825Y-73965D01*
X90825Y-73982D01*
X90822Y-74000D01*
X90822Y-75926D01*
X90773Y-75974D01*
X90773Y-74846D01*
X90656Y-74562D01*
X90438Y-74344D01*
X90154Y-74226D01*
X89846Y-74226D01*
X89562Y-74343D01*
X89344Y-74561D01*
X89226Y-74845D01*
X89226Y-75153D01*
X89343Y-75437D01*
X89561Y-75655D01*
X89845Y-75773D01*
X90153Y-75773D01*
X90437Y-75656D01*
X90655Y-75438D01*
X90773Y-75154D01*
X90773Y-74846D01*
X90773Y-75974D01*
X89874Y-76874D01*
X89835Y-76931D01*
X89822Y-77000D01*
X89822Y-77004D01*
X89815Y-77822D01*
X89448Y-77822D01*
X89448Y-77212D01*
X89448Y-76787D01*
X89414Y-76615D01*
X89317Y-76470D01*
X89171Y-76373D01*
X89000Y-76338D01*
X88950Y-76348D01*
X88950Y-76020D01*
X88950Y-75479D01*
X88949Y-75420D01*
X88927Y-75364D01*
X88884Y-75322D01*
X88829Y-75299D01*
X88687Y-75300D01*
X88650Y-75337D01*
X88650Y-75600D01*
X88912Y-75600D01*
X88950Y-75562D01*
X88950Y-75479D01*
X88950Y-76020D01*
X88950Y-75937D01*
X88912Y-75900D01*
X88650Y-75900D01*
X88650Y-76162D01*
X88687Y-76200D01*
X88829Y-76200D01*
X88884Y-76177D01*
X88927Y-76135D01*
X88949Y-76079D01*
X88950Y-76020D01*
X88950Y-76348D01*
X88828Y-76373D01*
X88682Y-76470D01*
X88585Y-76615D01*
X88551Y-76787D01*
X88551Y-77212D01*
X88585Y-77384D01*
X88682Y-77529D01*
X88828Y-77626D01*
X89000Y-77661D01*
X89171Y-77626D01*
X89317Y-77529D01*
X89414Y-77384D01*
X89448Y-77212D01*
X89448Y-77822D01*
X81422Y-77822D01*
X81422Y-77317D01*
X81422Y-76682D01*
X81345Y-76529D01*
X81215Y-76417D01*
X81214Y-76404D01*
X81150Y-76415D01*
X81150Y-76750D01*
X81398Y-76750D01*
X81422Y-76682D01*
X81422Y-77317D01*
X81398Y-77250D01*
X81150Y-77250D01*
X81150Y-77584D01*
X81214Y-77595D01*
X81215Y-77582D01*
X81345Y-77470D01*
X81422Y-77317D01*
X81422Y-77822D01*
X80850Y-77822D01*
X80850Y-77584D01*
X80850Y-77250D01*
X80850Y-76750D01*
X80850Y-76415D01*
X80785Y-76404D01*
X80784Y-76417D01*
X80654Y-76529D01*
X80577Y-76682D01*
X80601Y-76750D01*
X80850Y-76750D01*
X80850Y-77250D01*
X80601Y-77250D01*
X80577Y-77317D01*
X80654Y-77470D01*
X80784Y-77582D01*
X80785Y-77595D01*
X80850Y-77584D01*
X80850Y-77822D01*
X80422Y-77822D01*
X80422Y-77317D01*
X80398Y-77250D01*
X80150Y-77250D01*
X80150Y-77584D01*
X80214Y-77595D01*
X80215Y-77582D01*
X80345Y-77470D01*
X80422Y-77317D01*
X80422Y-77822D01*
X79850Y-77822D01*
X79850Y-77584D01*
X79850Y-77250D01*
X79601Y-77250D01*
X79577Y-77317D01*
X79654Y-77470D01*
X79784Y-77582D01*
X79785Y-77595D01*
X79850Y-77584D01*
X79850Y-77822D01*
X76428Y-77822D01*
X76428Y-77172D01*
X76428Y-74612D01*
X76387Y-74515D01*
X76387Y-73600D01*
X76215Y-73427D01*
X76161Y-73466D01*
X76143Y-73644D01*
X76161Y-73733D01*
X76215Y-73772D01*
X76387Y-73600D01*
X76387Y-74515D01*
X76345Y-74413D01*
X76193Y-74260D01*
X75994Y-74178D01*
X75778Y-74177D01*
X75579Y-74260D01*
X75426Y-74412D01*
X75344Y-74611D01*
X75343Y-74827D01*
X75426Y-75026D01*
X75578Y-75179D01*
X75777Y-75261D01*
X75993Y-75262D01*
X76192Y-75179D01*
X76345Y-75027D01*
X76427Y-74828D01*
X76428Y-74612D01*
X76428Y-77172D01*
X76345Y-76973D01*
X76193Y-76820D01*
X75994Y-76738D01*
X75778Y-76737D01*
X75579Y-76820D01*
X75426Y-76972D01*
X75344Y-77171D01*
X75343Y-77387D01*
X75426Y-77586D01*
X75578Y-77739D01*
X75777Y-77821D01*
X75993Y-77822D01*
X76192Y-77739D01*
X76345Y-77587D01*
X76427Y-77388D01*
X76428Y-77172D01*
X76428Y-77822D01*
X74663Y-77822D01*
X74663Y-74649D01*
X74648Y-74574D01*
X74590Y-74521D01*
X74392Y-74720D01*
X74590Y-74918D01*
X74648Y-74865D01*
X74663Y-74649D01*
X74663Y-77822D01*
X74656Y-77822D01*
X74656Y-77172D01*
X74573Y-76973D01*
X74421Y-76820D01*
X74312Y-76775D01*
X74312Y-75196D01*
X74312Y-74243D01*
X74259Y-74185D01*
X74043Y-74170D01*
X73968Y-74185D01*
X73915Y-74243D01*
X74114Y-74441D01*
X74312Y-74243D01*
X74312Y-75196D01*
X74114Y-74998D01*
X73915Y-75196D01*
X73968Y-75254D01*
X74184Y-75269D01*
X74259Y-75254D01*
X74312Y-75196D01*
X74312Y-76775D01*
X74222Y-76738D01*
X74006Y-76737D01*
X73835Y-76808D01*
X73835Y-74720D01*
X73637Y-74521D01*
X73579Y-74574D01*
X73564Y-74790D01*
X73579Y-74865D01*
X73637Y-74918D01*
X73835Y-74720D01*
X73835Y-76808D01*
X73807Y-76820D01*
X73654Y-76972D01*
X73572Y-77171D01*
X73571Y-77387D01*
X73654Y-77586D01*
X73806Y-77739D01*
X74005Y-77821D01*
X74221Y-77822D01*
X74420Y-77739D01*
X74573Y-77587D01*
X74655Y-77388D01*
X74656Y-77172D01*
X74656Y-77822D01*
X72500Y-77822D01*
X72500Y-74000D01*
X72424Y-73817D01*
X72283Y-73676D01*
X72099Y-73600D01*
X71900Y-73599D01*
X71717Y-73675D01*
X71576Y-73816D01*
X71500Y-74000D01*
X71500Y-74070D01*
X71500Y-73779D01*
X71499Y-73720D01*
X71477Y-73664D01*
X71434Y-73622D01*
X71379Y-73599D01*
X71212Y-73600D01*
X71175Y-73637D01*
X71175Y-73925D01*
X71462Y-73925D01*
X71500Y-73887D01*
X71500Y-73779D01*
X71500Y-74070D01*
X71499Y-74199D01*
X71575Y-74382D01*
X71716Y-74523D01*
X71900Y-74599D01*
X72099Y-74600D01*
X72282Y-74524D01*
X72423Y-74383D01*
X72499Y-74199D01*
X72500Y-74000D01*
X72500Y-77822D01*
X71500Y-77822D01*
X71500Y-74420D01*
X71500Y-74312D01*
X71462Y-74275D01*
X71175Y-74275D01*
X71175Y-74562D01*
X71212Y-74600D01*
X71379Y-74600D01*
X71434Y-74577D01*
X71477Y-74535D01*
X71499Y-74479D01*
X71500Y-74420D01*
X71500Y-77822D01*
X70825Y-77822D01*
X70825Y-74562D01*
X70825Y-74275D01*
X70825Y-73925D01*
X70825Y-73637D01*
X70787Y-73600D01*
X70620Y-73599D01*
X70565Y-73622D01*
X70522Y-73664D01*
X70500Y-73720D01*
X70499Y-73779D01*
X70500Y-73887D01*
X70537Y-73925D01*
X70825Y-73925D01*
X70825Y-74275D01*
X70537Y-74275D01*
X70500Y-74312D01*
X70499Y-74420D01*
X70500Y-74479D01*
X70522Y-74535D01*
X70565Y-74577D01*
X70620Y-74600D01*
X70787Y-74600D01*
X70825Y-74562D01*
X70825Y-77822D01*
X70273Y-77822D01*
X70273Y-76846D01*
X70156Y-76562D01*
X69938Y-76344D01*
X69654Y-76226D01*
X69346Y-76226D01*
X69062Y-76343D01*
X68844Y-76561D01*
X68726Y-76845D01*
X68726Y-77153D01*
X68843Y-77437D01*
X69061Y-77655D01*
X69345Y-77773D01*
X69653Y-77773D01*
X69937Y-77656D01*
X70155Y-77438D01*
X70273Y-77154D01*
X70273Y-76846D01*
X70273Y-77822D01*
X66914Y-77822D01*
X66914Y-76900D01*
X66860Y-76632D01*
X66709Y-76405D01*
X66482Y-76253D01*
X66215Y-76200D01*
X66215Y-74854D01*
X66147Y-74514D01*
X66047Y-74383D01*
X65616Y-74813D01*
X65616Y-73952D01*
X65485Y-73852D01*
X65054Y-73784D01*
X64714Y-73852D01*
X64583Y-73952D01*
X65100Y-74469D01*
X65616Y-73952D01*
X65616Y-74813D01*
X65530Y-74900D01*
X66047Y-75416D01*
X66147Y-75285D01*
X66215Y-74854D01*
X66215Y-76200D01*
X66214Y-76200D01*
X65785Y-76200D01*
X65616Y-76233D01*
X65616Y-75847D01*
X65100Y-75330D01*
X64583Y-75847D01*
X64714Y-75947D01*
X65145Y-76015D01*
X65485Y-75947D01*
X65616Y-75847D01*
X65616Y-76233D01*
X65517Y-76253D01*
X65290Y-76405D01*
X65139Y-76632D01*
X65085Y-76900D01*
X65139Y-77167D01*
X65290Y-77394D01*
X65517Y-77546D01*
X65785Y-77599D01*
X66214Y-77599D01*
X66482Y-77546D01*
X66709Y-77394D01*
X66860Y-77167D01*
X66914Y-76900D01*
X66914Y-77822D01*
X64102Y-77822D01*
X64102Y-75351D01*
X64152Y-75416D01*
X64669Y-74900D01*
X64152Y-74383D01*
X64102Y-74448D01*
X64102Y-69648D01*
X64729Y-70275D01*
X68070Y-70275D01*
X68825Y-69520D01*
X68825Y-66129D01*
X68629Y-65933D01*
X68629Y-63634D01*
X68613Y-63536D01*
X68605Y-63517D01*
X68559Y-63510D01*
X68489Y-63579D01*
X68489Y-63440D01*
X68489Y-63059D01*
X68375Y-62945D01*
X68306Y-63015D01*
X68306Y-62875D01*
X68192Y-62762D01*
X68146Y-62769D01*
X68122Y-62865D01*
X68138Y-62963D01*
X68146Y-62982D01*
X68192Y-62989D01*
X68306Y-62875D01*
X68306Y-63015D01*
X68262Y-63059D01*
X68269Y-63105D01*
X68365Y-63129D01*
X68463Y-63113D01*
X68482Y-63105D01*
X68489Y-63059D01*
X68489Y-63440D01*
X68482Y-63394D01*
X68386Y-63370D01*
X68288Y-63386D01*
X68269Y-63394D01*
X68262Y-63440D01*
X68375Y-63554D01*
X68489Y-63440D01*
X68489Y-63579D01*
X68445Y-63624D01*
X68559Y-63737D01*
X68605Y-63730D01*
X68629Y-63634D01*
X68629Y-65933D01*
X68489Y-65794D01*
X68489Y-63807D01*
X68375Y-63693D01*
X68306Y-63763D01*
X68306Y-63624D01*
X68192Y-63510D01*
X68146Y-63517D01*
X68122Y-63613D01*
X68138Y-63711D01*
X68146Y-63730D01*
X68192Y-63737D01*
X68306Y-63624D01*
X68306Y-63763D01*
X68262Y-63807D01*
X68269Y-63853D01*
X68365Y-63877D01*
X68463Y-63861D01*
X68482Y-63853D01*
X68489Y-63807D01*
X68489Y-65794D01*
X68170Y-65475D01*
X67006Y-65475D01*
X67006Y-57705D01*
X66988Y-57616D01*
X66934Y-57577D01*
X66762Y-57750D01*
X66934Y-57922D01*
X66988Y-57883D01*
X67006Y-57705D01*
X67006Y-65475D01*
X66998Y-65475D01*
X66998Y-59020D01*
X66998Y-58420D01*
X66975Y-58366D01*
X66934Y-58324D01*
X66879Y-58301D01*
X66820Y-58301D01*
X66722Y-58301D01*
X66722Y-58134D01*
X66722Y-57365D01*
X66683Y-57311D01*
X66505Y-57293D01*
X66416Y-57311D01*
X66377Y-57365D01*
X66550Y-57537D01*
X66722Y-57365D01*
X66722Y-58134D01*
X66550Y-57962D01*
X66377Y-58134D01*
X66416Y-58188D01*
X66594Y-58206D01*
X66683Y-58188D01*
X66722Y-58134D01*
X66722Y-58301D01*
X66337Y-58301D01*
X66337Y-57750D01*
X66165Y-57577D01*
X66111Y-57616D01*
X66093Y-57794D01*
X66111Y-57883D01*
X66165Y-57922D01*
X66337Y-57750D01*
X66337Y-58301D01*
X66220Y-58301D01*
X66166Y-58324D01*
X66124Y-58365D01*
X66101Y-58420D01*
X66101Y-58479D01*
X66101Y-59079D01*
X66124Y-59133D01*
X66165Y-59175D01*
X66220Y-59198D01*
X66279Y-59198D01*
X66879Y-59198D01*
X66933Y-59175D01*
X66975Y-59134D01*
X66998Y-59079D01*
X66998Y-59020D01*
X66998Y-65475D01*
X66006Y-65475D01*
X66006Y-57705D01*
X65988Y-57616D01*
X65934Y-57577D01*
X65762Y-57750D01*
X65934Y-57922D01*
X65988Y-57883D01*
X66006Y-57705D01*
X66006Y-65475D01*
X65998Y-65475D01*
X65998Y-59020D01*
X65998Y-58420D01*
X65975Y-58366D01*
X65934Y-58324D01*
X65879Y-58301D01*
X65820Y-58301D01*
X65722Y-58301D01*
X65722Y-58134D01*
X65722Y-57365D01*
X65683Y-57311D01*
X65505Y-57293D01*
X65416Y-57311D01*
X65377Y-57365D01*
X65550Y-57537D01*
X65722Y-57365D01*
X65722Y-58134D01*
X65550Y-57962D01*
X65377Y-58134D01*
X65416Y-58188D01*
X65594Y-58206D01*
X65683Y-58188D01*
X65722Y-58134D01*
X65722Y-58301D01*
X65337Y-58301D01*
X65337Y-57750D01*
X65165Y-57577D01*
X65111Y-57616D01*
X65093Y-57794D01*
X65111Y-57883D01*
X65165Y-57922D01*
X65337Y-57750D01*
X65337Y-58301D01*
X65220Y-58301D01*
X65166Y-58324D01*
X65124Y-58365D01*
X65101Y-58420D01*
X65101Y-58479D01*
X65101Y-59079D01*
X65124Y-59133D01*
X65165Y-59175D01*
X65220Y-59198D01*
X65279Y-59198D01*
X65879Y-59198D01*
X65933Y-59175D01*
X65975Y-59134D01*
X65998Y-59079D01*
X65998Y-59020D01*
X65998Y-65475D01*
X65006Y-65475D01*
X65006Y-57705D01*
X64988Y-57616D01*
X64934Y-57577D01*
X64762Y-57750D01*
X64934Y-57922D01*
X64988Y-57883D01*
X65006Y-57705D01*
X65006Y-65475D01*
X64463Y-65475D01*
X64513Y-65500D01*
X64654Y-65500D01*
X64102Y-66051D01*
X64102Y-59082D01*
X64124Y-59133D01*
X64165Y-59175D01*
X64220Y-59198D01*
X64279Y-59198D01*
X64879Y-59198D01*
X64933Y-59175D01*
X64975Y-59134D01*
X64998Y-59079D01*
X64998Y-59020D01*
X64998Y-58420D01*
X64975Y-58366D01*
X64934Y-58324D01*
X64879Y-58301D01*
X64820Y-58301D01*
X64722Y-58301D01*
X64722Y-58134D01*
X64722Y-57365D01*
X64683Y-57311D01*
X64505Y-57293D01*
X64416Y-57311D01*
X64377Y-57365D01*
X64550Y-57537D01*
X64722Y-57365D01*
X64722Y-58134D01*
X64550Y-57962D01*
X64377Y-58134D01*
X64416Y-58188D01*
X64594Y-58206D01*
X64683Y-58188D01*
X64722Y-58134D01*
X64722Y-58301D01*
X64220Y-58301D01*
X64166Y-58324D01*
X64124Y-58365D01*
X64102Y-58417D01*
X64102Y-57842D01*
X64111Y-57883D01*
X64165Y-57922D01*
X64337Y-57750D01*
X64165Y-57577D01*
X64111Y-57616D01*
X64102Y-57697D01*
X64102Y-57152D01*
X72801Y-57152D01*
X72201Y-57752D01*
X72206Y-57705D01*
X72188Y-57616D01*
X72134Y-57577D01*
X71962Y-57750D01*
X72068Y-57856D01*
X71922Y-58001D01*
X71922Y-57365D01*
X71883Y-57311D01*
X71705Y-57293D01*
X71616Y-57311D01*
X71577Y-57365D01*
X71750Y-57537D01*
X71922Y-57365D01*
X71922Y-58001D01*
X71892Y-58032D01*
X71820Y-58032D01*
X71750Y-57962D01*
X71679Y-58032D01*
X71607Y-58032D01*
X71537Y-57962D01*
X71431Y-57856D01*
X71537Y-57750D01*
X71365Y-57577D01*
X71311Y-57616D01*
X71295Y-57774D01*
X71211Y-57858D01*
X71384Y-58032D01*
X71170Y-58032D01*
X71098Y-58046D01*
X71037Y-58087D01*
X71037Y-58087D01*
X71037Y-58087D01*
X70349Y-58775D01*
X69700Y-58775D01*
X69594Y-58669D01*
X69845Y-58773D01*
X70153Y-58773D01*
X70437Y-58656D01*
X70655Y-58438D01*
X70773Y-58154D01*
X70773Y-57846D01*
X70656Y-57562D01*
X70438Y-57344D01*
X70154Y-57226D01*
X69846Y-57226D01*
X69562Y-57343D01*
X69344Y-57561D01*
X69226Y-57845D01*
X69226Y-58153D01*
X69330Y-58404D01*
X69042Y-58117D01*
X69006Y-58093D01*
X68981Y-58076D01*
X68910Y-58062D01*
X68885Y-58062D01*
X69006Y-57940D01*
X69088Y-57858D01*
X69006Y-57776D01*
X69000Y-57769D01*
X69006Y-57705D01*
X68988Y-57616D01*
X68934Y-57577D01*
X68762Y-57750D01*
X68868Y-57856D01*
X68722Y-58001D01*
X68722Y-57365D01*
X68683Y-57311D01*
X68505Y-57293D01*
X68416Y-57311D01*
X68377Y-57365D01*
X68550Y-57537D01*
X68722Y-57365D01*
X68722Y-58001D01*
X68662Y-58062D01*
X68650Y-58062D01*
X68550Y-57962D01*
X68449Y-58062D01*
X68437Y-58062D01*
X68337Y-57962D01*
X68231Y-57856D01*
X68337Y-57750D01*
X68165Y-57577D01*
X68111Y-57616D01*
X68095Y-57774D01*
X68011Y-57858D01*
X68214Y-58062D01*
X68050Y-58062D01*
X68006Y-58070D01*
X68006Y-57705D01*
X67988Y-57616D01*
X67934Y-57577D01*
X67762Y-57750D01*
X67934Y-57922D01*
X67988Y-57883D01*
X68006Y-57705D01*
X68006Y-58070D01*
X67978Y-58076D01*
X67917Y-58117D01*
X67732Y-58301D01*
X67722Y-58301D01*
X67722Y-58134D01*
X67722Y-57365D01*
X67683Y-57311D01*
X67505Y-57293D01*
X67416Y-57311D01*
X67377Y-57365D01*
X67550Y-57537D01*
X67722Y-57365D01*
X67722Y-58134D01*
X67550Y-57962D01*
X67377Y-58134D01*
X67416Y-58188D01*
X67594Y-58206D01*
X67683Y-58188D01*
X67722Y-58134D01*
X67722Y-58301D01*
X67337Y-58301D01*
X67337Y-57750D01*
X67165Y-57577D01*
X67111Y-57616D01*
X67093Y-57794D01*
X67111Y-57883D01*
X67165Y-57922D01*
X67337Y-57750D01*
X67337Y-58301D01*
X67220Y-58301D01*
X67166Y-58324D01*
X67124Y-58365D01*
X67101Y-58420D01*
X67101Y-58479D01*
X67101Y-59079D01*
X67124Y-59133D01*
X67165Y-59175D01*
X67220Y-59198D01*
X67279Y-59198D01*
X67879Y-59198D01*
X67933Y-59175D01*
X67975Y-59134D01*
X67998Y-59079D01*
X67998Y-59020D01*
X67998Y-58567D01*
X68101Y-58464D01*
X68101Y-58479D01*
X68101Y-59079D01*
X68124Y-59133D01*
X68165Y-59175D01*
X68220Y-59198D01*
X68279Y-59198D01*
X68879Y-59198D01*
X68933Y-59175D01*
X68975Y-59134D01*
X68998Y-59079D01*
X68998Y-59020D01*
X68998Y-58937D01*
X69070Y-58937D01*
X69386Y-59253D01*
X69447Y-59294D01*
X69519Y-59308D01*
X69520Y-59308D01*
X70980Y-59308D01*
X71052Y-59294D01*
X71112Y-59253D01*
X71301Y-59065D01*
X71301Y-59079D01*
X71324Y-59133D01*
X71365Y-59175D01*
X71420Y-59198D01*
X71479Y-59198D01*
X72079Y-59198D01*
X72133Y-59175D01*
X72175Y-59134D01*
X72198Y-59079D01*
X72198Y-59020D01*
X72198Y-58927D01*
X72220Y-58923D01*
X72281Y-58882D01*
X72321Y-58821D01*
X72336Y-58750D01*
X72336Y-58460D01*
X72951Y-57845D01*
X72951Y-58212D01*
X72985Y-58384D01*
X73082Y-58529D01*
X73228Y-58626D01*
X73400Y-58661D01*
X73571Y-58626D01*
X73717Y-58529D01*
X73814Y-58384D01*
X73848Y-58212D01*
X73848Y-57787D01*
X73814Y-57615D01*
X73756Y-57529D01*
X74054Y-57529D01*
X74054Y-57529D01*
X73977Y-57682D01*
X74001Y-57750D01*
X74250Y-57750D01*
X74250Y-57687D01*
X74550Y-57687D01*
X74550Y-57750D01*
X74798Y-57750D01*
X74822Y-57682D01*
X74745Y-57529D01*
X74745Y-57529D01*
X75043Y-57529D01*
X74985Y-57615D01*
X74951Y-57787D01*
X74951Y-58182D01*
X74821Y-58313D01*
X74798Y-58250D01*
X74550Y-58250D01*
X74550Y-58584D01*
X74614Y-58595D01*
X74615Y-58582D01*
X74673Y-58532D01*
X74672Y-58540D01*
X74672Y-59116D01*
X74562Y-59007D01*
X74392Y-58936D01*
X74250Y-58936D01*
X74250Y-58584D01*
X74250Y-58250D01*
X74001Y-58250D01*
X73977Y-58317D01*
X74054Y-58470D01*
X74184Y-58582D01*
X74185Y-58595D01*
X74250Y-58584D01*
X74250Y-58936D01*
X74208Y-58936D01*
X74037Y-59006D01*
X73907Y-59137D01*
X73836Y-59307D01*
X73836Y-59491D01*
X73906Y-59662D01*
X74037Y-59792D01*
X74207Y-59863D01*
X74391Y-59863D01*
X74562Y-59793D01*
X74672Y-59683D01*
X74672Y-60013D01*
X74580Y-59995D01*
X73763Y-59995D01*
X73763Y-59308D01*
X73693Y-59137D01*
X73562Y-59007D01*
X73392Y-58936D01*
X73208Y-58936D01*
X73037Y-59006D01*
X72907Y-59137D01*
X72836Y-59307D01*
X72836Y-59491D01*
X72906Y-59662D01*
X73037Y-59792D01*
X73207Y-59863D01*
X73391Y-59863D01*
X73562Y-59793D01*
X73692Y-59662D01*
X73763Y-59492D01*
X73763Y-59308D01*
X73763Y-59995D01*
X72137Y-59995D01*
X71691Y-59548D01*
X71585Y-59477D01*
X71460Y-59452D01*
X70470Y-59452D01*
X70403Y-59386D01*
X70232Y-59315D01*
X70047Y-59315D01*
X69877Y-59385D01*
X69817Y-59444D01*
X69640Y-59533D01*
X69639Y-59533D01*
X69541Y-59533D01*
X69450Y-59570D01*
X69427Y-59593D01*
X69421Y-59593D01*
X69330Y-59630D01*
X69260Y-59699D01*
X69223Y-59790D01*
X69223Y-59888D01*
X69260Y-59979D01*
X69329Y-60049D01*
X69420Y-60086D01*
X69518Y-60086D01*
X69609Y-60049D01*
X69632Y-60026D01*
X69638Y-60026D01*
X69640Y-60026D01*
X69817Y-60115D01*
X69876Y-60173D01*
X70047Y-60244D01*
X70232Y-60244D01*
X70402Y-60174D01*
X70470Y-60107D01*
X71324Y-60107D01*
X71575Y-60358D01*
X69970Y-61963D01*
X69899Y-62070D01*
X69874Y-62195D01*
X69892Y-62287D01*
X69892Y-64320D01*
X69917Y-64445D01*
X69988Y-64551D01*
X72722Y-67285D01*
X72722Y-69703D01*
X72500Y-69926D01*
X72500Y-68910D01*
X72500Y-68910D01*
X72500Y-68270D01*
X72500Y-67670D01*
X72477Y-67615D01*
X72435Y-67572D01*
X72379Y-67550D01*
X72320Y-67549D01*
X71720Y-67549D01*
X71665Y-67572D01*
X71622Y-67614D01*
X71600Y-67670D01*
X71599Y-67729D01*
X71599Y-68329D01*
X71622Y-68384D01*
X71664Y-68427D01*
X71720Y-68449D01*
X71779Y-68450D01*
X72379Y-68450D01*
X72434Y-68427D01*
X72477Y-68385D01*
X72499Y-68329D01*
X72500Y-68270D01*
X72500Y-68910D01*
X72431Y-68745D01*
X72305Y-68618D01*
X72139Y-68550D01*
X71960Y-68549D01*
X71795Y-68618D01*
X71668Y-68744D01*
X71600Y-68910D01*
X71599Y-69089D01*
X71668Y-69254D01*
X71794Y-69381D01*
X71960Y-69449D01*
X72139Y-69450D01*
X72304Y-69381D01*
X72431Y-69255D01*
X72499Y-69089D01*
X72500Y-68910D01*
X72500Y-69926D01*
X71500Y-70926D01*
X71500Y-68910D01*
X71500Y-68910D01*
X71500Y-68270D01*
X71500Y-67670D01*
X71477Y-67615D01*
X71435Y-67572D01*
X71379Y-67550D01*
X71320Y-67549D01*
X70720Y-67549D01*
X70665Y-67572D01*
X70622Y-67614D01*
X70600Y-67670D01*
X70599Y-67729D01*
X70599Y-68329D01*
X70622Y-68384D01*
X70664Y-68427D01*
X70720Y-68449D01*
X70779Y-68450D01*
X71379Y-68450D01*
X71434Y-68427D01*
X71477Y-68385D01*
X71499Y-68329D01*
X71500Y-68270D01*
X71500Y-68910D01*
X71431Y-68745D01*
X71305Y-68618D01*
X71139Y-68550D01*
X70960Y-68549D01*
X70795Y-68618D01*
X70668Y-68744D01*
X70600Y-68910D01*
X70599Y-69089D01*
X70668Y-69254D01*
X70794Y-69381D01*
X70960Y-69449D01*
X71139Y-69450D01*
X71304Y-69381D01*
X71431Y-69255D01*
X71499Y-69089D01*
X71500Y-68910D01*
X71500Y-70926D01*
X70500Y-71926D01*
X70500Y-68910D01*
X70500Y-68910D01*
X70500Y-68270D01*
X70500Y-67670D01*
X70477Y-67615D01*
X70435Y-67572D01*
X70379Y-67550D01*
X70320Y-67549D01*
X69720Y-67549D01*
X69665Y-67572D01*
X69622Y-67614D01*
X69600Y-67670D01*
X69599Y-67729D01*
X69599Y-68329D01*
X69622Y-68384D01*
X69664Y-68427D01*
X69720Y-68449D01*
X69779Y-68450D01*
X70379Y-68450D01*
X70434Y-68427D01*
X70477Y-68385D01*
X70499Y-68329D01*
X70500Y-68270D01*
X70500Y-68910D01*
X70431Y-68745D01*
X70305Y-68618D01*
X70139Y-68550D01*
X69960Y-68549D01*
X69795Y-68618D01*
X69668Y-68744D01*
X69600Y-68910D01*
X69599Y-69089D01*
X69668Y-69254D01*
X69794Y-69381D01*
X69960Y-69449D01*
X70139Y-69450D01*
X70304Y-69381D01*
X70431Y-69255D01*
X70499Y-69089D01*
X70500Y-68910D01*
X70500Y-71926D01*
X69768Y-72657D01*
X69697Y-72763D01*
X69672Y-72888D01*
X69672Y-73294D01*
X69672Y-73720D01*
X69576Y-73816D01*
X69500Y-74000D01*
X69499Y-74137D01*
X69377Y-74260D01*
X69377Y-63634D01*
X69377Y-62886D01*
X69361Y-62788D01*
X69353Y-62769D01*
X69307Y-62762D01*
X69237Y-62831D01*
X69237Y-62692D01*
X69230Y-62646D01*
X69134Y-62622D01*
X69036Y-62638D01*
X69017Y-62646D01*
X69010Y-62692D01*
X69124Y-62806D01*
X69237Y-62692D01*
X69237Y-62831D01*
X69193Y-62875D01*
X69307Y-62989D01*
X69353Y-62982D01*
X69377Y-62886D01*
X69377Y-63634D01*
X69361Y-63536D01*
X69353Y-63517D01*
X69307Y-63510D01*
X69237Y-63579D01*
X69237Y-63440D01*
X69237Y-63059D01*
X69124Y-62945D01*
X69054Y-63015D01*
X69054Y-62875D01*
X68940Y-62762D01*
X68894Y-62769D01*
X68870Y-62865D01*
X68886Y-62963D01*
X68894Y-62982D01*
X68940Y-62989D01*
X69054Y-62875D01*
X69054Y-63015D01*
X69010Y-63059D01*
X69017Y-63105D01*
X69113Y-63129D01*
X69211Y-63113D01*
X69230Y-63105D01*
X69237Y-63059D01*
X69237Y-63440D01*
X69230Y-63394D01*
X69134Y-63370D01*
X69036Y-63386D01*
X69017Y-63394D01*
X69010Y-63440D01*
X69124Y-63554D01*
X69237Y-63440D01*
X69237Y-63579D01*
X69193Y-63624D01*
X69307Y-63737D01*
X69353Y-63730D01*
X69377Y-63634D01*
X69377Y-74260D01*
X69237Y-74399D01*
X69237Y-63807D01*
X69124Y-63693D01*
X69054Y-63763D01*
X69054Y-63624D01*
X69003Y-63572D01*
X69003Y-63260D01*
X68987Y-63162D01*
X68979Y-63143D01*
X68933Y-63136D01*
X68863Y-63205D01*
X68863Y-63066D01*
X68856Y-63020D01*
X68760Y-62996D01*
X68662Y-63012D01*
X68643Y-63020D01*
X68636Y-63066D01*
X68750Y-63180D01*
X68863Y-63066D01*
X68863Y-63205D01*
X68819Y-63250D01*
X68933Y-63363D01*
X68979Y-63356D01*
X69003Y-63260D01*
X69003Y-63572D01*
X68940Y-63510D01*
X68894Y-63517D01*
X68870Y-63613D01*
X68886Y-63711D01*
X68894Y-63730D01*
X68940Y-63737D01*
X69054Y-63624D01*
X69054Y-63763D01*
X69010Y-63807D01*
X69017Y-63853D01*
X69113Y-63877D01*
X69211Y-63861D01*
X69230Y-63853D01*
X69237Y-63807D01*
X69237Y-74399D01*
X69064Y-74572D01*
X68863Y-74572D01*
X68863Y-63433D01*
X68750Y-63319D01*
X68680Y-63389D01*
X68680Y-63250D01*
X68629Y-63198D01*
X68629Y-62886D01*
X68613Y-62788D01*
X68605Y-62769D01*
X68559Y-62762D01*
X68489Y-62831D01*
X68489Y-62692D01*
X68482Y-62646D01*
X68386Y-62622D01*
X68288Y-62638D01*
X68269Y-62646D01*
X68262Y-62692D01*
X68375Y-62806D01*
X68489Y-62692D01*
X68489Y-62831D01*
X68445Y-62875D01*
X68559Y-62989D01*
X68605Y-62982D01*
X68629Y-62886D01*
X68629Y-63198D01*
X68566Y-63136D01*
X68520Y-63143D01*
X68496Y-63239D01*
X68512Y-63337D01*
X68520Y-63356D01*
X68566Y-63363D01*
X68680Y-63250D01*
X68680Y-63389D01*
X68636Y-63433D01*
X68643Y-63479D01*
X68739Y-63503D01*
X68837Y-63487D01*
X68856Y-63479D01*
X68863Y-63433D01*
X68863Y-74572D01*
X68722Y-74572D01*
X68700Y-74572D01*
X68595Y-74572D01*
X68595Y-73925D01*
X68572Y-73870D01*
X68530Y-73827D01*
X68474Y-73805D01*
X68415Y-73804D01*
X66583Y-73804D01*
X66583Y-72374D01*
X66542Y-72170D01*
X66427Y-71997D01*
X66254Y-71881D01*
X66219Y-71874D01*
X66254Y-71868D01*
X66427Y-71752D01*
X66542Y-71579D01*
X66583Y-71374D01*
X66542Y-71170D01*
X66427Y-70997D01*
X66254Y-70881D01*
X66049Y-70840D01*
X65400Y-70840D01*
X65196Y-70881D01*
X65023Y-70997D01*
X64907Y-71170D01*
X64866Y-71374D01*
X64907Y-71579D01*
X65023Y-71752D01*
X65196Y-71868D01*
X65230Y-71874D01*
X65196Y-71881D01*
X65023Y-71997D01*
X64907Y-72170D01*
X64866Y-72374D01*
X64907Y-72579D01*
X65023Y-72752D01*
X65196Y-72868D01*
X65400Y-72908D01*
X66049Y-72908D01*
X66254Y-72868D01*
X66427Y-72752D01*
X66542Y-72579D01*
X66583Y-72374D01*
X66583Y-73804D01*
X66525Y-73804D01*
X66470Y-73827D01*
X66427Y-73869D01*
X66405Y-73925D01*
X66404Y-73984D01*
X66404Y-75874D01*
X66427Y-75929D01*
X66469Y-75972D01*
X66525Y-75994D01*
X66584Y-75995D01*
X68474Y-75995D01*
X68529Y-75972D01*
X68572Y-75930D01*
X68594Y-75874D01*
X68595Y-75815D01*
X68595Y-75227D01*
X68700Y-75227D01*
X68722Y-75227D01*
X69200Y-75227D01*
X69325Y-75202D01*
X69431Y-75131D01*
X69962Y-74599D01*
X70099Y-74600D01*
X70282Y-74524D01*
X70423Y-74383D01*
X70499Y-74199D01*
X70500Y-74000D01*
X70424Y-73817D01*
X70327Y-73720D01*
X70327Y-73294D01*
X70327Y-73024D01*
X73280Y-70071D01*
X73281Y-70070D01*
X74566Y-68785D01*
X74566Y-68785D01*
X74698Y-68653D01*
X77065Y-68653D01*
X77262Y-68850D01*
X77085Y-68849D01*
X76920Y-68918D01*
X76793Y-69044D01*
X76724Y-69210D01*
X76724Y-69389D01*
X76793Y-69554D01*
X76919Y-69681D01*
X77084Y-69749D01*
X77263Y-69750D01*
X77429Y-69681D01*
X77556Y-69555D01*
X77624Y-69389D01*
X77624Y-69212D01*
X77724Y-69312D01*
X77724Y-69629D01*
X77747Y-69684D01*
X77789Y-69727D01*
X77844Y-69749D01*
X77847Y-69749D01*
X77847Y-69849D01*
X77845Y-69849D01*
X77789Y-69872D01*
X77747Y-69914D01*
X77724Y-69970D01*
X77724Y-70029D01*
X77724Y-70629D01*
X77747Y-70684D01*
X77789Y-70727D01*
X77844Y-70749D01*
X77904Y-70750D01*
X78504Y-70750D01*
X78559Y-70727D01*
X78601Y-70685D01*
X78624Y-70629D01*
X78624Y-70570D01*
X78624Y-69970D01*
X78602Y-69915D01*
X78559Y-69872D01*
X78504Y-69850D01*
X78501Y-69850D01*
X78501Y-69750D01*
X78504Y-69750D01*
X78559Y-69727D01*
X78601Y-69685D01*
X78624Y-69629D01*
X78624Y-69627D01*
X78751Y-69627D01*
X78877Y-69602D01*
X78983Y-69531D01*
X79375Y-69139D01*
X79389Y-69139D01*
X79376Y-69170D01*
X79376Y-69229D01*
X79376Y-69829D01*
X79399Y-69883D01*
X79441Y-69925D01*
X79495Y-69948D01*
X79554Y-69948D01*
X79647Y-69948D01*
X79651Y-69970D01*
X79692Y-70031D01*
X79719Y-70058D01*
X79571Y-70119D01*
X79445Y-70245D01*
X79376Y-70410D01*
X79376Y-70457D01*
X78467Y-71367D01*
X78426Y-71428D01*
X78412Y-71500D01*
X78412Y-72192D01*
X78346Y-72219D01*
X78220Y-72345D01*
X78151Y-72510D01*
X78151Y-72688D01*
X78219Y-72853D01*
X78298Y-72932D01*
X78197Y-72932D01*
X78048Y-72782D01*
X78048Y-72270D01*
X78025Y-72216D01*
X77984Y-72174D01*
X77929Y-72151D01*
X77870Y-72151D01*
X77624Y-72151D01*
X77624Y-70210D01*
X77556Y-70045D01*
X77430Y-69918D01*
X77264Y-69850D01*
X77085Y-69849D01*
X76920Y-69918D01*
X76793Y-70044D01*
X76724Y-70210D01*
X76724Y-70389D01*
X76793Y-70554D01*
X76919Y-70681D01*
X77084Y-70749D01*
X77263Y-70750D01*
X77429Y-70681D01*
X77556Y-70555D01*
X77624Y-70389D01*
X77624Y-70210D01*
X77624Y-72151D01*
X77270Y-72151D01*
X77216Y-72174D01*
X77174Y-72215D01*
X77151Y-72270D01*
X77151Y-72329D01*
X77151Y-72929D01*
X77174Y-72983D01*
X77215Y-73025D01*
X77270Y-73048D01*
X77329Y-73048D01*
X77782Y-73048D01*
X77884Y-73149D01*
X77870Y-73149D01*
X77270Y-73149D01*
X77215Y-73172D01*
X77172Y-73214D01*
X77150Y-73270D01*
X77149Y-73329D01*
X77149Y-73929D01*
X77172Y-73984D01*
X77214Y-74027D01*
X77270Y-74049D01*
X77329Y-74050D01*
X77929Y-74050D01*
X77984Y-74027D01*
X78027Y-73985D01*
X78049Y-73929D01*
X78050Y-73870D01*
X78050Y-73293D01*
X78120Y-73307D01*
X78257Y-73307D01*
X78220Y-73345D01*
X78151Y-73510D01*
X78151Y-73688D01*
X78219Y-73853D01*
X78345Y-73979D01*
X78366Y-73988D01*
X77867Y-74487D01*
X77826Y-74548D01*
X77812Y-74620D01*
X77812Y-75301D01*
X77770Y-75301D01*
X77170Y-75301D01*
X77116Y-75324D01*
X77074Y-75365D01*
X77056Y-75408D01*
X77056Y-73555D01*
X77048Y-73514D01*
X77048Y-72511D01*
X76980Y-72346D01*
X76854Y-72220D01*
X76689Y-72151D01*
X76511Y-72151D01*
X76346Y-72219D01*
X76220Y-72345D01*
X76151Y-72510D01*
X76151Y-72688D01*
X76219Y-72853D01*
X76345Y-72979D01*
X76510Y-73048D01*
X76688Y-73048D01*
X76853Y-72980D01*
X76979Y-72854D01*
X77048Y-72689D01*
X77048Y-72511D01*
X77048Y-73514D01*
X77038Y-73466D01*
X76984Y-73427D01*
X76812Y-73600D01*
X76984Y-73772D01*
X77038Y-73733D01*
X77056Y-73555D01*
X77056Y-75408D01*
X77051Y-75420D01*
X77051Y-75479D01*
X77051Y-75572D01*
X77029Y-75576D01*
X76968Y-75617D01*
X76927Y-75678D01*
X76913Y-75750D01*
X76913Y-76055D01*
X76867Y-76102D01*
X76826Y-76163D01*
X76812Y-76235D01*
X76812Y-76383D01*
X76772Y-76410D01*
X76772Y-73984D01*
X76772Y-73215D01*
X76733Y-73161D01*
X76555Y-73143D01*
X76466Y-73161D01*
X76427Y-73215D01*
X76600Y-73387D01*
X76772Y-73215D01*
X76772Y-73984D01*
X76600Y-73812D01*
X76427Y-73984D01*
X76466Y-74038D01*
X76644Y-74056D01*
X76733Y-74038D01*
X76772Y-73984D01*
X76772Y-76410D01*
X76682Y-76470D01*
X76585Y-76615D01*
X76551Y-76787D01*
X76551Y-77212D01*
X76585Y-77384D01*
X76682Y-77529D01*
X76828Y-77626D01*
X77000Y-77661D01*
X77171Y-77626D01*
X77317Y-77529D01*
X77414Y-77384D01*
X77448Y-77212D01*
X77448Y-76787D01*
X77414Y-76615D01*
X77317Y-76470D01*
X77187Y-76383D01*
X77187Y-76312D01*
X77234Y-76266D01*
X77234Y-76266D01*
X77234Y-76266D01*
X77274Y-76205D01*
X77274Y-76205D01*
X77276Y-76198D01*
X77812Y-76198D01*
X77812Y-76383D01*
X77682Y-76470D01*
X77585Y-76615D01*
X77551Y-76787D01*
X77551Y-77212D01*
X77585Y-77384D01*
X77682Y-77529D01*
X77828Y-77626D01*
X78000Y-77661D01*
X78171Y-77626D01*
X78317Y-77529D01*
X78414Y-77384D01*
X78448Y-77212D01*
X78448Y-76787D01*
X78414Y-76615D01*
X78317Y-76470D01*
X78187Y-76383D01*
X78187Y-76085D01*
X78391Y-76288D01*
X78480Y-76200D01*
X78544Y-76206D01*
X78633Y-76188D01*
X78672Y-76134D01*
X78500Y-75962D01*
X78393Y-76068D01*
X78187Y-75862D01*
X78187Y-75850D01*
X78287Y-75750D01*
X78187Y-75649D01*
X78187Y-75637D01*
X78393Y-75431D01*
X78500Y-75537D01*
X78672Y-75365D01*
X78633Y-75311D01*
X78475Y-75295D01*
X78391Y-75211D01*
X78187Y-75414D01*
X78187Y-74697D01*
X78732Y-74152D01*
X78773Y-74091D01*
X78773Y-74091D01*
X78787Y-74020D01*
X78787Y-74007D01*
X78853Y-73980D01*
X78979Y-73854D01*
X79048Y-73689D01*
X79048Y-73511D01*
X78980Y-73346D01*
X78941Y-73307D01*
X79140Y-73307D01*
X79211Y-73293D01*
X79272Y-73252D01*
X79486Y-73038D01*
X79510Y-73048D01*
X79688Y-73048D01*
X79853Y-72980D01*
X79979Y-72854D01*
X80048Y-72689D01*
X80048Y-72511D01*
X79997Y-72387D01*
X79997Y-71884D01*
X79997Y-71115D01*
X79958Y-71061D01*
X79780Y-71043D01*
X79691Y-71061D01*
X79652Y-71115D01*
X79825Y-71287D01*
X79997Y-71115D01*
X79997Y-71884D01*
X79825Y-71712D01*
X79652Y-71884D01*
X79691Y-71938D01*
X79869Y-71956D01*
X79958Y-71938D01*
X79997Y-71884D01*
X79997Y-72387D01*
X79980Y-72346D01*
X79854Y-72220D01*
X79689Y-72151D01*
X79613Y-72151D01*
X79613Y-71500D01*
X79440Y-71327D01*
X79386Y-71366D01*
X79368Y-71544D01*
X79386Y-71633D01*
X79440Y-71672D01*
X79613Y-71500D01*
X79613Y-72151D01*
X79511Y-72151D01*
X79346Y-72219D01*
X79220Y-72345D01*
X79151Y-72510D01*
X79151Y-72688D01*
X79196Y-72797D01*
X79062Y-72932D01*
X78901Y-72932D01*
X78979Y-72854D01*
X79048Y-72689D01*
X79048Y-72511D01*
X78980Y-72346D01*
X78854Y-72220D01*
X78787Y-72192D01*
X78787Y-71577D01*
X79528Y-70837D01*
X79570Y-70879D01*
X79735Y-70948D01*
X79914Y-70948D01*
X80078Y-70880D01*
X80205Y-70754D01*
X80225Y-70705D01*
X80634Y-71114D01*
X80695Y-71154D01*
X80695Y-71154D01*
X80753Y-71166D01*
X80753Y-71166D01*
X80874Y-71287D01*
X80993Y-71169D01*
X82222Y-71169D01*
X82287Y-71234D01*
X82348Y-71274D01*
X82348Y-71274D01*
X82420Y-71289D01*
X88614Y-71289D01*
X89031Y-71707D01*
X88964Y-71720D01*
X88923Y-71775D01*
X89100Y-71952D01*
X89188Y-71863D01*
X89368Y-72043D01*
X89368Y-72128D01*
X89322Y-72174D01*
X89368Y-72220D01*
X89368Y-72347D01*
X89209Y-72506D01*
X89100Y-72397D01*
X88990Y-72506D01*
X88877Y-72393D01*
X88767Y-72284D01*
X88877Y-72174D01*
X88700Y-71998D01*
X88645Y-72039D01*
X88629Y-72215D01*
X88560Y-72283D01*
X88558Y-72282D01*
X88564Y-72267D01*
X88565Y-72082D01*
X88494Y-71911D01*
X88363Y-71780D01*
X88192Y-71709D01*
X88007Y-71709D01*
X87836Y-71780D01*
X87706Y-71911D01*
X87635Y-72081D01*
X87634Y-72266D01*
X87699Y-72422D01*
X87558Y-72282D01*
X87564Y-72267D01*
X87565Y-72082D01*
X87494Y-71911D01*
X87363Y-71780D01*
X87192Y-71709D01*
X87007Y-71709D01*
X86836Y-71780D01*
X86706Y-71911D01*
X86635Y-72081D01*
X86634Y-72266D01*
X86699Y-72422D01*
X86558Y-72282D01*
X86564Y-72267D01*
X86565Y-72082D01*
X86494Y-71911D01*
X86363Y-71780D01*
X86192Y-71709D01*
X86007Y-71709D01*
X85836Y-71780D01*
X85706Y-71911D01*
X85635Y-72081D01*
X85634Y-72266D01*
X85699Y-72422D01*
X85558Y-72282D01*
X85564Y-72267D01*
X85565Y-72082D01*
X85494Y-71911D01*
X85363Y-71780D01*
X85192Y-71709D01*
X85007Y-71709D01*
X84836Y-71780D01*
X84706Y-71911D01*
X84635Y-72081D01*
X84634Y-72266D01*
X84705Y-72437D01*
X84836Y-72568D01*
X85007Y-72639D01*
X85192Y-72639D01*
X85207Y-72633D01*
X85451Y-72877D01*
X85451Y-73115D01*
X85445Y-73118D01*
X85318Y-73244D01*
X85250Y-73410D01*
X85249Y-73589D01*
X85318Y-73754D01*
X85444Y-73881D01*
X85610Y-73949D01*
X85789Y-73950D01*
X85954Y-73881D01*
X86081Y-73755D01*
X86149Y-73589D01*
X86150Y-73410D01*
X86081Y-73245D01*
X85955Y-73118D01*
X85948Y-73115D01*
X85948Y-72774D01*
X85929Y-72679D01*
X85929Y-72679D01*
X85911Y-72652D01*
X85875Y-72599D01*
X85875Y-72599D01*
X85851Y-72575D01*
X86007Y-72639D01*
X86192Y-72639D01*
X86207Y-72633D01*
X86451Y-72877D01*
X86451Y-73115D01*
X86445Y-73118D01*
X86318Y-73244D01*
X86250Y-73410D01*
X86249Y-73589D01*
X86318Y-73754D01*
X86444Y-73881D01*
X86610Y-73949D01*
X86789Y-73950D01*
X86954Y-73881D01*
X87081Y-73755D01*
X87149Y-73589D01*
X87150Y-73410D01*
X87081Y-73245D01*
X86955Y-73118D01*
X86948Y-73115D01*
X86948Y-72774D01*
X86929Y-72679D01*
X86929Y-72679D01*
X86911Y-72652D01*
X86875Y-72599D01*
X86875Y-72599D01*
X86851Y-72575D01*
X87007Y-72639D01*
X87192Y-72639D01*
X87207Y-72633D01*
X87451Y-72877D01*
X87451Y-73115D01*
X87445Y-73118D01*
X87318Y-73244D01*
X87250Y-73410D01*
X87249Y-73589D01*
X87318Y-73754D01*
X87444Y-73881D01*
X87610Y-73949D01*
X87789Y-73950D01*
X87954Y-73881D01*
X88081Y-73755D01*
X88149Y-73589D01*
X88150Y-73410D01*
X88081Y-73245D01*
X87955Y-73118D01*
X87948Y-73115D01*
X87948Y-72774D01*
X87929Y-72679D01*
X87929Y-72679D01*
X87911Y-72652D01*
X87875Y-72599D01*
X87875Y-72599D01*
X87851Y-72575D01*
X88007Y-72639D01*
X88192Y-72639D01*
X88207Y-72633D01*
X88451Y-72877D01*
X88451Y-73049D01*
X88370Y-73049D01*
X88315Y-73072D01*
X88272Y-73114D01*
X88250Y-73170D01*
X88249Y-73229D01*
X88249Y-73829D01*
X88272Y-73884D01*
X88314Y-73927D01*
X88370Y-73949D01*
X88429Y-73950D01*
X88920Y-73950D01*
X87867Y-75003D01*
X87826Y-75064D01*
X87812Y-75136D01*
X87812Y-75428D01*
X87754Y-75370D01*
X87589Y-75301D01*
X87411Y-75301D01*
X87246Y-75369D01*
X87120Y-75495D01*
X87051Y-75660D01*
X87051Y-75682D01*
X86957Y-75777D01*
X86950Y-75769D01*
X86956Y-75705D01*
X86938Y-75616D01*
X86884Y-75577D01*
X86712Y-75750D01*
X86818Y-75856D01*
X86672Y-76001D01*
X86672Y-75365D01*
X86633Y-75311D01*
X86455Y-75293D01*
X86366Y-75311D01*
X86327Y-75365D01*
X86500Y-75537D01*
X86672Y-75365D01*
X86672Y-76001D01*
X86606Y-76068D01*
X86500Y-75962D01*
X86327Y-76134D01*
X86366Y-76188D01*
X86524Y-76204D01*
X86527Y-76207D01*
X86287Y-76446D01*
X86287Y-75750D01*
X86115Y-75577D01*
X86061Y-75616D01*
X86043Y-75794D01*
X86061Y-75883D01*
X86115Y-75922D01*
X86287Y-75750D01*
X86287Y-76446D01*
X86285Y-76449D01*
X86171Y-76373D01*
X86000Y-76338D01*
X85948Y-76349D01*
X85948Y-75661D01*
X85880Y-75496D01*
X85754Y-75370D01*
X85589Y-75301D01*
X85411Y-75301D01*
X85246Y-75369D01*
X85120Y-75495D01*
X85051Y-75660D01*
X85051Y-75838D01*
X85079Y-75905D01*
X84956Y-76027D01*
X84956Y-75705D01*
X84938Y-75616D01*
X84884Y-75577D01*
X84712Y-75750D01*
X84884Y-75922D01*
X84938Y-75883D01*
X84956Y-75705D01*
X84956Y-76027D01*
X84867Y-76117D01*
X84826Y-76178D01*
X84812Y-76250D01*
X84812Y-76383D01*
X84682Y-76470D01*
X84672Y-76486D01*
X84672Y-76134D01*
X84672Y-75365D01*
X84633Y-75311D01*
X84563Y-75304D01*
X84563Y-72083D01*
X84493Y-71912D01*
X84362Y-71782D01*
X84192Y-71711D01*
X84008Y-71711D01*
X83837Y-71781D01*
X83707Y-71911D01*
X83636Y-72082D01*
X83636Y-72266D01*
X83667Y-72341D01*
X83571Y-72437D01*
X83571Y-72126D01*
X83554Y-72039D01*
X83499Y-71998D01*
X83322Y-72174D01*
X83499Y-72351D01*
X83554Y-72310D01*
X83571Y-72126D01*
X83571Y-72437D01*
X83276Y-72732D01*
X83276Y-72574D01*
X83276Y-71775D01*
X83235Y-71720D01*
X83051Y-71703D01*
X82964Y-71720D01*
X82923Y-71775D01*
X83100Y-71952D01*
X83276Y-71775D01*
X83276Y-72574D01*
X83100Y-72397D01*
X82923Y-72574D01*
X82964Y-72629D01*
X83148Y-72646D01*
X83235Y-72629D01*
X83276Y-72574D01*
X83276Y-72732D01*
X82877Y-73131D01*
X82877Y-72174D01*
X82700Y-71998D01*
X82645Y-72039D01*
X82628Y-72223D01*
X82645Y-72310D01*
X82700Y-72351D01*
X82877Y-72174D01*
X82877Y-73131D01*
X82867Y-73141D01*
X82826Y-73202D01*
X82812Y-73274D01*
X82812Y-75428D01*
X82754Y-75370D01*
X82687Y-75342D01*
X82687Y-73382D01*
X82673Y-73310D01*
X82673Y-73310D01*
X82632Y-73249D01*
X81918Y-72534D01*
X81918Y-72504D01*
X81880Y-72413D01*
X81811Y-72344D01*
X81720Y-72306D01*
X81622Y-72306D01*
X81531Y-72344D01*
X81462Y-72413D01*
X81424Y-72504D01*
X81424Y-72602D01*
X81461Y-72693D01*
X81531Y-72762D01*
X81622Y-72800D01*
X81652Y-72800D01*
X82312Y-73459D01*
X82312Y-75342D01*
X82246Y-75369D01*
X82120Y-75495D01*
X82051Y-75660D01*
X82051Y-75838D01*
X82104Y-75967D01*
X81948Y-75967D01*
X81948Y-75420D01*
X81925Y-75366D01*
X81884Y-75324D01*
X81829Y-75301D01*
X81770Y-75301D01*
X81331Y-75301D01*
X81331Y-71455D01*
X81313Y-71366D01*
X81259Y-71327D01*
X81086Y-71500D01*
X81259Y-71672D01*
X81313Y-71633D01*
X81331Y-71455D01*
X81331Y-75301D01*
X81170Y-75301D01*
X81116Y-75324D01*
X81074Y-75365D01*
X81051Y-75420D01*
X81051Y-75479D01*
X81051Y-75967D01*
X81050Y-75967D01*
X81050Y-72870D01*
X81050Y-72329D01*
X81049Y-72270D01*
X81047Y-72263D01*
X81047Y-71884D01*
X80874Y-71712D01*
X80702Y-71884D01*
X80741Y-71938D01*
X80919Y-71956D01*
X81008Y-71938D01*
X81047Y-71884D01*
X81047Y-72263D01*
X81027Y-72214D01*
X80984Y-72172D01*
X80929Y-72149D01*
X80787Y-72150D01*
X80750Y-72187D01*
X80750Y-72450D01*
X81012Y-72450D01*
X81050Y-72412D01*
X81050Y-72329D01*
X81050Y-72870D01*
X81050Y-72787D01*
X81012Y-72750D01*
X80750Y-72750D01*
X80750Y-73012D01*
X80787Y-73050D01*
X80929Y-73050D01*
X80984Y-73027D01*
X81027Y-72985D01*
X81049Y-72929D01*
X81050Y-72870D01*
X81050Y-75967D01*
X81048Y-75967D01*
X81048Y-73870D01*
X81048Y-73270D01*
X81025Y-73216D01*
X80984Y-73174D01*
X80929Y-73151D01*
X80870Y-73151D01*
X80662Y-73151D01*
X80662Y-71500D01*
X80490Y-71327D01*
X80435Y-71366D01*
X80418Y-71544D01*
X80435Y-71633D01*
X80490Y-71672D01*
X80662Y-71500D01*
X80662Y-73151D01*
X80450Y-73151D01*
X80450Y-73012D01*
X80450Y-72750D01*
X80450Y-72450D01*
X80450Y-72187D01*
X80412Y-72150D01*
X80281Y-72149D01*
X80281Y-71455D01*
X80264Y-71366D01*
X80209Y-71327D01*
X80037Y-71500D01*
X80209Y-71672D01*
X80264Y-71633D01*
X80281Y-71455D01*
X80281Y-72149D01*
X80270Y-72149D01*
X80215Y-72172D01*
X80172Y-72214D01*
X80150Y-72270D01*
X80149Y-72329D01*
X80150Y-72412D01*
X80187Y-72450D01*
X80450Y-72450D01*
X80450Y-72750D01*
X80187Y-72750D01*
X80150Y-72787D01*
X80149Y-72870D01*
X80150Y-72929D01*
X80172Y-72985D01*
X80215Y-73027D01*
X80270Y-73050D01*
X80412Y-73050D01*
X80450Y-73012D01*
X80450Y-73151D01*
X80270Y-73151D01*
X80216Y-73174D01*
X80174Y-73215D01*
X80151Y-73270D01*
X80151Y-73329D01*
X80151Y-73929D01*
X80174Y-73983D01*
X80215Y-74025D01*
X80270Y-74048D01*
X80329Y-74048D01*
X80929Y-74048D01*
X80983Y-74025D01*
X81025Y-73984D01*
X81048Y-73929D01*
X81048Y-73870D01*
X81048Y-75967D01*
X80982Y-75967D01*
X80921Y-75905D01*
X80948Y-75839D01*
X80948Y-75661D01*
X80880Y-75496D01*
X80754Y-75370D01*
X80589Y-75301D01*
X80411Y-75301D01*
X80246Y-75369D01*
X80120Y-75495D01*
X80051Y-75660D01*
X80051Y-75838D01*
X80064Y-75870D01*
X80048Y-75885D01*
X80048Y-73511D01*
X79980Y-73346D01*
X79854Y-73220D01*
X79689Y-73151D01*
X79511Y-73151D01*
X79346Y-73219D01*
X79220Y-73345D01*
X79151Y-73510D01*
X79151Y-73688D01*
X79219Y-73853D01*
X79345Y-73979D01*
X79510Y-74048D01*
X79688Y-74048D01*
X79853Y-73980D01*
X79979Y-73854D01*
X80048Y-73689D01*
X80048Y-73511D01*
X80048Y-75885D01*
X79950Y-75984D01*
X79950Y-75420D01*
X79927Y-75365D01*
X79885Y-75322D01*
X79829Y-75300D01*
X79770Y-75299D01*
X79170Y-75299D01*
X79115Y-75322D01*
X79072Y-75364D01*
X79050Y-75420D01*
X79049Y-75479D01*
X79049Y-76079D01*
X79072Y-76134D01*
X79114Y-76177D01*
X79170Y-76199D01*
X79229Y-76200D01*
X79734Y-76200D01*
X79720Y-76213D01*
X79000Y-76213D01*
X78956Y-76222D01*
X78956Y-75705D01*
X78938Y-75616D01*
X78884Y-75577D01*
X78712Y-75750D01*
X78884Y-75922D01*
X78938Y-75883D01*
X78956Y-75705D01*
X78956Y-76222D01*
X78928Y-76227D01*
X78867Y-76268D01*
X78826Y-76329D01*
X78816Y-76381D01*
X78682Y-76470D01*
X78672Y-76486D01*
X78585Y-76615D01*
X78551Y-76787D01*
X78551Y-77212D01*
X78585Y-77384D01*
X78682Y-77529D01*
X78828Y-77626D01*
X79000Y-77661D01*
X79171Y-77626D01*
X79317Y-77529D01*
X79414Y-77384D01*
X79448Y-77212D01*
X79448Y-76787D01*
X79414Y-76615D01*
X79396Y-76589D01*
X79624Y-76589D01*
X79577Y-76682D01*
X79601Y-76750D01*
X79850Y-76750D01*
X79850Y-76687D01*
X80150Y-76687D01*
X80150Y-76750D01*
X80398Y-76750D01*
X80422Y-76682D01*
X80345Y-76529D01*
X80304Y-76494D01*
X80304Y-76350D01*
X80115Y-76350D01*
X80309Y-76156D01*
X80410Y-76198D01*
X80588Y-76198D01*
X80655Y-76170D01*
X80772Y-76287D01*
X80833Y-76328D01*
X80905Y-76342D01*
X81980Y-76342D01*
X81828Y-76373D01*
X81682Y-76470D01*
X81585Y-76615D01*
X81551Y-76787D01*
X81551Y-77212D01*
X81585Y-77384D01*
X81682Y-77529D01*
X81828Y-77626D01*
X82000Y-77661D01*
X82171Y-77626D01*
X82317Y-77529D01*
X82414Y-77384D01*
X82448Y-77212D01*
X82448Y-76787D01*
X82414Y-76615D01*
X82317Y-76470D01*
X82171Y-76373D01*
X82019Y-76342D01*
X82677Y-76342D01*
X82748Y-76328D01*
X82809Y-76287D01*
X83112Y-75985D01*
X83119Y-76003D01*
X83245Y-76129D01*
X83410Y-76198D01*
X83531Y-76198D01*
X83754Y-76422D01*
X83682Y-76470D01*
X83585Y-76615D01*
X83551Y-76787D01*
X83551Y-77212D01*
X83585Y-77384D01*
X83682Y-77529D01*
X83828Y-77626D01*
X84000Y-77661D01*
X84171Y-77626D01*
X84317Y-77529D01*
X84414Y-77384D01*
X84448Y-77212D01*
X84448Y-76787D01*
X84414Y-76615D01*
X84317Y-76470D01*
X84287Y-76450D01*
X84287Y-75750D01*
X84115Y-75577D01*
X84061Y-75616D01*
X84043Y-75794D01*
X84061Y-75883D01*
X84115Y-75922D01*
X84287Y-75750D01*
X84287Y-76450D01*
X84183Y-76381D01*
X84173Y-76329D01*
X84132Y-76268D01*
X83874Y-76010D01*
X83879Y-76004D01*
X83948Y-75839D01*
X83948Y-75661D01*
X83880Y-75496D01*
X83754Y-75370D01*
X83589Y-75301D01*
X83411Y-75301D01*
X83246Y-75369D01*
X83187Y-75428D01*
X83187Y-73352D01*
X83933Y-72607D01*
X84007Y-72638D01*
X84191Y-72638D01*
X84362Y-72567D01*
X84492Y-72437D01*
X84563Y-72267D01*
X84563Y-72083D01*
X84563Y-75304D01*
X84455Y-75293D01*
X84366Y-75311D01*
X84327Y-75365D01*
X84500Y-75537D01*
X84672Y-75365D01*
X84672Y-76134D01*
X84500Y-75962D01*
X84327Y-76134D01*
X84366Y-76188D01*
X84544Y-76206D01*
X84633Y-76188D01*
X84672Y-76134D01*
X84672Y-76486D01*
X84585Y-76615D01*
X84551Y-76787D01*
X84551Y-77212D01*
X84585Y-77384D01*
X84682Y-77529D01*
X84828Y-77626D01*
X85000Y-77661D01*
X85171Y-77626D01*
X85317Y-77529D01*
X85414Y-77384D01*
X85448Y-77212D01*
X85448Y-76787D01*
X85414Y-76615D01*
X85317Y-76470D01*
X85187Y-76383D01*
X85187Y-76327D01*
X85344Y-76171D01*
X85410Y-76198D01*
X85588Y-76198D01*
X85753Y-76130D01*
X85879Y-76004D01*
X85948Y-75839D01*
X85948Y-75661D01*
X85948Y-76349D01*
X85828Y-76373D01*
X85682Y-76470D01*
X85585Y-76615D01*
X85551Y-76787D01*
X85551Y-77212D01*
X85585Y-77384D01*
X85682Y-77529D01*
X85828Y-77626D01*
X86000Y-77661D01*
X86171Y-77626D01*
X86317Y-77529D01*
X86414Y-77384D01*
X86448Y-77212D01*
X86448Y-76817D01*
X86569Y-76695D01*
X86551Y-76787D01*
X86551Y-77212D01*
X86585Y-77384D01*
X86682Y-77529D01*
X86828Y-77626D01*
X87000Y-77661D01*
X87171Y-77626D01*
X87317Y-77529D01*
X87414Y-77384D01*
X87448Y-77212D01*
X87448Y-76787D01*
X87414Y-76615D01*
X87317Y-76470D01*
X87171Y-76373D01*
X87000Y-76338D01*
X86908Y-76357D01*
X87190Y-76074D01*
X87245Y-76129D01*
X87410Y-76198D01*
X87588Y-76198D01*
X87753Y-76130D01*
X87812Y-76071D01*
X87812Y-76383D01*
X87682Y-76470D01*
X87585Y-76615D01*
X87551Y-76787D01*
X87551Y-77212D01*
X87585Y-77384D01*
X87682Y-77529D01*
X87828Y-77626D01*
X88000Y-77661D01*
X88171Y-77626D01*
X88317Y-77529D01*
X88414Y-77384D01*
X88448Y-77212D01*
X88448Y-76787D01*
X88414Y-76615D01*
X88317Y-76470D01*
X88187Y-76383D01*
X88187Y-76200D01*
X88312Y-76200D01*
X88350Y-76162D01*
X88350Y-75900D01*
X88200Y-75900D01*
X88200Y-75600D01*
X88350Y-75600D01*
X88350Y-75337D01*
X88312Y-75300D01*
X88187Y-75299D01*
X88187Y-75213D01*
X89689Y-73712D01*
X89689Y-73712D01*
X89689Y-73712D01*
X89730Y-73651D01*
X89730Y-73651D01*
X89741Y-73593D01*
X89744Y-73579D01*
X89744Y-73579D01*
X89744Y-73579D01*
X89744Y-72476D01*
X89836Y-72568D01*
X90007Y-72639D01*
X90192Y-72639D01*
X90363Y-72569D01*
X90493Y-72438D01*
X90564Y-72267D01*
X90565Y-72082D01*
X90494Y-71911D01*
X90427Y-71844D01*
X90427Y-71149D01*
X90454Y-71149D01*
X90509Y-71127D01*
X90552Y-71084D01*
X90574Y-71029D01*
X90575Y-70970D01*
X90575Y-70320D01*
X90552Y-70264D01*
X90510Y-70222D01*
X90454Y-70199D01*
X90427Y-70199D01*
X90427Y-70193D01*
X90427Y-70192D01*
X90402Y-70067D01*
X90331Y-69961D01*
X90232Y-69862D01*
X90822Y-69273D01*
X90822Y-72250D01*
X90825Y-72267D01*
X90825Y-72284D01*
X90844Y-72380D01*
X90870Y-72444D01*
X90871Y-72444D01*
X90925Y-72525D01*
X90925Y-72525D01*
X90931Y-72531D01*
G54D10*
G36*
X90945Y-65046D02*
X90945Y-65077D01*
X90924Y-65098D01*
X90883Y-65196D01*
X90883Y-65302D01*
X90923Y-65400D01*
X90945Y-65422D01*
X90945Y-65453D01*
X90924Y-65474D01*
X90883Y-65571D01*
X90883Y-65677D01*
X90923Y-65775D01*
X90944Y-65796D01*
X90944Y-65828D01*
X90924Y-65848D01*
X90883Y-65946D01*
X90883Y-66052D01*
X90923Y-66150D01*
X90943Y-66170D01*
X90943Y-66205D01*
X90925Y-66224D01*
X90925Y-66224D01*
X90871Y-66305D01*
X90870Y-66305D01*
X90870Y-66307D01*
X89448Y-64885D01*
X89448Y-58212D01*
X89448Y-57787D01*
X89414Y-57615D01*
X89317Y-57470D01*
X89171Y-57373D01*
X89000Y-57338D01*
X88828Y-57373D01*
X88682Y-57470D01*
X88585Y-57615D01*
X88551Y-57787D01*
X88551Y-58212D01*
X88585Y-58384D01*
X88682Y-58529D01*
X88828Y-58626D01*
X89000Y-58661D01*
X89171Y-58626D01*
X89317Y-58529D01*
X89414Y-58384D01*
X89448Y-58212D01*
X89448Y-64885D01*
X89031Y-64468D01*
X89031Y-60898D01*
X89014Y-60813D01*
X88959Y-60770D01*
X88779Y-60950D01*
X88959Y-61129D01*
X89014Y-61086D01*
X89031Y-60898D01*
X89031Y-64468D01*
X89014Y-64452D01*
X89015Y-64357D01*
X88944Y-64186D01*
X88877Y-64119D01*
X88877Y-63425D01*
X88904Y-63425D01*
X88959Y-63402D01*
X89002Y-63360D01*
X89024Y-63304D01*
X89025Y-63245D01*
X89025Y-62595D01*
X89002Y-62540D01*
X88960Y-62497D01*
X88904Y-62475D01*
X88845Y-62474D01*
X88729Y-62474D01*
X88273Y-62474D01*
X88273Y-61356D01*
X88423Y-61506D01*
X88507Y-61423D01*
X88601Y-61431D01*
X88686Y-61414D01*
X88729Y-61359D01*
X88550Y-61179D01*
X88444Y-61285D01*
X88273Y-61114D01*
X88273Y-60996D01*
X88320Y-60950D01*
X88273Y-60903D01*
X88273Y-60785D01*
X88444Y-60614D01*
X88550Y-60720D01*
X88729Y-60540D01*
X88686Y-60485D01*
X88498Y-60468D01*
X88423Y-60393D01*
X88273Y-60543D01*
X88273Y-59992D01*
X88383Y-59882D01*
X88457Y-59913D01*
X88641Y-59913D01*
X88812Y-59843D01*
X88942Y-59712D01*
X89013Y-59542D01*
X89013Y-59358D01*
X88943Y-59187D01*
X88812Y-59057D01*
X88642Y-58986D01*
X88458Y-58986D01*
X88448Y-58990D01*
X88448Y-58212D01*
X88448Y-57787D01*
X88414Y-57615D01*
X88317Y-57470D01*
X88171Y-57373D01*
X88000Y-57338D01*
X87828Y-57373D01*
X87682Y-57470D01*
X87585Y-57615D01*
X87551Y-57787D01*
X87551Y-58212D01*
X87585Y-58384D01*
X87682Y-58529D01*
X87828Y-58626D01*
X88000Y-58661D01*
X88171Y-58626D01*
X88317Y-58529D01*
X88414Y-58384D01*
X88448Y-58212D01*
X88448Y-58990D01*
X88287Y-59056D01*
X88157Y-59187D01*
X88086Y-59357D01*
X88086Y-59541D01*
X88117Y-59616D01*
X88013Y-59720D01*
X88013Y-59358D01*
X87943Y-59187D01*
X87812Y-59057D01*
X87642Y-58986D01*
X87458Y-58986D01*
X87448Y-58990D01*
X87448Y-58212D01*
X87448Y-57787D01*
X87414Y-57615D01*
X87317Y-57470D01*
X87171Y-57373D01*
X87000Y-57338D01*
X86828Y-57373D01*
X86682Y-57470D01*
X86585Y-57615D01*
X86551Y-57787D01*
X86551Y-58212D01*
X86585Y-58384D01*
X86682Y-58529D01*
X86828Y-58626D01*
X87000Y-58661D01*
X87171Y-58626D01*
X87317Y-58529D01*
X87414Y-58384D01*
X87448Y-58212D01*
X87448Y-58990D01*
X87287Y-59056D01*
X87157Y-59187D01*
X87086Y-59357D01*
X87086Y-59541D01*
X87156Y-59712D01*
X87287Y-59842D01*
X87457Y-59913D01*
X87641Y-59913D01*
X87812Y-59843D01*
X87942Y-59712D01*
X88013Y-59542D01*
X88013Y-59358D01*
X88013Y-59720D01*
X87952Y-59781D01*
X87911Y-59842D01*
X87897Y-59914D01*
X87897Y-64325D01*
X87772Y-64450D01*
X87897Y-64574D01*
X87897Y-65311D01*
X87855Y-65268D01*
X87726Y-65215D01*
X87726Y-64849D01*
X87726Y-64050D01*
X87685Y-63995D01*
X87501Y-63978D01*
X87414Y-63995D01*
X87373Y-64050D01*
X87550Y-64227D01*
X87726Y-64050D01*
X87726Y-64849D01*
X87550Y-64672D01*
X87373Y-64849D01*
X87414Y-64904D01*
X87598Y-64921D01*
X87685Y-64904D01*
X87726Y-64849D01*
X87726Y-65215D01*
X87689Y-65200D01*
X87510Y-65199D01*
X87504Y-65202D01*
X87327Y-65025D01*
X87327Y-64450D01*
X87150Y-64273D01*
X87095Y-64314D01*
X87078Y-64498D01*
X87095Y-64585D01*
X87150Y-64626D01*
X87327Y-64450D01*
X87327Y-65025D01*
X87175Y-64874D01*
X87095Y-64820D01*
X87000Y-64801D01*
X86855Y-64801D01*
X86943Y-64713D01*
X87014Y-64542D01*
X87015Y-64357D01*
X87013Y-64354D01*
X87013Y-59358D01*
X86943Y-59187D01*
X86812Y-59057D01*
X86642Y-58986D01*
X86458Y-58986D01*
X86448Y-58990D01*
X86448Y-58212D01*
X86448Y-57787D01*
X86414Y-57615D01*
X86317Y-57470D01*
X86171Y-57373D01*
X86000Y-57338D01*
X85828Y-57373D01*
X85682Y-57470D01*
X85585Y-57615D01*
X85551Y-57787D01*
X85551Y-58212D01*
X85585Y-58384D01*
X85682Y-58529D01*
X85828Y-58626D01*
X86000Y-58661D01*
X86171Y-58626D01*
X86317Y-58529D01*
X86414Y-58384D01*
X86448Y-58212D01*
X86448Y-58990D01*
X86287Y-59056D01*
X86157Y-59187D01*
X86086Y-59357D01*
X86086Y-59541D01*
X86156Y-59712D01*
X86287Y-59842D01*
X86457Y-59913D01*
X86641Y-59913D01*
X86812Y-59843D01*
X86942Y-59712D01*
X87013Y-59542D01*
X87013Y-59358D01*
X87013Y-64354D01*
X86944Y-64186D01*
X86813Y-64056D01*
X86642Y-63985D01*
X86457Y-63984D01*
X86286Y-64055D01*
X86156Y-64186D01*
X86085Y-64357D01*
X86085Y-64423D01*
X86013Y-64352D01*
X86013Y-59358D01*
X85943Y-59187D01*
X85812Y-59057D01*
X85642Y-58986D01*
X85458Y-58986D01*
X85287Y-59056D01*
X85157Y-59187D01*
X85086Y-59357D01*
X85086Y-59541D01*
X85156Y-59712D01*
X85287Y-59842D01*
X85457Y-59913D01*
X85641Y-59913D01*
X85812Y-59843D01*
X85942Y-59712D01*
X86013Y-59542D01*
X86013Y-59358D01*
X86013Y-64352D01*
X86012Y-64350D01*
X85944Y-64186D01*
X85813Y-64056D01*
X85642Y-63985D01*
X85457Y-63984D01*
X85286Y-64055D01*
X85156Y-64186D01*
X85085Y-64357D01*
X85085Y-64453D01*
X85015Y-64383D01*
X85015Y-64357D01*
X84944Y-64186D01*
X84813Y-64056D01*
X84642Y-63985D01*
X84457Y-63984D01*
X84286Y-64055D01*
X84156Y-64186D01*
X84085Y-64357D01*
X84084Y-64542D01*
X84149Y-64698D01*
X84008Y-64557D01*
X84014Y-64542D01*
X84015Y-64357D01*
X83944Y-64186D01*
X83813Y-64056D01*
X83642Y-63985D01*
X83457Y-63984D01*
X83286Y-64055D01*
X83282Y-64059D01*
X83282Y-60671D01*
X84199Y-59754D01*
X84287Y-59842D01*
X84457Y-59913D01*
X84641Y-59913D01*
X84812Y-59843D01*
X84942Y-59712D01*
X85013Y-59542D01*
X85013Y-59358D01*
X84943Y-59187D01*
X84812Y-59057D01*
X84653Y-58991D01*
X84858Y-58786D01*
X85000Y-58786D01*
X85071Y-58771D01*
X85132Y-58731D01*
X85173Y-58670D01*
X85183Y-58618D01*
X85317Y-58529D01*
X85414Y-58384D01*
X85448Y-58212D01*
X85448Y-57787D01*
X85414Y-57615D01*
X85317Y-57470D01*
X85171Y-57373D01*
X85000Y-57338D01*
X84828Y-57373D01*
X84682Y-57470D01*
X84585Y-57615D01*
X84551Y-57787D01*
X84551Y-58212D01*
X84585Y-58384D01*
X84643Y-58470D01*
X83975Y-59138D01*
X83942Y-59187D01*
X83812Y-59057D01*
X83642Y-58986D01*
X83458Y-58986D01*
X83287Y-59056D01*
X83157Y-59187D01*
X83086Y-59357D01*
X83086Y-59541D01*
X83156Y-59712D01*
X83287Y-59842D01*
X83457Y-59913D01*
X83510Y-59913D01*
X83013Y-60409D01*
X83013Y-59358D01*
X82943Y-59187D01*
X82812Y-59057D01*
X82642Y-58986D01*
X82458Y-58986D01*
X82287Y-59056D01*
X82157Y-59187D01*
X82086Y-59357D01*
X82086Y-59541D01*
X82156Y-59712D01*
X82287Y-59842D01*
X82457Y-59913D01*
X82641Y-59913D01*
X82812Y-59843D01*
X82942Y-59712D01*
X83013Y-59542D01*
X83013Y-59358D01*
X83013Y-60409D01*
X82962Y-60461D01*
X82921Y-60522D01*
X82907Y-60594D01*
X82907Y-60672D01*
X82804Y-60570D01*
X82639Y-60501D01*
X82461Y-60501D01*
X82296Y-60569D01*
X82237Y-60628D01*
X82237Y-60566D01*
X82237Y-60565D01*
X82223Y-60493D01*
X82182Y-60432D01*
X81657Y-59906D01*
X81812Y-59843D01*
X81942Y-59712D01*
X82013Y-59542D01*
X82013Y-59358D01*
X81982Y-59283D01*
X82449Y-58816D01*
X84000Y-58816D01*
X84071Y-58801D01*
X84132Y-58761D01*
X84173Y-58700D01*
X84187Y-58628D01*
X84187Y-58616D01*
X84317Y-58529D01*
X84414Y-58384D01*
X84448Y-58212D01*
X84448Y-57787D01*
X84414Y-57615D01*
X84317Y-57470D01*
X84171Y-57373D01*
X84000Y-57338D01*
X83828Y-57373D01*
X83682Y-57470D01*
X83585Y-57615D01*
X83551Y-57787D01*
X83551Y-58212D01*
X83585Y-58384D01*
X83623Y-58440D01*
X83376Y-58440D01*
X83414Y-58384D01*
X83448Y-58212D01*
X83448Y-57787D01*
X83414Y-57615D01*
X83317Y-57470D01*
X83171Y-57373D01*
X83000Y-57338D01*
X82828Y-57373D01*
X82682Y-57470D01*
X82585Y-57615D01*
X82551Y-57787D01*
X82551Y-58212D01*
X82585Y-58384D01*
X82623Y-58440D01*
X82376Y-58440D01*
X82414Y-58384D01*
X82448Y-58212D01*
X82448Y-57787D01*
X82414Y-57615D01*
X82317Y-57470D01*
X82171Y-57373D01*
X82000Y-57338D01*
X81828Y-57373D01*
X81682Y-57470D01*
X81585Y-57615D01*
X81551Y-57787D01*
X81551Y-58212D01*
X81585Y-58384D01*
X81643Y-58470D01*
X81001Y-59112D01*
X80960Y-59173D01*
X80946Y-59244D01*
X80946Y-59649D01*
X80960Y-59721D01*
X81001Y-59782D01*
X81778Y-60559D01*
X81639Y-60501D01*
X81461Y-60501D01*
X81296Y-60569D01*
X81170Y-60695D01*
X81101Y-60860D01*
X81101Y-61038D01*
X81169Y-61203D01*
X81295Y-61329D01*
X81460Y-61398D01*
X81638Y-61398D01*
X81803Y-61330D01*
X81862Y-61271D01*
X81862Y-61628D01*
X81804Y-61570D01*
X81639Y-61501D01*
X81461Y-61501D01*
X81296Y-61569D01*
X81170Y-61695D01*
X81101Y-61860D01*
X81101Y-62038D01*
X81169Y-62203D01*
X81295Y-62329D01*
X81460Y-62398D01*
X81638Y-62398D01*
X81803Y-62330D01*
X81862Y-62271D01*
X81862Y-62628D01*
X81804Y-62570D01*
X81639Y-62501D01*
X81461Y-62501D01*
X81296Y-62569D01*
X81170Y-62695D01*
X81101Y-62860D01*
X81101Y-63038D01*
X81169Y-63203D01*
X81295Y-63329D01*
X81460Y-63398D01*
X81638Y-63398D01*
X81803Y-63330D01*
X81862Y-63271D01*
X81862Y-64093D01*
X81669Y-63900D01*
X81583Y-63986D01*
X81501Y-63978D01*
X81414Y-63995D01*
X81373Y-64050D01*
X81550Y-64227D01*
X81659Y-64117D01*
X81726Y-64185D01*
X81862Y-64320D01*
X81862Y-64360D01*
X81772Y-64450D01*
X81862Y-64539D01*
X81862Y-64579D01*
X81726Y-64714D01*
X81659Y-64782D01*
X81550Y-64672D01*
X81373Y-64849D01*
X81414Y-64904D01*
X81590Y-64920D01*
X81669Y-64999D01*
X81726Y-64942D01*
X81862Y-64806D01*
X81862Y-65325D01*
X81805Y-65268D01*
X81726Y-65236D01*
X81639Y-65200D01*
X81460Y-65199D01*
X81327Y-65255D01*
X81327Y-64450D01*
X81150Y-64273D01*
X81095Y-64314D01*
X81078Y-64498D01*
X81095Y-64585D01*
X81150Y-64626D01*
X81327Y-64450D01*
X81327Y-65255D01*
X81295Y-65268D01*
X81168Y-65394D01*
X81100Y-65560D01*
X81099Y-65739D01*
X81168Y-65904D01*
X81294Y-66031D01*
X81460Y-66099D01*
X81639Y-66100D01*
X81804Y-66031D01*
X81862Y-65974D01*
X81862Y-66124D01*
X81876Y-66196D01*
X81917Y-66257D01*
X82667Y-67007D01*
X82636Y-67082D01*
X82636Y-67266D01*
X82706Y-67436D01*
X82837Y-67567D01*
X83007Y-67638D01*
X83191Y-67638D01*
X83362Y-67567D01*
X83492Y-67437D01*
X83563Y-67267D01*
X83563Y-67083D01*
X83493Y-66912D01*
X83362Y-66782D01*
X83192Y-66711D01*
X83008Y-66711D01*
X82933Y-66742D01*
X82237Y-66047D01*
X82237Y-65974D01*
X82294Y-66031D01*
X82460Y-66099D01*
X82639Y-66100D01*
X82804Y-66031D01*
X82907Y-65929D01*
X82907Y-66169D01*
X82921Y-66241D01*
X82962Y-66302D01*
X83667Y-67007D01*
X83636Y-67082D01*
X83636Y-67266D01*
X83706Y-67436D01*
X83837Y-67567D01*
X84007Y-67638D01*
X84191Y-67638D01*
X84362Y-67567D01*
X84492Y-67437D01*
X84563Y-67267D01*
X84563Y-67083D01*
X84493Y-66912D01*
X84362Y-66782D01*
X84192Y-66711D01*
X84008Y-66711D01*
X83933Y-66742D01*
X83282Y-66091D01*
X83282Y-66019D01*
X83294Y-66031D01*
X83460Y-66099D01*
X83639Y-66100D01*
X83804Y-66031D01*
X83931Y-65905D01*
X83999Y-65739D01*
X84000Y-65560D01*
X83931Y-65395D01*
X83805Y-65268D01*
X83639Y-65200D01*
X83460Y-65199D01*
X83295Y-65268D01*
X83282Y-65281D01*
X83282Y-64840D01*
X83286Y-64843D01*
X83457Y-64914D01*
X83642Y-64915D01*
X83657Y-64908D01*
X83994Y-65245D01*
X83994Y-65245D01*
X84048Y-65281D01*
X84074Y-65299D01*
X84074Y-65299D01*
X84105Y-65305D01*
X84100Y-65320D01*
X84099Y-65379D01*
X84099Y-65979D01*
X84122Y-66034D01*
X84164Y-66077D01*
X84220Y-66099D01*
X84279Y-66100D01*
X84879Y-66100D01*
X84934Y-66077D01*
X84977Y-66035D01*
X84999Y-65979D01*
X85000Y-65920D01*
X85000Y-65491D01*
X85150Y-65641D01*
X85149Y-65739D01*
X85218Y-65904D01*
X85344Y-66031D01*
X85510Y-66099D01*
X85689Y-66100D01*
X85854Y-66031D01*
X85981Y-65905D01*
X86049Y-65739D01*
X86050Y-65560D01*
X86029Y-65510D01*
X86150Y-65631D01*
X86149Y-65739D01*
X86218Y-65904D01*
X86344Y-66031D01*
X86510Y-66099D01*
X86689Y-66100D01*
X86854Y-66031D01*
X86981Y-65905D01*
X87049Y-65739D01*
X87050Y-65560D01*
X86981Y-65395D01*
X86884Y-65298D01*
X86897Y-65298D01*
X87152Y-65553D01*
X87150Y-65560D01*
X87149Y-65739D01*
X87218Y-65904D01*
X87344Y-66031D01*
X87510Y-66099D01*
X87689Y-66100D01*
X87854Y-66031D01*
X87904Y-65982D01*
X87911Y-66021D01*
X87952Y-66082D01*
X88260Y-66390D01*
X88321Y-66430D01*
X88393Y-66445D01*
X89104Y-66445D01*
X89667Y-67007D01*
X89636Y-67082D01*
X89636Y-67266D01*
X89706Y-67436D01*
X89837Y-67567D01*
X90007Y-67638D01*
X90191Y-67638D01*
X90362Y-67567D01*
X90378Y-67551D01*
X90378Y-68269D01*
X90226Y-68117D01*
X90142Y-68201D01*
X90048Y-68193D01*
X89963Y-68210D01*
X89920Y-68265D01*
X90100Y-68444D01*
X90205Y-68339D01*
X90279Y-68412D01*
X90378Y-68511D01*
X90378Y-68626D01*
X90329Y-68674D01*
X90378Y-68723D01*
X90378Y-68791D01*
X90279Y-68890D01*
X90182Y-68987D01*
X90100Y-68904D01*
X89920Y-69084D01*
X89963Y-69139D01*
X90025Y-69144D01*
X89870Y-69299D01*
X89870Y-68674D01*
X89690Y-68495D01*
X89635Y-68538D01*
X89618Y-68726D01*
X89635Y-68811D01*
X89690Y-68854D01*
X89870Y-68674D01*
X89870Y-69299D01*
X89769Y-69400D01*
X89563Y-69193D01*
X89563Y-67083D01*
X89493Y-66912D01*
X89362Y-66782D01*
X89192Y-66711D01*
X89008Y-66711D01*
X88837Y-66781D01*
X88707Y-66911D01*
X88636Y-67082D01*
X88636Y-67266D01*
X88706Y-67436D01*
X88837Y-67567D01*
X89007Y-67638D01*
X89191Y-67638D01*
X89362Y-67567D01*
X89492Y-67437D01*
X89563Y-67267D01*
X89563Y-67083D01*
X89563Y-69193D01*
X88563Y-68193D01*
X88563Y-67083D01*
X88493Y-66912D01*
X88362Y-66782D01*
X88192Y-66711D01*
X88008Y-66711D01*
X87837Y-66781D01*
X87707Y-66911D01*
X87636Y-67082D01*
X87636Y-67266D01*
X87706Y-67436D01*
X87837Y-67567D01*
X88007Y-67638D01*
X88191Y-67638D01*
X88362Y-67567D01*
X88492Y-67437D01*
X88563Y-67267D01*
X88563Y-67083D01*
X88563Y-68193D01*
X88228Y-67859D01*
X88122Y-67788D01*
X87997Y-67763D01*
X87563Y-67763D01*
X87563Y-67083D01*
X87493Y-66912D01*
X87362Y-66782D01*
X87192Y-66711D01*
X87008Y-66711D01*
X86837Y-66781D01*
X86707Y-66911D01*
X86636Y-67082D01*
X86636Y-67266D01*
X86706Y-67436D01*
X86837Y-67567D01*
X87007Y-67638D01*
X87191Y-67638D01*
X87362Y-67567D01*
X87492Y-67437D01*
X87563Y-67267D01*
X87563Y-67083D01*
X87563Y-67763D01*
X86563Y-67763D01*
X86563Y-67083D01*
X86493Y-66912D01*
X86362Y-66782D01*
X86192Y-66711D01*
X86008Y-66711D01*
X85837Y-66781D01*
X85707Y-66911D01*
X85676Y-66987D01*
X85523Y-66987D01*
X85493Y-66912D01*
X85362Y-66782D01*
X85192Y-66711D01*
X85008Y-66711D01*
X84837Y-66781D01*
X84707Y-66911D01*
X84636Y-67082D01*
X84636Y-67266D01*
X84706Y-67436D01*
X84837Y-67567D01*
X85007Y-67638D01*
X85191Y-67638D01*
X85362Y-67567D01*
X85492Y-67437D01*
X85523Y-67362D01*
X85676Y-67362D01*
X85706Y-67436D01*
X85837Y-67567D01*
X86007Y-67638D01*
X86191Y-67638D01*
X86362Y-67567D01*
X86492Y-67437D01*
X86563Y-67267D01*
X86563Y-67083D01*
X86563Y-67763D01*
X82834Y-67763D01*
X82709Y-67788D01*
X82603Y-67859D01*
X82603Y-67859D01*
X81977Y-68485D01*
X81773Y-68485D01*
X81829Y-68429D01*
X81898Y-68264D01*
X81898Y-68085D01*
X81830Y-67921D01*
X81704Y-67794D01*
X81539Y-67726D01*
X81361Y-67726D01*
X81196Y-67794D01*
X81070Y-67920D01*
X81001Y-68085D01*
X81001Y-68263D01*
X81069Y-68428D01*
X81126Y-68485D01*
X80906Y-68485D01*
X80787Y-68485D01*
X80906Y-68365D01*
X80988Y-68283D01*
X80906Y-68201D01*
X80900Y-68194D01*
X80906Y-68130D01*
X80906Y-67130D01*
X80888Y-67041D01*
X80834Y-67002D01*
X80662Y-67174D01*
X80834Y-67347D01*
X80888Y-67308D01*
X80906Y-67130D01*
X80906Y-68130D01*
X80888Y-68041D01*
X80834Y-68002D01*
X80662Y-68174D01*
X80768Y-68280D01*
X80622Y-68426D01*
X80622Y-67790D01*
X80622Y-67559D01*
X80622Y-66790D01*
X80583Y-66735D01*
X80405Y-66718D01*
X80316Y-66735D01*
X80277Y-66790D01*
X80450Y-66962D01*
X80622Y-66790D01*
X80622Y-67559D01*
X80450Y-67386D01*
X80277Y-67559D01*
X80316Y-67613D01*
X80494Y-67631D01*
X80583Y-67613D01*
X80622Y-67559D01*
X80622Y-67790D01*
X80583Y-67735D01*
X80405Y-67718D01*
X80316Y-67735D01*
X80277Y-67790D01*
X80450Y-67962D01*
X80622Y-67790D01*
X80622Y-68426D01*
X80564Y-68485D01*
X80548Y-68485D01*
X80450Y-68386D01*
X80351Y-68485D01*
X80335Y-68485D01*
X80237Y-68386D01*
X80131Y-68280D01*
X80237Y-68174D01*
X80237Y-67174D01*
X80065Y-67002D01*
X80011Y-67041D01*
X79993Y-67219D01*
X80011Y-67308D01*
X80065Y-67347D01*
X80237Y-67174D01*
X80237Y-68174D01*
X80065Y-68002D01*
X80011Y-68041D01*
X79995Y-68199D01*
X79911Y-68283D01*
X80112Y-68485D01*
X79898Y-68485D01*
X79898Y-68445D01*
X79898Y-67845D01*
X79875Y-67790D01*
X79834Y-67749D01*
X79779Y-67726D01*
X79720Y-67726D01*
X79637Y-67726D01*
X79637Y-67623D01*
X79779Y-67623D01*
X79833Y-67600D01*
X79875Y-67558D01*
X79898Y-67504D01*
X79898Y-67445D01*
X79898Y-66991D01*
X79932Y-66957D01*
X79932Y-66957D01*
X79932Y-66957D01*
X79973Y-66896D01*
X79973Y-66896D01*
X79987Y-66824D01*
X79987Y-66824D01*
X79987Y-66049D01*
X80029Y-66050D01*
X80629Y-66050D01*
X80684Y-66027D01*
X80692Y-66019D01*
X80692Y-66060D01*
X80706Y-66131D01*
X80747Y-66192D01*
X81262Y-66707D01*
X81262Y-66767D01*
X81196Y-66794D01*
X81070Y-66920D01*
X81001Y-67085D01*
X81001Y-67263D01*
X81069Y-67428D01*
X81195Y-67554D01*
X81360Y-67623D01*
X81538Y-67623D01*
X81703Y-67555D01*
X81829Y-67429D01*
X81898Y-67264D01*
X81898Y-67085D01*
X81830Y-66921D01*
X81704Y-66794D01*
X81637Y-66767D01*
X81637Y-66630D01*
X81623Y-66558D01*
X81623Y-66558D01*
X81582Y-66497D01*
X81067Y-65982D01*
X81067Y-62500D01*
X81053Y-62428D01*
X81012Y-62367D01*
X80848Y-62202D01*
X80848Y-58212D01*
X80848Y-57787D01*
X80814Y-57615D01*
X80717Y-57470D01*
X80571Y-57373D01*
X80400Y-57338D01*
X80228Y-57373D01*
X80082Y-57470D01*
X79985Y-57615D01*
X79951Y-57787D01*
X79951Y-58212D01*
X79985Y-58384D01*
X80082Y-58529D01*
X80157Y-58579D01*
X80126Y-58626D01*
X80112Y-58698D01*
X80112Y-58976D01*
X80037Y-59006D01*
X79907Y-59137D01*
X79836Y-59307D01*
X79836Y-59491D01*
X79906Y-59662D01*
X80037Y-59792D01*
X80207Y-59863D01*
X80391Y-59863D01*
X80562Y-59793D01*
X80692Y-59662D01*
X80763Y-59492D01*
X80763Y-59308D01*
X80693Y-59137D01*
X80562Y-59007D01*
X80487Y-58976D01*
X80487Y-58776D01*
X80532Y-58731D01*
X80573Y-58670D01*
X80583Y-58618D01*
X80717Y-58529D01*
X80814Y-58384D01*
X80848Y-58212D01*
X80848Y-62202D01*
X80781Y-62135D01*
X80781Y-60848D01*
X80764Y-60763D01*
X80709Y-60720D01*
X80529Y-60900D01*
X80709Y-61079D01*
X80764Y-61036D01*
X80781Y-60848D01*
X80781Y-62135D01*
X80512Y-61867D01*
X80479Y-61844D01*
X80479Y-61309D01*
X80479Y-60490D01*
X80436Y-60435D01*
X80248Y-60418D01*
X80163Y-60435D01*
X80120Y-60490D01*
X80300Y-60670D01*
X80479Y-60490D01*
X80479Y-61309D01*
X80300Y-61129D01*
X80120Y-61309D01*
X80163Y-61364D01*
X80351Y-61381D01*
X80436Y-61364D01*
X80479Y-61309D01*
X80479Y-61844D01*
X80451Y-61826D01*
X80380Y-61812D01*
X80070Y-61812D01*
X80070Y-60900D01*
X79890Y-60720D01*
X79835Y-60763D01*
X79818Y-60951D01*
X79835Y-61036D01*
X79890Y-61079D01*
X80070Y-60900D01*
X80070Y-61812D01*
X79763Y-61812D01*
X79763Y-59308D01*
X79693Y-59137D01*
X79562Y-59007D01*
X79392Y-58936D01*
X79208Y-58936D01*
X79037Y-59006D01*
X78907Y-59137D01*
X78836Y-59307D01*
X78836Y-59491D01*
X78906Y-59662D01*
X79037Y-59792D01*
X79207Y-59863D01*
X79391Y-59863D01*
X79562Y-59793D01*
X79692Y-59662D01*
X79763Y-59492D01*
X79763Y-59308D01*
X79763Y-61812D01*
X76817Y-61812D01*
X75047Y-60042D01*
X75047Y-59797D01*
X75207Y-59863D01*
X75391Y-59863D01*
X75562Y-59793D01*
X75692Y-59662D01*
X75723Y-59587D01*
X75876Y-59587D01*
X75906Y-59662D01*
X76037Y-59792D01*
X76207Y-59863D01*
X76391Y-59863D01*
X76562Y-59793D01*
X76692Y-59662D01*
X76763Y-59492D01*
X76763Y-59308D01*
X76693Y-59137D01*
X76562Y-59007D01*
X76392Y-58936D01*
X76208Y-58936D01*
X76037Y-59006D01*
X75907Y-59137D01*
X75876Y-59212D01*
X75723Y-59212D01*
X75693Y-59137D01*
X75562Y-59007D01*
X75392Y-58936D01*
X75208Y-58936D01*
X75047Y-59002D01*
X75047Y-58617D01*
X75114Y-58550D01*
X75228Y-58626D01*
X75400Y-58661D01*
X75571Y-58626D01*
X75717Y-58529D01*
X75814Y-58384D01*
X75848Y-58212D01*
X75848Y-57787D01*
X75814Y-57615D01*
X75756Y-57529D01*
X76043Y-57529D01*
X75985Y-57615D01*
X75951Y-57787D01*
X75951Y-58212D01*
X75985Y-58384D01*
X76082Y-58529D01*
X76228Y-58626D01*
X76400Y-58661D01*
X76571Y-58626D01*
X76717Y-58529D01*
X76814Y-58384D01*
X76848Y-58212D01*
X76848Y-57787D01*
X76814Y-57615D01*
X76756Y-57529D01*
X77043Y-57529D01*
X76985Y-57615D01*
X76951Y-57787D01*
X76951Y-58212D01*
X76985Y-58384D01*
X77082Y-58529D01*
X77228Y-58626D01*
X77400Y-58661D01*
X77571Y-58626D01*
X77622Y-58593D01*
X77622Y-59066D01*
X77562Y-59007D01*
X77392Y-58936D01*
X77208Y-58936D01*
X77037Y-59006D01*
X76907Y-59137D01*
X76836Y-59307D01*
X76836Y-59491D01*
X76906Y-59662D01*
X77037Y-59792D01*
X77207Y-59863D01*
X77391Y-59863D01*
X77562Y-59793D01*
X77622Y-59733D01*
X77622Y-60130D01*
X77593Y-60200D01*
X77593Y-60298D01*
X77630Y-60389D01*
X77699Y-60459D01*
X77790Y-60496D01*
X77888Y-60496D01*
X77979Y-60459D01*
X78049Y-60390D01*
X78086Y-60299D01*
X78086Y-60201D01*
X78049Y-60110D01*
X77997Y-60058D01*
X77997Y-59753D01*
X78037Y-59792D01*
X78207Y-59863D01*
X78391Y-59863D01*
X78562Y-59793D01*
X78692Y-59662D01*
X78763Y-59492D01*
X78763Y-59308D01*
X78693Y-59137D01*
X78562Y-59007D01*
X78392Y-58936D01*
X78208Y-58936D01*
X78037Y-59006D01*
X77997Y-59046D01*
X77997Y-58653D01*
X78107Y-58762D01*
X78107Y-58762D01*
X78168Y-58803D01*
X78168Y-58803D01*
X78240Y-58817D01*
X78770Y-58817D01*
X78841Y-58803D01*
X78902Y-58762D01*
X79114Y-58550D01*
X79228Y-58626D01*
X79400Y-58661D01*
X79571Y-58626D01*
X79717Y-58529D01*
X79814Y-58384D01*
X79848Y-58212D01*
X79848Y-57787D01*
X79814Y-57615D01*
X79717Y-57470D01*
X79571Y-57373D01*
X79400Y-57338D01*
X79228Y-57373D01*
X79082Y-57470D01*
X78985Y-57615D01*
X78951Y-57787D01*
X78951Y-58182D01*
X78830Y-58304D01*
X78848Y-58212D01*
X78848Y-57787D01*
X78814Y-57615D01*
X78717Y-57470D01*
X78571Y-57373D01*
X78492Y-57357D01*
X78288Y-57152D01*
X89426Y-57152D01*
X89822Y-57548D01*
X89822Y-62000D01*
X89835Y-62068D01*
X89874Y-62125D01*
X90822Y-63073D01*
X90822Y-64750D01*
X90825Y-64767D01*
X90825Y-64784D01*
X90844Y-64880D01*
X90870Y-64944D01*
X90871Y-64944D01*
X90925Y-65025D01*
X90925Y-65025D01*
X90945Y-65046D01*
X90945Y-65046D01*
G37*
G54D34*
X90945Y-65046D02*
X90945Y-65077D01*
X90924Y-65098D01*
X90883Y-65196D01*
X90883Y-65302D01*
X90923Y-65400D01*
X90945Y-65422D01*
X90945Y-65453D01*
X90924Y-65474D01*
X90883Y-65571D01*
X90883Y-65677D01*
X90923Y-65775D01*
X90944Y-65796D01*
X90944Y-65828D01*
X90924Y-65848D01*
X90883Y-65946D01*
X90883Y-66052D01*
X90923Y-66150D01*
X90943Y-66170D01*
X90943Y-66205D01*
X90925Y-66224D01*
X90925Y-66224D01*
X90871Y-66305D01*
X90870Y-66305D01*
X90870Y-66307D01*
X89448Y-64885D01*
X89448Y-58212D01*
X89448Y-57787D01*
X89414Y-57615D01*
X89317Y-57470D01*
X89171Y-57373D01*
X89000Y-57338D01*
X88828Y-57373D01*
X88682Y-57470D01*
X88585Y-57615D01*
X88551Y-57787D01*
X88551Y-58212D01*
X88585Y-58384D01*
X88682Y-58529D01*
X88828Y-58626D01*
X89000Y-58661D01*
X89171Y-58626D01*
X89317Y-58529D01*
X89414Y-58384D01*
X89448Y-58212D01*
X89448Y-64885D01*
X89031Y-64468D01*
X89031Y-60898D01*
X89014Y-60813D01*
X88959Y-60770D01*
X88779Y-60950D01*
X88959Y-61129D01*
X89014Y-61086D01*
X89031Y-60898D01*
X89031Y-64468D01*
X89014Y-64452D01*
X89015Y-64357D01*
X88944Y-64186D01*
X88877Y-64119D01*
X88877Y-63425D01*
X88904Y-63425D01*
X88959Y-63402D01*
X89002Y-63360D01*
X89024Y-63304D01*
X89025Y-63245D01*
X89025Y-62595D01*
X89002Y-62540D01*
X88960Y-62497D01*
X88904Y-62475D01*
X88845Y-62474D01*
X88729Y-62474D01*
X88273Y-62474D01*
X88273Y-61356D01*
X88423Y-61506D01*
X88507Y-61423D01*
X88601Y-61431D01*
X88686Y-61414D01*
X88729Y-61359D01*
X88550Y-61179D01*
X88444Y-61285D01*
X88273Y-61114D01*
X88273Y-60996D01*
X88320Y-60950D01*
X88273Y-60903D01*
X88273Y-60785D01*
X88444Y-60614D01*
X88550Y-60720D01*
X88729Y-60540D01*
X88686Y-60485D01*
X88498Y-60468D01*
X88423Y-60393D01*
X88273Y-60543D01*
X88273Y-59992D01*
X88383Y-59882D01*
X88457Y-59913D01*
X88641Y-59913D01*
X88812Y-59843D01*
X88942Y-59712D01*
X89013Y-59542D01*
X89013Y-59358D01*
X88943Y-59187D01*
X88812Y-59057D01*
X88642Y-58986D01*
X88458Y-58986D01*
X88448Y-58990D01*
X88448Y-58212D01*
X88448Y-57787D01*
X88414Y-57615D01*
X88317Y-57470D01*
X88171Y-57373D01*
X88000Y-57338D01*
X87828Y-57373D01*
X87682Y-57470D01*
X87585Y-57615D01*
X87551Y-57787D01*
X87551Y-58212D01*
X87585Y-58384D01*
X87682Y-58529D01*
X87828Y-58626D01*
X88000Y-58661D01*
X88171Y-58626D01*
X88317Y-58529D01*
X88414Y-58384D01*
X88448Y-58212D01*
X88448Y-58990D01*
X88287Y-59056D01*
X88157Y-59187D01*
X88086Y-59357D01*
X88086Y-59541D01*
X88117Y-59616D01*
X88013Y-59720D01*
X88013Y-59358D01*
X87943Y-59187D01*
X87812Y-59057D01*
X87642Y-58986D01*
X87458Y-58986D01*
X87448Y-58990D01*
X87448Y-58212D01*
X87448Y-57787D01*
X87414Y-57615D01*
X87317Y-57470D01*
X87171Y-57373D01*
X87000Y-57338D01*
X86828Y-57373D01*
X86682Y-57470D01*
X86585Y-57615D01*
X86551Y-57787D01*
X86551Y-58212D01*
X86585Y-58384D01*
X86682Y-58529D01*
X86828Y-58626D01*
X87000Y-58661D01*
X87171Y-58626D01*
X87317Y-58529D01*
X87414Y-58384D01*
X87448Y-58212D01*
X87448Y-58990D01*
X87287Y-59056D01*
X87157Y-59187D01*
X87086Y-59357D01*
X87086Y-59541D01*
X87156Y-59712D01*
X87287Y-59842D01*
X87457Y-59913D01*
X87641Y-59913D01*
X87812Y-59843D01*
X87942Y-59712D01*
X88013Y-59542D01*
X88013Y-59358D01*
X88013Y-59720D01*
X87952Y-59781D01*
X87911Y-59842D01*
X87897Y-59914D01*
X87897Y-64325D01*
X87772Y-64450D01*
X87897Y-64574D01*
X87897Y-65311D01*
X87855Y-65268D01*
X87726Y-65215D01*
X87726Y-64849D01*
X87726Y-64050D01*
X87685Y-63995D01*
X87501Y-63978D01*
X87414Y-63995D01*
X87373Y-64050D01*
X87550Y-64227D01*
X87726Y-64050D01*
X87726Y-64849D01*
X87550Y-64672D01*
X87373Y-64849D01*
X87414Y-64904D01*
X87598Y-64921D01*
X87685Y-64904D01*
X87726Y-64849D01*
X87726Y-65215D01*
X87689Y-65200D01*
X87510Y-65199D01*
X87504Y-65202D01*
X87327Y-65025D01*
X87327Y-64450D01*
X87150Y-64273D01*
X87095Y-64314D01*
X87078Y-64498D01*
X87095Y-64585D01*
X87150Y-64626D01*
X87327Y-64450D01*
X87327Y-65025D01*
X87175Y-64874D01*
X87095Y-64820D01*
X87000Y-64801D01*
X86855Y-64801D01*
X86943Y-64713D01*
X87014Y-64542D01*
X87015Y-64357D01*
X87013Y-64354D01*
X87013Y-59358D01*
X86943Y-59187D01*
X86812Y-59057D01*
X86642Y-58986D01*
X86458Y-58986D01*
X86448Y-58990D01*
X86448Y-58212D01*
X86448Y-57787D01*
X86414Y-57615D01*
X86317Y-57470D01*
X86171Y-57373D01*
X86000Y-57338D01*
X85828Y-57373D01*
X85682Y-57470D01*
X85585Y-57615D01*
X85551Y-57787D01*
X85551Y-58212D01*
X85585Y-58384D01*
X85682Y-58529D01*
X85828Y-58626D01*
X86000Y-58661D01*
X86171Y-58626D01*
X86317Y-58529D01*
X86414Y-58384D01*
X86448Y-58212D01*
X86448Y-58990D01*
X86287Y-59056D01*
X86157Y-59187D01*
X86086Y-59357D01*
X86086Y-59541D01*
X86156Y-59712D01*
X86287Y-59842D01*
X86457Y-59913D01*
X86641Y-59913D01*
X86812Y-59843D01*
X86942Y-59712D01*
X87013Y-59542D01*
X87013Y-59358D01*
X87013Y-64354D01*
X86944Y-64186D01*
X86813Y-64056D01*
X86642Y-63985D01*
X86457Y-63984D01*
X86286Y-64055D01*
X86156Y-64186D01*
X86085Y-64357D01*
X86085Y-64423D01*
X86013Y-64352D01*
X86013Y-59358D01*
X85943Y-59187D01*
X85812Y-59057D01*
X85642Y-58986D01*
X85458Y-58986D01*
X85287Y-59056D01*
X85157Y-59187D01*
X85086Y-59357D01*
X85086Y-59541D01*
X85156Y-59712D01*
X85287Y-59842D01*
X85457Y-59913D01*
X85641Y-59913D01*
X85812Y-59843D01*
X85942Y-59712D01*
X86013Y-59542D01*
X86013Y-59358D01*
X86013Y-64352D01*
X86012Y-64350D01*
X85944Y-64186D01*
X85813Y-64056D01*
X85642Y-63985D01*
X85457Y-63984D01*
X85286Y-64055D01*
X85156Y-64186D01*
X85085Y-64357D01*
X85085Y-64453D01*
X85015Y-64383D01*
X85015Y-64357D01*
X84944Y-64186D01*
X84813Y-64056D01*
X84642Y-63985D01*
X84457Y-63984D01*
X84286Y-64055D01*
X84156Y-64186D01*
X84085Y-64357D01*
X84084Y-64542D01*
X84149Y-64698D01*
X84008Y-64557D01*
X84014Y-64542D01*
X84015Y-64357D01*
X83944Y-64186D01*
X83813Y-64056D01*
X83642Y-63985D01*
X83457Y-63984D01*
X83286Y-64055D01*
X83282Y-64059D01*
X83282Y-60671D01*
X84199Y-59754D01*
X84287Y-59842D01*
X84457Y-59913D01*
X84641Y-59913D01*
X84812Y-59843D01*
X84942Y-59712D01*
X85013Y-59542D01*
X85013Y-59358D01*
X84943Y-59187D01*
X84812Y-59057D01*
X84653Y-58991D01*
X84858Y-58786D01*
X85000Y-58786D01*
X85071Y-58771D01*
X85132Y-58731D01*
X85173Y-58670D01*
X85183Y-58618D01*
X85317Y-58529D01*
X85414Y-58384D01*
X85448Y-58212D01*
X85448Y-57787D01*
X85414Y-57615D01*
X85317Y-57470D01*
X85171Y-57373D01*
X85000Y-57338D01*
X84828Y-57373D01*
X84682Y-57470D01*
X84585Y-57615D01*
X84551Y-57787D01*
X84551Y-58212D01*
X84585Y-58384D01*
X84643Y-58470D01*
X83975Y-59138D01*
X83942Y-59187D01*
X83812Y-59057D01*
X83642Y-58986D01*
X83458Y-58986D01*
X83287Y-59056D01*
X83157Y-59187D01*
X83086Y-59357D01*
X83086Y-59541D01*
X83156Y-59712D01*
X83287Y-59842D01*
X83457Y-59913D01*
X83510Y-59913D01*
X83013Y-60409D01*
X83013Y-59358D01*
X82943Y-59187D01*
X82812Y-59057D01*
X82642Y-58986D01*
X82458Y-58986D01*
X82287Y-59056D01*
X82157Y-59187D01*
X82086Y-59357D01*
X82086Y-59541D01*
X82156Y-59712D01*
X82287Y-59842D01*
X82457Y-59913D01*
X82641Y-59913D01*
X82812Y-59843D01*
X82942Y-59712D01*
X83013Y-59542D01*
X83013Y-59358D01*
X83013Y-60409D01*
X82962Y-60461D01*
X82921Y-60522D01*
X82907Y-60594D01*
X82907Y-60672D01*
X82804Y-60570D01*
X82639Y-60501D01*
X82461Y-60501D01*
X82296Y-60569D01*
X82237Y-60628D01*
X82237Y-60566D01*
X82237Y-60565D01*
X82223Y-60493D01*
X82182Y-60432D01*
X81657Y-59906D01*
X81812Y-59843D01*
X81942Y-59712D01*
X82013Y-59542D01*
X82013Y-59358D01*
X81982Y-59283D01*
X82449Y-58816D01*
X84000Y-58816D01*
X84071Y-58801D01*
X84132Y-58761D01*
X84173Y-58700D01*
X84187Y-58628D01*
X84187Y-58616D01*
X84317Y-58529D01*
X84414Y-58384D01*
X84448Y-58212D01*
X84448Y-57787D01*
X84414Y-57615D01*
X84317Y-57470D01*
X84171Y-57373D01*
X84000Y-57338D01*
X83828Y-57373D01*
X83682Y-57470D01*
X83585Y-57615D01*
X83551Y-57787D01*
X83551Y-58212D01*
X83585Y-58384D01*
X83623Y-58440D01*
X83376Y-58440D01*
X83414Y-58384D01*
X83448Y-58212D01*
X83448Y-57787D01*
X83414Y-57615D01*
X83317Y-57470D01*
X83171Y-57373D01*
X83000Y-57338D01*
X82828Y-57373D01*
X82682Y-57470D01*
X82585Y-57615D01*
X82551Y-57787D01*
X82551Y-58212D01*
X82585Y-58384D01*
X82623Y-58440D01*
X82376Y-58440D01*
X82414Y-58384D01*
X82448Y-58212D01*
X82448Y-57787D01*
X82414Y-57615D01*
X82317Y-57470D01*
X82171Y-57373D01*
X82000Y-57338D01*
X81828Y-57373D01*
X81682Y-57470D01*
X81585Y-57615D01*
X81551Y-57787D01*
X81551Y-58212D01*
X81585Y-58384D01*
X81643Y-58470D01*
X81001Y-59112D01*
X80960Y-59173D01*
X80946Y-59244D01*
X80946Y-59649D01*
X80960Y-59721D01*
X81001Y-59782D01*
X81778Y-60559D01*
X81639Y-60501D01*
X81461Y-60501D01*
X81296Y-60569D01*
X81170Y-60695D01*
X81101Y-60860D01*
X81101Y-61038D01*
X81169Y-61203D01*
X81295Y-61329D01*
X81460Y-61398D01*
X81638Y-61398D01*
X81803Y-61330D01*
X81862Y-61271D01*
X81862Y-61628D01*
X81804Y-61570D01*
X81639Y-61501D01*
X81461Y-61501D01*
X81296Y-61569D01*
X81170Y-61695D01*
X81101Y-61860D01*
X81101Y-62038D01*
X81169Y-62203D01*
X81295Y-62329D01*
X81460Y-62398D01*
X81638Y-62398D01*
X81803Y-62330D01*
X81862Y-62271D01*
X81862Y-62628D01*
X81804Y-62570D01*
X81639Y-62501D01*
X81461Y-62501D01*
X81296Y-62569D01*
X81170Y-62695D01*
X81101Y-62860D01*
X81101Y-63038D01*
X81169Y-63203D01*
X81295Y-63329D01*
X81460Y-63398D01*
X81638Y-63398D01*
X81803Y-63330D01*
X81862Y-63271D01*
X81862Y-64093D01*
X81669Y-63900D01*
X81583Y-63986D01*
X81501Y-63978D01*
X81414Y-63995D01*
X81373Y-64050D01*
X81550Y-64227D01*
X81659Y-64117D01*
X81726Y-64185D01*
X81862Y-64320D01*
X81862Y-64360D01*
X81772Y-64450D01*
X81862Y-64539D01*
X81862Y-64579D01*
X81726Y-64714D01*
X81659Y-64782D01*
X81550Y-64672D01*
X81373Y-64849D01*
X81414Y-64904D01*
X81590Y-64920D01*
X81669Y-64999D01*
X81726Y-64942D01*
X81862Y-64806D01*
X81862Y-65325D01*
X81805Y-65268D01*
X81726Y-65236D01*
X81639Y-65200D01*
X81460Y-65199D01*
X81327Y-65255D01*
X81327Y-64450D01*
X81150Y-64273D01*
X81095Y-64314D01*
X81078Y-64498D01*
X81095Y-64585D01*
X81150Y-64626D01*
X81327Y-64450D01*
X81327Y-65255D01*
X81295Y-65268D01*
X81168Y-65394D01*
X81100Y-65560D01*
X81099Y-65739D01*
X81168Y-65904D01*
X81294Y-66031D01*
X81460Y-66099D01*
X81639Y-66100D01*
X81804Y-66031D01*
X81862Y-65974D01*
X81862Y-66124D01*
X81876Y-66196D01*
X81917Y-66257D01*
X82667Y-67007D01*
X82636Y-67082D01*
X82636Y-67266D01*
X82706Y-67436D01*
X82837Y-67567D01*
X83007Y-67638D01*
X83191Y-67638D01*
X83362Y-67567D01*
X83492Y-67437D01*
X83563Y-67267D01*
X83563Y-67083D01*
X83493Y-66912D01*
X83362Y-66782D01*
X83192Y-66711D01*
X83008Y-66711D01*
X82933Y-66742D01*
X82237Y-66047D01*
X82237Y-65974D01*
X82294Y-66031D01*
X82460Y-66099D01*
X82639Y-66100D01*
X82804Y-66031D01*
X82907Y-65929D01*
X82907Y-66169D01*
X82921Y-66241D01*
X82962Y-66302D01*
X83667Y-67007D01*
X83636Y-67082D01*
X83636Y-67266D01*
X83706Y-67436D01*
X83837Y-67567D01*
X84007Y-67638D01*
X84191Y-67638D01*
X84362Y-67567D01*
X84492Y-67437D01*
X84563Y-67267D01*
X84563Y-67083D01*
X84493Y-66912D01*
X84362Y-66782D01*
X84192Y-66711D01*
X84008Y-66711D01*
X83933Y-66742D01*
X83282Y-66091D01*
X83282Y-66019D01*
X83294Y-66031D01*
X83460Y-66099D01*
X83639Y-66100D01*
X83804Y-66031D01*
X83931Y-65905D01*
X83999Y-65739D01*
X84000Y-65560D01*
X83931Y-65395D01*
X83805Y-65268D01*
X83639Y-65200D01*
X83460Y-65199D01*
X83295Y-65268D01*
X83282Y-65281D01*
X83282Y-64840D01*
X83286Y-64843D01*
X83457Y-64914D01*
X83642Y-64915D01*
X83657Y-64908D01*
X83994Y-65245D01*
X83994Y-65245D01*
X84048Y-65281D01*
X84074Y-65299D01*
X84074Y-65299D01*
X84105Y-65305D01*
X84100Y-65320D01*
X84099Y-65379D01*
X84099Y-65979D01*
X84122Y-66034D01*
X84164Y-66077D01*
X84220Y-66099D01*
X84279Y-66100D01*
X84879Y-66100D01*
X84934Y-66077D01*
X84977Y-66035D01*
X84999Y-65979D01*
X85000Y-65920D01*
X85000Y-65491D01*
X85150Y-65641D01*
X85149Y-65739D01*
X85218Y-65904D01*
X85344Y-66031D01*
X85510Y-66099D01*
X85689Y-66100D01*
X85854Y-66031D01*
X85981Y-65905D01*
X86049Y-65739D01*
X86050Y-65560D01*
X86029Y-65510D01*
X86150Y-65631D01*
X86149Y-65739D01*
X86218Y-65904D01*
X86344Y-66031D01*
X86510Y-66099D01*
X86689Y-66100D01*
X86854Y-66031D01*
X86981Y-65905D01*
X87049Y-65739D01*
X87050Y-65560D01*
X86981Y-65395D01*
X86884Y-65298D01*
X86897Y-65298D01*
X87152Y-65553D01*
X87150Y-65560D01*
X87149Y-65739D01*
X87218Y-65904D01*
X87344Y-66031D01*
X87510Y-66099D01*
X87689Y-66100D01*
X87854Y-66031D01*
X87904Y-65982D01*
X87911Y-66021D01*
X87952Y-66082D01*
X88260Y-66390D01*
X88321Y-66430D01*
X88393Y-66445D01*
X89104Y-66445D01*
X89667Y-67007D01*
X89636Y-67082D01*
X89636Y-67266D01*
X89706Y-67436D01*
X89837Y-67567D01*
X90007Y-67638D01*
X90191Y-67638D01*
X90362Y-67567D01*
X90378Y-67551D01*
X90378Y-68269D01*
X90226Y-68117D01*
X90142Y-68201D01*
X90048Y-68193D01*
X89963Y-68210D01*
X89920Y-68265D01*
X90100Y-68444D01*
X90205Y-68339D01*
X90279Y-68412D01*
X90378Y-68511D01*
X90378Y-68626D01*
X90329Y-68674D01*
X90378Y-68723D01*
X90378Y-68791D01*
X90279Y-68890D01*
X90182Y-68987D01*
X90100Y-68904D01*
X89920Y-69084D01*
X89963Y-69139D01*
X90025Y-69144D01*
X89870Y-69299D01*
X89870Y-68674D01*
X89690Y-68495D01*
X89635Y-68538D01*
X89618Y-68726D01*
X89635Y-68811D01*
X89690Y-68854D01*
X89870Y-68674D01*
X89870Y-69299D01*
X89769Y-69400D01*
X89563Y-69193D01*
X89563Y-67083D01*
X89493Y-66912D01*
X89362Y-66782D01*
X89192Y-66711D01*
X89008Y-66711D01*
X88837Y-66781D01*
X88707Y-66911D01*
X88636Y-67082D01*
X88636Y-67266D01*
X88706Y-67436D01*
X88837Y-67567D01*
X89007Y-67638D01*
X89191Y-67638D01*
X89362Y-67567D01*
X89492Y-67437D01*
X89563Y-67267D01*
X89563Y-67083D01*
X89563Y-69193D01*
X88563Y-68193D01*
X88563Y-67083D01*
X88493Y-66912D01*
X88362Y-66782D01*
X88192Y-66711D01*
X88008Y-66711D01*
X87837Y-66781D01*
X87707Y-66911D01*
X87636Y-67082D01*
X87636Y-67266D01*
X87706Y-67436D01*
X87837Y-67567D01*
X88007Y-67638D01*
X88191Y-67638D01*
X88362Y-67567D01*
X88492Y-67437D01*
X88563Y-67267D01*
X88563Y-67083D01*
X88563Y-68193D01*
X88228Y-67859D01*
X88122Y-67788D01*
X87997Y-67763D01*
X87563Y-67763D01*
X87563Y-67083D01*
X87493Y-66912D01*
X87362Y-66782D01*
X87192Y-66711D01*
X87008Y-66711D01*
X86837Y-66781D01*
X86707Y-66911D01*
X86636Y-67082D01*
X86636Y-67266D01*
X86706Y-67436D01*
X86837Y-67567D01*
X87007Y-67638D01*
X87191Y-67638D01*
X87362Y-67567D01*
X87492Y-67437D01*
X87563Y-67267D01*
X87563Y-67083D01*
X87563Y-67763D01*
X86563Y-67763D01*
X86563Y-67083D01*
X86493Y-66912D01*
X86362Y-66782D01*
X86192Y-66711D01*
X86008Y-66711D01*
X85837Y-66781D01*
X85707Y-66911D01*
X85676Y-66987D01*
X85523Y-66987D01*
X85493Y-66912D01*
X85362Y-66782D01*
X85192Y-66711D01*
X85008Y-66711D01*
X84837Y-66781D01*
X84707Y-66911D01*
X84636Y-67082D01*
X84636Y-67266D01*
X84706Y-67436D01*
X84837Y-67567D01*
X85007Y-67638D01*
X85191Y-67638D01*
X85362Y-67567D01*
X85492Y-67437D01*
X85523Y-67362D01*
X85676Y-67362D01*
X85706Y-67436D01*
X85837Y-67567D01*
X86007Y-67638D01*
X86191Y-67638D01*
X86362Y-67567D01*
X86492Y-67437D01*
X86563Y-67267D01*
X86563Y-67083D01*
X86563Y-67763D01*
X82834Y-67763D01*
X82709Y-67788D01*
X82603Y-67859D01*
X82603Y-67859D01*
X81977Y-68485D01*
X81773Y-68485D01*
X81829Y-68429D01*
X81898Y-68264D01*
X81898Y-68085D01*
X81830Y-67921D01*
X81704Y-67794D01*
X81539Y-67726D01*
X81361Y-67726D01*
X81196Y-67794D01*
X81070Y-67920D01*
X81001Y-68085D01*
X81001Y-68263D01*
X81069Y-68428D01*
X81126Y-68485D01*
X80906Y-68485D01*
X80787Y-68485D01*
X80906Y-68365D01*
X80988Y-68283D01*
X80906Y-68201D01*
X80900Y-68194D01*
X80906Y-68130D01*
X80906Y-67130D01*
X80888Y-67041D01*
X80834Y-67002D01*
X80662Y-67174D01*
X80834Y-67347D01*
X80888Y-67308D01*
X80906Y-67130D01*
X80906Y-68130D01*
X80888Y-68041D01*
X80834Y-68002D01*
X80662Y-68174D01*
X80768Y-68280D01*
X80622Y-68426D01*
X80622Y-67790D01*
X80622Y-67559D01*
X80622Y-66790D01*
X80583Y-66735D01*
X80405Y-66718D01*
X80316Y-66735D01*
X80277Y-66790D01*
X80450Y-66962D01*
X80622Y-66790D01*
X80622Y-67559D01*
X80450Y-67386D01*
X80277Y-67559D01*
X80316Y-67613D01*
X80494Y-67631D01*
X80583Y-67613D01*
X80622Y-67559D01*
X80622Y-67790D01*
X80583Y-67735D01*
X80405Y-67718D01*
X80316Y-67735D01*
X80277Y-67790D01*
X80450Y-67962D01*
X80622Y-67790D01*
X80622Y-68426D01*
X80564Y-68485D01*
X80548Y-68485D01*
X80450Y-68386D01*
X80351Y-68485D01*
X80335Y-68485D01*
X80237Y-68386D01*
X80131Y-68280D01*
X80237Y-68174D01*
X80237Y-67174D01*
X80065Y-67002D01*
X80011Y-67041D01*
X79993Y-67219D01*
X80011Y-67308D01*
X80065Y-67347D01*
X80237Y-67174D01*
X80237Y-68174D01*
X80065Y-68002D01*
X80011Y-68041D01*
X79995Y-68199D01*
X79911Y-68283D01*
X80112Y-68485D01*
X79898Y-68485D01*
X79898Y-68445D01*
X79898Y-67845D01*
X79875Y-67790D01*
X79834Y-67749D01*
X79779Y-67726D01*
X79720Y-67726D01*
X79637Y-67726D01*
X79637Y-67623D01*
X79779Y-67623D01*
X79833Y-67600D01*
X79875Y-67558D01*
X79898Y-67504D01*
X79898Y-67445D01*
X79898Y-66991D01*
X79932Y-66957D01*
X79932Y-66957D01*
X79932Y-66957D01*
X79973Y-66896D01*
X79973Y-66896D01*
X79987Y-66824D01*
X79987Y-66824D01*
X79987Y-66049D01*
X80029Y-66050D01*
X80629Y-66050D01*
X80684Y-66027D01*
X80692Y-66019D01*
X80692Y-66060D01*
X80706Y-66131D01*
X80747Y-66192D01*
X81262Y-66707D01*
X81262Y-66767D01*
X81196Y-66794D01*
X81070Y-66920D01*
X81001Y-67085D01*
X81001Y-67263D01*
X81069Y-67428D01*
X81195Y-67554D01*
X81360Y-67623D01*
X81538Y-67623D01*
X81703Y-67555D01*
X81829Y-67429D01*
X81898Y-67264D01*
X81898Y-67085D01*
X81830Y-66921D01*
X81704Y-66794D01*
X81637Y-66767D01*
X81637Y-66630D01*
X81623Y-66558D01*
X81623Y-66558D01*
X81582Y-66497D01*
X81067Y-65982D01*
X81067Y-62500D01*
X81053Y-62428D01*
X81012Y-62367D01*
X80848Y-62202D01*
X80848Y-58212D01*
X80848Y-57787D01*
X80814Y-57615D01*
X80717Y-57470D01*
X80571Y-57373D01*
X80400Y-57338D01*
X80228Y-57373D01*
X80082Y-57470D01*
X79985Y-57615D01*
X79951Y-57787D01*
X79951Y-58212D01*
X79985Y-58384D01*
X80082Y-58529D01*
X80157Y-58579D01*
X80126Y-58626D01*
X80112Y-58698D01*
X80112Y-58976D01*
X80037Y-59006D01*
X79907Y-59137D01*
X79836Y-59307D01*
X79836Y-59491D01*
X79906Y-59662D01*
X80037Y-59792D01*
X80207Y-59863D01*
X80391Y-59863D01*
X80562Y-59793D01*
X80692Y-59662D01*
X80763Y-59492D01*
X80763Y-59308D01*
X80693Y-59137D01*
X80562Y-59007D01*
X80487Y-58976D01*
X80487Y-58776D01*
X80532Y-58731D01*
X80573Y-58670D01*
X80583Y-58618D01*
X80717Y-58529D01*
X80814Y-58384D01*
X80848Y-58212D01*
X80848Y-62202D01*
X80781Y-62135D01*
X80781Y-60848D01*
X80764Y-60763D01*
X80709Y-60720D01*
X80529Y-60900D01*
X80709Y-61079D01*
X80764Y-61036D01*
X80781Y-60848D01*
X80781Y-62135D01*
X80512Y-61867D01*
X80479Y-61844D01*
X80479Y-61309D01*
X80479Y-60490D01*
X80436Y-60435D01*
X80248Y-60418D01*
X80163Y-60435D01*
X80120Y-60490D01*
X80300Y-60670D01*
X80479Y-60490D01*
X80479Y-61309D01*
X80300Y-61129D01*
X80120Y-61309D01*
X80163Y-61364D01*
X80351Y-61381D01*
X80436Y-61364D01*
X80479Y-61309D01*
X80479Y-61844D01*
X80451Y-61826D01*
X80380Y-61812D01*
X80070Y-61812D01*
X80070Y-60900D01*
X79890Y-60720D01*
X79835Y-60763D01*
X79818Y-60951D01*
X79835Y-61036D01*
X79890Y-61079D01*
X80070Y-60900D01*
X80070Y-61812D01*
X79763Y-61812D01*
X79763Y-59308D01*
X79693Y-59137D01*
X79562Y-59007D01*
X79392Y-58936D01*
X79208Y-58936D01*
X79037Y-59006D01*
X78907Y-59137D01*
X78836Y-59307D01*
X78836Y-59491D01*
X78906Y-59662D01*
X79037Y-59792D01*
X79207Y-59863D01*
X79391Y-59863D01*
X79562Y-59793D01*
X79692Y-59662D01*
X79763Y-59492D01*
X79763Y-59308D01*
X79763Y-61812D01*
X76817Y-61812D01*
X75047Y-60042D01*
X75047Y-59797D01*
X75207Y-59863D01*
X75391Y-59863D01*
X75562Y-59793D01*
X75692Y-59662D01*
X75723Y-59587D01*
X75876Y-59587D01*
X75906Y-59662D01*
X76037Y-59792D01*
X76207Y-59863D01*
X76391Y-59863D01*
X76562Y-59793D01*
X76692Y-59662D01*
X76763Y-59492D01*
X76763Y-59308D01*
X76693Y-59137D01*
X76562Y-59007D01*
X76392Y-58936D01*
X76208Y-58936D01*
X76037Y-59006D01*
X75907Y-59137D01*
X75876Y-59212D01*
X75723Y-59212D01*
X75693Y-59137D01*
X75562Y-59007D01*
X75392Y-58936D01*
X75208Y-58936D01*
X75047Y-59002D01*
X75047Y-58617D01*
X75114Y-58550D01*
X75228Y-58626D01*
X75400Y-58661D01*
X75571Y-58626D01*
X75717Y-58529D01*
X75814Y-58384D01*
X75848Y-58212D01*
X75848Y-57787D01*
X75814Y-57615D01*
X75756Y-57529D01*
X76043Y-57529D01*
X75985Y-57615D01*
X75951Y-57787D01*
X75951Y-58212D01*
X75985Y-58384D01*
X76082Y-58529D01*
X76228Y-58626D01*
X76400Y-58661D01*
X76571Y-58626D01*
X76717Y-58529D01*
X76814Y-58384D01*
X76848Y-58212D01*
X76848Y-57787D01*
X76814Y-57615D01*
X76756Y-57529D01*
X77043Y-57529D01*
X76985Y-57615D01*
X76951Y-57787D01*
X76951Y-58212D01*
X76985Y-58384D01*
X77082Y-58529D01*
X77228Y-58626D01*
X77400Y-58661D01*
X77571Y-58626D01*
X77622Y-58593D01*
X77622Y-59066D01*
X77562Y-59007D01*
X77392Y-58936D01*
X77208Y-58936D01*
X77037Y-59006D01*
X76907Y-59137D01*
X76836Y-59307D01*
X76836Y-59491D01*
X76906Y-59662D01*
X77037Y-59792D01*
X77207Y-59863D01*
X77391Y-59863D01*
X77562Y-59793D01*
X77622Y-59733D01*
X77622Y-60130D01*
X77593Y-60200D01*
X77593Y-60298D01*
X77630Y-60389D01*
X77699Y-60459D01*
X77790Y-60496D01*
X77888Y-60496D01*
X77979Y-60459D01*
X78049Y-60390D01*
X78086Y-60299D01*
X78086Y-60201D01*
X78049Y-60110D01*
X77997Y-60058D01*
X77997Y-59753D01*
X78037Y-59792D01*
X78207Y-59863D01*
X78391Y-59863D01*
X78562Y-59793D01*
X78692Y-59662D01*
X78763Y-59492D01*
X78763Y-59308D01*
X78693Y-59137D01*
X78562Y-59007D01*
X78392Y-58936D01*
X78208Y-58936D01*
X78037Y-59006D01*
X77997Y-59046D01*
X77997Y-58653D01*
X78107Y-58762D01*
X78107Y-58762D01*
X78168Y-58803D01*
X78168Y-58803D01*
X78240Y-58817D01*
X78770Y-58817D01*
X78841Y-58803D01*
X78902Y-58762D01*
X79114Y-58550D01*
X79228Y-58626D01*
X79400Y-58661D01*
X79571Y-58626D01*
X79717Y-58529D01*
X79814Y-58384D01*
X79848Y-58212D01*
X79848Y-57787D01*
X79814Y-57615D01*
X79717Y-57470D01*
X79571Y-57373D01*
X79400Y-57338D01*
X79228Y-57373D01*
X79082Y-57470D01*
X78985Y-57615D01*
X78951Y-57787D01*
X78951Y-58182D01*
X78830Y-58304D01*
X78848Y-58212D01*
X78848Y-57787D01*
X78814Y-57615D01*
X78717Y-57470D01*
X78571Y-57373D01*
X78492Y-57357D01*
X78288Y-57152D01*
X89426Y-57152D01*
X89822Y-57548D01*
X89822Y-62000D01*
X89835Y-62068D01*
X89874Y-62125D01*
X90822Y-63073D01*
X90822Y-64750D01*
X90825Y-64767D01*
X90825Y-64784D01*
X90844Y-64880D01*
X90870Y-64944D01*
X90871Y-64944D01*
X90925Y-65025D01*
X90925Y-65025D01*
X90945Y-65046D01*
M02*
